%TF.GenerationSoftware,Altium Limited,Altium Designer,26.5.1 (12)*%
G04 Layer_Color=65535*
G04 Board_Origin=0|0*
%FSLAX45Y45*%
%MOMM*%
%TF.SameCoordinates,62A7B766-ACB9-45BE-ACEC-DECC99EEDB6B*%
%TF.FilePolarity,Positive*%
%TF.FileFunction,Legend,Top*%
%TF.Part,Single*%
G01*
G75*
%TA.AperFunction,NonConductor*%
%ADD50C,0.25400*%
%ADD51C,0.10000*%
%ADD52C,0.25000*%
%ADD53C,0.20000*%
%ADD54C,0.17500*%
%ADD55C,0.15240*%
%ADD56C,0.12700*%
G36*
X4856712Y13568617D02*
Y13527313D01*
X4843743D01*
Y13568617D01*
X4806104Y13624864D01*
X4821751D01*
X4840923Y13595261D01*
Y13595120D01*
X4841205Y13594838D01*
X4841487Y13594415D01*
X4841910Y13593851D01*
X4842333Y13593146D01*
X4842897Y13592300D01*
X4844307Y13590186D01*
X4845857Y13587648D01*
X4847408Y13584830D01*
X4849240Y13581868D01*
X4850932Y13578767D01*
Y13578908D01*
X4851073Y13579190D01*
X4851355Y13579613D01*
X4851778Y13580177D01*
X4852201Y13580882D01*
X4852765Y13581728D01*
X4854033Y13583842D01*
X4855584Y13586378D01*
X4857417Y13589340D01*
X4859531Y13592583D01*
X4861787Y13596106D01*
X4880536Y13624864D01*
X4895620D01*
X4856712Y13568617D01*
D02*
G37*
G36*
X4947497Y13527313D02*
X4935514D01*
Y13603578D01*
X4935373Y13603436D01*
X4934668Y13602873D01*
X4933822Y13602026D01*
X4932413Y13601041D01*
X4930862Y13599773D01*
X4928889Y13598363D01*
X4926633Y13596811D01*
X4924096Y13595261D01*
X4923955D01*
X4923814Y13595120D01*
X4922968Y13594556D01*
X4921558Y13593851D01*
X4919866Y13593005D01*
X4917893Y13592018D01*
X4915778Y13591031D01*
X4913664Y13590045D01*
X4911549Y13589198D01*
Y13600758D01*
X4911690D01*
X4911972Y13601041D01*
X4912536Y13601181D01*
X4913241Y13601604D01*
X4914087Y13602026D01*
X4915073Y13602591D01*
X4917470Y13604001D01*
X4920289Y13605551D01*
X4923109Y13607526D01*
X4926069Y13609781D01*
X4929030Y13612177D01*
X4929170Y13612318D01*
X4929311Y13612459D01*
X4929734Y13612881D01*
X4930298Y13613306D01*
X4931567Y13614714D01*
X4933259Y13616406D01*
X4934950Y13618381D01*
X4936783Y13620634D01*
X4938334Y13622891D01*
X4939743Y13625287D01*
X4947497D01*
Y13527313D01*
D02*
G37*
G36*
X6051063Y12102626D02*
X6052332Y12102485D01*
X6053882Y12102344D01*
X6055433Y12102203D01*
X6057266Y12101780D01*
X6061072Y12100935D01*
X6065301Y12099666D01*
X6067416Y12098820D01*
X6069389Y12097833D01*
X6071363Y12096565D01*
X6073336Y12095296D01*
X6073477Y12095155D01*
X6073759Y12095014D01*
X6074323Y12094591D01*
X6075028Y12093886D01*
X6075733Y12093181D01*
X6076720Y12092195D01*
X6077706Y12091067D01*
X6078834Y12089939D01*
X6079962Y12088529D01*
X6081090Y12086838D01*
X6082358Y12085146D01*
X6083486Y12083313D01*
X6084473Y12081199D01*
X6085601Y12079084D01*
X6086447Y12076829D01*
X6087292Y12074291D01*
X6074605Y12071331D01*
Y12071472D01*
X6074464Y12071754D01*
X6074182Y12072318D01*
X6073900Y12073023D01*
X6073618Y12073868D01*
X6073195Y12074996D01*
X6072068Y12077252D01*
X6070658Y12079789D01*
X6068966Y12082327D01*
X6066852Y12084723D01*
X6064596Y12086838D01*
X6064314Y12087120D01*
X6063468Y12087683D01*
X6062059Y12088388D01*
X6060226Y12089375D01*
X6057830Y12090221D01*
X6055151Y12091067D01*
X6051909Y12091631D01*
X6048385Y12091772D01*
X6047257D01*
X6046552Y12091631D01*
X6045565D01*
X6044437Y12091490D01*
X6041759Y12091067D01*
X6038799Y12090503D01*
X6035697Y12089516D01*
X6032455Y12088106D01*
X6029495Y12086274D01*
X6029354D01*
X6029213Y12085992D01*
X6028226Y12085287D01*
X6026957Y12084159D01*
X6025407Y12082468D01*
X6023574Y12080353D01*
X6021882Y12077957D01*
X6020332Y12074996D01*
X6018922Y12071754D01*
Y12071613D01*
X6018781Y12071331D01*
X6018640Y12070908D01*
X6018499Y12070203D01*
X6018217Y12069357D01*
X6017935Y12068371D01*
X6017512Y12065974D01*
X6016948Y12063155D01*
X6016384Y12060053D01*
X6016103Y12056670D01*
X6015962Y12053005D01*
Y12052864D01*
Y12052441D01*
Y12051736D01*
Y12050890D01*
X6016103Y12049904D01*
Y12048635D01*
X6016243Y12047225D01*
X6016384Y12045674D01*
X6016807Y12042291D01*
X6017512Y12038626D01*
X6018358Y12034961D01*
X6019486Y12031295D01*
Y12031154D01*
X6019627Y12030873D01*
X6019909Y12030450D01*
X6020191Y12029745D01*
X6021036Y12028053D01*
X6022305Y12026080D01*
X6023856Y12023824D01*
X6025829Y12021428D01*
X6028085Y12019313D01*
X6030763Y12017339D01*
X6030904D01*
X6031186Y12017198D01*
X6031609Y12016917D01*
X6032173Y12016635D01*
X6032878Y12016353D01*
X6033724Y12015930D01*
X6035697Y12015084D01*
X6038235Y12014238D01*
X6041054Y12013533D01*
X6044156Y12012969D01*
X6047398Y12012828D01*
X6048385D01*
X6049230Y12012969D01*
X6050217D01*
X6051204Y12013110D01*
X6053742Y12013674D01*
X6056702Y12014379D01*
X6059662Y12015507D01*
X6062764Y12017057D01*
X6064314Y12017903D01*
X6065724Y12019031D01*
X6065865Y12019172D01*
X6066006Y12019313D01*
X6066429Y12019736D01*
X6066993Y12020159D01*
X6067557Y12020864D01*
X6068261Y12021710D01*
X6069107Y12022555D01*
X6069812Y12023683D01*
X6070658Y12024952D01*
X6071645Y12026362D01*
X6072491Y12027771D01*
X6073336Y12029463D01*
X6074041Y12031295D01*
X6074746Y12033269D01*
X6075451Y12035384D01*
X6076015Y12037639D01*
X6088984Y12034397D01*
Y12034256D01*
X6088843Y12033692D01*
X6088561Y12032846D01*
X6088138Y12031718D01*
X6087715Y12030450D01*
X6087151Y12028899D01*
X6086447Y12027207D01*
X6085601Y12025375D01*
X6083627Y12021428D01*
X6081090Y12017480D01*
X6079539Y12015507D01*
X6077988Y12013533D01*
X6076297Y12011842D01*
X6074323Y12010150D01*
X6074182Y12010009D01*
X6073900Y12009727D01*
X6073195Y12009445D01*
X6072491Y12008881D01*
X6071363Y12008176D01*
X6070235Y12007472D01*
X6068684Y12006767D01*
X6067134Y12006062D01*
X6065301Y12005216D01*
X6063327Y12004511D01*
X6061213Y12003806D01*
X6058957Y12003101D01*
X6056561Y12002538D01*
X6054023Y12002256D01*
X6051345Y12001974D01*
X6048526Y12001833D01*
X6046975D01*
X6045847Y12001974D01*
X6044578D01*
X6043028Y12002115D01*
X6041336Y12002397D01*
X6039363Y12002679D01*
X6035274Y12003383D01*
X6031045Y12004511D01*
X6026816Y12006062D01*
X6024843Y12007049D01*
X6022869Y12008176D01*
X6022728Y12008317D01*
X6022446Y12008458D01*
X6021882Y12008881D01*
X6021318Y12009445D01*
X6020473Y12010009D01*
X6019486Y12010855D01*
X6018358Y12011842D01*
X6017230Y12012969D01*
X6016103Y12014238D01*
X6014834Y12015507D01*
X6012296Y12018749D01*
X6009900Y12022555D01*
X6007785Y12026784D01*
Y12026925D01*
X6007503Y12027348D01*
X6007362Y12028053D01*
X6006939Y12028899D01*
X6006658Y12030027D01*
X6006235Y12031436D01*
X6005671Y12032987D01*
X6005248Y12034679D01*
X6004825Y12036511D01*
X6004261Y12038626D01*
X6003556Y12042996D01*
X6002992Y12047930D01*
X6002710Y12053005D01*
Y12053146D01*
Y12053710D01*
Y12054556D01*
X6002851Y12055542D01*
Y12056952D01*
X6002992Y12058362D01*
X6003133Y12060194D01*
X6003415Y12062027D01*
X6004120Y12066115D01*
X6005107Y12070626D01*
X6006517Y12075137D01*
X6008490Y12079507D01*
X6008631Y12079648D01*
X6008772Y12080071D01*
X6009054Y12080635D01*
X6009618Y12081340D01*
X6010182Y12082327D01*
X6010887Y12083454D01*
X6012719Y12085992D01*
X6015116Y12088811D01*
X6017935Y12091631D01*
X6021177Y12094450D01*
X6024984Y12096847D01*
X6025125Y12096987D01*
X6025548Y12097128D01*
X6026111Y12097410D01*
X6026816Y12097833D01*
X6027944Y12098256D01*
X6029072Y12098679D01*
X6030481Y12099243D01*
X6032032Y12099807D01*
X6033724Y12100371D01*
X6035556Y12100935D01*
X6039504Y12101780D01*
X6044015Y12102485D01*
X6048667Y12102767D01*
X6050076D01*
X6051063Y12102626D01*
D02*
G37*
G36*
X6145090Y12003524D02*
X6133108D01*
Y12079789D01*
X6132967Y12079648D01*
X6132262Y12079084D01*
X6131416Y12078238D01*
X6130006Y12077252D01*
X6128456Y12075983D01*
X6126482Y12074573D01*
X6124227Y12073023D01*
X6121689Y12071472D01*
X6121548D01*
X6121407Y12071331D01*
X6120561Y12070767D01*
X6119152Y12070062D01*
X6117460Y12069216D01*
X6115486Y12068230D01*
X6113372Y12067243D01*
X6111257Y12066256D01*
X6109143Y12065410D01*
Y12076970D01*
X6109284D01*
X6109566Y12077252D01*
X6110130Y12077393D01*
X6110834Y12077816D01*
X6111680Y12078238D01*
X6112667Y12078802D01*
X6115063Y12080212D01*
X6117883Y12081763D01*
X6120702Y12083736D01*
X6123663Y12085992D01*
X6126623Y12088388D01*
X6126764Y12088529D01*
X6126905Y12088670D01*
X6127328Y12089093D01*
X6127892Y12089516D01*
X6129160Y12090926D01*
X6130852Y12092617D01*
X6132544Y12094591D01*
X6134376Y12096847D01*
X6135927Y12099102D01*
X6137337Y12101499D01*
X6145090D01*
Y12003524D01*
D02*
G37*
G36*
X5983679D02*
X5970710D01*
Y12101076D01*
X5983679D01*
Y12003524D01*
D02*
G37*
G36*
X5974787Y11127013D02*
X5962804D01*
Y11203278D01*
X5962663Y11203137D01*
X5961959Y11202573D01*
X5961113Y11201727D01*
X5959703Y11200740D01*
X5958152Y11199472D01*
X5956179Y11198062D01*
X5953923Y11196511D01*
X5951386Y11194961D01*
X5951245D01*
X5951104Y11194820D01*
X5950258Y11194256D01*
X5948848Y11193551D01*
X5947157Y11192705D01*
X5945183Y11191718D01*
X5943069Y11190731D01*
X5940954Y11189745D01*
X5938840Y11188899D01*
Y11200458D01*
X5938981D01*
X5939262Y11200740D01*
X5939826Y11200881D01*
X5940531Y11201304D01*
X5941377Y11201727D01*
X5942364Y11202291D01*
X5944760Y11203701D01*
X5947580Y11205251D01*
X5950399Y11207225D01*
X5953359Y11209481D01*
X5956320Y11211877D01*
X5956461Y11212018D01*
X5956602Y11212159D01*
X5957025Y11212582D01*
X5957589Y11213005D01*
X5958857Y11214414D01*
X5960549Y11216106D01*
X5962241Y11218080D01*
X5964073Y11220335D01*
X5965624Y11222591D01*
X5967034Y11224987D01*
X5974787D01*
Y11127013D01*
D02*
G37*
G36*
X5876249Y11224423D02*
X5879068Y11224282D01*
X5881888Y11224000D01*
X5884707Y11223578D01*
X5887104Y11223155D01*
X5887245D01*
X5887526Y11223014D01*
X5887949D01*
X5888513Y11222732D01*
X5890064Y11222309D01*
X5892037Y11221604D01*
X5894293Y11220617D01*
X5896690Y11219348D01*
X5899086Y11217939D01*
X5901342Y11216106D01*
X5901482Y11215965D01*
X5901623Y11215824D01*
X5902046Y11215401D01*
X5902610Y11214978D01*
X5904020Y11213569D01*
X5905712Y11211595D01*
X5907544Y11209199D01*
X5909518Y11206379D01*
X5911350Y11203137D01*
X5912901Y11199472D01*
Y11199331D01*
X5913042Y11199049D01*
X5913324Y11198485D01*
X5913465Y11197639D01*
X5913888Y11196652D01*
X5914170Y11195524D01*
X5914452Y11194256D01*
X5914875Y11192705D01*
X5915298Y11191154D01*
X5915579Y11189322D01*
X5916284Y11185375D01*
X5916707Y11181005D01*
X5916848Y11176212D01*
Y11176071D01*
Y11175789D01*
Y11175084D01*
Y11174379D01*
X5916707Y11173392D01*
Y11172264D01*
X5916566Y11169586D01*
X5916143Y11166485D01*
X5915720Y11163242D01*
X5915016Y11159859D01*
X5914170Y11156476D01*
Y11156335D01*
X5914029Y11156053D01*
X5913888Y11155630D01*
X5913747Y11155066D01*
X5913183Y11153515D01*
X5912337Y11151542D01*
X5911491Y11149286D01*
X5910364Y11147031D01*
X5908954Y11144634D01*
X5907544Y11142379D01*
X5907403Y11142097D01*
X5906839Y11141392D01*
X5905994Y11140405D01*
X5904866Y11139136D01*
X5903597Y11137727D01*
X5902046Y11136317D01*
X5900496Y11134766D01*
X5898663Y11133498D01*
X5898381Y11133357D01*
X5897817Y11132934D01*
X5896830Y11132370D01*
X5895421Y11131665D01*
X5893729Y11130819D01*
X5891756Y11130114D01*
X5889500Y11129269D01*
X5886963Y11128564D01*
X5886681D01*
X5886258Y11128423D01*
X5885835Y11128282D01*
X5884425Y11128141D01*
X5882452Y11127859D01*
X5880196Y11127577D01*
X5877518Y11127295D01*
X5874557Y11127154D01*
X5871315Y11127013D01*
X5836213D01*
Y11224564D01*
X5873711D01*
X5876249Y11224423D01*
D02*
G37*
G36*
X5561819Y11257185D02*
X5549836D01*
Y11333450D01*
X5549696Y11333309D01*
X5548991Y11332745D01*
X5548145Y11331899D01*
X5546735Y11330912D01*
X5545184Y11329643D01*
X5543211Y11328234D01*
X5540955Y11326683D01*
X5538418Y11325132D01*
X5538277D01*
X5538136Y11324991D01*
X5537290Y11324427D01*
X5535880Y11323723D01*
X5534189Y11322877D01*
X5532215Y11321890D01*
X5530101Y11320903D01*
X5527986Y11319916D01*
X5525872Y11319071D01*
Y11330630D01*
X5526013D01*
X5526295Y11330912D01*
X5526858Y11331053D01*
X5527563Y11331476D01*
X5528409Y11331899D01*
X5529396Y11332463D01*
X5531792Y11333872D01*
X5534612Y11335423D01*
X5537431Y11337397D01*
X5540392Y11339652D01*
X5543352Y11342049D01*
X5543493Y11342190D01*
X5543634Y11342331D01*
X5544057Y11342754D01*
X5544621Y11343176D01*
X5545889Y11344586D01*
X5547581Y11346278D01*
X5549273Y11348251D01*
X5551105Y11350507D01*
X5552656Y11352762D01*
X5554066Y11355159D01*
X5561819D01*
Y11257185D01*
D02*
G37*
G36*
X5459898Y11356287D02*
X5461166D01*
X5462435Y11356146D01*
X5464127Y11355864D01*
X5465818Y11355582D01*
X5469484Y11354877D01*
X5473713Y11353749D01*
X5477801Y11352058D01*
X5479915Y11351071D01*
X5482030Y11349943D01*
X5482171Y11349802D01*
X5482453Y11349661D01*
X5483017Y11349238D01*
X5483863Y11348815D01*
X5484708Y11348110D01*
X5485836Y11347265D01*
X5488233Y11345291D01*
X5490770Y11342754D01*
X5493589Y11339652D01*
X5496268Y11335987D01*
X5498523Y11331899D01*
Y11331758D01*
X5498805Y11331335D01*
X5499087Y11330771D01*
X5499369Y11329925D01*
X5499933Y11328798D01*
X5500356Y11327529D01*
X5500920Y11325978D01*
X5501484Y11324286D01*
X5501907Y11322454D01*
X5502471Y11320480D01*
X5503034Y11318366D01*
X5503457Y11316110D01*
X5504021Y11311176D01*
X5504303Y11305960D01*
Y11305819D01*
Y11305396D01*
Y11304833D01*
Y11303987D01*
X5504162Y11302859D01*
Y11301590D01*
X5504021Y11300181D01*
X5503880Y11298771D01*
X5503457Y11295388D01*
X5502753Y11291722D01*
X5501907Y11287916D01*
X5500638Y11284251D01*
Y11284110D01*
X5500497Y11283828D01*
X5500215Y11283264D01*
X5499933Y11282700D01*
X5499510Y11281855D01*
X5499087Y11280868D01*
X5497960Y11278612D01*
X5496409Y11275934D01*
X5494435Y11273114D01*
X5492180Y11270295D01*
X5489642Y11267476D01*
X5489783D01*
X5490065Y11267194D01*
X5490488Y11266912D01*
X5491193Y11266489D01*
X5491898Y11265925D01*
X5492885Y11265361D01*
X5494999Y11264092D01*
X5497537Y11262542D01*
X5500356Y11260991D01*
X5503316Y11259722D01*
X5506136Y11258453D01*
X5502330Y11249572D01*
X5502189D01*
X5501907Y11249713D01*
X5501343Y11249995D01*
X5500497Y11250277D01*
X5499510Y11250700D01*
X5498382Y11251264D01*
X5497114Y11251828D01*
X5495704Y11252533D01*
X5492603Y11254224D01*
X5489078Y11256198D01*
X5485272Y11258735D01*
X5481325Y11261555D01*
X5481184D01*
X5480902Y11261273D01*
X5480197Y11260991D01*
X5479492Y11260568D01*
X5478365Y11260145D01*
X5477237Y11259581D01*
X5475827Y11259158D01*
X5474277Y11258594D01*
X5472585Y11258031D01*
X5470752Y11257467D01*
X5466664Y11256480D01*
X5462153Y11255775D01*
X5459757Y11255634D01*
X5457360Y11255493D01*
X5456091D01*
X5455105Y11255634D01*
X5453977D01*
X5452567Y11255775D01*
X5451017Y11256057D01*
X5449325Y11256339D01*
X5445660Y11257044D01*
X5441572Y11258172D01*
X5437342Y11259722D01*
X5435369Y11260709D01*
X5433254Y11261837D01*
X5433113Y11261978D01*
X5432831Y11262119D01*
X5432268Y11262542D01*
X5431563Y11262965D01*
X5430576Y11263669D01*
X5429589Y11264515D01*
X5427193Y11266489D01*
X5424514Y11269026D01*
X5421836Y11272128D01*
X5419157Y11275652D01*
X5416761Y11279740D01*
Y11279881D01*
X5416479Y11280304D01*
X5416197Y11280868D01*
X5415915Y11281714D01*
X5415492Y11282841D01*
X5414928Y11284110D01*
X5414364Y11285661D01*
X5413941Y11287352D01*
X5413378Y11289185D01*
X5412814Y11291159D01*
X5412391Y11293273D01*
X5411827Y11295670D01*
X5411263Y11300604D01*
X5410981Y11305819D01*
Y11305960D01*
Y11306524D01*
Y11307229D01*
X5411122Y11308216D01*
Y11309485D01*
X5411263Y11311035D01*
X5411404Y11312727D01*
X5411686Y11314560D01*
X5412391Y11318648D01*
X5413378Y11323018D01*
X5414787Y11327670D01*
X5416761Y11332181D01*
X5416902Y11332322D01*
X5417043Y11332745D01*
X5417325Y11333309D01*
X5417889Y11334154D01*
X5418452Y11335141D01*
X5419157Y11336269D01*
X5421131Y11338947D01*
X5423386Y11341767D01*
X5426347Y11344727D01*
X5429589Y11347687D01*
X5433395Y11350225D01*
X5433536Y11350366D01*
X5433959Y11350507D01*
X5434523Y11350789D01*
X5435369Y11351212D01*
X5436356Y11351635D01*
X5437483Y11352199D01*
X5438893Y11352762D01*
X5440444Y11353326D01*
X5442276Y11353890D01*
X5444109Y11354454D01*
X5448197Y11355441D01*
X5452708Y11356146D01*
X5455105Y11356428D01*
X5458911D01*
X5459898Y11356287D01*
D02*
G37*
G36*
X4768811Y11048526D02*
X4770080Y11048385D01*
X4771631Y11048244D01*
X4773181Y11048103D01*
X4775014Y11047680D01*
X4778820Y11046835D01*
X4783049Y11045566D01*
X4785164Y11044720D01*
X4787137Y11043733D01*
X4789111Y11042465D01*
X4791085Y11041196D01*
X4791226Y11041055D01*
X4791508Y11040914D01*
X4792071Y11040491D01*
X4792776Y11039786D01*
X4793481Y11039081D01*
X4794468Y11038095D01*
X4795455Y11036967D01*
X4796582Y11035839D01*
X4797710Y11034429D01*
X4798838Y11032738D01*
X4800107Y11031046D01*
X4801234Y11029213D01*
X4802221Y11027099D01*
X4803349Y11024984D01*
X4804195Y11022729D01*
X4805041Y11020191D01*
X4792353Y11017231D01*
Y11017372D01*
X4792212Y11017654D01*
X4791930Y11018218D01*
X4791649Y11018923D01*
X4791367Y11019768D01*
X4790944Y11020896D01*
X4789816Y11023152D01*
X4788406Y11025689D01*
X4786715Y11028227D01*
X4784600Y11030623D01*
X4782345Y11032738D01*
X4782063Y11033020D01*
X4781217Y11033583D01*
X4779807Y11034288D01*
X4777974Y11035275D01*
X4775578Y11036121D01*
X4772900Y11036967D01*
X4769657Y11037531D01*
X4766133Y11037672D01*
X4765005D01*
X4764300Y11037531D01*
X4763314D01*
X4762186Y11037390D01*
X4759507Y11036967D01*
X4756547Y11036403D01*
X4753446Y11035416D01*
X4750203Y11034006D01*
X4747243Y11032174D01*
X4747102D01*
X4746961Y11031892D01*
X4745974Y11031187D01*
X4744706Y11030059D01*
X4743155Y11028368D01*
X4741322Y11026253D01*
X4739631Y11023857D01*
X4738080Y11020896D01*
X4736670Y11017654D01*
Y11017513D01*
X4736529Y11017231D01*
X4736388Y11016808D01*
X4736247Y11016103D01*
X4735965Y11015257D01*
X4735683Y11014271D01*
X4735261Y11011874D01*
X4734697Y11009055D01*
X4734133Y11005953D01*
X4733851Y11002570D01*
X4733710Y10998905D01*
Y10998764D01*
Y10998341D01*
Y10997636D01*
Y10996790D01*
X4733851Y10995804D01*
Y10994535D01*
X4733992Y10993125D01*
X4734133Y10991574D01*
X4734556Y10988191D01*
X4735261Y10984526D01*
X4736106Y10980861D01*
X4737234Y10977195D01*
Y10977054D01*
X4737375Y10976773D01*
X4737657Y10976350D01*
X4737939Y10975645D01*
X4738785Y10973953D01*
X4740054Y10971980D01*
X4741604Y10969724D01*
X4743578Y10967328D01*
X4745833Y10965213D01*
X4748512Y10963239D01*
X4748653D01*
X4748935Y10963098D01*
X4749358Y10962817D01*
X4749921Y10962535D01*
X4750626Y10962253D01*
X4751472Y10961830D01*
X4753446Y10960984D01*
X4755983Y10960138D01*
X4758803Y10959433D01*
X4761904Y10958869D01*
X4765146Y10958728D01*
X4766133D01*
X4766979Y10958869D01*
X4767966D01*
X4768952Y10959010D01*
X4771490Y10959574D01*
X4774450Y10960279D01*
X4777411Y10961407D01*
X4780512Y10962958D01*
X4782063Y10963803D01*
X4783472Y10964931D01*
X4783613Y10965072D01*
X4783754Y10965213D01*
X4784177Y10965636D01*
X4784741Y10966059D01*
X4785305Y10966764D01*
X4786010Y10967610D01*
X4786856Y10968455D01*
X4787560Y10969583D01*
X4788406Y10970852D01*
X4789393Y10972262D01*
X4790239Y10973671D01*
X4791085Y10975363D01*
X4791790Y10977195D01*
X4792494Y10979169D01*
X4793199Y10981284D01*
X4793763Y10983539D01*
X4806732Y10980297D01*
Y10980156D01*
X4806591Y10979592D01*
X4806309Y10978746D01*
X4805887Y10977618D01*
X4805464Y10976350D01*
X4804900Y10974799D01*
X4804195Y10973107D01*
X4803349Y10971275D01*
X4801375Y10967328D01*
X4798838Y10963380D01*
X4797287Y10961407D01*
X4795737Y10959433D01*
X4794045Y10957742D01*
X4792071Y10956050D01*
X4791930Y10955909D01*
X4791649Y10955627D01*
X4790944Y10955345D01*
X4790239Y10954781D01*
X4789111Y10954076D01*
X4787983Y10953372D01*
X4786433Y10952667D01*
X4784882Y10951962D01*
X4783049Y10951116D01*
X4781076Y10950411D01*
X4778961Y10949706D01*
X4776706Y10949001D01*
X4774309Y10948438D01*
X4771772Y10948156D01*
X4769093Y10947874D01*
X4766274Y10947733D01*
X4764723D01*
X4763596Y10947874D01*
X4762327D01*
X4760776Y10948015D01*
X4759084Y10948297D01*
X4757111Y10948579D01*
X4753023Y10949283D01*
X4748794Y10950411D01*
X4744565Y10951962D01*
X4742591Y10952949D01*
X4740617Y10954076D01*
X4740476Y10954217D01*
X4740194Y10954358D01*
X4739631Y10954781D01*
X4739067Y10955345D01*
X4738221Y10955909D01*
X4737234Y10956755D01*
X4736106Y10957742D01*
X4734979Y10958869D01*
X4733851Y10960138D01*
X4732582Y10961407D01*
X4730045Y10964649D01*
X4727648Y10968455D01*
X4725534Y10972684D01*
Y10972825D01*
X4725252Y10973248D01*
X4725111Y10973953D01*
X4724688Y10974799D01*
X4724406Y10975927D01*
X4723983Y10977336D01*
X4723419Y10978887D01*
X4722996Y10980579D01*
X4722573Y10982411D01*
X4722009Y10984526D01*
X4721305Y10988896D01*
X4720741Y10993830D01*
X4720459Y10998905D01*
Y10999046D01*
Y10999610D01*
Y11000456D01*
X4720600Y11001442D01*
Y11002852D01*
X4720741Y11004262D01*
X4720882Y11006094D01*
X4721164Y11007927D01*
X4721868Y11012015D01*
X4722855Y11016526D01*
X4724265Y11021037D01*
X4726238Y11025407D01*
X4726379Y11025548D01*
X4726520Y11025971D01*
X4726802Y11026535D01*
X4727366Y11027240D01*
X4727930Y11028227D01*
X4728635Y11029354D01*
X4730468Y11031892D01*
X4732864Y11034711D01*
X4735683Y11037531D01*
X4738926Y11040350D01*
X4742732Y11042747D01*
X4742873Y11042887D01*
X4743296Y11043028D01*
X4743860Y11043310D01*
X4744565Y11043733D01*
X4745692Y11044156D01*
X4746820Y11044579D01*
X4748230Y11045143D01*
X4749780Y11045707D01*
X4751472Y11046271D01*
X4753305Y11046835D01*
X4757252Y11047680D01*
X4761763Y11048385D01*
X4766415Y11048667D01*
X4767825D01*
X4768811Y11048526D01*
D02*
G37*
G36*
X4852407Y11047258D02*
X4853534Y11047117D01*
X4854944Y11046976D01*
X4856495Y11046694D01*
X4858045Y11046412D01*
X4861711Y11045425D01*
X4865376Y11044015D01*
X4867208Y11043169D01*
X4869041Y11042183D01*
X4870733Y11040914D01*
X4872283Y11039504D01*
X4872424Y11039363D01*
X4872706Y11039222D01*
X4872988Y11038658D01*
X4873552Y11038095D01*
X4874257Y11037390D01*
X4874962Y11036403D01*
X4875667Y11035416D01*
X4876512Y11034147D01*
X4877922Y11031469D01*
X4879332Y11028086D01*
X4879896Y11026394D01*
X4880178Y11024420D01*
X4880460Y11022447D01*
X4880601Y11020332D01*
Y11020050D01*
Y11019346D01*
X4880460Y11018218D01*
X4880319Y11016667D01*
X4880037Y11014975D01*
X4879473Y11013002D01*
X4878909Y11010887D01*
X4878063Y11008773D01*
X4877922Y11008491D01*
X4877640Y11007786D01*
X4877076Y11006658D01*
X4876231Y11005108D01*
X4875103Y11003416D01*
X4873693Y11001301D01*
X4872001Y10999187D01*
X4870028Y10996790D01*
X4869746Y10996508D01*
X4869041Y10995663D01*
X4868336Y10994958D01*
X4867631Y10994253D01*
X4866786Y10993407D01*
X4865658Y10992279D01*
X4864530Y10991151D01*
X4863120Y10989883D01*
X4861711Y10988473D01*
X4860019Y10986922D01*
X4858186Y10985372D01*
X4856213Y10983539D01*
X4853957Y10981707D01*
X4851702Y10979733D01*
X4851561Y10979592D01*
X4851279Y10979310D01*
X4850715Y10978887D01*
X4850010Y10978323D01*
X4849164Y10977477D01*
X4848178Y10976632D01*
X4845922Y10974799D01*
X4843525Y10972684D01*
X4841270Y10970570D01*
X4839296Y10968737D01*
X4838451Y10968032D01*
X4837746Y10967328D01*
X4837605Y10967187D01*
X4837182Y10966764D01*
X4836618Y10966200D01*
X4835913Y10965354D01*
X4835208Y10964367D01*
X4834362Y10963380D01*
X4832671Y10960984D01*
X4880742D01*
Y10949424D01*
X4816036D01*
Y10949565D01*
Y10950129D01*
Y10950975D01*
X4816177Y10952103D01*
X4816318Y10953372D01*
X4816600Y10954781D01*
X4816882Y10956191D01*
X4817446Y10957742D01*
Y10957883D01*
X4817587Y10958024D01*
X4817869Y10958869D01*
X4818433Y10960138D01*
X4819279Y10961830D01*
X4820406Y10963803D01*
X4821816Y10966059D01*
X4823367Y10968314D01*
X4825340Y10970711D01*
Y10970852D01*
X4825622Y10970993D01*
X4826327Y10971839D01*
X4827596Y10973107D01*
X4829428Y10974940D01*
X4831543Y10977054D01*
X4834221Y10979592D01*
X4837464Y10982411D01*
X4840988Y10985372D01*
X4841129Y10985513D01*
X4841693Y10985936D01*
X4842539Y10986640D01*
X4843525Y10987486D01*
X4844794Y10988614D01*
X4846345Y10989883D01*
X4847896Y10991292D01*
X4849728Y10992843D01*
X4853252Y10996226D01*
X4856777Y10999610D01*
X4858468Y11001301D01*
X4860019Y11002993D01*
X4861429Y11004544D01*
X4862556Y11006094D01*
Y11006235D01*
X4862838Y11006376D01*
X4863120Y11006799D01*
X4863402Y11007363D01*
X4864389Y11008914D01*
X4865517Y11010746D01*
X4866504Y11013002D01*
X4867490Y11015398D01*
X4868054Y11018077D01*
X4868336Y11020614D01*
Y11020755D01*
Y11020896D01*
X4868195Y11021742D01*
X4868054Y11023152D01*
X4867631Y11024702D01*
X4867067Y11026676D01*
X4866081Y11028650D01*
X4864812Y11030623D01*
X4863120Y11032597D01*
X4862838Y11032879D01*
X4862134Y11033442D01*
X4861147Y11034147D01*
X4859596Y11035134D01*
X4857622Y11035980D01*
X4855367Y11036826D01*
X4852689Y11037390D01*
X4849728Y11037531D01*
X4848882D01*
X4848318Y11037390D01*
X4846627Y11037249D01*
X4844653Y11036826D01*
X4842539Y11036262D01*
X4840142Y11035275D01*
X4837887Y11034006D01*
X4835772Y11032315D01*
X4835490Y11032033D01*
X4834926Y11031328D01*
X4834081Y11030200D01*
X4833235Y11028509D01*
X4832248Y11026535D01*
X4831402Y11023998D01*
X4830838Y11021178D01*
X4830556Y11017936D01*
X4818292Y11019205D01*
Y11019346D01*
X4818433Y11019768D01*
Y11020473D01*
X4818574Y11021460D01*
X4818856Y11022588D01*
X4819138Y11023857D01*
X4819561Y11025407D01*
X4819984Y11026958D01*
X4821111Y11030341D01*
X4822803Y11033724D01*
X4823790Y11035416D01*
X4825058Y11037108D01*
X4826327Y11038658D01*
X4827737Y11040068D01*
X4827878Y11040209D01*
X4828160Y11040350D01*
X4828583Y11040773D01*
X4829288Y11041196D01*
X4830133Y11041760D01*
X4831120Y11042324D01*
X4832248Y11043028D01*
X4833658Y11043733D01*
X4835208Y11044438D01*
X4836900Y11045143D01*
X4838733Y11045707D01*
X4840706Y11046271D01*
X4842821Y11046694D01*
X4845076Y11047117D01*
X4847473Y11047258D01*
X4850010Y11047399D01*
X4851420D01*
X4852407Y11047258D01*
D02*
G37*
G36*
X4634603Y10716846D02*
X4635731Y10716705D01*
X4637141Y10716564D01*
X4638692Y10716282D01*
X4640242Y10716000D01*
X4643907Y10715014D01*
X4647573Y10713604D01*
X4649405Y10712758D01*
X4651238Y10711771D01*
X4652929Y10710503D01*
X4654480Y10709093D01*
X4654621Y10708952D01*
X4654903Y10708811D01*
X4655185Y10708247D01*
X4655749Y10707683D01*
X4656454Y10706978D01*
X4657159Y10705992D01*
X4657863Y10705005D01*
X4658709Y10703736D01*
X4660119Y10701058D01*
X4661529Y10697674D01*
X4662093Y10695983D01*
X4662374Y10694009D01*
X4662656Y10692036D01*
X4662797Y10689921D01*
Y10689639D01*
Y10688934D01*
X4662656Y10687806D01*
X4662515Y10686256D01*
X4662233Y10684564D01*
X4661670Y10682591D01*
X4661106Y10680476D01*
X4660260Y10678361D01*
X4660119Y10678079D01*
X4659837Y10677375D01*
X4659273Y10676247D01*
X4658427Y10674696D01*
X4657300Y10673005D01*
X4655890Y10670890D01*
X4654198Y10668775D01*
X4652225Y10666379D01*
X4651943Y10666097D01*
X4651238Y10665251D01*
X4650533Y10664546D01*
X4649828Y10663842D01*
X4648982Y10662996D01*
X4647855Y10661868D01*
X4646727Y10660740D01*
X4645317Y10659471D01*
X4643907Y10658062D01*
X4642216Y10656511D01*
X4640383Y10654960D01*
X4638410Y10653128D01*
X4636154Y10651295D01*
X4633899Y10649322D01*
X4633758Y10649181D01*
X4633476Y10648899D01*
X4632912Y10648476D01*
X4632207Y10647912D01*
X4631361Y10647066D01*
X4630374Y10646220D01*
X4628119Y10644388D01*
X4625722Y10642273D01*
X4623467Y10640159D01*
X4621493Y10638326D01*
X4620647Y10637621D01*
X4619942Y10636916D01*
X4619802Y10636775D01*
X4619379Y10636352D01*
X4618815Y10635788D01*
X4618110Y10634943D01*
X4617405Y10633956D01*
X4616559Y10632969D01*
X4614868Y10630573D01*
X4662938D01*
Y10619013D01*
X4598233D01*
Y10619154D01*
Y10619718D01*
Y10620564D01*
X4598374Y10621691D01*
X4598515Y10622960D01*
X4598797Y10624370D01*
X4599079Y10625780D01*
X4599643Y10627330D01*
Y10627471D01*
X4599784Y10627612D01*
X4600066Y10628458D01*
X4600630Y10629727D01*
X4601475Y10631418D01*
X4602603Y10633392D01*
X4604013Y10635648D01*
X4605564Y10637903D01*
X4607537Y10640300D01*
Y10640440D01*
X4607819Y10640581D01*
X4608524Y10641427D01*
X4609793Y10642696D01*
X4611625Y10644529D01*
X4613740Y10646643D01*
X4616418Y10649181D01*
X4619661Y10652000D01*
X4623185Y10654960D01*
X4623326Y10655101D01*
X4623890Y10655524D01*
X4624735Y10656229D01*
X4625722Y10657075D01*
X4626991Y10658203D01*
X4628542Y10659471D01*
X4630092Y10660881D01*
X4631925Y10662432D01*
X4635449Y10665815D01*
X4638973Y10669198D01*
X4640665Y10670890D01*
X4642216Y10672582D01*
X4643625Y10674132D01*
X4644753Y10675683D01*
Y10675824D01*
X4645035Y10675965D01*
X4645317Y10676388D01*
X4645599Y10676952D01*
X4646586Y10678502D01*
X4647714Y10680335D01*
X4648700Y10682591D01*
X4649687Y10684987D01*
X4650251Y10687665D01*
X4650533Y10690203D01*
Y10690344D01*
Y10690485D01*
X4650392Y10691331D01*
X4650251Y10692740D01*
X4649828Y10694291D01*
X4649264Y10696265D01*
X4648277Y10698238D01*
X4647009Y10700212D01*
X4645317Y10702185D01*
X4645035Y10702467D01*
X4644330Y10703031D01*
X4643344Y10703736D01*
X4641793Y10704723D01*
X4639819Y10705569D01*
X4637564Y10706414D01*
X4634885Y10706978D01*
X4631925Y10707119D01*
X4631079D01*
X4630515Y10706978D01*
X4628824Y10706837D01*
X4626850Y10706414D01*
X4624735Y10705851D01*
X4622339Y10704864D01*
X4620083Y10703595D01*
X4617969Y10701903D01*
X4617687Y10701621D01*
X4617123Y10700917D01*
X4616277Y10699789D01*
X4615431Y10698097D01*
X4614445Y10696124D01*
X4613599Y10693586D01*
X4613035Y10690767D01*
X4612753Y10687524D01*
X4600489Y10688793D01*
Y10688934D01*
X4600630Y10689357D01*
Y10690062D01*
X4600771Y10691049D01*
X4601053Y10692176D01*
X4601334Y10693445D01*
X4601757Y10694996D01*
X4602180Y10696547D01*
X4603308Y10699930D01*
X4605000Y10703313D01*
X4605986Y10705005D01*
X4607255Y10706696D01*
X4608524Y10708247D01*
X4609934Y10709657D01*
X4610075Y10709798D01*
X4610357Y10709939D01*
X4610779Y10710362D01*
X4611484Y10710785D01*
X4612330Y10711348D01*
X4613317Y10711912D01*
X4614445Y10712617D01*
X4615854Y10713322D01*
X4617405Y10714027D01*
X4619097Y10714732D01*
X4620929Y10715296D01*
X4622903Y10715859D01*
X4625017Y10716282D01*
X4627273Y10716705D01*
X4629669Y10716846D01*
X4632207Y10716987D01*
X4633617D01*
X4634603Y10716846D01*
D02*
G37*
G36*
X4546497Y10716423D02*
X4549317Y10716282D01*
X4552136Y10716000D01*
X4554955Y10715578D01*
X4557352Y10715155D01*
X4557493D01*
X4557775Y10715014D01*
X4558198D01*
X4558762Y10714732D01*
X4560312Y10714309D01*
X4562286Y10713604D01*
X4564541Y10712617D01*
X4566938Y10711348D01*
X4569334Y10709939D01*
X4571590Y10708106D01*
X4571731Y10707965D01*
X4571872Y10707824D01*
X4572295Y10707401D01*
X4572859Y10706978D01*
X4574268Y10705569D01*
X4575960Y10703595D01*
X4577792Y10701199D01*
X4579766Y10698379D01*
X4581599Y10695137D01*
X4583149Y10691472D01*
Y10691331D01*
X4583290Y10691049D01*
X4583572Y10690485D01*
X4583713Y10689639D01*
X4584136Y10688652D01*
X4584418Y10687524D01*
X4584700Y10686256D01*
X4585123Y10684705D01*
X4585546Y10683154D01*
X4585828Y10681322D01*
X4586533Y10677375D01*
X4586956Y10673005D01*
X4587096Y10668212D01*
Y10668071D01*
Y10667789D01*
Y10667084D01*
Y10666379D01*
X4586956Y10665392D01*
Y10664264D01*
X4586815Y10661586D01*
X4586392Y10658485D01*
X4585969Y10655242D01*
X4585264Y10651859D01*
X4584418Y10648476D01*
Y10648335D01*
X4584277Y10648053D01*
X4584136Y10647630D01*
X4583995Y10647066D01*
X4583431Y10645515D01*
X4582585Y10643542D01*
X4581740Y10641286D01*
X4580612Y10639031D01*
X4579202Y10636634D01*
X4577792Y10634379D01*
X4577651Y10634097D01*
X4577088Y10633392D01*
X4576242Y10632405D01*
X4575114Y10631136D01*
X4573845Y10629727D01*
X4572295Y10628317D01*
X4570744Y10626766D01*
X4568911Y10625498D01*
X4568629Y10625357D01*
X4568066Y10624934D01*
X4567079Y10624370D01*
X4565669Y10623665D01*
X4563977Y10622819D01*
X4562004Y10622114D01*
X4559748Y10621269D01*
X4557211Y10620564D01*
X4556929D01*
X4556506Y10620423D01*
X4556083Y10620282D01*
X4554673Y10620141D01*
X4552700Y10619859D01*
X4550444Y10619577D01*
X4547766Y10619295D01*
X4544805Y10619154D01*
X4541563Y10619013D01*
X4506462D01*
Y10716564D01*
X4543960D01*
X4546497Y10716423D01*
D02*
G37*
G36*
X6106182Y10590692D02*
X6108015Y10590410D01*
X6110270Y10589987D01*
X6112808Y10589282D01*
X6115345Y10588437D01*
X6117883Y10587309D01*
X6118024D01*
X6118165Y10587168D01*
X6119011Y10586745D01*
X6120279Y10585899D01*
X6121689Y10584912D01*
X6123381Y10583503D01*
X6125072Y10581952D01*
X6126764Y10580119D01*
X6128174Y10578005D01*
X6128315Y10577723D01*
X6128738Y10577018D01*
X6129301Y10575749D01*
X6130006Y10574199D01*
X6130711Y10572366D01*
X6131275Y10570251D01*
X6131698Y10567855D01*
X6131839Y10565458D01*
Y10565176D01*
Y10564331D01*
X6131698Y10563203D01*
X6131416Y10561652D01*
X6130993Y10559820D01*
X6130288Y10557846D01*
X6129442Y10555872D01*
X6128315Y10553899D01*
X6128174Y10553617D01*
X6127751Y10553053D01*
X6126905Y10552066D01*
X6125777Y10550939D01*
X6124367Y10549670D01*
X6122676Y10548260D01*
X6120702Y10546991D01*
X6118306Y10545723D01*
X6118447D01*
X6118729Y10545582D01*
X6119152Y10545441D01*
X6119715Y10545300D01*
X6121266Y10544736D01*
X6123240Y10543890D01*
X6125495Y10542762D01*
X6127751Y10541353D01*
X6129865Y10539520D01*
X6131839Y10537405D01*
X6131980Y10537123D01*
X6132544Y10536278D01*
X6133390Y10534868D01*
X6134235Y10533035D01*
X6135081Y10530780D01*
X6135927Y10528101D01*
X6136491Y10525000D01*
X6136632Y10521617D01*
Y10521476D01*
Y10521053D01*
Y10520348D01*
X6136491Y10519502D01*
X6136350Y10518374D01*
X6136068Y10517106D01*
X6135786Y10515696D01*
X6135504Y10514145D01*
X6134376Y10510762D01*
X6133531Y10508929D01*
X6132685Y10507238D01*
X6131557Y10505405D01*
X6130288Y10503573D01*
X6128879Y10501740D01*
X6127187Y10500048D01*
X6127046Y10499907D01*
X6126764Y10499625D01*
X6126200Y10499203D01*
X6125495Y10498639D01*
X6124649Y10497934D01*
X6123522Y10497229D01*
X6122253Y10496383D01*
X6120702Y10495678D01*
X6119152Y10494832D01*
X6117319Y10493987D01*
X6115486Y10493282D01*
X6113372Y10492577D01*
X6111116Y10492013D01*
X6108720Y10491590D01*
X6106323Y10491308D01*
X6103645Y10491167D01*
X6102376D01*
X6101530Y10491308D01*
X6100403Y10491449D01*
X6099134Y10491590D01*
X6097724Y10491872D01*
X6096173Y10492154D01*
X6092790Y10493000D01*
X6089266Y10494410D01*
X6087433Y10495255D01*
X6085742Y10496242D01*
X6084050Y10497511D01*
X6082358Y10498780D01*
X6082217Y10498921D01*
X6081936Y10499203D01*
X6081513Y10499625D01*
X6081090Y10500189D01*
X6080385Y10500894D01*
X6079680Y10501881D01*
X6078834Y10502868D01*
X6077988Y10504136D01*
X6077143Y10505546D01*
X6076297Y10506956D01*
X6074746Y10510339D01*
X6073477Y10514286D01*
X6073054Y10516401D01*
X6072772Y10518656D01*
X6084755Y10520207D01*
Y10520066D01*
X6084896Y10519784D01*
X6085037Y10519220D01*
X6085178Y10518515D01*
X6085319Y10517670D01*
X6085601Y10516683D01*
X6086306Y10514568D01*
X6087292Y10512031D01*
X6088561Y10509634D01*
X6089971Y10507379D01*
X6091662Y10505405D01*
X6091944Y10505264D01*
X6092508Y10504700D01*
X6093636Y10503996D01*
X6095046Y10503291D01*
X6096737Y10502445D01*
X6098852Y10501740D01*
X6101248Y10501176D01*
X6103786Y10501035D01*
X6104632D01*
X6105196Y10501176D01*
X6106746Y10501317D01*
X6108720Y10501740D01*
X6110975Y10502445D01*
X6113372Y10503432D01*
X6115768Y10504841D01*
X6118024Y10506815D01*
X6118306Y10507097D01*
X6119011Y10507943D01*
X6119856Y10509211D01*
X6120984Y10510903D01*
X6122112Y10513018D01*
X6122958Y10515414D01*
X6123663Y10518233D01*
X6123945Y10521335D01*
Y10521476D01*
Y10521758D01*
Y10522181D01*
X6123804Y10522745D01*
X6123663Y10524295D01*
X6123240Y10526128D01*
X6122676Y10528383D01*
X6121689Y10530639D01*
X6120279Y10532894D01*
X6118447Y10535009D01*
X6118165Y10535291D01*
X6117460Y10535855D01*
X6116332Y10536701D01*
X6114782Y10537687D01*
X6112808Y10538674D01*
X6110411Y10539520D01*
X6107733Y10540084D01*
X6104773Y10540366D01*
X6103504D01*
X6102517Y10540225D01*
X6101248Y10540084D01*
X6099839Y10539802D01*
X6098147Y10539520D01*
X6096314Y10539097D01*
X6097724Y10549670D01*
X6098429D01*
X6098993Y10549529D01*
X6100825D01*
X6102376Y10549811D01*
X6104209Y10550093D01*
X6106323Y10550516D01*
X6108720Y10551220D01*
X6110975Y10552207D01*
X6113372Y10553476D01*
X6113513D01*
X6113654Y10553617D01*
X6114359Y10554181D01*
X6115345Y10555168D01*
X6116473Y10556436D01*
X6117601Y10558269D01*
X6118588Y10560384D01*
X6119293Y10562780D01*
X6119575Y10564190D01*
Y10565740D01*
Y10565881D01*
Y10566022D01*
Y10566868D01*
X6119293Y10567996D01*
X6119011Y10569547D01*
X6118447Y10571238D01*
X6117742Y10573071D01*
X6116614Y10574903D01*
X6115063Y10576595D01*
X6114922Y10576736D01*
X6114218Y10577300D01*
X6113231Y10578005D01*
X6111962Y10578851D01*
X6110270Y10579555D01*
X6108297Y10580260D01*
X6106041Y10580824D01*
X6103504Y10580965D01*
X6102376D01*
X6101107Y10580683D01*
X6099416Y10580401D01*
X6097583Y10579837D01*
X6095751Y10579133D01*
X6093777Y10578005D01*
X6091944Y10576595D01*
X6091803Y10576454D01*
X6091240Y10575749D01*
X6090394Y10574762D01*
X6089407Y10573353D01*
X6088420Y10571520D01*
X6087433Y10569265D01*
X6086588Y10566586D01*
X6086024Y10563485D01*
X6074041Y10565599D01*
Y10565740D01*
X6074182Y10566163D01*
X6074323Y10566727D01*
X6074464Y10567573D01*
X6074746Y10568560D01*
X6075169Y10569688D01*
X6076015Y10572366D01*
X6077424Y10575467D01*
X6079116Y10578569D01*
X6081231Y10581529D01*
X6083909Y10584207D01*
X6084050Y10584348D01*
X6084332Y10584489D01*
X6084755Y10584771D01*
X6085319Y10585194D01*
X6086024Y10585758D01*
X6087010Y10586322D01*
X6087997Y10586886D01*
X6089266Y10587591D01*
X6092085Y10588718D01*
X6095328Y10589846D01*
X6099134Y10590551D01*
X6101107Y10590833D01*
X6104632D01*
X6106182Y10590692D01*
D02*
G37*
G36*
X6019204Y10590269D02*
X6022023Y10590128D01*
X6024843Y10589846D01*
X6027662Y10589423D01*
X6030059Y10589000D01*
X6030200D01*
X6030481Y10588859D01*
X6030904D01*
X6031468Y10588578D01*
X6033019Y10588155D01*
X6034993Y10587450D01*
X6037248Y10586463D01*
X6039645Y10585194D01*
X6042041Y10583785D01*
X6044297Y10581952D01*
X6044437Y10581811D01*
X6044578Y10581670D01*
X6045001Y10581247D01*
X6045565Y10580824D01*
X6046975Y10579414D01*
X6048667Y10577441D01*
X6050499Y10575044D01*
X6052473Y10572225D01*
X6054305Y10568983D01*
X6055856Y10565317D01*
Y10565176D01*
X6055997Y10564895D01*
X6056279Y10564331D01*
X6056420Y10563485D01*
X6056843Y10562498D01*
X6057125Y10561370D01*
X6057407Y10560102D01*
X6057830Y10558551D01*
X6058253Y10557000D01*
X6058534Y10555168D01*
X6059239Y10551220D01*
X6059662Y10546850D01*
X6059803Y10542057D01*
Y10541916D01*
Y10541634D01*
Y10540930D01*
Y10540225D01*
X6059662Y10539238D01*
Y10538110D01*
X6059521Y10535432D01*
X6059098Y10532330D01*
X6058675Y10529088D01*
X6057971Y10525705D01*
X6057125Y10522322D01*
Y10522181D01*
X6056984Y10521899D01*
X6056843Y10521476D01*
X6056702Y10520912D01*
X6056138Y10519361D01*
X6055292Y10517388D01*
X6054446Y10515132D01*
X6053319Y10512877D01*
X6051909Y10510480D01*
X6050499Y10508225D01*
X6050358Y10507943D01*
X6049794Y10507238D01*
X6048949Y10506251D01*
X6047821Y10504982D01*
X6046552Y10503573D01*
X6045001Y10502163D01*
X6043451Y10500612D01*
X6041618Y10499343D01*
X6041336Y10499203D01*
X6040772Y10498780D01*
X6039785Y10498216D01*
X6038376Y10497511D01*
X6036684Y10496665D01*
X6034711Y10495960D01*
X6032455Y10495114D01*
X6029918Y10494410D01*
X6029636D01*
X6029213Y10494269D01*
X6028790Y10494128D01*
X6027380Y10493987D01*
X6025407Y10493705D01*
X6023151Y10493423D01*
X6020473Y10493141D01*
X6017512Y10493000D01*
X6014270Y10492859D01*
X5979168D01*
Y10590410D01*
X6016666D01*
X6019204Y10590269D01*
D02*
G37*
G36*
X5983751Y14060713D02*
X5971769D01*
Y14136978D01*
X5971628Y14136836D01*
X5970923Y14136273D01*
X5970077Y14135426D01*
X5968667Y14134441D01*
X5967117Y14133173D01*
X5965143Y14131763D01*
X5962887Y14130211D01*
X5960350Y14128661D01*
X5960209D01*
X5960068Y14128520D01*
X5959222Y14127956D01*
X5957813Y14127251D01*
X5956121Y14126405D01*
X5954147Y14125418D01*
X5952033Y14124431D01*
X5949918Y14123445D01*
X5947804Y14122598D01*
Y14134158D01*
X5947945D01*
X5948227Y14134441D01*
X5948790Y14134581D01*
X5949495Y14135004D01*
X5950341Y14135426D01*
X5951328Y14135991D01*
X5953724Y14137401D01*
X5956544Y14138951D01*
X5959363Y14140926D01*
X5962324Y14143181D01*
X5965284Y14145576D01*
X5965425Y14145718D01*
X5965566Y14145859D01*
X5965989Y14146281D01*
X5966553Y14146706D01*
X5967821Y14148114D01*
X5969513Y14149806D01*
X5971205Y14151781D01*
X5973037Y14154034D01*
X5974588Y14156291D01*
X5975998Y14158687D01*
X5983751D01*
Y14060713D01*
D02*
G37*
G36*
X5894799Y14158122D02*
X5897195Y14157982D01*
X5899733Y14157841D01*
X5902129Y14157559D01*
X5904244Y14157278D01*
X5904526D01*
X5905513Y14156996D01*
X5906781Y14156714D01*
X5908473Y14156291D01*
X5910306Y14155586D01*
X5912279Y14154739D01*
X5914394Y14153754D01*
X5916226Y14152625D01*
X5916508Y14152486D01*
X5917072Y14152061D01*
X5917918Y14151216D01*
X5919046Y14150229D01*
X5920315Y14148959D01*
X5921583Y14147269D01*
X5922993Y14145436D01*
X5924121Y14143321D01*
X5924262Y14143040D01*
X5924544Y14142336D01*
X5925108Y14141066D01*
X5925671Y14139374D01*
X5926094Y14137401D01*
X5926658Y14135146D01*
X5926940Y14132608D01*
X5927081Y14129929D01*
Y14129788D01*
Y14129366D01*
Y14128802D01*
X5926940Y14127815D01*
X5926799Y14126828D01*
X5926658Y14125558D01*
X5926376Y14124150D01*
X5926094Y14122598D01*
X5925108Y14119357D01*
X5924544Y14117665D01*
X5923698Y14115833D01*
X5922711Y14114000D01*
X5921724Y14112308D01*
X5920456Y14110616D01*
X5919046Y14108925D01*
X5918905Y14108784D01*
X5918623Y14108502D01*
X5918200Y14108080D01*
X5917495Y14107655D01*
X5916649Y14106950D01*
X5915522Y14106245D01*
X5914112Y14105402D01*
X5912561Y14104697D01*
X5910729Y14103850D01*
X5908614Y14103004D01*
X5906359Y14102299D01*
X5903680Y14101735D01*
X5900861Y14101170D01*
X5897759Y14100749D01*
X5894235Y14100467D01*
X5890570Y14100327D01*
X5865618D01*
Y14060713D01*
X5852649D01*
Y14158264D01*
X5892684D01*
X5894799Y14158122D01*
D02*
G37*
G36*
X4565118Y13004326D02*
X4566387Y13004185D01*
X4567937Y13004044D01*
X4569488Y13003903D01*
X4571321Y13003481D01*
X4575127Y13002635D01*
X4579356Y13001366D01*
X4581470Y13000520D01*
X4583444Y12999533D01*
X4585418Y12998265D01*
X4587391Y12996996D01*
X4587532Y12996855D01*
X4587814Y12996713D01*
X4588378Y12996291D01*
X4589083Y12995586D01*
X4589788Y12994881D01*
X4590774Y12993895D01*
X4591761Y12992767D01*
X4592889Y12991640D01*
X4594017Y12990228D01*
X4595144Y12988538D01*
X4596413Y12986845D01*
X4597541Y12985013D01*
X4598528Y12982899D01*
X4599656Y12980785D01*
X4600501Y12978529D01*
X4601347Y12975990D01*
X4588660Y12973032D01*
Y12973172D01*
X4588519Y12973454D01*
X4588237Y12974017D01*
X4587955Y12974722D01*
X4587673Y12975568D01*
X4587250Y12976695D01*
X4586122Y12978952D01*
X4584713Y12981490D01*
X4583021Y12984027D01*
X4580907Y12986423D01*
X4578651Y12988538D01*
X4578369Y12988820D01*
X4577523Y12989383D01*
X4576114Y12990088D01*
X4574281Y12991075D01*
X4571884Y12991920D01*
X4569206Y12992767D01*
X4565964Y12993330D01*
X4562439Y12993472D01*
X4561312D01*
X4560607Y12993330D01*
X4559620D01*
X4558492Y12993190D01*
X4555814Y12992767D01*
X4552853Y12992203D01*
X4549752Y12991216D01*
X4546510Y12989806D01*
X4543549Y12987975D01*
X4543408D01*
X4543268Y12987692D01*
X4542281Y12986987D01*
X4541012Y12985860D01*
X4539461Y12984167D01*
X4537629Y12982053D01*
X4535937Y12979657D01*
X4534386Y12976695D01*
X4532977Y12973454D01*
Y12973312D01*
X4532836Y12973032D01*
X4532695Y12972607D01*
X4532554Y12971902D01*
X4532272Y12971057D01*
X4531990Y12970071D01*
X4531567Y12967674D01*
X4531003Y12964854D01*
X4530439Y12961752D01*
X4530157Y12958369D01*
X4530016Y12954704D01*
Y12954564D01*
Y12954141D01*
Y12953436D01*
Y12952589D01*
X4530157Y12951604D01*
Y12950336D01*
X4530298Y12948924D01*
X4530439Y12947374D01*
X4530862Y12943991D01*
X4531567Y12940326D01*
X4532413Y12936661D01*
X4533541Y12932996D01*
Y12932854D01*
X4533682Y12932573D01*
X4533963Y12932150D01*
X4534245Y12931445D01*
X4535091Y12929753D01*
X4536360Y12927780D01*
X4537911Y12925523D01*
X4539884Y12923128D01*
X4542140Y12921013D01*
X4544818Y12919038D01*
X4544959D01*
X4545241Y12918898D01*
X4545664Y12918617D01*
X4546228Y12918335D01*
X4546933Y12918053D01*
X4547779Y12917630D01*
X4549752Y12916785D01*
X4552290Y12915938D01*
X4555109Y12915233D01*
X4558210Y12914668D01*
X4561453Y12914528D01*
X4562439D01*
X4563285Y12914668D01*
X4564272D01*
X4565259Y12914810D01*
X4567796Y12915375D01*
X4570757Y12916080D01*
X4573717Y12917207D01*
X4576818Y12918758D01*
X4578369Y12919603D01*
X4579779Y12920731D01*
X4579920Y12920872D01*
X4580061Y12921013D01*
X4580484Y12921436D01*
X4581047Y12921860D01*
X4581611Y12922565D01*
X4582316Y12923410D01*
X4583162Y12924255D01*
X4583867Y12925383D01*
X4584713Y12926653D01*
X4585699Y12928062D01*
X4586545Y12929471D01*
X4587391Y12931163D01*
X4588096Y12932996D01*
X4588801Y12934969D01*
X4589506Y12937083D01*
X4590070Y12939339D01*
X4603039Y12936098D01*
Y12935956D01*
X4602898Y12935393D01*
X4602616Y12934546D01*
X4602193Y12933418D01*
X4601770Y12932150D01*
X4601206Y12930598D01*
X4600501Y12928906D01*
X4599656Y12927075D01*
X4597682Y12923128D01*
X4595144Y12919180D01*
X4593594Y12917207D01*
X4592043Y12915233D01*
X4590351Y12913542D01*
X4588378Y12911850D01*
X4588237Y12911710D01*
X4587955Y12911427D01*
X4587250Y12911145D01*
X4586545Y12910580D01*
X4585418Y12909875D01*
X4584290Y12909172D01*
X4582739Y12908467D01*
X4581188Y12907762D01*
X4579356Y12906915D01*
X4577382Y12906210D01*
X4575268Y12905505D01*
X4573012Y12904800D01*
X4570616Y12904237D01*
X4568078Y12903957D01*
X4565400Y12903674D01*
X4562580Y12903532D01*
X4561030D01*
X4559902Y12903674D01*
X4558633D01*
X4557083Y12903815D01*
X4555391Y12904097D01*
X4553417Y12904379D01*
X4549329Y12905083D01*
X4545100Y12906210D01*
X4540871Y12907762D01*
X4538897Y12908749D01*
X4536924Y12909875D01*
X4536783Y12910017D01*
X4536501Y12910158D01*
X4535937Y12910580D01*
X4535373Y12911145D01*
X4534527Y12911710D01*
X4533541Y12912555D01*
X4532413Y12913542D01*
X4531285Y12914668D01*
X4530157Y12915938D01*
X4528889Y12917207D01*
X4526351Y12920448D01*
X4523955Y12924255D01*
X4521840Y12928484D01*
Y12928625D01*
X4521558Y12929048D01*
X4521417Y12929753D01*
X4520994Y12930598D01*
X4520712Y12931728D01*
X4520289Y12933136D01*
X4519726Y12934686D01*
X4519303Y12936378D01*
X4518880Y12938211D01*
X4518316Y12940326D01*
X4517611Y12944696D01*
X4517047Y12949631D01*
X4516765Y12954704D01*
Y12954846D01*
Y12955409D01*
Y12956256D01*
X4516906Y12957242D01*
Y12958652D01*
X4517047Y12960062D01*
X4517188Y12961894D01*
X4517470Y12963727D01*
X4518175Y12967815D01*
X4519162Y12972327D01*
X4520571Y12976837D01*
X4522545Y12981207D01*
X4522686Y12981348D01*
X4522827Y12981770D01*
X4523109Y12982335D01*
X4523673Y12983040D01*
X4524237Y12984027D01*
X4524941Y12985155D01*
X4526774Y12987692D01*
X4529171Y12990511D01*
X4531990Y12993330D01*
X4535232Y12996150D01*
X4539038Y12998547D01*
X4539179Y12998688D01*
X4539602Y12998828D01*
X4540166Y12999110D01*
X4540871Y12999533D01*
X4541999Y12999956D01*
X4543127Y13000378D01*
X4544536Y13000943D01*
X4546087Y13001508D01*
X4547779Y13002071D01*
X4549611Y13002635D01*
X4553558Y13003481D01*
X4558069Y13004185D01*
X4562721Y13004466D01*
X4564131D01*
X4565118Y13004326D01*
D02*
G37*
G36*
X4678035Y12992062D02*
X4677894Y12991920D01*
X4677612Y12991640D01*
X4677048Y12991075D01*
X4676484Y12990228D01*
X4675638Y12989243D01*
X4674511Y12988115D01*
X4673383Y12986705D01*
X4672114Y12985013D01*
X4670845Y12983322D01*
X4669295Y12981348D01*
X4667744Y12979092D01*
X4666193Y12976837D01*
X4664502Y12974300D01*
X4662810Y12971622D01*
X4661118Y12968661D01*
X4659427Y12965701D01*
X4659286Y12965559D01*
X4659004Y12964996D01*
X4658581Y12964149D01*
X4657876Y12962881D01*
X4657171Y12961330D01*
X4656325Y12959639D01*
X4655339Y12957664D01*
X4654352Y12955409D01*
X4653224Y12952872D01*
X4651955Y12950336D01*
X4650828Y12947514D01*
X4649700Y12944556D01*
X4647444Y12938493D01*
X4645330Y12932008D01*
Y12931868D01*
X4645189Y12931445D01*
X4645048Y12930740D01*
X4644766Y12929893D01*
X4644484Y12928766D01*
X4644202Y12927357D01*
X4643779Y12925806D01*
X4643497Y12924113D01*
X4643074Y12922141D01*
X4642651Y12920026D01*
X4641947Y12915515D01*
X4641242Y12910580D01*
X4640819Y12905225D01*
X4628554D01*
Y12905365D01*
Y12905788D01*
Y12906352D01*
X4628695Y12907198D01*
Y12908327D01*
X4628836Y12909735D01*
X4628977Y12911285D01*
X4629118Y12912978D01*
X4629400Y12914951D01*
X4629682Y12916925D01*
X4630105Y12919321D01*
X4630528Y12921718D01*
X4630951Y12924255D01*
X4631515Y12927075D01*
X4632924Y12932854D01*
Y12932996D01*
X4633065Y12933559D01*
X4633347Y12934406D01*
X4633770Y12935674D01*
X4634193Y12937083D01*
X4634757Y12938776D01*
X4635321Y12940749D01*
X4636167Y12942863D01*
X4637013Y12945261D01*
X4637858Y12947656D01*
X4639973Y12953014D01*
X4642510Y12958652D01*
X4645330Y12964291D01*
X4645471Y12964432D01*
X4645753Y12964996D01*
X4646176Y12965701D01*
X4646739Y12966827D01*
X4647444Y12968097D01*
X4648431Y12969649D01*
X4649418Y12971339D01*
X4650546Y12973172D01*
X4653224Y12977260D01*
X4656044Y12981490D01*
X4659286Y12985860D01*
X4662669Y12989948D01*
X4614880D01*
Y13001508D01*
X4678035D01*
Y12992062D01*
D02*
G37*
G36*
X5552246Y13371358D02*
X5553232D01*
X5554360Y13371217D01*
X5557039Y13370653D01*
X5559999Y13369948D01*
X5563100Y13368820D01*
X5566202Y13367128D01*
X5567752Y13366142D01*
X5569162Y13365015D01*
X5569303Y13364873D01*
X5569444Y13364732D01*
X5569867Y13364310D01*
X5570290Y13363885D01*
X5570995Y13363181D01*
X5571559Y13362335D01*
X5573109Y13360362D01*
X5574660Y13357825D01*
X5576070Y13354723D01*
X5577338Y13351199D01*
X5578184Y13347252D01*
X5566202Y13346265D01*
Y13346407D01*
X5566061Y13346547D01*
X5565920Y13347392D01*
X5565497Y13348660D01*
X5564933Y13350212D01*
X5564369Y13351904D01*
X5563523Y13353595D01*
X5562537Y13355145D01*
X5561550Y13356415D01*
X5561268Y13356697D01*
X5560704Y13357262D01*
X5559717Y13358105D01*
X5558307Y13359093D01*
X5556475Y13359940D01*
X5554501Y13360785D01*
X5552105Y13361349D01*
X5549567Y13361630D01*
X5548580D01*
X5547453Y13361490D01*
X5546184Y13361208D01*
X5544492Y13360785D01*
X5542801Y13360220D01*
X5541109Y13359515D01*
X5539417Y13358388D01*
X5539135Y13358247D01*
X5538431Y13357683D01*
X5537444Y13356697D01*
X5536175Y13355287D01*
X5534765Y13353595D01*
X5533215Y13351622D01*
X5531805Y13349084D01*
X5530395Y13346265D01*
Y13346124D01*
X5530254Y13345842D01*
X5530113Y13345419D01*
X5529831Y13344855D01*
X5529690Y13344009D01*
X5529409Y13343024D01*
X5529127Y13341895D01*
X5528845Y13340485D01*
X5528422Y13338934D01*
X5528140Y13337244D01*
X5527858Y13335410D01*
X5527717Y13333437D01*
X5527435Y13331181D01*
X5527294Y13328926D01*
X5527153Y13326389D01*
Y13323851D01*
X5527294Y13323991D01*
X5527858Y13324837D01*
X5528845Y13325964D01*
X5530113Y13327374D01*
X5531523Y13329066D01*
X5533356Y13330617D01*
X5535329Y13332169D01*
X5537585Y13333578D01*
X5537726D01*
X5537867Y13333719D01*
X5538713Y13334142D01*
X5539981Y13334564D01*
X5541673Y13335269D01*
X5543647Y13335834D01*
X5545902Y13336256D01*
X5548299Y13336679D01*
X5550836Y13336819D01*
X5551964D01*
X5552810Y13336679D01*
X5553937Y13336539D01*
X5555065Y13336397D01*
X5556475Y13336115D01*
X5557884Y13335692D01*
X5561127Y13334705D01*
X5562818Y13334001D01*
X5564510Y13333014D01*
X5566202Y13332027D01*
X5568034Y13330899D01*
X5569726Y13329489D01*
X5571277Y13327939D01*
X5571418Y13327798D01*
X5571700Y13327516D01*
X5572122Y13327094D01*
X5572545Y13326389D01*
X5573250Y13325401D01*
X5573955Y13324416D01*
X5574660Y13323146D01*
X5575506Y13321736D01*
X5576352Y13320184D01*
X5577056Y13318494D01*
X5577761Y13316521D01*
X5578466Y13314548D01*
X5578889Y13312431D01*
X5579312Y13310036D01*
X5579594Y13307639D01*
X5579735Y13305103D01*
Y13304961D01*
Y13304678D01*
Y13304256D01*
Y13303551D01*
X5579594Y13302705D01*
Y13301859D01*
X5579171Y13299603D01*
X5578748Y13296925D01*
X5578043Y13294106D01*
X5577056Y13291005D01*
X5575647Y13288045D01*
Y13287903D01*
X5575506Y13287762D01*
X5575224Y13287338D01*
X5574942Y13286777D01*
X5574096Y13285365D01*
X5572827Y13283533D01*
X5571277Y13281560D01*
X5569444Y13279585D01*
X5567189Y13277612D01*
X5564792Y13275922D01*
X5564651D01*
X5564510Y13275780D01*
X5564087Y13275497D01*
X5563523Y13275357D01*
X5562114Y13274652D01*
X5560281Y13273947D01*
X5557884Y13273100D01*
X5555206Y13272539D01*
X5552246Y13271974D01*
X5549003Y13271832D01*
X5548299D01*
X5547594Y13271974D01*
X5546466D01*
X5545197Y13272115D01*
X5543787Y13272397D01*
X5542096Y13272820D01*
X5540404Y13273242D01*
X5538431Y13273807D01*
X5536457Y13274512D01*
X5534483Y13275357D01*
X5532369Y13276485D01*
X5530395Y13277753D01*
X5528422Y13279163D01*
X5526448Y13280855D01*
X5524616Y13282828D01*
X5524475Y13282970D01*
X5524193Y13283392D01*
X5523770Y13283955D01*
X5523206Y13284943D01*
X5522360Y13286212D01*
X5521655Y13287621D01*
X5520809Y13289455D01*
X5519964Y13291428D01*
X5518977Y13293823D01*
X5518131Y13296503D01*
X5517426Y13299463D01*
X5516721Y13302705D01*
X5516016Y13306371D01*
X5515593Y13310318D01*
X5515312Y13314548D01*
X5515171Y13319058D01*
Y13319199D01*
Y13319341D01*
Y13319763D01*
Y13320326D01*
X5515312Y13321736D01*
Y13323711D01*
X5515453Y13325964D01*
X5515734Y13328644D01*
X5516016Y13331604D01*
X5516439Y13334846D01*
X5517003Y13338089D01*
X5517708Y13341612D01*
X5518554Y13344997D01*
X5519541Y13348380D01*
X5520809Y13351622D01*
X5522219Y13354723D01*
X5523770Y13357683D01*
X5525602Y13360220D01*
X5525743Y13360362D01*
X5526025Y13360645D01*
X5526589Y13361208D01*
X5527294Y13362054D01*
X5528140Y13362898D01*
X5529268Y13363745D01*
X5530677Y13364873D01*
X5532087Y13365860D01*
X5533779Y13366847D01*
X5535611Y13367973D01*
X5537726Y13368820D01*
X5539840Y13369807D01*
X5542237Y13370512D01*
X5544774Y13371075D01*
X5547453Y13371358D01*
X5550272Y13371500D01*
X5551400D01*
X5552246Y13371358D01*
D02*
G37*
G36*
X5466818Y13372626D02*
X5468087Y13372485D01*
X5469637Y13372343D01*
X5471188Y13372203D01*
X5473021Y13371780D01*
X5476827Y13370935D01*
X5481056Y13369666D01*
X5483170Y13368820D01*
X5485144Y13367833D01*
X5487118Y13366565D01*
X5489091Y13365295D01*
X5489232Y13365155D01*
X5489514Y13365015D01*
X5490078Y13364590D01*
X5490783Y13363885D01*
X5491488Y13363181D01*
X5492474Y13362195D01*
X5493461Y13361067D01*
X5494589Y13359940D01*
X5495717Y13358530D01*
X5496844Y13356837D01*
X5498113Y13355145D01*
X5499241Y13353313D01*
X5500228Y13351199D01*
X5501356Y13349084D01*
X5502201Y13346829D01*
X5503047Y13344292D01*
X5490360Y13341331D01*
Y13341472D01*
X5490219Y13341754D01*
X5489937Y13342319D01*
X5489655Y13343024D01*
X5489373Y13343867D01*
X5488950Y13344997D01*
X5487822Y13347252D01*
X5486413Y13349789D01*
X5484721Y13352327D01*
X5482607Y13354723D01*
X5480351Y13356837D01*
X5480069Y13357120D01*
X5479223Y13357683D01*
X5477814Y13358388D01*
X5475981Y13359375D01*
X5473584Y13360220D01*
X5470906Y13361067D01*
X5467664Y13361630D01*
X5464139Y13361772D01*
X5463012D01*
X5462307Y13361630D01*
X5461320D01*
X5460192Y13361490D01*
X5457514Y13361067D01*
X5454553Y13360503D01*
X5451452Y13359515D01*
X5448210Y13358105D01*
X5445249Y13356274D01*
X5445108D01*
X5444968Y13355992D01*
X5443981Y13355287D01*
X5442712Y13354160D01*
X5441161Y13352467D01*
X5439329Y13350352D01*
X5437637Y13347957D01*
X5436086Y13344997D01*
X5434677Y13341754D01*
Y13341612D01*
X5434536Y13341331D01*
X5434395Y13340907D01*
X5434254Y13340202D01*
X5433972Y13339357D01*
X5433690Y13338371D01*
X5433267Y13335974D01*
X5432703Y13333154D01*
X5432139Y13330054D01*
X5431857Y13326669D01*
X5431716Y13323006D01*
Y13322864D01*
Y13322441D01*
Y13321736D01*
Y13320889D01*
X5431857Y13319904D01*
Y13318636D01*
X5431998Y13317226D01*
X5432139Y13315674D01*
X5432562Y13312291D01*
X5433267Y13308626D01*
X5434113Y13304961D01*
X5435241Y13301295D01*
Y13301154D01*
X5435382Y13300873D01*
X5435663Y13300450D01*
X5435945Y13299745D01*
X5436791Y13298053D01*
X5438060Y13296080D01*
X5439611Y13293823D01*
X5441584Y13291428D01*
X5443840Y13289313D01*
X5446518Y13287338D01*
X5446659D01*
X5446941Y13287198D01*
X5447364Y13286917D01*
X5447928Y13286635D01*
X5448633Y13286353D01*
X5449479Y13285930D01*
X5451452Y13285085D01*
X5453990Y13284238D01*
X5456809Y13283533D01*
X5459910Y13282970D01*
X5463153Y13282828D01*
X5464139D01*
X5464985Y13282970D01*
X5465972D01*
X5466959Y13283110D01*
X5469496Y13283675D01*
X5472457Y13284380D01*
X5475417Y13285507D01*
X5478518Y13287057D01*
X5480069Y13287903D01*
X5481479Y13289030D01*
X5481620Y13289172D01*
X5481761Y13289313D01*
X5482184Y13289735D01*
X5482747Y13290160D01*
X5483311Y13290865D01*
X5484016Y13291710D01*
X5484862Y13292555D01*
X5485567Y13293683D01*
X5486413Y13294952D01*
X5487399Y13296362D01*
X5488245Y13297771D01*
X5489091Y13299463D01*
X5489796Y13301295D01*
X5490501Y13303268D01*
X5491206Y13305383D01*
X5491770Y13307639D01*
X5504739Y13304398D01*
Y13304256D01*
X5504598Y13303693D01*
X5504316Y13302846D01*
X5503893Y13301718D01*
X5503470Y13300450D01*
X5502906Y13298898D01*
X5502201Y13297208D01*
X5501356Y13295375D01*
X5499382Y13291428D01*
X5496844Y13287480D01*
X5495294Y13285507D01*
X5493743Y13283533D01*
X5492052Y13281842D01*
X5490078Y13280150D01*
X5489937Y13280009D01*
X5489655Y13279727D01*
X5488950Y13279445D01*
X5488245Y13278880D01*
X5487118Y13278175D01*
X5485990Y13277472D01*
X5484439Y13276767D01*
X5482888Y13276062D01*
X5481056Y13275217D01*
X5479082Y13274512D01*
X5476968Y13273807D01*
X5474712Y13273100D01*
X5472316Y13272539D01*
X5469778Y13272256D01*
X5467100Y13271974D01*
X5464280Y13271832D01*
X5462730D01*
X5461602Y13271974D01*
X5460333D01*
X5458783Y13272115D01*
X5457091Y13272397D01*
X5455117Y13272679D01*
X5451029Y13273383D01*
X5446800Y13274512D01*
X5442571Y13276062D01*
X5440597Y13277049D01*
X5438624Y13278175D01*
X5438483Y13278317D01*
X5438201Y13278458D01*
X5437637Y13278880D01*
X5437073Y13279445D01*
X5436227Y13280009D01*
X5435241Y13280855D01*
X5434113Y13281842D01*
X5432985Y13282970D01*
X5431857Y13284238D01*
X5430589Y13285507D01*
X5428051Y13288750D01*
X5425655Y13292555D01*
X5423540Y13296783D01*
Y13296925D01*
X5423258Y13297348D01*
X5423117Y13298053D01*
X5422694Y13298898D01*
X5422412Y13300027D01*
X5421989Y13301436D01*
X5421426Y13302988D01*
X5421003Y13304678D01*
X5420580Y13306511D01*
X5420016Y13308626D01*
X5419311Y13312996D01*
X5418747Y13317931D01*
X5418465Y13323006D01*
Y13323146D01*
Y13323711D01*
Y13324556D01*
X5418606Y13325542D01*
Y13326952D01*
X5418747Y13328362D01*
X5418888Y13330194D01*
X5419170Y13332027D01*
X5419875Y13336115D01*
X5420862Y13340627D01*
X5422271Y13345137D01*
X5424245Y13349507D01*
X5424386Y13349648D01*
X5424527Y13350072D01*
X5424809Y13350635D01*
X5425373Y13351340D01*
X5425937Y13352327D01*
X5426641Y13353455D01*
X5428474Y13355992D01*
X5430871Y13358810D01*
X5433690Y13361630D01*
X5436932Y13364450D01*
X5440738Y13366847D01*
X5440879Y13366988D01*
X5441302Y13367128D01*
X5441866Y13367410D01*
X5442571Y13367833D01*
X5443699Y13368256D01*
X5444827Y13368678D01*
X5446236Y13369243D01*
X5447787Y13369807D01*
X5449479Y13370370D01*
X5451311Y13370935D01*
X5455258Y13371780D01*
X5459769Y13372485D01*
X5464421Y13372768D01*
X5465831D01*
X5466818Y13372626D01*
D02*
G37*
G36*
X5632590Y12877325D02*
X5633859Y12877185D01*
X5635410Y12877045D01*
X5636961Y12876903D01*
X5638793Y12876480D01*
X5642599Y12875635D01*
X5646828Y12874367D01*
X5648943Y12873520D01*
X5650917Y12872533D01*
X5652890Y12871265D01*
X5654864Y12869997D01*
X5655005Y12869855D01*
X5655287Y12869714D01*
X5655851Y12869292D01*
X5656555Y12868587D01*
X5657260Y12867880D01*
X5658247Y12866895D01*
X5659234Y12865767D01*
X5660362Y12864639D01*
X5661489Y12863229D01*
X5662617Y12861539D01*
X5663886Y12859846D01*
X5665014Y12858012D01*
X5666000Y12855899D01*
X5667128Y12853784D01*
X5667974Y12851529D01*
X5668820Y12848991D01*
X5656132Y12846031D01*
Y12846172D01*
X5655991Y12846454D01*
X5655710Y12847018D01*
X5655428Y12847723D01*
X5655146Y12848569D01*
X5654723Y12849696D01*
X5653595Y12851952D01*
X5652185Y12854489D01*
X5650494Y12857027D01*
X5648379Y12859422D01*
X5646124Y12861539D01*
X5645842Y12861819D01*
X5644996Y12862383D01*
X5643586Y12863087D01*
X5641754Y12864075D01*
X5639357Y12864922D01*
X5636679Y12865767D01*
X5633436Y12866331D01*
X5629912Y12866472D01*
X5628784D01*
X5628079Y12866331D01*
X5627093D01*
X5625965Y12866190D01*
X5623286Y12865767D01*
X5620326Y12865202D01*
X5617225Y12864217D01*
X5613982Y12862807D01*
X5611022Y12860974D01*
X5610881D01*
X5610740Y12860692D01*
X5609753Y12859987D01*
X5608485Y12858859D01*
X5606934Y12857169D01*
X5605101Y12855054D01*
X5603410Y12852657D01*
X5601859Y12849696D01*
X5600449Y12846454D01*
Y12846313D01*
X5600308Y12846031D01*
X5600167Y12845609D01*
X5600026Y12844904D01*
X5599744Y12844057D01*
X5599463Y12843071D01*
X5599040Y12840674D01*
X5598476Y12837856D01*
X5597912Y12834753D01*
X5597630Y12831371D01*
X5597489Y12827705D01*
Y12827563D01*
Y12827141D01*
Y12826436D01*
Y12825591D01*
X5597630Y12824603D01*
Y12823335D01*
X5597771Y12821925D01*
X5597912Y12820374D01*
X5598335Y12816991D01*
X5599040Y12813326D01*
X5599885Y12809660D01*
X5601013Y12805995D01*
Y12805855D01*
X5601154Y12805573D01*
X5601436Y12805150D01*
X5601718Y12804445D01*
X5602564Y12802753D01*
X5603833Y12800780D01*
X5605383Y12798524D01*
X5607357Y12796128D01*
X5609612Y12794013D01*
X5612291Y12792039D01*
X5612432D01*
X5612714Y12791898D01*
X5613137Y12791617D01*
X5613700Y12791335D01*
X5614405Y12791053D01*
X5615251Y12790630D01*
X5617225Y12789784D01*
X5619762Y12788938D01*
X5622582Y12788233D01*
X5625683Y12787669D01*
X5628925Y12787528D01*
X5629912D01*
X5630758Y12787669D01*
X5631745D01*
X5632731Y12787810D01*
X5635269Y12788374D01*
X5638229Y12789079D01*
X5641190Y12790207D01*
X5644291Y12791757D01*
X5645842Y12792603D01*
X5647251Y12793731D01*
X5647392Y12793872D01*
X5647533Y12794013D01*
X5647956Y12794436D01*
X5648520Y12794859D01*
X5649084Y12795564D01*
X5649789Y12796410D01*
X5650635Y12797255D01*
X5651339Y12798383D01*
X5652185Y12799652D01*
X5653172Y12801062D01*
X5654018Y12802470D01*
X5654864Y12804163D01*
X5655569Y12805995D01*
X5656273Y12807970D01*
X5656978Y12810085D01*
X5657542Y12812338D01*
X5670511Y12809097D01*
Y12808955D01*
X5670370Y12808392D01*
X5670088Y12807545D01*
X5669666Y12806418D01*
X5669243Y12805150D01*
X5668679Y12803600D01*
X5667974Y12801907D01*
X5667128Y12800075D01*
X5665155Y12796128D01*
X5662617Y12792180D01*
X5661066Y12790207D01*
X5659516Y12788233D01*
X5657824Y12786542D01*
X5655851Y12784850D01*
X5655710Y12784709D01*
X5655428Y12784427D01*
X5654723Y12784145D01*
X5654018Y12783581D01*
X5652890Y12782876D01*
X5651762Y12782172D01*
X5650212Y12781467D01*
X5648661Y12780762D01*
X5646828Y12779916D01*
X5644855Y12779211D01*
X5642740Y12778506D01*
X5640485Y12777801D01*
X5638088Y12777238D01*
X5635551Y12776956D01*
X5632872Y12776674D01*
X5630053Y12776533D01*
X5628502D01*
X5627375Y12776674D01*
X5626106D01*
X5624555Y12776815D01*
X5622864Y12777097D01*
X5620890Y12777379D01*
X5616802Y12778083D01*
X5612573Y12779211D01*
X5608344Y12780762D01*
X5606370Y12781749D01*
X5604396Y12782876D01*
X5604255Y12783017D01*
X5603974Y12783158D01*
X5603410Y12783581D01*
X5602846Y12784145D01*
X5602000Y12784709D01*
X5601013Y12785555D01*
X5599885Y12786542D01*
X5598758Y12787669D01*
X5597630Y12788938D01*
X5596361Y12790207D01*
X5593824Y12793449D01*
X5591427Y12797255D01*
X5589313Y12801485D01*
Y12801625D01*
X5589031Y12802048D01*
X5588890Y12802753D01*
X5588467Y12803600D01*
X5588185Y12804727D01*
X5587762Y12806136D01*
X5587198Y12807687D01*
X5586775Y12809380D01*
X5586352Y12811211D01*
X5585788Y12813326D01*
X5585084Y12817696D01*
X5584520Y12822630D01*
X5584238Y12827705D01*
Y12827846D01*
Y12828410D01*
Y12829256D01*
X5584379Y12830241D01*
Y12831651D01*
X5584520Y12833063D01*
X5584661Y12834894D01*
X5584943Y12836726D01*
X5585647Y12840816D01*
X5586634Y12845326D01*
X5588044Y12849837D01*
X5590018Y12854207D01*
X5590158Y12854349D01*
X5590299Y12854771D01*
X5590581Y12855334D01*
X5591145Y12856039D01*
X5591709Y12857027D01*
X5592414Y12858154D01*
X5594247Y12860692D01*
X5596643Y12863512D01*
X5599463Y12866331D01*
X5602705Y12869150D01*
X5606511Y12871547D01*
X5606652Y12871687D01*
X5607075Y12871828D01*
X5607639Y12872110D01*
X5608344Y12872533D01*
X5609471Y12872955D01*
X5610599Y12873380D01*
X5612009Y12873943D01*
X5613560Y12874507D01*
X5615251Y12875072D01*
X5617084Y12875635D01*
X5621031Y12876480D01*
X5625542Y12877185D01*
X5630194Y12877467D01*
X5631604D01*
X5632590Y12877325D01*
D02*
G37*
G36*
X5792028Y12876057D02*
X5793155Y12875917D01*
X5794565Y12875777D01*
X5796116Y12875494D01*
X5797666Y12875212D01*
X5801332Y12874225D01*
X5804997Y12872815D01*
X5806829Y12871970D01*
X5808662Y12870982D01*
X5810354Y12869714D01*
X5811904Y12868304D01*
X5812045Y12868163D01*
X5812327Y12868022D01*
X5812609Y12867458D01*
X5813173Y12866895D01*
X5813878Y12866190D01*
X5814583Y12865202D01*
X5815288Y12864217D01*
X5816133Y12862947D01*
X5817543Y12860269D01*
X5818953Y12856886D01*
X5819517Y12855194D01*
X5819799Y12853220D01*
X5820081Y12851247D01*
X5820222Y12849132D01*
Y12848849D01*
Y12848146D01*
X5820081Y12847018D01*
X5819940Y12845467D01*
X5819658Y12843774D01*
X5819094Y12841801D01*
X5818530Y12839687D01*
X5817684Y12837573D01*
X5817543Y12837291D01*
X5817261Y12836586D01*
X5816697Y12835458D01*
X5815851Y12833908D01*
X5814724Y12832216D01*
X5813314Y12830101D01*
X5811622Y12827988D01*
X5809649Y12825591D01*
X5809367Y12825308D01*
X5808662Y12824463D01*
X5807957Y12823758D01*
X5807252Y12823053D01*
X5806406Y12822208D01*
X5805279Y12821078D01*
X5804151Y12819951D01*
X5802741Y12818683D01*
X5801332Y12817273D01*
X5799640Y12815723D01*
X5797807Y12814172D01*
X5795834Y12812338D01*
X5793578Y12810507D01*
X5791323Y12808533D01*
X5791182Y12808392D01*
X5790900Y12808110D01*
X5790336Y12807687D01*
X5789631Y12807123D01*
X5788785Y12806277D01*
X5787798Y12805432D01*
X5785543Y12803600D01*
X5783146Y12801485D01*
X5780891Y12799370D01*
X5778917Y12797537D01*
X5778072Y12796832D01*
X5777367Y12796128D01*
X5777226Y12795987D01*
X5776803Y12795564D01*
X5776239Y12795000D01*
X5775534Y12794154D01*
X5774829Y12793167D01*
X5773983Y12792180D01*
X5772292Y12789784D01*
X5820363D01*
Y12778224D01*
X5755657D01*
Y12778365D01*
Y12778929D01*
Y12779775D01*
X5755798Y12780903D01*
X5755939Y12782172D01*
X5756221Y12783581D01*
X5756503Y12784991D01*
X5757067Y12786542D01*
Y12786683D01*
X5757208Y12786824D01*
X5757490Y12787669D01*
X5758054Y12788938D01*
X5758900Y12790630D01*
X5760027Y12792603D01*
X5761437Y12794859D01*
X5762988Y12797114D01*
X5764961Y12799511D01*
Y12799652D01*
X5765243Y12799793D01*
X5765948Y12800639D01*
X5767217Y12801907D01*
X5769049Y12803740D01*
X5771164Y12805855D01*
X5773842Y12808392D01*
X5777085Y12811211D01*
X5780609Y12814172D01*
X5780750Y12814313D01*
X5781314Y12814735D01*
X5782160Y12815440D01*
X5783146Y12816286D01*
X5784415Y12817413D01*
X5785966Y12818683D01*
X5787516Y12820091D01*
X5789349Y12821643D01*
X5792873Y12825026D01*
X5796398Y12828410D01*
X5798089Y12830101D01*
X5799640Y12831793D01*
X5801050Y12833344D01*
X5802177Y12834894D01*
Y12835036D01*
X5802459Y12835176D01*
X5802741Y12835599D01*
X5803023Y12836163D01*
X5804010Y12837714D01*
X5805138Y12839546D01*
X5806125Y12841801D01*
X5807111Y12844199D01*
X5807675Y12846877D01*
X5807957Y12849414D01*
Y12849554D01*
Y12849696D01*
X5807816Y12850542D01*
X5807675Y12851952D01*
X5807252Y12853502D01*
X5806688Y12855476D01*
X5805702Y12857449D01*
X5804433Y12859422D01*
X5802741Y12861397D01*
X5802459Y12861679D01*
X5801754Y12862242D01*
X5800768Y12862947D01*
X5799217Y12863934D01*
X5797243Y12864780D01*
X5794988Y12865627D01*
X5792309Y12866190D01*
X5789349Y12866331D01*
X5788503D01*
X5787939Y12866190D01*
X5786248Y12866049D01*
X5784274Y12865627D01*
X5782160Y12865062D01*
X5779763Y12864075D01*
X5777508Y12862807D01*
X5775393Y12861115D01*
X5775111Y12860834D01*
X5774547Y12860127D01*
X5773701Y12859000D01*
X5772856Y12857309D01*
X5771869Y12855334D01*
X5771023Y12852798D01*
X5770459Y12849979D01*
X5770177Y12846736D01*
X5757913Y12848006D01*
Y12848146D01*
X5758054Y12848569D01*
Y12849274D01*
X5758195Y12850259D01*
X5758477Y12851389D01*
X5758759Y12852657D01*
X5759182Y12854207D01*
X5759604Y12855759D01*
X5760732Y12859142D01*
X5762424Y12862524D01*
X5763411Y12864217D01*
X5764679Y12865907D01*
X5765948Y12867458D01*
X5767358Y12868867D01*
X5767499Y12869009D01*
X5767781Y12869150D01*
X5768204Y12869572D01*
X5768908Y12869997D01*
X5769754Y12870560D01*
X5770741Y12871124D01*
X5771869Y12871828D01*
X5773279Y12872533D01*
X5774829Y12873238D01*
X5776521Y12873943D01*
X5778353Y12874507D01*
X5780327Y12875072D01*
X5782442Y12875494D01*
X5784697Y12875917D01*
X5787094Y12876057D01*
X5789631Y12876199D01*
X5791041D01*
X5792028Y12876057D01*
D02*
G37*
G36*
X5726617Y12778224D02*
X5714635D01*
Y12854489D01*
X5714494Y12854349D01*
X5713789Y12853784D01*
X5712943Y12852937D01*
X5711534Y12851952D01*
X5709983Y12850684D01*
X5708009Y12849274D01*
X5705754Y12847723D01*
X5703216Y12846172D01*
X5703075D01*
X5702934Y12846031D01*
X5702089Y12845467D01*
X5700679Y12844762D01*
X5698987Y12843916D01*
X5697014Y12842931D01*
X5694899Y12841943D01*
X5692785Y12840956D01*
X5690670Y12840109D01*
Y12851669D01*
X5690811D01*
X5691093Y12851952D01*
X5691657Y12852094D01*
X5692362Y12852516D01*
X5693208Y12852937D01*
X5694194Y12853502D01*
X5696591Y12854912D01*
X5699410Y12856464D01*
X5702230Y12858437D01*
X5705190Y12860692D01*
X5708150Y12863087D01*
X5708291Y12863229D01*
X5708432Y12863370D01*
X5708855Y12863792D01*
X5709419Y12864217D01*
X5710688Y12865627D01*
X5712379Y12867317D01*
X5714071Y12869292D01*
X5715904Y12871547D01*
X5717454Y12873802D01*
X5718864Y12876199D01*
X5726617D01*
Y12778224D01*
D02*
G37*
G36*
X4717729Y11378726D02*
X4718998Y11378585D01*
X4720549Y11378444D01*
X4722100Y11378303D01*
X4723932Y11377880D01*
X4727738Y11377035D01*
X4731967Y11375766D01*
X4734082Y11374920D01*
X4736056Y11373933D01*
X4738029Y11372665D01*
X4740003Y11371396D01*
X4740144Y11371255D01*
X4740426Y11371114D01*
X4740990Y11370691D01*
X4741694Y11369986D01*
X4742399Y11369281D01*
X4743386Y11368295D01*
X4744373Y11367167D01*
X4745501Y11366039D01*
X4746628Y11364629D01*
X4747756Y11362938D01*
X4749025Y11361246D01*
X4750153Y11359413D01*
X4751139Y11357299D01*
X4752267Y11355184D01*
X4753113Y11352929D01*
X4753959Y11350391D01*
X4741271Y11347431D01*
Y11347572D01*
X4741130Y11347854D01*
X4740849Y11348418D01*
X4740567Y11349123D01*
X4740285Y11349968D01*
X4739862Y11351096D01*
X4738734Y11353352D01*
X4737324Y11355889D01*
X4735633Y11358427D01*
X4733518Y11360823D01*
X4731263Y11362938D01*
X4730981Y11363220D01*
X4730135Y11363783D01*
X4728725Y11364488D01*
X4726893Y11365475D01*
X4724496Y11366321D01*
X4721818Y11367167D01*
X4718575Y11367731D01*
X4715051Y11367872D01*
X4713923D01*
X4713218Y11367731D01*
X4712232D01*
X4711104Y11367590D01*
X4708425Y11367167D01*
X4705465Y11366603D01*
X4702364Y11365616D01*
X4699121Y11364206D01*
X4696161Y11362374D01*
X4696020D01*
X4695879Y11362092D01*
X4694892Y11361387D01*
X4693624Y11360259D01*
X4692073Y11358568D01*
X4690240Y11356453D01*
X4688549Y11354057D01*
X4686998Y11351096D01*
X4685588Y11347854D01*
Y11347713D01*
X4685447Y11347431D01*
X4685306Y11347008D01*
X4685165Y11346303D01*
X4684883Y11345457D01*
X4684602Y11344471D01*
X4684179Y11342074D01*
X4683615Y11339255D01*
X4683051Y11336153D01*
X4682769Y11332770D01*
X4682628Y11329105D01*
Y11328964D01*
Y11328541D01*
Y11327836D01*
Y11326990D01*
X4682769Y11326004D01*
Y11324735D01*
X4682910Y11323325D01*
X4683051Y11321774D01*
X4683474Y11318391D01*
X4684179Y11314726D01*
X4685024Y11311061D01*
X4686152Y11307395D01*
Y11307254D01*
X4686293Y11306973D01*
X4686575Y11306550D01*
X4686857Y11305845D01*
X4687703Y11304153D01*
X4688972Y11302180D01*
X4690522Y11299924D01*
X4692496Y11297528D01*
X4694751Y11295413D01*
X4697430Y11293439D01*
X4697571D01*
X4697853Y11293298D01*
X4698276Y11293017D01*
X4698839Y11292735D01*
X4699544Y11292453D01*
X4700390Y11292030D01*
X4702364Y11291184D01*
X4704901Y11290338D01*
X4707721Y11289633D01*
X4710822Y11289069D01*
X4714064Y11288928D01*
X4715051D01*
X4715897Y11289069D01*
X4716884D01*
X4717870Y11289210D01*
X4720408Y11289774D01*
X4723368Y11290479D01*
X4726329Y11291607D01*
X4729430Y11293157D01*
X4730981Y11294003D01*
X4732390Y11295131D01*
X4732531Y11295272D01*
X4732672Y11295413D01*
X4733095Y11295836D01*
X4733659Y11296259D01*
X4734223Y11296964D01*
X4734928Y11297810D01*
X4735774Y11298655D01*
X4736478Y11299783D01*
X4737324Y11301052D01*
X4738311Y11302462D01*
X4739157Y11303871D01*
X4740003Y11305563D01*
X4740708Y11307395D01*
X4741412Y11309369D01*
X4742117Y11311484D01*
X4742681Y11313739D01*
X4755650Y11310497D01*
Y11310356D01*
X4755509Y11309792D01*
X4755227Y11308946D01*
X4754805Y11307818D01*
X4754382Y11306550D01*
X4753818Y11304999D01*
X4753113Y11303307D01*
X4752267Y11301475D01*
X4750294Y11297528D01*
X4747756Y11293580D01*
X4746205Y11291607D01*
X4744655Y11289633D01*
X4742963Y11287942D01*
X4740990Y11286250D01*
X4740849Y11286109D01*
X4740567Y11285827D01*
X4739862Y11285545D01*
X4739157Y11284981D01*
X4738029Y11284276D01*
X4736901Y11283572D01*
X4735351Y11282867D01*
X4733800Y11282162D01*
X4731967Y11281316D01*
X4729994Y11280611D01*
X4727879Y11279906D01*
X4725624Y11279201D01*
X4723227Y11278638D01*
X4720690Y11278356D01*
X4718011Y11278074D01*
X4715192Y11277933D01*
X4713641D01*
X4712514Y11278074D01*
X4711245D01*
X4709694Y11278215D01*
X4708003Y11278497D01*
X4706029Y11278779D01*
X4701941Y11279483D01*
X4697712Y11280611D01*
X4693483Y11282162D01*
X4691509Y11283149D01*
X4689535Y11284276D01*
X4689394Y11284417D01*
X4689113Y11284558D01*
X4688549Y11284981D01*
X4687985Y11285545D01*
X4687139Y11286109D01*
X4686152Y11286955D01*
X4685024Y11287942D01*
X4683897Y11289069D01*
X4682769Y11290338D01*
X4681500Y11291607D01*
X4678963Y11294849D01*
X4676566Y11298655D01*
X4674452Y11302884D01*
Y11303025D01*
X4674170Y11303448D01*
X4674029Y11304153D01*
X4673606Y11304999D01*
X4673324Y11306127D01*
X4672901Y11307536D01*
X4672337Y11309087D01*
X4671914Y11310779D01*
X4671491Y11312611D01*
X4670927Y11314726D01*
X4670223Y11319096D01*
X4669659Y11324030D01*
X4669377Y11329105D01*
Y11329246D01*
Y11329810D01*
Y11330656D01*
X4669518Y11331642D01*
Y11333052D01*
X4669659Y11334462D01*
X4669800Y11336294D01*
X4670082Y11338127D01*
X4670786Y11342215D01*
X4671773Y11346726D01*
X4673183Y11351237D01*
X4675157Y11355607D01*
X4675297Y11355748D01*
X4675438Y11356171D01*
X4675720Y11356735D01*
X4676284Y11357440D01*
X4676848Y11358427D01*
X4677553Y11359554D01*
X4679386Y11362092D01*
X4681782Y11364911D01*
X4684602Y11367731D01*
X4687844Y11370550D01*
X4691650Y11372947D01*
X4691791Y11373087D01*
X4692214Y11373228D01*
X4692778Y11373510D01*
X4693483Y11373933D01*
X4694610Y11374356D01*
X4695738Y11374779D01*
X4697148Y11375343D01*
X4698699Y11375907D01*
X4700390Y11376471D01*
X4702223Y11377035D01*
X4706170Y11377880D01*
X4710681Y11378585D01*
X4715333Y11378867D01*
X4716743D01*
X4717729Y11378726D01*
D02*
G37*
G36*
X4816972Y11314021D02*
X4830224D01*
Y11303025D01*
X4816972D01*
Y11279624D01*
X4804990D01*
Y11303025D01*
X4762558D01*
Y11314021D01*
X4807245Y11377176D01*
X4816972D01*
Y11314021D01*
D02*
G37*
G36*
X4822194Y10739772D02*
Y10739631D01*
Y10739208D01*
Y10738645D01*
Y10737799D01*
X4822053Y10736671D01*
Y10735543D01*
X4821771Y10732865D01*
X4821489Y10729763D01*
X4820925Y10726521D01*
X4820079Y10723561D01*
X4819092Y10720741D01*
Y10720600D01*
X4818951Y10720459D01*
X4818529Y10719614D01*
X4817824Y10718486D01*
X4816837Y10716935D01*
X4815427Y10715384D01*
X4813877Y10713693D01*
X4811903Y10712001D01*
X4809647Y10710591D01*
X4809366Y10710451D01*
X4808520Y10710028D01*
X4807251Y10709464D01*
X4805418Y10708900D01*
X4803163Y10708195D01*
X4800625Y10707631D01*
X4797806Y10707208D01*
X4794705Y10707067D01*
X4793436D01*
X4792590Y10707208D01*
X4791462Y10707349D01*
X4790335Y10707490D01*
X4787374Y10708054D01*
X4784273Y10708900D01*
X4781031Y10710169D01*
X4779339Y10711014D01*
X4777788Y10712001D01*
X4776379Y10713129D01*
X4774969Y10714398D01*
X4774828Y10714539D01*
X4774687Y10714680D01*
X4774405Y10715243D01*
X4773982Y10715807D01*
X4773418Y10716512D01*
X4772854Y10717499D01*
X4772290Y10718627D01*
X4771586Y10719896D01*
X4771022Y10721305D01*
X4770458Y10722997D01*
X4769894Y10724688D01*
X4769330Y10726662D01*
X4769048Y10728777D01*
X4768625Y10731173D01*
X4768484Y10733570D01*
Y10736248D01*
X4780185Y10737940D01*
Y10737799D01*
Y10737517D01*
Y10736953D01*
X4780326Y10736107D01*
X4780467Y10735261D01*
Y10734274D01*
X4780890Y10731878D01*
X4781313Y10729340D01*
X4782158Y10726803D01*
X4783004Y10724548D01*
X4783568Y10723561D01*
X4784273Y10722715D01*
X4784414Y10722574D01*
X4784978Y10722151D01*
X4785824Y10721446D01*
X4786951Y10720741D01*
X4788502Y10719896D01*
X4790194Y10719332D01*
X4792308Y10718768D01*
X4794564Y10718627D01*
X4795410D01*
X4796255Y10718768D01*
X4797524Y10718909D01*
X4798793Y10719191D01*
X4800202Y10719473D01*
X4801612Y10720036D01*
X4803022Y10720741D01*
X4803163Y10720882D01*
X4803586Y10721164D01*
X4804150Y10721728D01*
X4804995Y10722292D01*
X4805700Y10723279D01*
X4806546Y10724266D01*
X4807251Y10725393D01*
X4807815Y10726803D01*
Y10726944D01*
X4808097Y10727508D01*
X4808238Y10728495D01*
X4808520Y10729763D01*
X4808802Y10731455D01*
X4808943Y10733570D01*
X4809225Y10736107D01*
Y10739067D01*
Y10806310D01*
X4822194D01*
Y10739772D01*
D02*
G37*
G36*
X4883516Y10708759D02*
X4871533D01*
Y10785024D01*
X4871392Y10784883D01*
X4870687Y10784319D01*
X4869842Y10783473D01*
X4868432Y10782486D01*
X4866881Y10781217D01*
X4864908Y10779808D01*
X4862652Y10778257D01*
X4860115Y10776706D01*
X4859974D01*
X4859833Y10776565D01*
X4858987Y10776002D01*
X4857577Y10775297D01*
X4855886Y10774451D01*
X4853912Y10773464D01*
X4851798Y10772477D01*
X4849683Y10771491D01*
X4847568Y10770645D01*
Y10782204D01*
X4847709D01*
X4847991Y10782486D01*
X4848555Y10782627D01*
X4849260Y10783050D01*
X4850106Y10783473D01*
X4851093Y10784037D01*
X4853489Y10785447D01*
X4856309Y10786997D01*
X4859128Y10788971D01*
X4862088Y10791226D01*
X4865049Y10793623D01*
X4865190Y10793764D01*
X4865331Y10793905D01*
X4865754Y10794328D01*
X4866317Y10794751D01*
X4867586Y10796160D01*
X4869278Y10797852D01*
X4870969Y10799825D01*
X4872802Y10802081D01*
X4874353Y10804337D01*
X4875762Y10806733D01*
X4883516D01*
Y10708759D01*
D02*
G37*
G36*
X5802304Y13677426D02*
X5803291D01*
X5805970Y13677144D01*
X5808930Y13676721D01*
X5812031Y13676018D01*
X5815415Y13675171D01*
X5818516Y13674043D01*
X5818657D01*
X5818939Y13673901D01*
X5819362Y13673621D01*
X5819926Y13673338D01*
X5821335Y13672633D01*
X5823168Y13671365D01*
X5825282Y13669955D01*
X5827397Y13668121D01*
X5829371Y13666008D01*
X5831203Y13663611D01*
Y13663470D01*
X5831344Y13663329D01*
X5831626Y13662906D01*
X5831908Y13662483D01*
X5832613Y13661073D01*
X5833459Y13659241D01*
X5834446Y13656985D01*
X5835150Y13654308D01*
X5835855Y13651488D01*
X5836137Y13648386D01*
X5823732Y13647400D01*
Y13647540D01*
Y13647823D01*
X5823591Y13648245D01*
X5823450Y13648950D01*
X5823027Y13650500D01*
X5822463Y13652615D01*
X5821617Y13654871D01*
X5820349Y13657127D01*
X5818798Y13659241D01*
X5816824Y13661215D01*
X5816542Y13661356D01*
X5815837Y13661920D01*
X5814428Y13662766D01*
X5812595Y13663611D01*
X5810199Y13664458D01*
X5807379Y13665303D01*
X5803855Y13665868D01*
X5799908Y13666008D01*
X5797934D01*
X5797088Y13665868D01*
X5795961Y13665726D01*
X5793423Y13665443D01*
X5790604Y13664880D01*
X5787784Y13664175D01*
X5785106Y13663046D01*
X5783978Y13662341D01*
X5782851Y13661638D01*
X5782569Y13661497D01*
X5782005Y13660933D01*
X5781159Y13659946D01*
X5780313Y13658818D01*
X5779326Y13657268D01*
X5778480Y13655576D01*
X5777917Y13653603D01*
X5777635Y13651347D01*
Y13651065D01*
Y13650500D01*
X5777776Y13649513D01*
X5778058Y13648386D01*
X5778480Y13646977D01*
X5779185Y13645567D01*
X5780031Y13644157D01*
X5781300Y13642747D01*
X5781441Y13642607D01*
X5782146Y13642184D01*
X5782710Y13641760D01*
X5783273Y13641479D01*
X5784119Y13641055D01*
X5785106Y13640492D01*
X5786375Y13640070D01*
X5787784Y13639505D01*
X5789335Y13638940D01*
X5791168Y13638237D01*
X5793141Y13637672D01*
X5795397Y13636967D01*
X5797934Y13636404D01*
X5800754Y13635699D01*
X5800895D01*
X5801459Y13635558D01*
X5802304Y13635417D01*
X5803291Y13635135D01*
X5804560Y13634853D01*
X5806111Y13634430D01*
X5807661Y13634007D01*
X5809353Y13633585D01*
X5813018Y13632597D01*
X5816542Y13631612D01*
X5818234Y13631047D01*
X5819785Y13630482D01*
X5821194Y13630060D01*
X5822322Y13629495D01*
X5822463D01*
X5822745Y13629356D01*
X5823168Y13629074D01*
X5823732Y13628792D01*
X5825282Y13627946D01*
X5827115Y13626817D01*
X5829230Y13625267D01*
X5831344Y13623576D01*
X5833318Y13621602D01*
X5835009Y13619489D01*
X5835150Y13619206D01*
X5835714Y13618501D01*
X5836278Y13617232D01*
X5837124Y13615540D01*
X5837829Y13613567D01*
X5838534Y13611169D01*
X5838957Y13608492D01*
X5839098Y13605673D01*
Y13605531D01*
Y13605391D01*
Y13604968D01*
Y13604404D01*
X5838816Y13602853D01*
X5838534Y13600880D01*
X5837970Y13598624D01*
X5837265Y13596228D01*
X5836137Y13593690D01*
X5834587Y13591013D01*
Y13590871D01*
X5834446Y13590730D01*
X5833741Y13589883D01*
X5832754Y13588615D01*
X5831344Y13587206D01*
X5829512Y13585513D01*
X5827256Y13583681D01*
X5824719Y13581990D01*
X5821758Y13580440D01*
X5821617D01*
X5821335Y13580298D01*
X5820912Y13580157D01*
X5820349Y13579875D01*
X5819503Y13579593D01*
X5818516Y13579170D01*
X5816260Y13578606D01*
X5813582Y13577901D01*
X5810340Y13577197D01*
X5806815Y13576775D01*
X5803009Y13576633D01*
X5800754D01*
X5799626Y13576775D01*
X5798357D01*
X5796948Y13576915D01*
X5795256Y13577055D01*
X5791732Y13577620D01*
X5788066Y13578183D01*
X5784401Y13579170D01*
X5780877Y13580440D01*
X5780736D01*
X5780454Y13580580D01*
X5780031Y13580862D01*
X5779467Y13581145D01*
X5777776Y13581990D01*
X5775802Y13583258D01*
X5773546Y13584950D01*
X5771150Y13586925D01*
X5768894Y13589320D01*
X5766780Y13591998D01*
Y13592139D01*
X5766498Y13592421D01*
X5766357Y13592844D01*
X5765934Y13593408D01*
X5765652Y13594113D01*
X5765229Y13594958D01*
X5764242Y13597073D01*
X5763256Y13599751D01*
X5762410Y13602711D01*
X5761846Y13606094D01*
X5761564Y13609621D01*
X5773687Y13610747D01*
Y13610606D01*
Y13610466D01*
X5773828Y13610043D01*
Y13609479D01*
X5774110Y13608211D01*
X5774533Y13606377D01*
X5775097Y13604546D01*
X5775661Y13602431D01*
X5776648Y13600456D01*
X5777635Y13598624D01*
X5777776Y13598483D01*
X5778199Y13597919D01*
X5778903Y13596931D01*
X5780031Y13595946D01*
X5781441Y13594678D01*
X5782991Y13593408D01*
X5785106Y13592139D01*
X5787362Y13591013D01*
X5787503D01*
X5787643Y13590871D01*
X5788066Y13590730D01*
X5788489Y13590588D01*
X5789899Y13590166D01*
X5791732Y13589603D01*
X5793987Y13589038D01*
X5796525Y13588615D01*
X5799344Y13588333D01*
X5802445Y13588193D01*
X5803714D01*
X5805124Y13588333D01*
X5806815Y13588474D01*
X5808789Y13588756D01*
X5811045Y13589038D01*
X5813300Y13589603D01*
X5815415Y13590308D01*
X5815697Y13590448D01*
X5816401Y13590730D01*
X5817388Y13591293D01*
X5818657Y13591858D01*
X5819926Y13592844D01*
X5821335Y13593831D01*
X5822745Y13594958D01*
X5823873Y13596368D01*
X5824014Y13596510D01*
X5824296Y13597073D01*
X5824719Y13597778D01*
X5825282Y13598906D01*
X5825846Y13600034D01*
X5826269Y13601443D01*
X5826551Y13602994D01*
X5826692Y13604686D01*
Y13604826D01*
Y13605531D01*
X5826551Y13606377D01*
X5826410Y13607504D01*
X5825987Y13608633D01*
X5825564Y13610043D01*
X5824860Y13611452D01*
X5823873Y13612721D01*
X5823732Y13612862D01*
X5823309Y13613284D01*
X5822745Y13613849D01*
X5821758Y13614696D01*
X5820630Y13615540D01*
X5819080Y13616527D01*
X5817247Y13617514D01*
X5815133Y13618359D01*
X5814992Y13618501D01*
X5814287Y13618642D01*
X5813159Y13619064D01*
X5812454Y13619206D01*
X5811467Y13619489D01*
X5810481Y13619911D01*
X5809212Y13620192D01*
X5807802Y13620615D01*
X5806111Y13621037D01*
X5804419Y13621461D01*
X5802445Y13622025D01*
X5800190Y13622589D01*
X5797793Y13623154D01*
X5797652D01*
X5797229Y13623294D01*
X5796525Y13623434D01*
X5795679Y13623717D01*
X5794551Y13623999D01*
X5793282Y13624281D01*
X5790463Y13625127D01*
X5787362Y13626112D01*
X5784119Y13627100D01*
X5781300Y13628087D01*
X5780031Y13628651D01*
X5778903Y13629214D01*
X5778762D01*
X5778621Y13629356D01*
X5777776Y13629919D01*
X5776507Y13630624D01*
X5775097Y13631752D01*
X5773406Y13633022D01*
X5771714Y13634570D01*
X5770022Y13636404D01*
X5768613Y13638377D01*
X5768472Y13638660D01*
X5768049Y13639365D01*
X5767485Y13640492D01*
X5766921Y13641902D01*
X5766357Y13643735D01*
X5765793Y13645850D01*
X5765370Y13648105D01*
X5765229Y13650500D01*
Y13650642D01*
Y13650783D01*
Y13651205D01*
Y13651770D01*
X5765511Y13653178D01*
X5765793Y13655013D01*
X5766216Y13657127D01*
X5766921Y13659523D01*
X5767908Y13661920D01*
X5769317Y13664316D01*
Y13664458D01*
X5769458Y13664598D01*
X5770163Y13665443D01*
X5771150Y13666573D01*
X5772419Y13667981D01*
X5774110Y13669531D01*
X5776225Y13671223D01*
X5778762Y13672774D01*
X5781582Y13674184D01*
X5781723D01*
X5782005Y13674326D01*
X5782428Y13674466D01*
X5782991Y13674748D01*
X5783696Y13675031D01*
X5784683Y13675311D01*
X5786798Y13675876D01*
X5789476Y13676440D01*
X5792577Y13677003D01*
X5795820Y13677426D01*
X5799485Y13677567D01*
X5801318D01*
X5802304Y13677426D01*
D02*
G37*
G36*
X5897036Y13578323D02*
X5885054D01*
Y13654588D01*
X5884913Y13654448D01*
X5884208Y13653883D01*
X5883362Y13653038D01*
X5881952Y13652052D01*
X5880402Y13650783D01*
X5878428Y13649373D01*
X5876173Y13647823D01*
X5873635Y13646272D01*
X5873494D01*
X5873353Y13646130D01*
X5872507Y13645567D01*
X5871098Y13644862D01*
X5869406Y13644016D01*
X5867433Y13643030D01*
X5865318Y13642043D01*
X5863203Y13641055D01*
X5861089Y13640210D01*
Y13651770D01*
X5861230D01*
X5861512Y13652052D01*
X5862076Y13652193D01*
X5862781Y13652615D01*
X5863626Y13653038D01*
X5864613Y13653603D01*
X5867010Y13655013D01*
X5869829Y13656563D01*
X5872648Y13658536D01*
X5875609Y13660793D01*
X5878569Y13663188D01*
X5878710Y13663329D01*
X5878851Y13663470D01*
X5879274Y13663893D01*
X5879838Y13664316D01*
X5881107Y13665726D01*
X5882798Y13667416D01*
X5884490Y13669391D01*
X5886322Y13671648D01*
X5887873Y13673901D01*
X5889283Y13676299D01*
X5897036D01*
Y13578323D01*
D02*
G37*
%LPC*%
G36*
X5871738Y11213005D02*
X5849183D01*
Y11138573D01*
X5872302D01*
X5873288Y11138714D01*
X5875403Y11138855D01*
X5877800Y11138996D01*
X5880337Y11139277D01*
X5882874Y11139700D01*
X5884989Y11140264D01*
X5885271Y11140405D01*
X5885976Y11140546D01*
X5886963Y11140969D01*
X5888231Y11141533D01*
X5889641Y11142379D01*
X5891051Y11143225D01*
X5892460Y11144211D01*
X5893870Y11145339D01*
X5894011Y11145621D01*
X5894575Y11146185D01*
X5895421Y11147172D01*
X5896408Y11148581D01*
X5897535Y11150414D01*
X5898804Y11152529D01*
X5899932Y11154925D01*
X5900919Y11157604D01*
Y11157745D01*
X5901060Y11158026D01*
X5901201Y11158449D01*
X5901342Y11159013D01*
X5901482Y11159718D01*
X5901764Y11160705D01*
X5902046Y11161692D01*
X5902328Y11162819D01*
X5902751Y11165639D01*
X5903174Y11168881D01*
X5903456Y11172546D01*
X5903597Y11176494D01*
Y11176634D01*
Y11177198D01*
Y11177903D01*
X5903456Y11179031D01*
Y11180300D01*
X5903315Y11181709D01*
X5903174Y11183401D01*
X5903033Y11185093D01*
X5902328Y11188899D01*
X5901482Y11192846D01*
X5900214Y11196511D01*
X5899368Y11198344D01*
X5898522Y11199895D01*
Y11200036D01*
X5898240Y11200317D01*
X5897958Y11200740D01*
X5897676Y11201304D01*
X5896549Y11202714D01*
X5895139Y11204406D01*
X5893306Y11206238D01*
X5891192Y11208071D01*
X5888795Y11209621D01*
X5886258Y11210890D01*
X5885976Y11211031D01*
X5885271Y11211172D01*
X5884002Y11211595D01*
X5882170Y11212018D01*
X5879914Y11212300D01*
X5877095Y11212723D01*
X5875403Y11212864D01*
X5873570D01*
X5871738Y11213005D01*
D02*
G37*
G36*
X5457642Y11345291D02*
X5456232D01*
X5455246Y11345150D01*
X5453977Y11345009D01*
X5452567Y11344727D01*
X5451017Y11344445D01*
X5449325Y11344022D01*
X5447351Y11343458D01*
X5445519Y11342895D01*
X5443545Y11342049D01*
X5441431Y11341062D01*
X5439457Y11339934D01*
X5437483Y11338524D01*
X5435510Y11337115D01*
X5433677Y11335282D01*
X5433536Y11335141D01*
X5433254Y11334859D01*
X5432831Y11334295D01*
X5432268Y11333450D01*
X5431422Y11332463D01*
X5430717Y11331194D01*
X5429871Y11329643D01*
X5429025Y11327952D01*
X5428038Y11325978D01*
X5427193Y11323723D01*
X5426488Y11321326D01*
X5425783Y11318648D01*
X5425078Y11315828D01*
X5424655Y11312727D01*
X5424373Y11309344D01*
X5424232Y11305819D01*
Y11305537D01*
Y11304974D01*
Y11303987D01*
X5424373Y11302718D01*
X5424514Y11301167D01*
X5424796Y11299335D01*
X5425078Y11297220D01*
X5425360Y11295106D01*
X5426488Y11290313D01*
X5427193Y11287916D01*
X5428179Y11285520D01*
X5429166Y11283123D01*
X5430435Y11280868D01*
X5431845Y11278612D01*
X5433536Y11276639D01*
X5433677Y11276498D01*
X5433959Y11276216D01*
X5434523Y11275652D01*
X5435228Y11275088D01*
X5436215Y11274242D01*
X5437342Y11273396D01*
X5438611Y11272550D01*
X5440162Y11271564D01*
X5441713Y11270577D01*
X5443545Y11269731D01*
X5445519Y11268885D01*
X5447633Y11268039D01*
X5450030Y11267476D01*
X5452426Y11266912D01*
X5454964Y11266630D01*
X5457642Y11266489D01*
X5458911D01*
X5460180Y11266630D01*
X5461871Y11266771D01*
X5463986Y11267053D01*
X5466100Y11267617D01*
X5468497Y11268180D01*
X5470752Y11269026D01*
X5470470Y11269167D01*
X5469766Y11269731D01*
X5468497Y11270436D01*
X5466946Y11271282D01*
X5464973Y11272128D01*
X5462858Y11273114D01*
X5460462Y11273960D01*
X5457924Y11274665D01*
X5461166Y11283969D01*
X5461307D01*
X5461730Y11283828D01*
X5462294Y11283687D01*
X5462999Y11283405D01*
X5463986Y11283123D01*
X5465114Y11282700D01*
X5467651Y11281714D01*
X5470611Y11280304D01*
X5473713Y11278753D01*
X5476673Y11276921D01*
X5479633Y11274665D01*
X5479774Y11274806D01*
X5480197Y11275088D01*
X5480761Y11275793D01*
X5481466Y11276639D01*
X5482312Y11277766D01*
X5483299Y11279035D01*
X5484285Y11280586D01*
X5485413Y11282418D01*
X5486400Y11284533D01*
X5487387Y11286929D01*
X5488374Y11289467D01*
X5489219Y11292145D01*
X5490065Y11295247D01*
X5490629Y11298489D01*
X5490911Y11302013D01*
X5491052Y11305819D01*
Y11305960D01*
Y11306383D01*
Y11306947D01*
Y11307793D01*
X5490911Y11308921D01*
Y11310048D01*
X5490770Y11311458D01*
X5490488Y11312868D01*
X5490065Y11316110D01*
X5489360Y11319634D01*
X5488374Y11323159D01*
X5486964Y11326542D01*
Y11326683D01*
X5486823Y11326965D01*
X5486541Y11327388D01*
X5486259Y11327952D01*
X5485272Y11329643D01*
X5484004Y11331617D01*
X5482312Y11333872D01*
X5480197Y11336128D01*
X5477801Y11338383D01*
X5475122Y11340357D01*
X5474981D01*
X5474840Y11340639D01*
X5474418Y11340780D01*
X5473713Y11341203D01*
X5473008Y11341485D01*
X5472162Y11341908D01*
X5470047Y11342895D01*
X5467510Y11343740D01*
X5464550Y11344586D01*
X5461166Y11345150D01*
X5457642Y11345291D01*
D02*
G37*
G36*
X4541986Y10705005D02*
X4519431D01*
Y10630573D01*
X4542550D01*
X4543537Y10630714D01*
X4545651Y10630855D01*
X4548048Y10630996D01*
X4550585Y10631277D01*
X4553123Y10631700D01*
X4555237Y10632264D01*
X4555519Y10632405D01*
X4556224Y10632546D01*
X4557211Y10632969D01*
X4558480Y10633533D01*
X4559889Y10634379D01*
X4561299Y10635225D01*
X4562709Y10636211D01*
X4564118Y10637339D01*
X4564259Y10637621D01*
X4564823Y10638185D01*
X4565669Y10639172D01*
X4566656Y10640581D01*
X4567784Y10642414D01*
X4569052Y10644529D01*
X4570180Y10646925D01*
X4571167Y10649604D01*
Y10649745D01*
X4571308Y10650026D01*
X4571449Y10650449D01*
X4571590Y10651013D01*
X4571731Y10651718D01*
X4572013Y10652705D01*
X4572295Y10653692D01*
X4572577Y10654819D01*
X4572999Y10657639D01*
X4573422Y10660881D01*
X4573704Y10664546D01*
X4573845Y10668494D01*
Y10668634D01*
Y10669198D01*
Y10669903D01*
X4573704Y10671031D01*
Y10672300D01*
X4573563Y10673709D01*
X4573422Y10675401D01*
X4573281Y10677093D01*
X4572577Y10680899D01*
X4571731Y10684846D01*
X4570462Y10688511D01*
X4569616Y10690344D01*
X4568770Y10691895D01*
Y10692036D01*
X4568488Y10692317D01*
X4568207Y10692740D01*
X4567925Y10693304D01*
X4566797Y10694714D01*
X4565387Y10696406D01*
X4563554Y10698238D01*
X4561440Y10700071D01*
X4559043Y10701621D01*
X4556506Y10702890D01*
X4556224Y10703031D01*
X4555519Y10703172D01*
X4554250Y10703595D01*
X4552418Y10704018D01*
X4550162Y10704300D01*
X4547343Y10704723D01*
X4545651Y10704864D01*
X4543819D01*
X4541986Y10705005D01*
D02*
G37*
G36*
X6014693Y10578851D02*
X5992138D01*
Y10504418D01*
X6015257D01*
X6016243Y10504559D01*
X6018358Y10504700D01*
X6020755Y10504841D01*
X6023292Y10505123D01*
X6025829Y10505546D01*
X6027944Y10506110D01*
X6028226Y10506251D01*
X6028931Y10506392D01*
X6029918Y10506815D01*
X6031186Y10507379D01*
X6032596Y10508225D01*
X6034006Y10509070D01*
X6035415Y10510057D01*
X6036825Y10511185D01*
X6036966Y10511467D01*
X6037530Y10512031D01*
X6038376Y10513018D01*
X6039363Y10514427D01*
X6040490Y10516260D01*
X6041759Y10518374D01*
X6042887Y10520771D01*
X6043874Y10523449D01*
Y10523590D01*
X6044015Y10523872D01*
X6044156Y10524295D01*
X6044297Y10524859D01*
X6044437Y10525564D01*
X6044719Y10526551D01*
X6045001Y10527537D01*
X6045283Y10528665D01*
X6045706Y10531485D01*
X6046129Y10534727D01*
X6046411Y10538392D01*
X6046552Y10542339D01*
Y10542480D01*
Y10543044D01*
Y10543749D01*
X6046411Y10544877D01*
Y10546146D01*
X6046270Y10547555D01*
X6046129Y10549247D01*
X6045988Y10550939D01*
X6045283Y10554745D01*
X6044437Y10558692D01*
X6043169Y10562357D01*
X6042323Y10564190D01*
X6041477Y10565740D01*
Y10565881D01*
X6041195Y10566163D01*
X6040913Y10566586D01*
X6040631Y10567150D01*
X6039504Y10568560D01*
X6038094Y10570251D01*
X6036261Y10572084D01*
X6034147Y10573917D01*
X6031750Y10575467D01*
X6029213Y10576736D01*
X6028931Y10576877D01*
X6028226Y10577018D01*
X6026957Y10577441D01*
X6025125Y10577864D01*
X6022869Y10578146D01*
X6020050Y10578569D01*
X6018358Y10578710D01*
X6016525D01*
X6014693Y10578851D01*
D02*
G37*
G36*
X5893530Y14146706D02*
X5865618D01*
Y14111885D01*
X5891839D01*
X5892825Y14112025D01*
X5893812D01*
X5894940Y14112167D01*
X5897618Y14112450D01*
X5900579Y14113013D01*
X5903539Y14113860D01*
X5906218Y14114987D01*
X5907486Y14115691D01*
X5908473Y14116537D01*
X5908755Y14116818D01*
X5909319Y14117383D01*
X5910165Y14118510D01*
X5911152Y14119920D01*
X5912138Y14121753D01*
X5912984Y14124010D01*
X5913548Y14126546D01*
X5913830Y14129506D01*
Y14129646D01*
Y14129788D01*
Y14130493D01*
X5913689Y14131763D01*
X5913407Y14133173D01*
X5913125Y14134721D01*
X5912561Y14136555D01*
X5911715Y14138248D01*
X5910729Y14139938D01*
X5910588Y14140079D01*
X5910165Y14140643D01*
X5909460Y14141348D01*
X5908614Y14142336D01*
X5907345Y14143321D01*
X5905936Y14144167D01*
X5904385Y14145013D01*
X5902552Y14145718D01*
X5902411D01*
X5901847Y14145859D01*
X5901002Y14146001D01*
X5899874Y14146281D01*
X5898182Y14146423D01*
X5896068Y14146564D01*
X5893530Y14146706D01*
D02*
G37*
G36*
X5548439Y13326247D02*
X5547594D01*
X5547030Y13326106D01*
X5545620Y13325964D01*
X5543647Y13325542D01*
X5541532Y13324837D01*
X5539135Y13323711D01*
X5536880Y13322301D01*
X5534624Y13320326D01*
X5534343Y13320044D01*
X5533779Y13319341D01*
X5532792Y13318071D01*
X5531805Y13316238D01*
X5530818Y13314124D01*
X5529831Y13311446D01*
X5529268Y13308485D01*
X5528986Y13305103D01*
Y13304820D01*
Y13304115D01*
X5529127Y13302846D01*
X5529268Y13301295D01*
X5529550Y13299463D01*
X5530113Y13297488D01*
X5530677Y13295375D01*
X5531523Y13293260D01*
X5531664Y13292978D01*
X5532087Y13292273D01*
X5532651Y13291287D01*
X5533497Y13290018D01*
X5534483Y13288750D01*
X5535752Y13287198D01*
X5537162Y13285930D01*
X5538854Y13284660D01*
X5539135Y13284520D01*
X5539699Y13284238D01*
X5540686Y13283675D01*
X5541955Y13283250D01*
X5543365Y13282687D01*
X5545056Y13282124D01*
X5546889Y13281842D01*
X5548862Y13281702D01*
X5549567D01*
X5550131Y13281842D01*
X5551541Y13281982D01*
X5553373Y13282405D01*
X5555347Y13283250D01*
X5557603Y13284238D01*
X5559858Y13285789D01*
X5560986Y13286635D01*
X5561973Y13287762D01*
Y13287903D01*
X5562255Y13288045D01*
X5562818Y13288890D01*
X5563664Y13290300D01*
X5564792Y13292133D01*
X5565779Y13294530D01*
X5566625Y13297348D01*
X5567189Y13300591D01*
X5567470Y13304398D01*
Y13304538D01*
Y13304820D01*
Y13305383D01*
X5567329Y13306088D01*
Y13306934D01*
X5567189Y13307921D01*
X5566766Y13310178D01*
X5566202Y13312714D01*
X5565215Y13315392D01*
X5563805Y13317931D01*
X5561973Y13320326D01*
X5561691Y13320609D01*
X5560986Y13321313D01*
X5559858Y13322159D01*
X5558307Y13323286D01*
X5556334Y13324416D01*
X5554078Y13325259D01*
X5551400Y13325964D01*
X5548439Y13326247D01*
D02*
G37*
G36*
X4804990Y11357722D02*
X4774258Y11314021D01*
X4804990D01*
Y11357722D01*
D02*
G37*
%LPD*%
D50*
X5941187Y13276907D02*
G03*
X5941187Y13276907I-99187J0D01*
G01*
X5985114Y13456911D02*
X5992000D01*
X5825114D02*
X5858886D01*
X5692000D02*
X5698886D01*
X5825114Y13096906D02*
X5858886D01*
X5692000D02*
X5698886D01*
X5992000D02*
Y13456911D01*
X5692000Y13096906D02*
Y13456911D01*
X5985114Y13096906D02*
X5992000D01*
X4192981Y14086992D02*
X4442993D01*
X4192981Y10043008D02*
Y14086992D01*
Y10043008D02*
X4442993D01*
Y14086992D01*
X6224981D02*
X6474993D01*
X6224981Y10043008D02*
Y14086992D01*
Y10043008D02*
X6474993D01*
Y14086992D01*
D51*
X5012200Y13502309D02*
G03*
X5012200Y13492308I0J-5000D01*
G01*
D02*
G03*
X5012200Y13502309I0J5000D01*
G01*
D52*
X5259879Y12671995D02*
G03*
X5259879Y12671995I-12500J0D01*
G01*
X5596500Y13592500D02*
G03*
X5596500Y13592500I-12500J0D01*
G01*
D53*
X5024000Y10713250D02*
G03*
X5024000Y10713250I-10000J0D01*
G01*
X5334000Y12535877D02*
X5779477Y12090400D01*
X5334000Y11644923D02*
X5779477Y12090400D01*
X4888523D02*
X5334000Y11644923D01*
X4888523Y12090400D02*
X5334000Y12535877D01*
X4934000Y13757500D02*
Y13982500D01*
Y13757500D02*
X5014000D01*
X5654000D02*
X5734000D01*
Y13982500D01*
X5054000Y14182500D02*
X5614000D01*
D54*
X5772800Y11003835D02*
Y11093835D01*
X6012800D01*
Y11003835D02*
Y11093835D01*
X4521625Y10377000D02*
Y10467000D01*
X4761625D01*
Y10377000D02*
Y10467000D01*
X5925200Y10377000D02*
Y10467000D01*
X6165200D01*
Y10377000D02*
Y10467000D01*
D55*
X5288461Y11027179D02*
X5379540D01*
X5181379Y11172421D02*
X5284541D01*
X5181379Y11027179D02*
Y11172421D01*
X5383459D02*
X5486621D01*
Y11027179D02*
Y11172421D01*
D56*
X4887000Y10248250D02*
Y10388250D01*
X5781000Y10248250D02*
Y10388250D01*
X4887000Y9978250D02*
X5781000D01*
%TF.MD5,7a198be03eb3850fbe1fbb93be9e44cf*%
M02*
