%TF.GenerationSoftware,Altium Limited,Altium Designer,26.5.1 (12)*%
G04 Layer_Physical_Order=1*
G04 Layer_Color=255*
G04 Board_Origin=0|0*
%FSLAX45Y45*%
%MOMM*%
%TF.SameCoordinates,62A7B766-ACB9-45BE-ACEC-DECC99EEDB6B*%
%TF.FilePolarity,Positive*%
%TF.FileFunction,Copper,L1,Top,Signal*%
%TF.Part,Single*%
G01*
G75*
%TA.AperFunction,SMDPad,CuDef*%
%ADD10R,0.90000X1.25001*%
%ADD11R,1.40000X1.20000*%
%ADD12R,1.20000X1.80000*%
G04:AMPARAMS|DCode=13|XSize=1.4mm|YSize=1.7mm|CornerRadius=0.175mm|HoleSize=0mm|Usage=FLASHONLY|Rotation=180.000|XOffset=0mm|YOffset=0mm|HoleType=Round|Shape=RoundedRectangle|*
%AMROUNDEDRECTD13*
21,1,1.40000,1.35000,0,0,180.0*
21,1,1.05000,1.70000,0,0,180.0*
1,1,0.35000,-0.52500,0.67500*
1,1,0.35000,0.52500,0.67500*
1,1,0.35000,0.52500,-0.67500*
1,1,0.35000,-0.52500,-0.67500*
%
%ADD13ROUNDEDRECTD13*%
G04:AMPARAMS|DCode=14|XSize=1.475mm|YSize=0.3mm|CornerRadius=0mm|HoleSize=0mm|Usage=FLASHONLY|Rotation=45.000|XOffset=0mm|YOffset=0mm|HoleType=Round|Shape=Rectangle|*
%AMROTATEDRECTD14*
4,1,4,-0.41543,-0.62756,-0.62756,-0.41543,0.41543,0.62756,0.62756,0.41543,-0.41543,-0.62756,0.0*
%
%ADD14ROTATEDRECTD14*%

%ADD15R,0.60000X1.55000*%
G04:AMPARAMS|DCode=16|XSize=1.475mm|YSize=0.3mm|CornerRadius=0mm|HoleSize=0mm|Usage=FLASHONLY|Rotation=315.000|XOffset=0mm|YOffset=0mm|HoleType=Round|Shape=Rectangle|*
%AMROTATEDRECTD16*
4,1,4,-0.62756,0.41543,-0.41543,0.62756,0.62756,-0.41543,0.41543,-0.62756,-0.62756,0.41543,0.0*
%
%ADD16ROTATEDRECTD16*%

G04:AMPARAMS|DCode=17|XSize=1mm|YSize=1.7mm|CornerRadius=0.125mm|HoleSize=0mm|Usage=FLASHONLY|Rotation=270.000|XOffset=0mm|YOffset=0mm|HoleType=Round|Shape=RoundedRectangle|*
%AMROUNDEDRECTD17*
21,1,1.00000,1.45000,0,0,270.0*
21,1,0.75000,1.70000,0,0,270.0*
1,1,0.25000,-0.72500,-0.37500*
1,1,0.25000,-0.72500,0.37500*
1,1,0.25000,0.72500,0.37500*
1,1,0.25000,0.72500,-0.37500*
%
%ADD17ROUNDEDRECTD17*%
%TA.AperFunction,ConnectorPad*%
%ADD18R,0.60000X1.15000*%
%TA.AperFunction,SMDPad,CuDef*%
G04:AMPARAMS|DCode=19|XSize=1.4mm|YSize=1.7mm|CornerRadius=0.175mm|HoleSize=0mm|Usage=FLASHONLY|Rotation=90.000|XOffset=0mm|YOffset=0mm|HoleType=Round|Shape=RoundedRectangle|*
%AMROUNDEDRECTD19*
21,1,1.40000,1.35000,0,0,90.0*
21,1,1.05000,1.70000,0,0,90.0*
1,1,0.35000,0.67500,0.52500*
1,1,0.35000,0.67500,-0.52500*
1,1,0.35000,-0.67500,-0.52500*
1,1,0.35000,-0.67500,0.52500*
%
%ADD19ROUNDEDRECTD19*%
%ADD20R,0.70000X1.25001*%
%TA.AperFunction,ConnectorPad*%
%ADD21R,0.30000X1.15000*%
%TA.AperFunction,Conductor*%
%ADD22C,0.15000*%
%ADD23C,0.50000*%
%ADD24C,0.15240*%
%ADD25C,0.30000*%
%TA.AperFunction,ComponentPad*%
%ADD26C,1.80000*%
%ADD27O,1.00000X2.10000*%
%ADD28O,1.00000X1.80000*%
%ADD29R,1.80000X1.80000*%
%ADD30C,0.65000*%
%TA.AperFunction,ViaPad*%
%ADD31C,0.60000*%
%ADD32C,0.70000*%
G36*
X6494709Y9926391D02*
X4173291D01*
Y14203609D01*
X4868600D01*
Y14125200D01*
X4953999D01*
Y14112500D01*
X4966699D01*
Y13997099D01*
X5039400D01*
Y14046187D01*
X5049400Y14049712D01*
X5067300Y14042296D01*
Y14097000D01*
Y14151704D01*
X5049400Y14144289D01*
X5039400Y14147813D01*
Y14203609D01*
X5628600D01*
Y14136189D01*
X5618600Y14132047D01*
X5606681Y14143967D01*
X5588000Y14151704D01*
Y14097000D01*
Y14042296D01*
X5606681Y14050034D01*
X5618600Y14061954D01*
X5628600Y14057811D01*
Y13997099D01*
X5701301D01*
Y14112500D01*
X5714001D01*
Y14125200D01*
X5799400D01*
Y14203609D01*
X6494709D01*
Y9926391D01*
D02*
G37*
G36*
X5654305Y14082001D02*
X5654155Y14083424D01*
X5653705Y14084700D01*
X5652955Y14085825D01*
X5651905Y14086800D01*
X5650555Y14087625D01*
X5648905Y14088300D01*
X5646955Y14088824D01*
X5644705Y14089200D01*
X5642155Y14089426D01*
X5639305Y14089500D01*
Y14104500D01*
X5642155Y14104575D01*
X5644705Y14104800D01*
X5646955Y14105174D01*
X5648905Y14105701D01*
X5650555Y14106375D01*
X5651905Y14107201D01*
X5652955Y14108176D01*
X5653705Y14109300D01*
X5654155Y14110574D01*
X5654305Y14112000D01*
Y14082001D01*
D02*
G37*
G36*
X5013845Y14110574D02*
X5014295Y14109300D01*
X5015045Y14108176D01*
X5016095Y14107201D01*
X5017445Y14106375D01*
X5019095Y14105701D01*
X5021045Y14105174D01*
X5023295Y14104800D01*
X5025845Y14104575D01*
X5028695Y14104500D01*
Y14089500D01*
X5025845Y14089426D01*
X5023295Y14089200D01*
X5021045Y14088824D01*
X5019095Y14088300D01*
X5017445Y14087625D01*
X5016095Y14086800D01*
X5015045Y14085825D01*
X5014295Y14084700D01*
X5013845Y14083424D01*
X5013695Y14082001D01*
Y14112000D01*
X5013845Y14110574D01*
D02*
G37*
G36*
X5599362Y14115434D02*
X5604588Y14111115D01*
X5607175Y14109360D01*
X5609746Y14107875D01*
X5612300Y14106660D01*
X5614837Y14105714D01*
X5617357Y14105040D01*
X5619861Y14104636D01*
X5622347Y14104500D01*
Y14089500D01*
X5619861Y14089365D01*
X5617357Y14088960D01*
X5614837Y14088284D01*
X5612300Y14087340D01*
X5609746Y14086125D01*
X5607175Y14084641D01*
X5604588Y14082886D01*
X5601984Y14080859D01*
X5599362Y14078564D01*
X5596724Y14075999D01*
Y14117999D01*
X5599362Y14115434D01*
D02*
G37*
G36*
X5058576Y14075999D02*
X5055938Y14078564D01*
X5050712Y14082886D01*
X5048125Y14084641D01*
X5045554Y14086125D01*
X5043000Y14087340D01*
X5040463Y14088284D01*
X5037943Y14088960D01*
X5035439Y14089365D01*
X5032953Y14089500D01*
Y14104500D01*
X5035439Y14104636D01*
X5037943Y14105040D01*
X5040463Y14105714D01*
X5043000Y14106660D01*
X5045554Y14107875D01*
X5048125Y14109360D01*
X5050712Y14111115D01*
X5053316Y14113139D01*
X5055938Y14115434D01*
X5058576Y14117999D01*
Y14075999D01*
D02*
G37*
%LPC*%
G36*
X5562600Y14151704D02*
X5543919Y14143967D01*
X5528334Y14128381D01*
X5520596Y14109700D01*
X5562600D01*
Y14151704D01*
D02*
G37*
G36*
X5092700D02*
Y14109700D01*
X5134704D01*
X5126966Y14128381D01*
X5111381Y14143967D01*
X5092700Y14151704D01*
D02*
G37*
G36*
X5562600Y14084300D02*
X5520596D01*
X5528334Y14065619D01*
X5543919Y14050034D01*
X5562600Y14042296D01*
Y14084300D01*
D02*
G37*
G36*
X5134704D02*
X5092700D01*
Y14042296D01*
X5111381Y14050034D01*
X5126966Y14065619D01*
X5134704Y14084300D01*
D02*
G37*
G36*
X5799400Y14099800D02*
X5726701D01*
Y13997099D01*
X5799400D01*
Y14099800D01*
D02*
G37*
G36*
X4941299D02*
X4868600D01*
Y13997099D01*
X4941299D01*
Y14099800D01*
D02*
G37*
G36*
X4418000Y14070000D02*
X4218000D01*
Y13870000D01*
X4418000D01*
Y13938020D01*
X4418460Y13938867D01*
X4418626Y13940450D01*
X4418651Y13940521D01*
X4418694Y13940585D01*
X4419065Y13940930D01*
X4420098Y13941560D01*
X4421964Y13942323D01*
X4424698Y13943060D01*
X4428262Y13943655D01*
X4432614Y13944038D01*
X4437980Y13944180D01*
X4438722Y13944510D01*
X4488794D01*
X4489503Y13944183D01*
X4495368Y13943959D01*
X4497505Y13943729D01*
X4499457Y13943411D01*
X4501095Y13943037D01*
X4502419Y13942630D01*
X4503425Y13942226D01*
X4504116Y13941862D01*
X4504528Y13941582D01*
X4505290Y13940906D01*
X4507028Y13940305D01*
X4511242Y13936090D01*
X4525943Y13930000D01*
X4541857D01*
X4556558Y13936090D01*
X4567810Y13947342D01*
X4573900Y13962044D01*
Y13977957D01*
X4567810Y13992657D01*
X4556558Y14003909D01*
X4541857Y14010001D01*
X4525943D01*
X4511242Y14003909D01*
X4507028Y13999696D01*
X4505290Y13999095D01*
X4504528Y13998418D01*
X4504116Y13998138D01*
X4503425Y13997775D01*
X4502420Y13997369D01*
X4501099Y13996964D01*
X4499457Y13996590D01*
X4497634Y13996292D01*
X4492601Y13995876D01*
X4489718Y13995822D01*
X4488956Y13995490D01*
X4438722D01*
X4437980Y13995821D01*
X4432614Y13995961D01*
X4428262Y13996346D01*
X4424699Y13996939D01*
X4421964Y13997676D01*
X4420098Y13998439D01*
X4419065Y13999071D01*
X4418694Y13999416D01*
X4418651Y13999480D01*
X4418626Y13999550D01*
X4418460Y14001134D01*
X4418000Y14001979D01*
Y14070000D01*
D02*
G37*
G36*
X5397942Y13939174D02*
Y13897169D01*
X5439946D01*
X5432208Y13915852D01*
X5416623Y13931436D01*
X5397942Y13939174D01*
D02*
G37*
G36*
X5372542D02*
X5353861Y13931436D01*
X5338276Y13915852D01*
X5330538Y13897169D01*
X5372542D01*
Y13939174D01*
D02*
G37*
G36*
X6450000Y14070000D02*
X6250000D01*
Y13870000D01*
X6450000D01*
Y14070000D01*
D02*
G37*
G36*
X6012698Y13860112D02*
Y13812695D01*
X6060114D01*
X6051203Y13834210D01*
X6034212Y13851199D01*
X6012698Y13860112D01*
D02*
G37*
G36*
X5987298D02*
X5965784Y13851199D01*
X5948794Y13834210D01*
X5939882Y13812695D01*
X5987298D01*
Y13860112D01*
D02*
G37*
G36*
X4812699D02*
Y13812695D01*
X4860114D01*
X4851203Y13834210D01*
X4834212Y13851199D01*
X4812699Y13860112D01*
D02*
G37*
G36*
X4787299D02*
X4765785Y13851199D01*
X4748794Y13834210D01*
X4739883Y13812695D01*
X4787299D01*
Y13860112D01*
D02*
G37*
G36*
X6060114Y13787296D02*
X6012698D01*
Y13739880D01*
X6034212Y13748792D01*
X6051203Y13765782D01*
X6060114Y13787296D01*
D02*
G37*
G36*
X5987298D02*
X5939882D01*
X5948794Y13765782D01*
X5965784Y13748792D01*
X5987298Y13739880D01*
Y13787296D01*
D02*
G37*
G36*
X4860114D02*
X4812699D01*
Y13739880D01*
X4834212Y13748792D01*
X4851203Y13765782D01*
X4860114Y13787296D01*
D02*
G37*
G36*
X4787299D02*
X4739883D01*
X4748794Y13765782D01*
X4765785Y13748792D01*
X4787299Y13739880D01*
Y13787296D01*
D02*
G37*
G36*
X4333193Y13831400D02*
X4330700D01*
Y13728700D01*
X4433400D01*
Y13731194D01*
X4425535Y13760542D01*
X4410343Y13786858D01*
X4388857Y13808344D01*
X4362543Y13823535D01*
X4333193Y13831400D01*
D02*
G37*
G36*
X4305300D02*
X4302807D01*
X4273457Y13823535D01*
X4247143Y13808344D01*
X4225657Y13786858D01*
X4210465Y13760542D01*
X4202600Y13731194D01*
Y13728700D01*
X4305300D01*
Y13831400D01*
D02*
G37*
G36*
X4548236Y13764606D02*
Y13722601D01*
X4590240D01*
X4582502Y13741283D01*
X4566918Y13756866D01*
X4548236Y13764606D01*
D02*
G37*
G36*
X4522836D02*
X4504155Y13756866D01*
X4488570Y13741283D01*
X4480832Y13722601D01*
X4522836D01*
Y13764606D01*
D02*
G37*
G36*
X4590240Y13697202D02*
X4548236D01*
Y13655197D01*
X4566918Y13662935D01*
X4582502Y13678520D01*
X4590240Y13697202D01*
D02*
G37*
G36*
X4522836D02*
X4480832D01*
X4488570Y13678520D01*
X4504155Y13662935D01*
X4522836Y13655197D01*
Y13697202D01*
D02*
G37*
G36*
X5583257Y13921100D02*
X5567343D01*
X5552642Y13915010D01*
X5541390Y13903758D01*
X5535300Y13889056D01*
Y13873143D01*
X5541390Y13858443D01*
X5545772Y13854060D01*
X5546539Y13852132D01*
X5548909Y13849693D01*
X5550808Y13847525D01*
X5552425Y13845444D01*
X5553763Y13843472D01*
X5554836Y13841614D01*
X5555662Y13839877D01*
X5556262Y13838268D01*
X5556663Y13836771D01*
X5556888Y13835378D01*
X5556992Y13833466D01*
X5557457Y13832495D01*
Y13818552D01*
X5556980Y13817480D01*
X5556914Y13814964D01*
X5556754Y13813161D01*
X5556644Y13812500D01*
X5544000D01*
Y13664070D01*
X5534256Y13655180D01*
X5532149Y13655260D01*
X5530338Y13657166D01*
X5528945Y13658804D01*
X5527770Y13660371D01*
X5526805Y13661858D01*
X5526041Y13663246D01*
X5525453Y13664552D01*
X5525030Y13665759D01*
X5524746Y13666896D01*
X5524585Y13667970D01*
X5524506Y13669559D01*
X5524000Y13670625D01*
Y13812500D01*
X5444000D01*
X5439400Y13820595D01*
Y13827901D01*
X5419568D01*
X5417135Y13835837D01*
X5417019Y13837900D01*
X5432208Y13853088D01*
X5439946Y13871770D01*
X5330538D01*
X5338276Y13853088D01*
X5353465Y13837900D01*
X5353349Y13835837D01*
X5350916Y13827901D01*
X5328600D01*
Y13820595D01*
X5324000Y13812500D01*
X5244000D01*
Y13637500D01*
X5290874D01*
X5291941Y13636993D01*
X5293529Y13636916D01*
X5294604Y13636754D01*
X5295741Y13636470D01*
X5296948Y13636047D01*
X5298253Y13635460D01*
X5299645Y13634694D01*
X5301130Y13633730D01*
X5302693Y13632556D01*
X5304334Y13631161D01*
X5306240Y13629350D01*
X5307338Y13628929D01*
X5633657Y13302609D01*
Y13175822D01*
X5632972Y13175285D01*
X5623657Y13172176D01*
X5583922Y13211913D01*
Y13277826D01*
X5582563Y13284654D01*
X5578695Y13290443D01*
X5292922Y13576218D01*
X5287133Y13580086D01*
X5280305Y13581442D01*
X5205291D01*
X5158472Y13628261D01*
X5162299Y13637500D01*
X5224000D01*
Y13812500D01*
X5205146D01*
X5202356Y13816904D01*
X5199996Y13822392D01*
X5200012Y13822679D01*
X5200237Y13824071D01*
X5200638Y13825568D01*
X5201237Y13827176D01*
X5202064Y13828914D01*
X5203137Y13830772D01*
X5204384Y13832611D01*
X5208100Y13837105D01*
X5210361Y13839432D01*
X5211128Y13841360D01*
X5215510Y13845741D01*
X5221600Y13860443D01*
Y13876357D01*
X5215510Y13891058D01*
X5204258Y13902310D01*
X5189557Y13908400D01*
X5173643D01*
X5158942Y13902310D01*
X5147690Y13891058D01*
X5141600Y13876357D01*
Y13860443D01*
X5147690Y13845741D01*
X5152072Y13841360D01*
X5152839Y13839432D01*
X5155209Y13836993D01*
X5157108Y13834825D01*
X5158725Y13832744D01*
X5160063Y13830772D01*
X5161136Y13828914D01*
X5161962Y13827177D01*
X5162562Y13825568D01*
X5162963Y13824071D01*
X5163188Y13822678D01*
X5163204Y13822392D01*
X5160844Y13816904D01*
X5158054Y13812500D01*
X5144000D01*
Y13664070D01*
X5134256Y13655180D01*
X5132149Y13655260D01*
X5130338Y13657166D01*
X5128945Y13658804D01*
X5127770Y13660371D01*
X5126805Y13661858D01*
X5126041Y13663246D01*
X5125453Y13664552D01*
X5125030Y13665759D01*
X5124746Y13666896D01*
X5124585Y13667970D01*
X5124506Y13669559D01*
X5124000Y13670625D01*
Y13812500D01*
X5044000D01*
Y13637500D01*
X5090874D01*
X5091941Y13636993D01*
X5093529Y13636916D01*
X5094604Y13636754D01*
X5095741Y13636470D01*
X5096948Y13636047D01*
X5098253Y13635460D01*
X5099645Y13634694D01*
X5101129Y13633730D01*
X5102693Y13632556D01*
X5104334Y13631161D01*
X5106240Y13629350D01*
X5107338Y13628929D01*
X5185283Y13550983D01*
X5191072Y13547115D01*
X5197900Y13545757D01*
X5272914D01*
X5337687Y13480984D01*
X5333860Y13471745D01*
X5215700D01*
X5204970Y13469612D01*
X5195874Y13463535D01*
X5189796Y13454437D01*
X5187661Y13443707D01*
Y13409798D01*
X5187391Y13409753D01*
X5185587Y13409595D01*
X5183071Y13409528D01*
X5182000Y13409050D01*
X5098252D01*
X5097181Y13409528D01*
X5094665Y13409595D01*
X5092861Y13409753D01*
X5092200Y13409863D01*
Y13457307D01*
X4932200D01*
Y13317308D01*
X5059074D01*
X5060141Y13316801D01*
X5061729Y13316722D01*
X5062804Y13316560D01*
X5062944Y13316525D01*
X5066283Y13312708D01*
X5065805Y13309972D01*
X5061503Y13304340D01*
X5058596Y13302707D01*
X5024901D01*
Y13217308D01*
X5012201D01*
Y13204608D01*
X4916800D01*
Y13131908D01*
X4998657D01*
Y13057948D01*
X4964000D01*
X4947261Y13054617D01*
X4933071Y13045135D01*
X4923589Y13030946D01*
X4920260Y13014207D01*
Y12959407D01*
X5016500D01*
Y12934007D01*
X4920260D01*
Y12879208D01*
X4923589Y12862469D01*
X4933071Y12848277D01*
X4947261Y12838797D01*
X4964000Y12835468D01*
X4973968D01*
X4977795Y12826228D01*
X4950763Y12799196D01*
X4938967Y12801543D01*
X4936466Y12807581D01*
X4920881Y12823166D01*
X4902200Y12830904D01*
Y12776200D01*
Y12721496D01*
X4920881Y12729234D01*
X4936466Y12744819D01*
X4942074Y12758357D01*
X4953000D01*
X4959828Y12759715D01*
X4965617Y12763583D01*
X5029117Y12827083D01*
X5032985Y12832872D01*
X5033501Y12835468D01*
X5069000D01*
X5075855Y12836832D01*
X5080781Y12827614D01*
X4978483Y12725317D01*
X4974615Y12719528D01*
X4973257Y12712700D01*
Y12545247D01*
X4974615Y12538419D01*
X4978483Y12532631D01*
X5008391Y12502723D01*
X5008615Y12490732D01*
X5003476Y12485691D01*
X4998564Y12486425D01*
X4805743Y12679246D01*
Y12845506D01*
X4806220Y12846581D01*
X4806286Y12849094D01*
X4806446Y12850899D01*
X4806491Y12851169D01*
X4840400D01*
X4851130Y12853304D01*
X4860226Y12859381D01*
X4866304Y12868478D01*
X4868439Y12879208D01*
Y13014207D01*
X4866304Y13024937D01*
X4860226Y13034035D01*
X4851130Y13040112D01*
X4840400Y13042245D01*
X4806491D01*
X4806446Y13042516D01*
X4806286Y13044321D01*
X4806220Y13046835D01*
X4805743Y13047908D01*
Y13141255D01*
X4806220Y13142328D01*
X4806286Y13144843D01*
X4806446Y13146648D01*
X4806556Y13147307D01*
X4872200D01*
Y13277933D01*
X4882200Y13282074D01*
X4907083Y13257191D01*
X4912872Y13253323D01*
X4916800Y13252541D01*
Y13230008D01*
X4999501D01*
Y13302707D01*
X4916801D01*
X4916800Y13302707D01*
Y13302708D01*
X4908270Y13306471D01*
X4887600Y13327141D01*
Y13374608D01*
X4804899D01*
Y13301907D01*
X4858501D01*
X4862006Y13297307D01*
X4857053Y13287308D01*
X4712200D01*
Y13147307D01*
X4769244D01*
X4769354Y13146648D01*
X4769514Y13144843D01*
X4769580Y13142328D01*
X4770057Y13141255D01*
Y13047908D01*
X4769580Y13046835D01*
X4769514Y13044321D01*
X4769354Y13042516D01*
X4769309Y13042245D01*
X4735400D01*
X4724670Y13040112D01*
X4715574Y13034035D01*
X4709496Y13024937D01*
X4707361Y13014207D01*
Y12879208D01*
X4709496Y12868478D01*
X4715574Y12859381D01*
X4724670Y12853304D01*
X4735400Y12851169D01*
X4769309D01*
X4769354Y12850899D01*
X4769514Y12849094D01*
X4769580Y12846581D01*
X4770057Y12845506D01*
Y12671855D01*
X4771415Y12665027D01*
X4775283Y12659238D01*
X4975895Y12458627D01*
X4976318Y12457528D01*
X4978060Y12455695D01*
X4979247Y12454290D01*
X4979608Y12453791D01*
X4939753Y12413937D01*
X4939751D01*
X4927853Y12415714D01*
X4630951Y12712617D01*
X4625162Y12716485D01*
X4618334Y12717843D01*
X4463593D01*
X4462815Y12718265D01*
X4458443Y12718723D01*
X4454127Y12719944D01*
X4448788Y12722233D01*
X4442551Y12725665D01*
X4435514Y12730262D01*
X4427914Y12735896D01*
X4400269Y12760351D01*
X4389927Y12770653D01*
X4389926Y12770654D01*
X4389926Y12770654D01*
X4389911Y12770668D01*
X4387941Y12771480D01*
X4379401Y12780020D01*
X4356598Y12793185D01*
X4331165Y12800000D01*
X4304835D01*
X4279402Y12793185D01*
X4256599Y12780020D01*
X4237980Y12761401D01*
X4224815Y12738598D01*
X4218000Y12713165D01*
Y12686835D01*
X4224815Y12661402D01*
X4237980Y12638599D01*
X4256599Y12619980D01*
X4279402Y12606815D01*
X4304835Y12600000D01*
X4331165D01*
X4356598Y12606815D01*
X4379401Y12619980D01*
X4387893Y12628472D01*
X4389811Y12629233D01*
X4410145Y12648969D01*
X4427834Y12664045D01*
X4435514Y12669738D01*
X4442552Y12674335D01*
X4448786Y12677765D01*
X4454127Y12680056D01*
X4458442Y12681277D01*
X4462815Y12681735D01*
X4463593Y12682157D01*
X4610943D01*
X4904410Y12388690D01*
X4904187Y12386982D01*
X4899299Y12382496D01*
X4890201Y12382656D01*
X4814240Y12458617D01*
X4808452Y12462485D01*
X4801623Y12463843D01*
X4463593D01*
X4462815Y12464265D01*
X4458443Y12464723D01*
X4454127Y12465944D01*
X4448788Y12468233D01*
X4442551Y12471665D01*
X4435514Y12476262D01*
X4427914Y12481896D01*
X4400269Y12506351D01*
X4389927Y12516653D01*
X4389926Y12516654D01*
X4389926Y12516654D01*
X4389911Y12516668D01*
X4387941Y12517480D01*
X4379401Y12526020D01*
X4356598Y12539185D01*
X4331165Y12546000D01*
X4304835D01*
X4279402Y12539185D01*
X4256599Y12526020D01*
X4237980Y12507401D01*
X4224815Y12484598D01*
X4218000Y12459165D01*
Y12432835D01*
X4224815Y12407402D01*
X4237980Y12384599D01*
X4256599Y12365980D01*
X4279402Y12352815D01*
X4304835Y12346000D01*
X4331165D01*
X4356598Y12352815D01*
X4379401Y12365980D01*
X4387893Y12374472D01*
X4389811Y12375233D01*
X4410145Y12394969D01*
X4427834Y12410045D01*
X4435514Y12415738D01*
X4442552Y12420335D01*
X4448786Y12423765D01*
X4454127Y12426056D01*
X4458442Y12427277D01*
X4462815Y12427735D01*
X4463593Y12428157D01*
X4794233D01*
X4869055Y12353335D01*
X4868832Y12351627D01*
X4863944Y12347141D01*
X4854846Y12347300D01*
X4845130Y12357017D01*
X4839341Y12360885D01*
X4832513Y12362243D01*
X4470400D01*
X4463572Y12360885D01*
X4457783Y12357017D01*
X4408333Y12307566D01*
X4407484Y12307315D01*
X4404068Y12304547D01*
X4400155Y12302360D01*
X4394758Y12300202D01*
X4387922Y12298219D01*
X4379696Y12296493D01*
X4370337Y12295103D01*
X4333502Y12292848D01*
X4318879Y12292819D01*
X4316911Y12292000D01*
X4304835D01*
X4279402Y12285185D01*
X4256599Y12272020D01*
X4237980Y12253401D01*
X4224815Y12230598D01*
X4218000Y12205165D01*
Y12178835D01*
X4224815Y12153402D01*
X4237980Y12130599D01*
X4256599Y12111980D01*
X4279402Y12098815D01*
X4304835Y12092000D01*
X4331165D01*
X4356598Y12098815D01*
X4379401Y12111980D01*
X4398020Y12130599D01*
X4411185Y12153402D01*
X4418000Y12178835D01*
Y12190844D01*
X4418818Y12192738D01*
X4419240Y12221072D01*
X4421088Y12244239D01*
X4422493Y12253696D01*
X4424219Y12261922D01*
X4426202Y12268759D01*
X4428359Y12274154D01*
X4430546Y12278068D01*
X4433315Y12281484D01*
X4433566Y12282333D01*
X4477791Y12326557D01*
X4825122D01*
X4833895Y12317784D01*
X4833686Y12307871D01*
X4823949Y12307238D01*
X4823337Y12307474D01*
X4819430Y12310085D01*
X4812601Y12311443D01*
X4749800D01*
X4742972Y12310085D01*
X4737183Y12306217D01*
X4416750Y11985783D01*
X4409258Y11986630D01*
X4405948Y11987405D01*
X4405340Y11988327D01*
X4403820Y11989355D01*
X4398020Y11999401D01*
X4379401Y12018020D01*
X4356598Y12031185D01*
X4331165Y12038000D01*
X4304835D01*
X4279402Y12031185D01*
X4256599Y12018020D01*
X4237980Y11999401D01*
X4224815Y11976598D01*
X4218000Y11951165D01*
Y11924835D01*
X4224815Y11899402D01*
X4237980Y11876599D01*
X4256599Y11857980D01*
X4279402Y11844815D01*
X4304835Y11838000D01*
X4331165D01*
X4356598Y11844815D01*
X4379401Y11857980D01*
X4398020Y11876599D01*
X4411185Y11899402D01*
X4418000Y11924835D01*
Y11944150D01*
X4418526Y11945491D01*
X4418518Y11945962D01*
X4419064Y11946044D01*
X4421130Y11946136D01*
X4423239Y11947122D01*
X4427478Y11947965D01*
X4433266Y11951833D01*
X4757191Y12275757D01*
X4787431D01*
X4791573Y12265757D01*
X4762976Y12237160D01*
X4799153Y12200983D01*
X4797618Y12188852D01*
X4408333Y11799566D01*
X4407484Y11799315D01*
X4404068Y11796547D01*
X4400155Y11794360D01*
X4394758Y11792202D01*
X4387922Y11790219D01*
X4379696Y11788493D01*
X4370337Y11787103D01*
X4333502Y11784848D01*
X4318879Y11784819D01*
X4316911Y11784000D01*
X4304835D01*
X4279402Y11777185D01*
X4256599Y11764020D01*
X4237980Y11745401D01*
X4224815Y11722598D01*
X4218000Y11697165D01*
Y11670835D01*
X4224815Y11645402D01*
X4237980Y11622599D01*
X4256599Y11603980D01*
X4279402Y11590815D01*
X4304835Y11584000D01*
X4331165D01*
X4356598Y11590815D01*
X4379401Y11603980D01*
X4398020Y11622599D01*
X4411185Y11645402D01*
X4416665Y11665852D01*
X4426665Y11664536D01*
Y11449464D01*
X4416665Y11448148D01*
X4411185Y11468598D01*
X4398020Y11491401D01*
X4379401Y11510020D01*
X4356598Y11523185D01*
X4331165Y11530000D01*
X4304835D01*
X4279402Y11523185D01*
X4256599Y11510020D01*
X4237980Y11491401D01*
X4224815Y11468598D01*
X4218000Y11443165D01*
Y11416835D01*
X4224815Y11391402D01*
X4237980Y11368599D01*
X4256599Y11349980D01*
X4279402Y11336815D01*
X4304835Y11330000D01*
X4331165D01*
X4356598Y11336815D01*
X4379401Y11349980D01*
X4398020Y11368599D01*
X4411185Y11391402D01*
X4416665Y11411852D01*
X4426665Y11410536D01*
Y11195464D01*
X4416665Y11194148D01*
X4411185Y11214598D01*
X4398020Y11237401D01*
X4379401Y11256020D01*
X4356598Y11269185D01*
X4331165Y11276000D01*
X4304835D01*
X4279402Y11269185D01*
X4256599Y11256020D01*
X4237980Y11237401D01*
X4224815Y11214598D01*
X4218000Y11189165D01*
Y11162835D01*
X4224815Y11137402D01*
X4237980Y11114599D01*
X4256599Y11095980D01*
X4279402Y11082815D01*
X4304835Y11076000D01*
X4331165D01*
X4356598Y11082815D01*
X4379401Y11095980D01*
X4398020Y11114599D01*
X4411185Y11137402D01*
X4416665Y11157852D01*
X4426665Y11156536D01*
Y11055898D01*
X4408333Y11037566D01*
X4407484Y11037315D01*
X4404068Y11034547D01*
X4400155Y11032360D01*
X4394758Y11030202D01*
X4387922Y11028219D01*
X4379696Y11026493D01*
X4370337Y11025103D01*
X4333502Y11022848D01*
X4318879Y11022819D01*
X4316911Y11022000D01*
X4304835D01*
X4279402Y11015185D01*
X4256599Y11002020D01*
X4237980Y10983401D01*
X4224815Y10960598D01*
X4218000Y10935165D01*
Y10908835D01*
X4224815Y10883402D01*
X4237980Y10860599D01*
X4256599Y10841980D01*
X4279402Y10828815D01*
X4304835Y10822000D01*
X4331165D01*
X4356598Y10828815D01*
X4379401Y10841980D01*
X4398020Y10860599D01*
X4411185Y10883402D01*
X4418000Y10908835D01*
Y10920844D01*
X4418818Y10922738D01*
X4419240Y10951072D01*
X4421088Y10974239D01*
X4422493Y10983696D01*
X4424219Y10991922D01*
X4426202Y10998759D01*
X4428359Y11004154D01*
X4430546Y11008068D01*
X4433315Y11011484D01*
X4433566Y11012333D01*
X4442426Y11021192D01*
X4451665Y11017366D01*
Y10890398D01*
X4336954Y10775688D01*
X4333086Y10769899D01*
X4332926Y10769095D01*
X4331165Y10768000D01*
X4304835D01*
X4279402Y10761185D01*
X4256599Y10748020D01*
X4237980Y10729401D01*
X4224815Y10706598D01*
X4218000Y10681165D01*
Y10654835D01*
X4224815Y10629402D01*
X4237980Y10606599D01*
X4256599Y10587980D01*
X4279402Y10574815D01*
X4304835Y10568000D01*
X4331165D01*
X4356598Y10574815D01*
X4379401Y10587980D01*
X4398020Y10606599D01*
X4411185Y10629402D01*
X4418000Y10654835D01*
Y10681165D01*
X4411185Y10706598D01*
X4398020Y10729401D01*
X4379401Y10748020D01*
X4375911Y10750035D01*
X4374265Y10762532D01*
X4482124Y10870391D01*
X4485992Y10876179D01*
X4487350Y10883007D01*
Y11637617D01*
X4511283Y11661549D01*
X4519050Y11655174D01*
X4517415Y11652728D01*
X4516057Y11645900D01*
Y10827791D01*
X4481891Y10793624D01*
X4478023Y10787836D01*
X4476665Y10781007D01*
Y10597898D01*
X4408333Y10529566D01*
X4407484Y10529315D01*
X4404068Y10526547D01*
X4400155Y10524360D01*
X4394758Y10522202D01*
X4387922Y10520219D01*
X4379696Y10518493D01*
X4370337Y10517103D01*
X4333502Y10514848D01*
X4318879Y10514819D01*
X4316911Y10514000D01*
X4304835D01*
X4279402Y10507185D01*
X4256599Y10494020D01*
X4237980Y10475401D01*
X4224815Y10452598D01*
X4218000Y10427165D01*
Y10400835D01*
X4224815Y10375402D01*
X4237980Y10352599D01*
X4256599Y10333980D01*
X4279402Y10320815D01*
X4304835Y10314000D01*
X4331165D01*
X4356598Y10320815D01*
X4379401Y10333980D01*
X4398020Y10352599D01*
X4411185Y10375402D01*
X4418000Y10400835D01*
Y10412844D01*
X4418818Y10414738D01*
X4419240Y10443072D01*
X4421088Y10466239D01*
X4422493Y10475696D01*
X4424219Y10483922D01*
X4426202Y10490759D01*
X4428359Y10496154D01*
X4430546Y10500068D01*
X4433315Y10503484D01*
X4433566Y10504333D01*
X4507124Y10577891D01*
X4510992Y10583679D01*
X4512350Y10590507D01*
Y10773617D01*
X4546517Y10807783D01*
X4550385Y10813572D01*
X4551743Y10820400D01*
Y11638509D01*
X4649063Y11735829D01*
X4657636Y11734976D01*
X4661233Y11725942D01*
X4597483Y11662192D01*
X4593615Y11656403D01*
X4592257Y11649575D01*
Y10738891D01*
X4544082Y10690715D01*
X4540214Y10684927D01*
X4538856Y10678099D01*
Y10456891D01*
X4344532Y10262567D01*
X4341047Y10257352D01*
X4331165Y10260000D01*
X4304835D01*
X4279402Y10253185D01*
X4256599Y10240020D01*
X4237980Y10221401D01*
X4224815Y10198598D01*
X4218000Y10173165D01*
Y10146835D01*
X4224815Y10121402D01*
X4237980Y10098599D01*
X4256599Y10079980D01*
X4279402Y10066815D01*
X4304835Y10060000D01*
X4331165D01*
X4356598Y10066815D01*
X4379401Y10079980D01*
X4398020Y10098599D01*
X4411185Y10121402D01*
X4418000Y10146835D01*
Y10173165D01*
X4411185Y10198598D01*
X4398020Y10221401D01*
X4382997Y10236424D01*
X4381558Y10249126D01*
X4521244Y10388812D01*
X4530483Y10384985D01*
Y10344500D01*
X4533424Y10329712D01*
X4541801Y10317176D01*
X4554337Y10308799D01*
X4569125Y10305858D01*
X4628925D01*
Y10382000D01*
Y10458142D01*
X4574541D01*
Y10526851D01*
X4584541Y10528840D01*
X4588890Y10518342D01*
X4600142Y10507090D01*
X4614843Y10501000D01*
X4630757D01*
X4645458Y10507090D01*
X4656710Y10518342D01*
X4662800Y10533043D01*
Y10548957D01*
X4656710Y10563658D01*
X4645458Y10574910D01*
X4630757Y10581000D01*
X4614843D01*
X4600142Y10574910D01*
X4588890Y10563658D01*
X4584541Y10553160D01*
X4574541Y10555149D01*
Y10670708D01*
X4622717Y10718883D01*
X4626585Y10724672D01*
X4627943Y10731500D01*
Y11642184D01*
X4649761Y11664003D01*
X4660243Y11660342D01*
X4665090Y11648642D01*
X4676342Y11637390D01*
X4691043Y11631300D01*
X4706957D01*
X4721658Y11637390D01*
X4726040Y11641772D01*
X4727969Y11642539D01*
X4730407Y11644909D01*
X4732575Y11646808D01*
X4734656Y11648425D01*
X4736627Y11649763D01*
X4738486Y11650836D01*
X4740223Y11651662D01*
X4741832Y11652262D01*
X4743329Y11652663D01*
X4744722Y11652888D01*
X4746634Y11652992D01*
X4747605Y11653457D01*
X4793209D01*
X4881757Y11564910D01*
X4885161Y11562635D01*
Y11438700D01*
X4887296Y11427970D01*
X4893374Y11418874D01*
X4902470Y11412796D01*
X4913200Y11410661D01*
X5018200D01*
X5028930Y11412796D01*
X5038026Y11418874D01*
X5044104Y11427970D01*
X5046239Y11438700D01*
Y11573700D01*
X5044104Y11584430D01*
X5043053Y11586002D01*
X5043032Y11586868D01*
X5042840Y11597230D01*
X5070997Y11625387D01*
X5074366Y11624988D01*
X5076979Y11623704D01*
X5081037Y11615182D01*
X5077169Y11609394D01*
X5075811Y11602566D01*
Y11581657D01*
X5074857Y11576864D01*
Y11557000D01*
X5076215Y11550172D01*
X5080083Y11544384D01*
X5194381Y11430086D01*
X5190239Y11420086D01*
X5140854D01*
X5138391Y11422549D01*
X5121851Y11429400D01*
X5103949D01*
X5087410Y11422549D01*
X5074751Y11409890D01*
X5067900Y11393351D01*
Y11389867D01*
X5036074Y11358041D01*
X5028338Y11346463D01*
X5025622Y11332807D01*
Y11320039D01*
X4936300D01*
X4925570Y11317904D01*
X4916474Y11311826D01*
X4910396Y11302730D01*
X4908261Y11292000D01*
Y11187000D01*
X4910396Y11176270D01*
X4916474Y11167174D01*
X4925570Y11161096D01*
X4936300Y11158961D01*
X5071300D01*
X5082030Y11161096D01*
X5091126Y11167174D01*
X5097204Y11176270D01*
X5099339Y11187000D01*
Y11292000D01*
X5097204Y11302730D01*
X5096993Y11303046D01*
Y11318026D01*
X5118367Y11339400D01*
X5121851D01*
X5138391Y11346251D01*
X5140854Y11348714D01*
X5263219D01*
X5298315Y11313618D01*
Y11312429D01*
X5298177Y11312106D01*
X5298082Y11302811D01*
X5297331Y11287322D01*
X5296714Y11281406D01*
X5295950Y11276593D01*
X5295119Y11273089D01*
X5294835Y11272300D01*
X5289000D01*
Y11263249D01*
X5288481Y11261996D01*
X5289000Y11260742D01*
Y11260259D01*
X5288859Y11259159D01*
X5289000Y11258977D01*
Y11256523D01*
X5288658Y11254800D01*
X5289000Y11253078D01*
Y11127299D01*
X5379000D01*
Y11258976D01*
X5379141Y11259159D01*
X5379000Y11260260D01*
Y11260742D01*
X5379519Y11261996D01*
X5379000Y11263249D01*
Y11272300D01*
X5373165D01*
X5372881Y11273088D01*
X5372051Y11276592D01*
X5371320Y11281197D01*
X5369918Y11302898D01*
X5369824Y11312106D01*
X5377465Y11317741D01*
X5378925Y11318346D01*
X5417757Y11279513D01*
Y11173805D01*
X5417292Y11172834D01*
X5417188Y11170921D01*
X5416963Y11169529D01*
X5416562Y11168032D01*
X5415963Y11166424D01*
X5415136Y11164686D01*
X5414063Y11162828D01*
X5412816Y11160989D01*
X5409100Y11156495D01*
X5406839Y11154169D01*
X5406072Y11152240D01*
X5401690Y11147858D01*
X5395600Y11133157D01*
Y11117243D01*
X5401690Y11102542D01*
X5412942Y11091290D01*
X5427643Y11085200D01*
X5443557D01*
X5458258Y11091290D01*
X5469510Y11102542D01*
X5475600Y11117243D01*
Y11133157D01*
X5469510Y11147858D01*
X5465128Y11152240D01*
X5464361Y11154169D01*
X5461991Y11156607D01*
X5460092Y11158775D01*
X5458475Y11160856D01*
X5457137Y11162827D01*
X5456064Y11164686D01*
X5455238Y11166423D01*
X5454638Y11168032D01*
X5454237Y11169529D01*
X5454012Y11170922D01*
X5453908Y11172834D01*
X5453443Y11173805D01*
Y11241513D01*
X5463443Y11242498D01*
X5464275Y11238312D01*
X5468143Y11232523D01*
X5515614Y11185052D01*
X5515972Y11184037D01*
X5517251Y11182611D01*
X5518077Y11181465D01*
X5518849Y11180128D01*
X5519566Y11178562D01*
X5520209Y11176750D01*
X5520763Y11174679D01*
X5521183Y11172493D01*
X5521733Y11166690D01*
X5521779Y11163448D01*
X5522600Y11161541D01*
Y11155343D01*
X5528690Y11140642D01*
X5539942Y11129390D01*
X5554643Y11123300D01*
X5570557D01*
X5585258Y11129390D01*
X5596510Y11140642D01*
X5602600Y11155343D01*
Y11171257D01*
X5596510Y11185958D01*
X5585258Y11197210D01*
X5570557Y11203300D01*
X5564359D01*
X5562452Y11204121D01*
X5559057Y11204169D01*
X5556174Y11204360D01*
X5553566Y11204687D01*
X5551220Y11205137D01*
X5549148Y11205691D01*
X5547338Y11206335D01*
X5545771Y11207051D01*
X5544434Y11207823D01*
X5543288Y11208650D01*
X5541863Y11209928D01*
X5540848Y11210286D01*
X5498603Y11252531D01*
Y11525097D01*
X5499080Y11526171D01*
X5499148Y11528795D01*
X5499322Y11530947D01*
X5499599Y11532885D01*
X5499965Y11534612D01*
X5500409Y11536142D01*
X5500915Y11537474D01*
X5501472Y11538631D01*
X5502074Y11539634D01*
X5502721Y11540510D01*
X5503787Y11541688D01*
X5504183Y11542799D01*
X5515875Y11554491D01*
X5526029Y11554939D01*
X5545157Y11535811D01*
Y11340700D01*
X5546515Y11333872D01*
X5550383Y11328083D01*
X5604514Y11273952D01*
X5604872Y11272937D01*
X5606151Y11271511D01*
X5606977Y11270365D01*
X5607749Y11269028D01*
X5608466Y11267462D01*
X5609109Y11265650D01*
X5609663Y11263579D01*
X5610083Y11261393D01*
X5610633Y11255590D01*
X5610679Y11252348D01*
X5611500Y11250441D01*
Y11244243D01*
X5617590Y11229542D01*
X5628842Y11218290D01*
X5643543Y11212200D01*
X5659457D01*
X5674158Y11218290D01*
X5685410Y11229542D01*
X5691500Y11244243D01*
Y11260157D01*
X5685410Y11274858D01*
X5674158Y11286110D01*
X5659457Y11292200D01*
X5653259D01*
X5651352Y11293021D01*
X5647957Y11293069D01*
X5645074Y11293260D01*
X5642466Y11293587D01*
X5640120Y11294037D01*
X5638048Y11294591D01*
X5636238Y11295235D01*
X5634671Y11295951D01*
X5633334Y11296723D01*
X5632188Y11297550D01*
X5630763Y11298828D01*
X5629748Y11299186D01*
X5580843Y11348091D01*
Y11424258D01*
X5590082Y11428085D01*
X5604514Y11413652D01*
X5604872Y11412637D01*
X5606151Y11411211D01*
X5606977Y11410065D01*
X5607749Y11408728D01*
X5608466Y11407162D01*
X5609109Y11405350D01*
X5609663Y11403279D01*
X5610083Y11401093D01*
X5610633Y11395290D01*
X5610679Y11392048D01*
X5611500Y11390141D01*
Y11383943D01*
X5617590Y11369242D01*
X5628842Y11357990D01*
X5643543Y11351900D01*
X5659457D01*
X5674158Y11357990D01*
X5685410Y11369242D01*
X5691500Y11383943D01*
Y11399857D01*
X5685410Y11414558D01*
X5674158Y11425810D01*
X5659457Y11431900D01*
X5653259D01*
X5651352Y11432721D01*
X5647957Y11432769D01*
X5645074Y11432960D01*
X5642466Y11433287D01*
X5640120Y11433737D01*
X5638048Y11434291D01*
X5636238Y11434935D01*
X5634671Y11435651D01*
X5633334Y11436423D01*
X5632188Y11437250D01*
X5630763Y11438528D01*
X5629748Y11438886D01*
X5605843Y11462791D01*
Y11485770D01*
X5615843Y11487759D01*
X5617590Y11483542D01*
X5628842Y11472290D01*
X5643543Y11466200D01*
X5659457D01*
X5674158Y11472290D01*
X5685410Y11483542D01*
X5691500Y11498243D01*
Y11514157D01*
X5685410Y11528858D01*
X5674158Y11540110D01*
X5659457Y11546200D01*
X5645932D01*
X5645611Y11546348D01*
X5641097Y11551884D01*
X5639658Y11555170D01*
Y11599732D01*
X5649657Y11603874D01*
X5654242Y11599290D01*
X5668943Y11593200D01*
X5684857D01*
X5699558Y11599290D01*
X5710810Y11610542D01*
X5715349Y11621498D01*
X5725349Y11619509D01*
Y11111568D01*
X5587549Y10973769D01*
X5579071Y10979433D01*
X5583800Y10990849D01*
Y11008751D01*
X5576949Y11025291D01*
X5564291Y11037949D01*
X5547751Y11044800D01*
X5529849D01*
X5513310Y11037949D01*
X5511058Y11035697D01*
X5504811Y11035861D01*
X5497058Y11036546D01*
X5490495Y11037639D01*
X5485160Y11039076D01*
X5481093Y11040740D01*
X5478262Y11042470D01*
X5476491Y11044114D01*
X5475448Y11045678D01*
X5474823Y11047451D01*
X5474456Y11050933D01*
X5473996Y11051780D01*
Y11072301D01*
X5383996D01*
Y10927300D01*
X5473996D01*
Y10947821D01*
X5474456Y10948667D01*
X5474822Y10952150D01*
X5475448Y10953922D01*
X5476491Y10955486D01*
X5478262Y10957130D01*
X5481093Y10958861D01*
X5485161Y10960525D01*
X5490495Y10961961D01*
X5497058Y10963055D01*
X5504811Y10963739D01*
X5511058Y10963903D01*
X5513310Y10961651D01*
X5529849Y10954800D01*
X5547751D01*
X5559167Y10959529D01*
X5564832Y10951051D01*
X5363677Y10749897D01*
X5359783Y10744068D01*
X5358415Y10737193D01*
Y10716113D01*
X5350820Y10710864D01*
X5348415Y10710227D01*
X5342693Y10711365D01*
X5270954D01*
X5264079Y10709998D01*
X5258251Y10706103D01*
X5249323Y10697176D01*
X5245429Y10691347D01*
X5244061Y10684472D01*
Y10664902D01*
X5236665Y10655250D01*
X5134001D01*
X5131228Y10664102D01*
X5129869Y10685814D01*
X5129824Y10694999D01*
X5129686Y10695327D01*
Y10697084D01*
X5126969Y10710740D01*
X5119234Y10722317D01*
X5037844Y10803707D01*
X5026267Y10811442D01*
X5025431Y10811609D01*
X5016590Y10820449D01*
X5000051Y10827300D01*
X4982149D01*
X4965610Y10820449D01*
X4952951Y10807790D01*
X4946100Y10791251D01*
Y10773349D01*
X4952951Y10756810D01*
X4965610Y10744151D01*
X4982149Y10737300D01*
X5000051D01*
X5002360Y10738257D01*
X5058047Y10682570D01*
X5057991Y10677275D01*
X5057656Y10670650D01*
X5026700D01*
Y10587750D01*
X5001300D01*
Y10670650D01*
X4958600D01*
Y10650464D01*
X4948600Y10645532D01*
X4940026Y10652112D01*
X4921684Y10659709D01*
X4914701Y10660629D01*
Y10531250D01*
Y10401871D01*
X4921684Y10402790D01*
X4940026Y10410388D01*
X4955776Y10422474D01*
X4967862Y10438224D01*
X4975460Y10456566D01*
X4978051Y10476250D01*
Y10504850D01*
X4999774D01*
X5005330Y10496535D01*
X5002500Y10489704D01*
Y10472796D01*
X5008970Y10457176D01*
X5020926Y10445220D01*
X5036546Y10438750D01*
X5053454D01*
X5069075Y10445220D01*
X5081030Y10457176D01*
X5087500Y10472796D01*
Y10489704D01*
X5081030Y10505324D01*
X5076105Y10510250D01*
X5080247Y10520250D01*
X5124000D01*
X5134000Y10520250D01*
Y10520249D01*
X5134001D01*
Y10520250D01*
X5183366D01*
X5189587Y10510756D01*
X5189360Y10509379D01*
X5188963Y10507929D01*
X5188367Y10506375D01*
X5187548Y10504711D01*
X5186481Y10502938D01*
X5185142Y10501054D01*
X5183526Y10499081D01*
X5181610Y10497017D01*
X5179211Y10494702D01*
X5178344Y10492713D01*
X5173090Y10487458D01*
X5167000Y10472757D01*
Y10456843D01*
X5173090Y10442142D01*
X5184342Y10430890D01*
X5199043Y10424800D01*
X5214957D01*
X5229658Y10430890D01*
X5240910Y10442142D01*
X5247000Y10456843D01*
Y10472757D01*
X5240910Y10487458D01*
X5237344Y10491025D01*
X5236700Y10492806D01*
X5234370Y10495361D01*
X5232485Y10497644D01*
X5230880Y10499822D01*
X5229542Y10501891D01*
X5228468Y10503829D01*
X5227640Y10505635D01*
X5227036Y10507304D01*
X5226635Y10508841D01*
X5226410Y10510252D01*
X5226405Y10510354D01*
X5229599Y10517061D01*
X5231735Y10520250D01*
X5274000D01*
X5284000Y10520250D01*
Y10520249D01*
X5284001D01*
Y10520250D01*
X5298009D01*
X5298879Y10518223D01*
X5299783Y10513679D01*
X5303677Y10507851D01*
X5312605Y10498923D01*
X5318433Y10495029D01*
X5325308Y10493661D01*
X5392920D01*
X5399795Y10495029D01*
X5405623Y10498923D01*
X5414551Y10507851D01*
X5418445Y10513679D01*
X5419349Y10518223D01*
X5420219Y10520250D01*
X5486802D01*
X5489459Y10516118D01*
X5492002Y10510357D01*
X5491990Y10510133D01*
X5491767Y10508715D01*
X5491365Y10507164D01*
X5490761Y10505472D01*
X5489933Y10503640D01*
X5488859Y10501666D01*
X5487605Y10499689D01*
X5483952Y10494908D01*
X5481733Y10492411D01*
X5481143Y10490711D01*
X5477890Y10487458D01*
X5471800Y10472757D01*
Y10456843D01*
X5477890Y10442142D01*
X5489142Y10430890D01*
X5503843Y10424800D01*
X5519757D01*
X5534458Y10430890D01*
X5545710Y10442142D01*
X5551800Y10456843D01*
Y10472757D01*
X5545710Y10487458D01*
X5540087Y10493082D01*
X5539192Y10495066D01*
X5536777Y10497337D01*
X5534866Y10499350D01*
X5533247Y10501284D01*
X5531910Y10503132D01*
X5530846Y10504872D01*
X5530030Y10506506D01*
X5529437Y10508038D01*
X5529041Y10509471D01*
X5528908Y10510269D01*
X5528926Y10511041D01*
X5531542Y10515788D01*
X5535287Y10520250D01*
X5587754D01*
X5591896Y10510250D01*
X5586970Y10505324D01*
X5580500Y10489704D01*
Y10472796D01*
X5586970Y10457176D01*
X5598926Y10445220D01*
X5614546Y10438750D01*
X5631454D01*
X5647075Y10445220D01*
X5659030Y10457176D01*
X5665500Y10472796D01*
Y10489704D01*
X5662671Y10496535D01*
X5668226Y10504850D01*
X5689950D01*
Y10476250D01*
X5692541Y10456566D01*
X5700138Y10438224D01*
X5712224Y10422474D01*
X5727975Y10410388D01*
X5746317Y10402790D01*
X5753301Y10401871D01*
Y10531250D01*
Y10660629D01*
X5746317Y10659709D01*
X5727975Y10652112D01*
X5719400Y10645532D01*
X5709400Y10650464D01*
Y10670650D01*
X5666700D01*
Y10587750D01*
X5641300D01*
Y10670650D01*
X5616939D01*
X5613017Y10680650D01*
X5638968Y10706601D01*
X5659733D01*
X5662196Y10704138D01*
X5678736Y10697287D01*
X5696638D01*
X5713177Y10704138D01*
X5725836Y10716796D01*
X5732687Y10733336D01*
Y10751238D01*
X5725836Y10767777D01*
X5713177Y10780436D01*
X5696638Y10787287D01*
X5678736D01*
X5662196Y10780436D01*
X5659733Y10777973D01*
X5624187D01*
X5610531Y10775256D01*
X5598953Y10767521D01*
X5548767Y10717334D01*
X5541031Y10705757D01*
X5538499Y10693029D01*
X5538178Y10692291D01*
X5537760Y10668505D01*
X5537449Y10663821D01*
X5534000Y10655250D01*
X5423127D01*
X5422990Y10656066D01*
X5422828Y10657909D01*
X5422761Y10660470D01*
X5422286Y10661536D01*
Y10718179D01*
X5783957Y11079851D01*
X5787852Y11085679D01*
X5789219Y11092554D01*
Y11819486D01*
X5787852Y11826361D01*
X5787809Y11826425D01*
X5823424Y11862040D01*
X5834313Y11851151D01*
X5834313Y11851151D01*
X5834313Y11851150D01*
X5837400Y11842389D01*
Y11838080D01*
X5845834Y11817719D01*
X5861419Y11802134D01*
X5880100Y11794396D01*
Y11849100D01*
X5892800D01*
Y11861800D01*
X5947504D01*
X5939766Y11880481D01*
X5924181Y11896066D01*
X5903820Y11904500D01*
X5900138D01*
X5891448Y11908286D01*
X5891448Y11908285D01*
X5891447Y11908285D01*
X5880558Y11919174D01*
X5905024Y11943640D01*
X5862497Y11986167D01*
X5864031Y11998299D01*
X5884107Y12018374D01*
X5887975Y12024162D01*
X5888149Y12025038D01*
X5902758Y12031090D01*
X5914010Y12042342D01*
X5920100Y12057043D01*
Y12072957D01*
X5914010Y12087658D01*
X5902758Y12098910D01*
X5888057Y12105000D01*
X5872143D01*
X5857442Y12098910D01*
X5846190Y12087658D01*
X5840100Y12072957D01*
Y12057043D01*
X5846190Y12042342D01*
X5851899Y12036633D01*
X5836245Y12020978D01*
X5835149Y12020558D01*
X5833322Y12018825D01*
X5831938Y12017665D01*
X5831390Y12017274D01*
X5793897Y12054767D01*
X6167287Y12428157D01*
X6204407D01*
X6205185Y12427735D01*
X6209557Y12427277D01*
X6213873Y12426056D01*
X6219212Y12423767D01*
X6225449Y12420335D01*
X6232486Y12415738D01*
X6240086Y12410104D01*
X6267731Y12385649D01*
X6278073Y12375347D01*
X6278074Y12375346D01*
X6278074Y12375346D01*
X6278089Y12375332D01*
X6280059Y12374520D01*
X6288599Y12365980D01*
X6311402Y12352815D01*
X6336835Y12346000D01*
X6363165D01*
X6388598Y12352815D01*
X6411401Y12365980D01*
X6430020Y12384599D01*
X6443185Y12407402D01*
X6450000Y12432835D01*
Y12459165D01*
X6443185Y12484598D01*
X6430020Y12507401D01*
X6411401Y12526020D01*
X6388598Y12539185D01*
X6363165Y12546000D01*
X6336835D01*
X6311402Y12539185D01*
X6288599Y12526020D01*
X6280107Y12517528D01*
X6278189Y12516767D01*
X6257855Y12497031D01*
X6240166Y12481955D01*
X6232486Y12476262D01*
X6225448Y12471665D01*
X6219214Y12468235D01*
X6213873Y12465944D01*
X6209558Y12464723D01*
X6205185Y12464265D01*
X6204407Y12463843D01*
X6159896D01*
X6153068Y12462485D01*
X6147280Y12458617D01*
X5699898Y12011235D01*
X5696031Y12005447D01*
X5694672Y11998619D01*
Y11991948D01*
X5694094Y11991370D01*
X5694672Y11990792D01*
Y11984121D01*
X5696031Y11977293D01*
X5698030Y11974300D01*
Y11973526D01*
X5609807Y11885304D01*
X5609805D01*
X5597907Y11887081D01*
X5578347Y11906641D01*
X5576047Y11915709D01*
X5576449Y11917129D01*
X5579307Y11919986D01*
X5585397Y11934688D01*
Y11950601D01*
X5579307Y11965302D01*
X5568055Y11976554D01*
X5553353Y11982644D01*
X5537440D01*
X5522739Y11976554D01*
X5511486Y11965302D01*
X5505397Y11950601D01*
Y11934688D01*
X5511486Y11919986D01*
X5521395Y11910077D01*
X5521797Y11909357D01*
X5522081Y11909276D01*
X5522237Y11909027D01*
X5523583Y11908070D01*
X5543709Y11890106D01*
X5546867Y11886974D01*
X5548019Y11886502D01*
X5574464Y11860057D01*
X5574242Y11858349D01*
X5569353Y11853864D01*
X5560255Y11854023D01*
X5527162Y11887117D01*
X5521373Y11890985D01*
X5514545Y11892343D01*
X5496905D01*
X5495934Y11892808D01*
X5494021Y11892912D01*
X5492629Y11893137D01*
X5491132Y11893538D01*
X5489524Y11894137D01*
X5487786Y11894964D01*
X5485928Y11896037D01*
X5484089Y11897284D01*
X5479595Y11901000D01*
X5477269Y11903261D01*
X5475340Y11904028D01*
X5470958Y11908410D01*
X5456257Y11914500D01*
X5440343D01*
X5425642Y11908410D01*
X5414390Y11897158D01*
X5408300Y11882457D01*
Y11866543D01*
X5414390Y11851842D01*
X5425642Y11840590D01*
X5440343Y11834500D01*
X5456257D01*
X5470958Y11840590D01*
X5475340Y11844972D01*
X5477269Y11845739D01*
X5479707Y11848109D01*
X5481875Y11850008D01*
X5483956Y11851625D01*
X5485927Y11852963D01*
X5487786Y11854036D01*
X5489523Y11854862D01*
X5491132Y11855462D01*
X5492629Y11855863D01*
X5494022Y11856088D01*
X5495934Y11856192D01*
X5496905Y11856657D01*
X5507154D01*
X5539305Y11824506D01*
X5539096Y11814593D01*
X5503741Y11779238D01*
X5440102Y11715598D01*
X5433030Y11708527D01*
Y11708526D01*
X5362320Y11637816D01*
X5457337Y11542799D01*
X5457733Y11541688D01*
X5458799Y11540510D01*
X5459446Y11539635D01*
X5460049Y11538630D01*
X5460605Y11537474D01*
X5461111Y11536142D01*
X5461554Y11534612D01*
X5461921Y11532885D01*
X5462198Y11530947D01*
X5462372Y11528795D01*
X5462440Y11526171D01*
X5462917Y11525097D01*
Y11290531D01*
X5452917Y11289546D01*
X5452085Y11293732D01*
X5448217Y11299521D01*
X5300250Y11447487D01*
X5294462Y11451355D01*
X5287633Y11452713D01*
X5222220D01*
X5151953Y11522981D01*
X5151885Y11532953D01*
X5162774Y11543842D01*
X5187240Y11519376D01*
X5228545Y11560681D01*
X5240677Y11559147D01*
X5255440Y11544383D01*
X5261228Y11540515D01*
X5268057Y11539157D01*
X5285395D01*
X5286366Y11538692D01*
X5288279Y11538588D01*
X5289671Y11538363D01*
X5291168Y11537962D01*
X5292776Y11537363D01*
X5294514Y11536536D01*
X5296372Y11535463D01*
X5298211Y11534216D01*
X5302705Y11530500D01*
X5305031Y11528239D01*
X5306960Y11527472D01*
X5311342Y11523090D01*
X5326043Y11517000D01*
X5341957D01*
X5356658Y11523090D01*
X5367910Y11534342D01*
X5374000Y11549043D01*
Y11564957D01*
X5367910Y11579658D01*
X5356658Y11590910D01*
X5341957Y11597000D01*
X5326043D01*
X5311342Y11590910D01*
X5306960Y11586528D01*
X5305031Y11585761D01*
X5302593Y11583391D01*
X5300425Y11581492D01*
X5298344Y11579875D01*
X5296373Y11578537D01*
X5294514Y11577464D01*
X5292777Y11576638D01*
X5291168Y11576038D01*
X5289671Y11575637D01*
X5288278Y11575412D01*
X5286366Y11575308D01*
X5285395Y11574843D01*
X5275447D01*
X5263357Y11586933D01*
X5262936Y11588029D01*
X5261203Y11589856D01*
X5260042Y11591242D01*
X5259652Y11591788D01*
X5305680Y11637816D01*
X5281214Y11662282D01*
X5292104Y11673171D01*
X5276154Y11689122D01*
X5338007Y11750975D01*
X5341875Y11756763D01*
X5343233Y11763592D01*
Y11798220D01*
X5352681Y11802134D01*
X5368266Y11817719D01*
X5376004Y11836400D01*
X5321300D01*
Y11849100D01*
X5308600D01*
Y11903804D01*
X5289919Y11896066D01*
X5274334Y11880481D01*
X5268726Y11866943D01*
X5128055D01*
X5121227Y11865585D01*
X5115438Y11861717D01*
X5109499Y11855777D01*
X5093548Y11871727D01*
X5082659Y11860838D01*
X5058193Y11885303D01*
Y11885303D01*
X5058193Y11885304D01*
X5022838Y11920659D01*
X4959198Y11984298D01*
X4952127Y11991370D01*
X4952126D01*
X4881416Y12062080D01*
X4827942Y12008606D01*
X4826830Y12008209D01*
X4825652Y12007143D01*
X4824777Y12006496D01*
X4823772Y12005894D01*
X4822616Y12005337D01*
X4821284Y12004832D01*
X4819755Y12004388D01*
X4818028Y12004022D01*
X4816089Y12003745D01*
X4813938Y12003570D01*
X4811315Y12003503D01*
X4806580Y12007819D01*
X4805301Y12009245D01*
X4804474Y12010391D01*
X4803702Y12011728D01*
X4802986Y12013294D01*
X4802342Y12015107D01*
X4801788Y12017177D01*
X4801369Y12019363D01*
X4800818Y12025166D01*
X4800773Y12028409D01*
X4799951Y12030315D01*
Y12036513D01*
X4793862Y12051214D01*
X4782609Y12062466D01*
X4767908Y12068556D01*
X4751995D01*
X4737293Y12062466D01*
X4726041Y12051214D01*
X4719951Y12036513D01*
Y12020600D01*
X4726041Y12005898D01*
X4737293Y11994646D01*
X4751995Y11988556D01*
X4758192D01*
X4760099Y11987735D01*
X4763494Y11987687D01*
X4766378Y11987496D01*
X4768985Y11987169D01*
X4771332Y11986719D01*
X4773403Y11986165D01*
X4775214Y11985521D01*
X4776780Y11984805D01*
X4778117Y11984033D01*
X4779263Y11983206D01*
X4780688Y11981928D01*
X4781704Y11981570D01*
X4784234Y11979040D01*
X4784481Y11965145D01*
X4762976Y11943640D01*
X4791573Y11915043D01*
X4787431Y11905043D01*
X4760305D01*
X4759334Y11905508D01*
X4757421Y11905612D01*
X4756029Y11905837D01*
X4754532Y11906238D01*
X4752924Y11906837D01*
X4751186Y11907664D01*
X4749328Y11908737D01*
X4747489Y11909984D01*
X4742995Y11913700D01*
X4740669Y11915961D01*
X4738740Y11916728D01*
X4734358Y11921110D01*
X4719657Y11927200D01*
X4703743D01*
X4689042Y11921110D01*
X4677790Y11909858D01*
X4671700Y11895157D01*
Y11879243D01*
X4677790Y11864542D01*
X4689042Y11853290D01*
X4693259Y11851543D01*
X4691270Y11841543D01*
X4584700D01*
X4577872Y11840185D01*
X4572083Y11836317D01*
X4431891Y11696124D01*
X4428923Y11691682D01*
X4423573Y11691829D01*
X4418947Y11693382D01*
X4419240Y11713072D01*
X4421088Y11736239D01*
X4422493Y11745696D01*
X4424219Y11753922D01*
X4426202Y11760759D01*
X4428359Y11766154D01*
X4430546Y11770068D01*
X4433315Y11773484D01*
X4433566Y11774333D01*
X4825405Y12166172D01*
X4826501Y12166592D01*
X4828328Y12168326D01*
X4829712Y12169485D01*
X4830260Y12169876D01*
X4881416Y12118720D01*
X4952126Y12189430D01*
X4952127D01*
X4952127Y12189431D01*
X5034469Y12271773D01*
X5043708Y12267946D01*
Y12206677D01*
X5043623Y12206600D01*
X5033943D01*
X5019242Y12200510D01*
X5007990Y12189258D01*
X5001900Y12174557D01*
Y12158643D01*
X5007990Y12143942D01*
X5019242Y12132690D01*
X5033943Y12126600D01*
X5049857D01*
X5064558Y12132690D01*
X5075810Y12143942D01*
X5081900Y12158643D01*
Y12174557D01*
X5076063Y12188648D01*
X5078036Y12191600D01*
X5079394Y12198428D01*
Y12302745D01*
X5078036Y12309573D01*
X5076036Y12312565D01*
Y12313340D01*
X5121832Y12359136D01*
X5128904Y12366207D01*
Y12366207D01*
X5164259Y12401562D01*
X5234969Y12472273D01*
X5234969D01*
X5234970Y12472274D01*
X5305680Y12542984D01*
X5259652Y12589012D01*
X5260042Y12589559D01*
X5261202Y12590944D01*
X5262936Y12592771D01*
X5263356Y12593867D01*
X5283117Y12613628D01*
X5286985Y12619416D01*
X5288343Y12626244D01*
Y12845506D01*
X5288820Y12846581D01*
X5288886Y12849094D01*
X5289046Y12850899D01*
X5289091Y12851169D01*
X5323000D01*
X5332665Y12853091D01*
X5337589Y12849953D01*
X5341557Y12846506D01*
Y12748605D01*
X5341092Y12747634D01*
X5340988Y12745721D01*
X5340763Y12744329D01*
X5340362Y12742832D01*
X5339763Y12741224D01*
X5338936Y12739486D01*
X5337863Y12737628D01*
X5336616Y12735789D01*
X5332900Y12731295D01*
X5330639Y12728969D01*
X5329872Y12727040D01*
X5325490Y12722658D01*
X5319400Y12707957D01*
Y12692043D01*
X5325490Y12677342D01*
X5336742Y12666090D01*
X5342776Y12663590D01*
X5343774Y12662366D01*
X5343802Y12662363D01*
X5349708Y12655044D01*
X5350711Y12653002D01*
X5351525Y12648906D01*
X5355393Y12643117D01*
X5404644Y12593867D01*
X5405064Y12592771D01*
X5406798Y12590944D01*
X5407958Y12589559D01*
X5408348Y12589012D01*
X5362320Y12542984D01*
X5386786Y12518518D01*
X5375896Y12507629D01*
X5395483Y12488042D01*
X5465592Y12558151D01*
X5483553Y12540191D01*
X5413443Y12470081D01*
X5433030Y12450494D01*
X5443920Y12461384D01*
X5472885Y12432418D01*
X5472524Y12431919D01*
X5471340Y12430516D01*
X5469596Y12428681D01*
X5469173Y12427583D01*
X5443170Y12401580D01*
X5443044Y12401587D01*
X5441637Y12401812D01*
X5440115Y12402213D01*
X5438464Y12402815D01*
X5436679Y12403644D01*
X5434769Y12404717D01*
X5432862Y12405970D01*
X5428228Y12409658D01*
X5425821Y12411899D01*
X5423983Y12412585D01*
X5420158Y12416410D01*
X5405457Y12422500D01*
X5389543D01*
X5374842Y12416410D01*
X5363590Y12405158D01*
X5357500Y12390457D01*
Y12374543D01*
X5363590Y12359842D01*
X5374842Y12348590D01*
X5389543Y12342500D01*
X5405457D01*
X5420158Y12348590D01*
X5425123Y12353555D01*
X5427104Y12354393D01*
X5429459Y12356784D01*
X5431557Y12358694D01*
X5433564Y12360312D01*
X5435475Y12361649D01*
X5437277Y12362719D01*
X5438964Y12363541D01*
X5440537Y12364139D01*
X5442003Y12364538D01*
X5443385Y12364764D01*
X5445305Y12364869D01*
X5446274Y12365334D01*
X5450000D01*
X5456828Y12366692D01*
X5462616Y12370560D01*
X5494406Y12402349D01*
X5495505Y12402772D01*
X5497338Y12404515D01*
X5498743Y12405701D01*
X5499241Y12406062D01*
X5539096Y12366207D01*
Y12366207D01*
X5546167Y12359136D01*
X5579517Y12325786D01*
X5577983Y12313655D01*
X5575383Y12311055D01*
X5571515Y12305267D01*
X5570157Y12298438D01*
Y12253305D01*
X5569692Y12252334D01*
X5569588Y12250421D01*
X5569363Y12249029D01*
X5568962Y12247532D01*
X5568363Y12245924D01*
X5567536Y12244186D01*
X5566463Y12242328D01*
X5565216Y12240489D01*
X5561500Y12235995D01*
X5559239Y12233669D01*
X5558472Y12231740D01*
X5554090Y12227358D01*
X5548000Y12212657D01*
Y12196743D01*
X5554090Y12182042D01*
X5565342Y12170790D01*
X5580043Y12164700D01*
X5595957D01*
X5610658Y12170790D01*
X5621910Y12182042D01*
X5628000Y12196743D01*
Y12212657D01*
X5621910Y12227358D01*
X5617528Y12231740D01*
X5616761Y12233669D01*
X5614391Y12236107D01*
X5612492Y12238275D01*
X5610875Y12240356D01*
X5609537Y12242327D01*
X5608464Y12244186D01*
X5607638Y12245923D01*
X5607038Y12247532D01*
X5606637Y12249029D01*
X5606412Y12250422D01*
X5606308Y12252334D01*
X5605843Y12253305D01*
Y12285319D01*
X5615320Y12289244D01*
X5616354Y12288950D01*
X5708802Y12196502D01*
X5715873Y12189430D01*
X5715874D01*
X5786584Y12118720D01*
X5896317Y12228453D01*
X5897224Y12228717D01*
X5897526Y12229266D01*
X5898105Y12229506D01*
X5898624Y12230760D01*
X5905024Y12237160D01*
X5900524Y12241660D01*
X5900886Y12242159D01*
X5902070Y12243561D01*
X5903814Y12245396D01*
X5904237Y12246495D01*
X6083217Y12425475D01*
X6087085Y12431263D01*
X6088443Y12438091D01*
Y13453073D01*
X6087085Y13459901D01*
X6083217Y13465691D01*
X5992410Y13556497D01*
Y13557315D01*
X5991592D01*
X5939208Y13609698D01*
X5933420Y13613567D01*
X5926591Y13614925D01*
X5571809D01*
X5558472Y13628261D01*
X5562299Y13637500D01*
X5624000D01*
Y13812500D01*
X5593956D01*
X5593846Y13813161D01*
X5593686Y13814964D01*
X5593620Y13817480D01*
X5593143Y13818552D01*
Y13832495D01*
X5593608Y13833466D01*
X5593712Y13835379D01*
X5593937Y13836771D01*
X5594338Y13838268D01*
X5594937Y13839876D01*
X5595764Y13841614D01*
X5596837Y13843472D01*
X5598084Y13845311D01*
X5601800Y13849805D01*
X5604061Y13852132D01*
X5604828Y13854060D01*
X5609210Y13858443D01*
X5615300Y13873143D01*
Y13889056D01*
X5609210Y13903758D01*
X5597958Y13915010D01*
X5583257Y13921100D01*
D02*
G37*
G36*
X6363165Y13816000D02*
X6336835D01*
X6311402Y13809184D01*
X6288599Y13796021D01*
X6269980Y13777402D01*
X6256815Y13754597D01*
X6250000Y13729166D01*
Y13702835D01*
X6256815Y13677402D01*
X6269980Y13654599D01*
X6288599Y13635980D01*
X6311402Y13622815D01*
X6336835Y13616000D01*
X6363165D01*
X6388598Y13622815D01*
X6411401Y13635980D01*
X6430020Y13654599D01*
X6443185Y13677402D01*
X6450000Y13702835D01*
Y13729166D01*
X6443185Y13754597D01*
X6430020Y13777402D01*
X6411401Y13796021D01*
X6388598Y13809184D01*
X6363165Y13816000D01*
D02*
G37*
G36*
X4433400Y13703300D02*
X4330700D01*
Y13600600D01*
X4333193D01*
X4362543Y13608466D01*
X4388857Y13623657D01*
X4410343Y13645143D01*
X4425535Y13671457D01*
X4433400Y13700807D01*
Y13703300D01*
D02*
G37*
G36*
X4305300D02*
X4202600D01*
Y13700807D01*
X4210465Y13671457D01*
X4225657Y13645143D01*
X4247143Y13623657D01*
X4273457Y13608466D01*
X4302807Y13600600D01*
X4305300D01*
Y13703300D01*
D02*
G37*
G36*
X6162698Y13560112D02*
Y13512695D01*
X6210114D01*
X6201203Y13534210D01*
X6184212Y13551199D01*
X6162698Y13560112D01*
D02*
G37*
G36*
X6137298D02*
X6115784Y13551199D01*
X6098793Y13534210D01*
X6089882Y13512695D01*
X6137298D01*
Y13560112D01*
D02*
G37*
G36*
X4662699D02*
Y13512695D01*
X4710115D01*
X4701203Y13534210D01*
X4684212Y13551199D01*
X4662699Y13560112D01*
D02*
G37*
G36*
X4637299D02*
X4615785Y13551199D01*
X4598794Y13534210D01*
X4589883Y13512695D01*
X4637299D01*
Y13560112D01*
D02*
G37*
G36*
X6210114Y13487296D02*
X6162698D01*
Y13439880D01*
X6184212Y13448792D01*
X6201203Y13465782D01*
X6210114Y13487296D01*
D02*
G37*
G36*
X6137298D02*
X6089882D01*
X6098793Y13465782D01*
X6115784Y13448792D01*
X6137298Y13439880D01*
Y13487296D01*
D02*
G37*
G36*
X4637299D02*
X4589883D01*
X4598794Y13465782D01*
X4615785Y13448792D01*
X4637299Y13439880D01*
Y13487296D01*
D02*
G37*
G36*
X4887600Y13472707D02*
X4804899D01*
Y13400008D01*
X4887600D01*
Y13472707D01*
D02*
G37*
G36*
X4710115Y13487296D02*
X4662699D01*
Y13439880D01*
X4684212Y13448792D01*
X4687561Y13452139D01*
X4696800Y13448312D01*
Y13400008D01*
X4779499D01*
Y13472707D01*
X4713072D01*
X4707516Y13481023D01*
X4710115Y13487296D01*
D02*
G37*
G36*
X6363165Y13562000D02*
X6336835D01*
X6311402Y13555185D01*
X6288599Y13542020D01*
X6269980Y13523401D01*
X6256815Y13500598D01*
X6250000Y13475165D01*
Y13448836D01*
X6256815Y13423402D01*
X6269980Y13400600D01*
X6288599Y13381979D01*
X6311402Y13368816D01*
X6336835Y13362000D01*
X6363165D01*
X6388598Y13368816D01*
X6411401Y13381979D01*
X6430020Y13400600D01*
X6443185Y13423402D01*
X6450000Y13448836D01*
Y13475165D01*
X6443185Y13500598D01*
X6430020Y13523401D01*
X6411401Y13542020D01*
X6388598Y13555185D01*
X6363165Y13562000D01*
D02*
G37*
G36*
X4331165D02*
X4304835D01*
X4279402Y13555185D01*
X4256599Y13542020D01*
X4237980Y13523401D01*
X4224815Y13500598D01*
X4218000Y13475165D01*
Y13448836D01*
X4224815Y13423402D01*
X4237980Y13400600D01*
X4256599Y13381979D01*
X4279402Y13368816D01*
X4304835Y13362000D01*
X4331165D01*
X4356598Y13368816D01*
X4379401Y13381979D01*
X4398020Y13400600D01*
X4411185Y13423402D01*
X4418000Y13448836D01*
Y13475165D01*
X4411185Y13500598D01*
X4398020Y13523401D01*
X4379401Y13542020D01*
X4356598Y13555185D01*
X4331165Y13562000D01*
D02*
G37*
G36*
X4779499Y13374608D02*
X4696800D01*
Y13301907D01*
X4779499D01*
Y13374608D01*
D02*
G37*
G36*
X4512699Y13260112D02*
Y13212695D01*
X4560115D01*
X4551203Y13234210D01*
X4534212Y13251201D01*
X4512699Y13260112D01*
D02*
G37*
G36*
X4487299D02*
X4465785Y13251201D01*
X4448794Y13234210D01*
X4439883Y13212695D01*
X4487299D01*
Y13260112D01*
D02*
G37*
G36*
X4560115Y13187296D02*
X4512699D01*
Y13139880D01*
X4534212Y13148792D01*
X4551203Y13165782D01*
X4560115Y13187296D01*
D02*
G37*
G36*
X4487299D02*
X4439883D01*
X4448794Y13165782D01*
X4465785Y13148792D01*
X4487299Y13139880D01*
Y13187296D01*
D02*
G37*
G36*
X6363165Y13308000D02*
X6336835D01*
X6311402Y13301186D01*
X6288599Y13288020D01*
X6269980Y13269402D01*
X6256815Y13246597D01*
X6250000Y13221165D01*
Y13194835D01*
X6256815Y13169402D01*
X6269980Y13146599D01*
X6288599Y13127980D01*
X6311402Y13114815D01*
X6336835Y13108000D01*
X6363165D01*
X6388598Y13114815D01*
X6411401Y13127980D01*
X6430020Y13146599D01*
X6443185Y13169402D01*
X6450000Y13194835D01*
Y13221165D01*
X6443185Y13246597D01*
X6430020Y13269402D01*
X6411401Y13288020D01*
X6388598Y13301186D01*
X6363165Y13308000D01*
D02*
G37*
G36*
X4331165D02*
X4304835D01*
X4279402Y13301186D01*
X4256599Y13288020D01*
X4237980Y13269402D01*
X4224815Y13246597D01*
X4218000Y13221165D01*
Y13194835D01*
X4224815Y13169402D01*
X4237980Y13146599D01*
X4256599Y13127980D01*
X4279402Y13114815D01*
X4304835Y13108000D01*
X4331165D01*
X4356598Y13114815D01*
X4379401Y13127980D01*
X4398020Y13146599D01*
X4411185Y13169402D01*
X4418000Y13194835D01*
Y13221165D01*
X4411185Y13246597D01*
X4398020Y13269402D01*
X4379401Y13288020D01*
X4356598Y13301186D01*
X4331165Y13308000D01*
D02*
G37*
G36*
X6363165Y13053999D02*
X6336835D01*
X6311402Y13047185D01*
X6288599Y13034019D01*
X6269980Y13015401D01*
X6256815Y12992598D01*
X6250000Y12967165D01*
Y12940836D01*
X6256815Y12915402D01*
X6269980Y12892599D01*
X6288599Y12873981D01*
X6311402Y12860815D01*
X6336835Y12853999D01*
X6363165D01*
X6388598Y12860815D01*
X6411401Y12873981D01*
X6430020Y12892599D01*
X6443185Y12915402D01*
X6450000Y12940836D01*
Y12967165D01*
X6443185Y12992598D01*
X6430020Y13015401D01*
X6411401Y13034019D01*
X6388598Y13047185D01*
X6363165Y13053999D01*
D02*
G37*
G36*
X4331165D02*
X4304835D01*
X4279402Y13047185D01*
X4256599Y13034019D01*
X4237980Y13015401D01*
X4224815Y12992598D01*
X4218000Y12967165D01*
Y12940836D01*
X4224815Y12915402D01*
X4237980Y12892599D01*
X4256599Y12873981D01*
X4279402Y12860815D01*
X4304835Y12853999D01*
X4331165D01*
X4356598Y12860815D01*
X4379401Y12873981D01*
X4398020Y12892599D01*
X4411185Y12915402D01*
X4418000Y12940836D01*
Y12967165D01*
X4411185Y12992598D01*
X4398020Y13015401D01*
X4379401Y13034019D01*
X4356598Y13047185D01*
X4331165Y13053999D01*
D02*
G37*
G36*
X4876800Y12830904D02*
X4858119Y12823166D01*
X4842534Y12807581D01*
X4834796Y12788900D01*
X4876800D01*
Y12830904D01*
D02*
G37*
G36*
Y12763500D02*
X4834796D01*
X4842534Y12744819D01*
X4858119Y12729234D01*
X4876800Y12721496D01*
Y12763500D01*
D02*
G37*
G36*
X4512699Y12660112D02*
Y12612696D01*
X4560115D01*
X4551203Y12634210D01*
X4534212Y12651201D01*
X4512699Y12660112D01*
D02*
G37*
G36*
X4487299D02*
X4465785Y12651201D01*
X4448794Y12634210D01*
X4439883Y12612696D01*
X4487299D01*
Y12660112D01*
D02*
G37*
G36*
X6363165Y12800000D02*
X6336835D01*
X6311402Y12793185D01*
X6288599Y12780020D01*
X6269980Y12761401D01*
X6256815Y12738598D01*
X6250000Y12713165D01*
Y12686835D01*
X6256815Y12661402D01*
X6269980Y12638599D01*
X6288599Y12619980D01*
X6311402Y12606815D01*
X6336835Y12600000D01*
X6363165D01*
X6388598Y12606815D01*
X6411401Y12619980D01*
X6430020Y12638599D01*
X6443185Y12661402D01*
X6450000Y12686835D01*
Y12713165D01*
X6443185Y12738598D01*
X6430020Y12761401D01*
X6411401Y12780020D01*
X6388598Y12793185D01*
X6363165Y12800000D01*
D02*
G37*
G36*
X4560115Y12587296D02*
X4512699D01*
Y12539880D01*
X4534212Y12548792D01*
X4551203Y12565782D01*
X4560115Y12587296D01*
D02*
G37*
G36*
X4487299D02*
X4439883D01*
X4448794Y12565782D01*
X4465785Y12548792D01*
X4487299Y12539880D01*
Y12587296D01*
D02*
G37*
G36*
X6162698Y12360112D02*
Y12312696D01*
X6210114D01*
X6201203Y12334210D01*
X6184212Y12351201D01*
X6162698Y12360112D01*
D02*
G37*
G36*
X6137298D02*
X6115784Y12351201D01*
X6098793Y12334210D01*
X6089882Y12312696D01*
X6137298D01*
Y12360112D01*
D02*
G37*
G36*
X6210114Y12287296D02*
X6162698D01*
Y12239880D01*
X6184212Y12248792D01*
X6201203Y12265782D01*
X6210114Y12287296D01*
D02*
G37*
G36*
X6137298D02*
X6089882D01*
X6098793Y12265782D01*
X6115784Y12248792D01*
X6137298Y12239880D01*
Y12287296D01*
D02*
G37*
G36*
X6363165Y12292000D02*
X6336835D01*
X6311402Y12285185D01*
X6288599Y12272020D01*
X6269980Y12253401D01*
X6256815Y12230598D01*
X6250000Y12205165D01*
Y12178835D01*
X6256815Y12153402D01*
X6269980Y12130599D01*
X6288599Y12111980D01*
X6311402Y12098815D01*
X6336835Y12092000D01*
X6363165D01*
X6388598Y12098815D01*
X6411401Y12111980D01*
X6430020Y12130599D01*
X6443185Y12153402D01*
X6450000Y12178835D01*
Y12205165D01*
X6443185Y12230598D01*
X6430020Y12253401D01*
X6411401Y12272020D01*
X6388598Y12285185D01*
X6363165Y12292000D01*
D02*
G37*
G36*
X5346700Y12043504D02*
Y12001500D01*
X5388704D01*
X5380966Y12020181D01*
X5365381Y12035766D01*
X5346700Y12043504D01*
D02*
G37*
G36*
X5321300D02*
X5302619Y12035766D01*
X5287034Y12020181D01*
X5279296Y12001500D01*
X5321300D01*
Y12043504D01*
D02*
G37*
G36*
X5388704Y11976100D02*
X5346700D01*
Y11934096D01*
X5365381Y11941834D01*
X5380966Y11957419D01*
X5388704Y11976100D01*
D02*
G37*
G36*
X5321300D02*
X5279296D01*
X5287034Y11957419D01*
X5302619Y11941834D01*
X5321300Y11934096D01*
Y11976100D01*
D02*
G37*
G36*
X5334000Y11903804D02*
Y11861800D01*
X5376004D01*
X5368266Y11880481D01*
X5352681Y11896066D01*
X5334000Y11903804D01*
D02*
G37*
G36*
X6363165Y12038000D02*
X6336835D01*
X6311402Y12031185D01*
X6288599Y12018020D01*
X6269980Y11999401D01*
X6256815Y11976598D01*
X6250000Y11951165D01*
Y11924835D01*
X6256815Y11899402D01*
X6269980Y11876599D01*
X6288599Y11857980D01*
X6311402Y11844815D01*
X6336835Y11838000D01*
X6363165D01*
X6388598Y11844815D01*
X6411401Y11857980D01*
X6430020Y11876599D01*
X6443185Y11899402D01*
X6450000Y11924835D01*
Y11951165D01*
X6443185Y11976598D01*
X6430020Y11999401D01*
X6411401Y12018020D01*
X6388598Y12031185D01*
X6363165Y12038000D01*
D02*
G37*
G36*
X5947504Y11836400D02*
X5905500D01*
Y11794396D01*
X5924181Y11802134D01*
X5939766Y11817719D01*
X5947504Y11836400D01*
D02*
G37*
G36*
X6363165Y11784000D02*
X6336835D01*
X6311402Y11777185D01*
X6288599Y11764020D01*
X6269980Y11745401D01*
X6256815Y11722598D01*
X6250000Y11697165D01*
Y11670835D01*
X6256815Y11645402D01*
X6269980Y11622599D01*
X6288599Y11603980D01*
X6311402Y11590815D01*
X6336835Y11584000D01*
X6363165D01*
X6388598Y11590815D01*
X6411401Y11603980D01*
X6430020Y11622599D01*
X6443185Y11645402D01*
X6450000Y11670835D01*
Y11697165D01*
X6443185Y11722598D01*
X6430020Y11745401D01*
X6411401Y11764020D01*
X6388598Y11777185D01*
X6363165Y11784000D01*
D02*
G37*
G36*
X4789600Y11617440D02*
X4749800D01*
Y11518900D01*
X4833340D01*
Y11573700D01*
X4830011Y11590439D01*
X4820529Y11604629D01*
X4806339Y11614111D01*
X4789600Y11617440D01*
D02*
G37*
G36*
X4724400D02*
X4684600D01*
X4667861Y11614111D01*
X4653671Y11604629D01*
X4644189Y11590439D01*
X4640860Y11573700D01*
Y11518900D01*
X4724400D01*
Y11617440D01*
D02*
G37*
G36*
X4833340Y11493500D02*
X4749800D01*
Y11394960D01*
X4789600D01*
X4806339Y11398289D01*
X4820529Y11407771D01*
X4830011Y11421961D01*
X4833340Y11438700D01*
Y11493500D01*
D02*
G37*
G36*
X4724400D02*
X4640860D01*
Y11438700D01*
X4644189Y11421961D01*
X4653671Y11407771D01*
X4667861Y11398289D01*
X4684600Y11394960D01*
X4724400D01*
Y11493500D01*
D02*
G37*
G36*
X6363165Y11530000D02*
X6336835D01*
X6311402Y11523185D01*
X6288599Y11510020D01*
X6269980Y11491401D01*
X6256815Y11468598D01*
X6250000Y11443165D01*
Y11416835D01*
X6256815Y11391402D01*
X6269980Y11368599D01*
X6288599Y11349980D01*
X6311402Y11336815D01*
X6336835Y11330000D01*
X6363165D01*
X6388598Y11336815D01*
X6411401Y11349980D01*
X6430020Y11368599D01*
X6443185Y11391402D01*
X6450000Y11416835D01*
Y11443165D01*
X6443185Y11468598D01*
X6430020Y11491401D01*
X6411401Y11510020D01*
X6388598Y11523185D01*
X6363165Y11530000D01*
D02*
G37*
G36*
X4822733Y11215503D02*
Y11173499D01*
X4864737D01*
X4856999Y11192180D01*
X4841414Y11207764D01*
X4822733Y11215503D01*
D02*
G37*
G36*
X4797333D02*
X4778652Y11207764D01*
X4763067Y11192180D01*
X4755329Y11173499D01*
X4797333D01*
Y11215503D01*
D02*
G37*
G36*
X4876835Y11148099D02*
X4847512D01*
Y11144688D01*
X4845204Y11144671D01*
X4836898Y11144056D01*
X4835884Y11143828D01*
X4835085Y11143565D01*
X4834501Y11143266D01*
X4834133Y11142933D01*
X4835681Y11148099D01*
X4822733D01*
Y11106095D01*
X4841414Y11113833D01*
X4851024Y11123442D01*
X4895630Y11078837D01*
X4892560Y11063400D01*
Y11023600D01*
X4991100D01*
Y11107140D01*
X4936300D01*
X4920863Y11104070D01*
X4876835Y11148099D01*
D02*
G37*
G36*
X4797333D02*
X4755329D01*
X4763067Y11129417D01*
X4778652Y11113833D01*
X4797333Y11106095D01*
Y11148099D01*
D02*
G37*
G36*
X6363165Y11276000D02*
X6336835D01*
X6311402Y11269185D01*
X6288599Y11256020D01*
X6269980Y11237401D01*
X6256815Y11214598D01*
X6250000Y11189165D01*
Y11162835D01*
X6256815Y11137402D01*
X6269980Y11114599D01*
X6288599Y11095980D01*
X6311402Y11082815D01*
X6336835Y11076000D01*
X6363165D01*
X6388598Y11082815D01*
X6411401Y11095980D01*
X6430020Y11114599D01*
X6443185Y11137402D01*
X6450000Y11162835D01*
Y11189165D01*
X6443185Y11214598D01*
X6430020Y11237401D01*
X6411401Y11256020D01*
X6388598Y11269185D01*
X6363165Y11276000D01*
D02*
G37*
G36*
X5299404Y11087701D02*
X5251704D01*
Y11012500D01*
X5299404D01*
Y11087701D01*
D02*
G37*
G36*
X5965300Y11069276D02*
X5820300D01*
X5811521Y11067530D01*
X5804079Y11062557D01*
X5799106Y11055114D01*
X5797359Y11046335D01*
Y10981286D01*
X5797055Y10980640D01*
X5796977Y10979045D01*
X5796818Y10977957D01*
X5796541Y10976826D01*
X5796132Y10975635D01*
X5795569Y10974364D01*
X5794837Y10973014D01*
X5793914Y10971581D01*
X5792792Y10970073D01*
X5791456Y10968494D01*
X5789710Y10966654D01*
X5789289Y10965558D01*
X5764887Y10941156D01*
X5755604Y10938362D01*
X5755161Y10938407D01*
X5750358Y10943210D01*
X5735657Y10949300D01*
X5719743D01*
X5705042Y10943210D01*
X5693790Y10931958D01*
X5687700Y10917257D01*
Y10901343D01*
X5693790Y10886642D01*
X5705042Y10875390D01*
X5719743Y10869300D01*
X5735657D01*
X5750358Y10875390D01*
X5761610Y10886642D01*
X5766971Y10899584D01*
X5767191Y10899591D01*
X5769350Y10900560D01*
X5773703Y10901425D01*
X5779492Y10905293D01*
X5814523Y10940325D01*
X5815619Y10940745D01*
X5817462Y10942493D01*
X5819037Y10943826D01*
X5820546Y10944949D01*
X5821979Y10945872D01*
X5823329Y10946604D01*
X5824600Y10947167D01*
X5825791Y10947577D01*
X5826923Y10947853D01*
X5828009Y10948012D01*
X5829605Y10948090D01*
X5830250Y10948395D01*
X5965300D01*
X5974079Y10950141D01*
X5981521Y10955114D01*
X5986494Y10962556D01*
X5988240Y10971335D01*
Y11046335D01*
X5986494Y11055114D01*
X5981521Y11062557D01*
X5974079Y11067530D01*
X5965300Y11069276D01*
D02*
G37*
G36*
X4991100Y10998200D02*
X4892560D01*
Y10958400D01*
X4895889Y10941661D01*
X4905371Y10927471D01*
X4919561Y10917989D01*
X4936300Y10914660D01*
X4991100D01*
Y10998200D01*
D02*
G37*
G36*
X5299404Y10987100D02*
X5251704D01*
Y10911900D01*
X5299404D01*
Y10987100D01*
D02*
G37*
G36*
X5071300Y11107140D02*
X5016500D01*
Y11010900D01*
Y10914660D01*
X5071300D01*
X5088039Y10917989D01*
X5102229Y10927471D01*
X5111711Y10941661D01*
X5115040Y10958400D01*
Y10993057D01*
X5178604D01*
Y10911900D01*
X5226304D01*
Y10999800D01*
Y11087701D01*
X5178604D01*
Y11028743D01*
X5115040D01*
Y11063400D01*
X5111711Y11080139D01*
X5102229Y11094329D01*
X5088039Y11103811D01*
X5071300Y11107140D01*
D02*
G37*
G36*
X6091257Y10923900D02*
X6075343D01*
X6060642Y10917810D01*
X6049390Y10906558D01*
X6043300Y10891857D01*
Y10875943D01*
X6049390Y10861242D01*
X6060642Y10849990D01*
X6075343Y10843900D01*
X6091257D01*
X6105958Y10849990D01*
X6117210Y10861242D01*
X6123300Y10875943D01*
Y10891857D01*
X6117210Y10906558D01*
X6105958Y10917810D01*
X6091257Y10923900D01*
D02*
G37*
G36*
X6363165Y11022000D02*
X6336835D01*
X6311402Y11015185D01*
X6288599Y11002020D01*
X6269980Y10983401D01*
X6256815Y10960598D01*
X6250000Y10935165D01*
Y10908835D01*
X6256815Y10883402D01*
X6269980Y10860599D01*
X6288599Y10841980D01*
X6311402Y10828815D01*
X6336835Y10822000D01*
X6363165D01*
X6388598Y10828815D01*
X6411401Y10841980D01*
X6430020Y10860599D01*
X6443185Y10883402D01*
X6450000Y10908835D01*
Y10935165D01*
X6443185Y10960598D01*
X6430020Y10983401D01*
X6411401Y11002020D01*
X6388598Y11015185D01*
X6363165Y11022000D01*
D02*
G37*
G36*
X6108700Y10786204D02*
Y10744200D01*
X6150704D01*
X6142966Y10762881D01*
X6127381Y10778466D01*
X6108700Y10786204D01*
D02*
G37*
G36*
X6083300D02*
X6064619Y10778466D01*
X6049034Y10762881D01*
X6041296Y10744200D01*
X6083300D01*
Y10786204D01*
D02*
G37*
G36*
X6150704Y10718800D02*
X6108700D01*
Y10676796D01*
X6127381Y10684534D01*
X6142966Y10700119D01*
X6150704Y10718800D01*
D02*
G37*
G36*
X6083300D02*
X6041296D01*
X6049034Y10700119D01*
X6064619Y10684534D01*
X6083300Y10676796D01*
Y10718800D01*
D02*
G37*
G36*
X5965300Y10879276D02*
X5820300D01*
X5811521Y10877529D01*
X5804079Y10872557D01*
X5799106Y10865114D01*
X5797359Y10856335D01*
Y10781335D01*
X5799106Y10772556D01*
X5804079Y10765114D01*
X5811521Y10760141D01*
X5820300Y10758395D01*
X5925757D01*
Y10703905D01*
X5920942Y10701910D01*
X5909690Y10690658D01*
X5903600Y10675957D01*
Y10660043D01*
X5909690Y10645342D01*
X5920942Y10634090D01*
X5935643Y10628000D01*
X5951557D01*
X5966258Y10634090D01*
X5977510Y10645342D01*
X5983600Y10660043D01*
Y10675957D01*
X5977510Y10690658D01*
X5966258Y10701910D01*
X5961443Y10703905D01*
Y10758395D01*
X5965300D01*
X5974079Y10760141D01*
X5981521Y10765114D01*
X5986494Y10772556D01*
X5988240Y10781335D01*
Y10856335D01*
X5986494Y10865114D01*
X5981521Y10872557D01*
X5974079Y10877529D01*
X5965300Y10879276D01*
D02*
G37*
G36*
X6363165Y10768000D02*
X6336835D01*
X6311402Y10761185D01*
X6288599Y10748020D01*
X6269980Y10729401D01*
X6256815Y10706598D01*
X6250000Y10681165D01*
Y10654835D01*
X6256815Y10629402D01*
X6269980Y10606599D01*
X6288599Y10587980D01*
X6311402Y10574815D01*
X6336835Y10568000D01*
X6363165D01*
X6388598Y10574815D01*
X6411401Y10587980D01*
X6430020Y10606599D01*
X6443185Y10629402D01*
X6450000Y10654835D01*
Y10681165D01*
X6443185Y10706598D01*
X6430020Y10729401D01*
X6411401Y10748020D01*
X6388598Y10761185D01*
X6363165Y10768000D01*
D02*
G37*
G36*
X5778701Y10660629D02*
Y10543950D01*
X5842051D01*
Y10586250D01*
X5839459Y10605934D01*
X5831862Y10624275D01*
X5819776Y10640026D01*
X5804025Y10652112D01*
X5785684Y10659709D01*
X5778701Y10660629D01*
D02*
G37*
G36*
X4889301Y10660629D02*
X4882317Y10659709D01*
X4863975Y10652112D01*
X4848224Y10640026D01*
X4836139Y10624275D01*
X4828541Y10605934D01*
X4825950Y10586250D01*
Y10543950D01*
X4889301D01*
Y10660629D01*
D02*
G37*
G36*
X5842051Y10518550D02*
X5778701D01*
Y10401871D01*
X5785684Y10402790D01*
X5804025Y10410388D01*
X5819776Y10422474D01*
X5831862Y10438224D01*
X5839459Y10456566D01*
X5842051Y10476250D01*
Y10518550D01*
D02*
G37*
G36*
X4889301D02*
X4825950D01*
Y10476250D01*
X4828541Y10456566D01*
X4836139Y10438224D01*
X4848224Y10422474D01*
X4863975Y10410388D01*
X4882317Y10402790D01*
X4889301Y10401871D01*
Y10518550D01*
D02*
G37*
G36*
X6117700Y10458142D02*
X6057900D01*
Y10394700D01*
X6156342D01*
Y10419500D01*
X6153401Y10434288D01*
X6145024Y10446824D01*
X6132488Y10455201D01*
X6117700Y10458142D01*
D02*
G37*
G36*
X4714125D02*
X4654325D01*
Y10394700D01*
X4752767D01*
Y10419500D01*
X4749826Y10434288D01*
X4741449Y10446824D01*
X4728913Y10455201D01*
X4714125Y10458142D01*
D02*
G37*
G36*
X6032500D02*
X5972700D01*
X5957912Y10455201D01*
X5945376Y10446824D01*
X5936999Y10434288D01*
X5934058Y10419500D01*
Y10394700D01*
X6032500D01*
Y10458142D01*
D02*
G37*
G36*
X6363165Y10514000D02*
X6336835D01*
X6311402Y10507185D01*
X6288599Y10494020D01*
X6269980Y10475401D01*
X6256815Y10452598D01*
X6250000Y10427165D01*
Y10400835D01*
X6256815Y10375402D01*
X6269980Y10352599D01*
X6288599Y10333980D01*
X6311402Y10320815D01*
X6336835Y10314000D01*
X6363165D01*
X6388598Y10320815D01*
X6411401Y10333980D01*
X6430020Y10352599D01*
X6443185Y10375402D01*
X6450000Y10400835D01*
Y10427165D01*
X6443185Y10452598D01*
X6430020Y10475401D01*
X6411401Y10494020D01*
X6388598Y10507185D01*
X6363165Y10514000D01*
D02*
G37*
G36*
X6156342Y10369300D02*
X6057900D01*
Y10305858D01*
X6117700D01*
X6132488Y10308799D01*
X6145024Y10317176D01*
X6153401Y10329712D01*
X6156342Y10344500D01*
Y10369300D01*
D02*
G37*
G36*
X6032500D02*
X5934058D01*
Y10344500D01*
X5936999Y10329712D01*
X5945376Y10317176D01*
X5957912Y10308799D01*
X5972700Y10305858D01*
X6032500D01*
Y10369300D01*
D02*
G37*
G36*
X4752767D02*
X4654325D01*
Y10305858D01*
X4714125D01*
X4728913Y10308799D01*
X4741449Y10317176D01*
X4749826Y10329712D01*
X4752767Y10344500D01*
Y10369300D01*
D02*
G37*
G36*
X6365193Y10275400D02*
X6362700D01*
Y10172700D01*
X6465400D01*
Y10175193D01*
X6457535Y10204543D01*
X6442343Y10230857D01*
X6420857Y10252343D01*
X6394543Y10267535D01*
X6365193Y10275400D01*
D02*
G37*
G36*
X6337300D02*
X6334807D01*
X6305457Y10267535D01*
X6279143Y10252343D01*
X6257657Y10230857D01*
X6242465Y10204543D01*
X6234600Y10175193D01*
Y10172700D01*
X6337300D01*
Y10275400D01*
D02*
G37*
G36*
X5778700Y10227629D02*
Y10125950D01*
X5842051D01*
Y10153250D01*
X5839459Y10172933D01*
X5831862Y10191275D01*
X5819776Y10207026D01*
X5804025Y10219112D01*
X5785684Y10226709D01*
X5778700Y10227629D01*
D02*
G37*
G36*
X4914700D02*
Y10125950D01*
X4978051D01*
Y10153250D01*
X4975460Y10172933D01*
X4967862Y10191275D01*
X4955776Y10207026D01*
X4940026Y10219112D01*
X4921684Y10226709D01*
X4914700Y10227629D01*
D02*
G37*
G36*
X5753300Y10227629D02*
X5746317Y10226709D01*
X5727975Y10219112D01*
X5712224Y10207026D01*
X5700138Y10191275D01*
X5692541Y10172933D01*
X5689950Y10153250D01*
Y10125950D01*
X5753300D01*
Y10227629D01*
D02*
G37*
G36*
X4889300D02*
X4882317Y10226709D01*
X4863975Y10219112D01*
X4848224Y10207026D01*
X4836139Y10191275D01*
X4828541Y10172933D01*
X4825950Y10153250D01*
Y10125950D01*
X4889300D01*
Y10227629D01*
D02*
G37*
G36*
X6465400Y10147300D02*
X6362700D01*
Y10044600D01*
X6365193D01*
X6394543Y10052465D01*
X6420857Y10067657D01*
X6442343Y10089143D01*
X6457535Y10115457D01*
X6465400Y10144807D01*
Y10147300D01*
D02*
G37*
G36*
X6337300D02*
X6234600D01*
Y10144807D01*
X6242465Y10115457D01*
X6257657Y10089143D01*
X6279143Y10067657D01*
X6305457Y10052465D01*
X6334807Y10044600D01*
X6337300D01*
Y10147300D01*
D02*
G37*
G36*
X4714125Y10252441D02*
X4569125D01*
X4560346Y10250694D01*
X4552904Y10245721D01*
X4547931Y10238279D01*
X4546184Y10229500D01*
Y10154500D01*
X4547931Y10145721D01*
X4552904Y10138278D01*
X4560346Y10133306D01*
X4569125Y10131559D01*
X4613077D01*
X4613154Y10131100D01*
X4613313Y10129296D01*
X4613379Y10126781D01*
X4613856Y10125709D01*
Y10090014D01*
X4613391Y10089043D01*
X4613287Y10087131D01*
X4613062Y10085739D01*
X4612661Y10084242D01*
X4612062Y10082633D01*
X4611235Y10080896D01*
X4610162Y10079037D01*
X4608915Y10077199D01*
X4605199Y10072704D01*
X4602938Y10070379D01*
X4602171Y10068450D01*
X4597789Y10064068D01*
X4591699Y10049366D01*
Y10033453D01*
X4597789Y10018751D01*
X4609041Y10007499D01*
X4623743Y10001410D01*
X4639656D01*
X4654357Y10007499D01*
X4665609Y10018751D01*
X4671699Y10033453D01*
Y10049366D01*
X4665609Y10064068D01*
X4661227Y10068450D01*
X4660460Y10070378D01*
X4658090Y10072817D01*
X4656191Y10074985D01*
X4654574Y10077065D01*
X4653237Y10079037D01*
X4652163Y10080896D01*
X4651337Y10082632D01*
X4650737Y10084242D01*
X4650336Y10085739D01*
X4650111Y10087131D01*
X4650007Y10089043D01*
X4649542Y10090014D01*
Y10125709D01*
X4650019Y10126781D01*
X4650085Y10129296D01*
X4650245Y10131100D01*
X4650321Y10131559D01*
X4714125D01*
X4722904Y10133306D01*
X4730346Y10138278D01*
X4735319Y10145721D01*
X4737065Y10154500D01*
Y10229500D01*
X4735319Y10238279D01*
X4730346Y10245721D01*
X4722904Y10250694D01*
X4714125Y10252441D01*
D02*
G37*
G36*
X5753300Y10100550D02*
X5689950D01*
Y10073250D01*
X5692541Y10053567D01*
X5700138Y10035225D01*
X5712224Y10019474D01*
X5727975Y10007388D01*
X5746317Y9999791D01*
X5753300Y9998872D01*
Y10100550D01*
D02*
G37*
G36*
X4889300D02*
X4825950D01*
Y10073250D01*
X4828541Y10053567D01*
X4836139Y10035225D01*
X4848224Y10019474D01*
X4863975Y10007388D01*
X4882317Y9999791D01*
X4889300Y9998872D01*
Y10100550D01*
D02*
G37*
G36*
X5842051D02*
X5778700D01*
Y9998871D01*
X5785684Y9999791D01*
X5804025Y10007388D01*
X5819776Y10019474D01*
X5831862Y10035225D01*
X5839459Y10053567D01*
X5842051Y10073250D01*
Y10100550D01*
D02*
G37*
G36*
X4978051D02*
X4914700D01*
Y9998871D01*
X4921684Y9999791D01*
X4940026Y10007388D01*
X4955776Y10019474D01*
X4967862Y10035225D01*
X4975460Y10053567D01*
X4978051Y10073250D01*
Y10100550D01*
D02*
G37*
G36*
X6117700Y10252441D02*
X5972700D01*
X5963921Y10250694D01*
X5956479Y10245721D01*
X5951506Y10238279D01*
X5949759Y10229500D01*
Y10154500D01*
X5951506Y10145721D01*
X5956479Y10138278D01*
X5963921Y10133306D01*
X5972700Y10131559D01*
X6027482D01*
X6027558Y10131100D01*
X6027717Y10129296D01*
X6027783Y10126781D01*
X6028261Y10125709D01*
Y10087441D01*
X6027796Y10086470D01*
X6027692Y10084557D01*
X6027467Y10083165D01*
X6027066Y10081668D01*
X6026467Y10080060D01*
X6025640Y10078322D01*
X6024567Y10076464D01*
X6023319Y10074625D01*
X6019604Y10070130D01*
X6017343Y10067805D01*
X6016575Y10065876D01*
X6012193Y10061494D01*
X6006104Y10046792D01*
Y10030879D01*
X6012193Y10016178D01*
X6023446Y10004926D01*
X6038147Y9998836D01*
X6054060D01*
X6068762Y10004926D01*
X6080014Y10016178D01*
X6086104Y10030879D01*
Y10046792D01*
X6080014Y10061494D01*
X6075632Y10065876D01*
X6074865Y10067805D01*
X6072495Y10070243D01*
X6070596Y10072411D01*
X6068979Y10074491D01*
X6067641Y10076463D01*
X6066567Y10078322D01*
X6065741Y10080059D01*
X6065142Y10081668D01*
X6064741Y10083165D01*
X6064515Y10084557D01*
X6064412Y10086470D01*
X6063946Y10087441D01*
Y10125709D01*
X6064424Y10126781D01*
X6064490Y10129296D01*
X6064649Y10131100D01*
X6064726Y10131559D01*
X6117700D01*
X6126479Y10133306D01*
X6133921Y10138278D01*
X6138894Y10145721D01*
X6140640Y10154500D01*
Y10229500D01*
X6138894Y10238279D01*
X6133921Y10245721D01*
X6126479Y10250694D01*
X6117700Y10252441D01*
D02*
G37*
%LPD*%
G36*
X4512476Y13949001D02*
X4511192Y13950140D01*
X4509692Y13951160D01*
X4507975Y13952060D01*
X4506044Y13952840D01*
X4503896Y13953500D01*
X4501533Y13954041D01*
X4498953Y13954460D01*
X4496158Y13954761D01*
X4489919Y13955000D01*
Y13985001D01*
X4493146Y13985060D01*
X4498953Y13985539D01*
X4501533Y13985960D01*
X4503896Y13986501D01*
X4506044Y13987160D01*
X4507975Y13987939D01*
X4509692Y13988840D01*
X4511192Y13989861D01*
X4512476Y13991000D01*
Y13949001D01*
D02*
G37*
G36*
X4407995Y13997150D02*
X4408895Y13994600D01*
X4410395Y13992349D01*
X4412495Y13990401D01*
X4415195Y13988750D01*
X4418495Y13987399D01*
X4422395Y13986349D01*
X4426895Y13985600D01*
X4431995Y13985150D01*
X4437695Y13985001D01*
Y13955000D01*
X4431995Y13954849D01*
X4426895Y13954401D01*
X4422395Y13953650D01*
X4418495Y13952600D01*
X4415195Y13951250D01*
X4412495Y13949600D01*
X4410395Y13947650D01*
X4408895Y13945399D01*
X4407995Y13942850D01*
X4407695Y13939999D01*
Y14000000D01*
X4407995Y13997150D01*
D02*
G37*
G36*
X5405337Y13862195D02*
X5402708Y13859697D01*
X5400355Y13857198D01*
X5398280Y13854697D01*
X5396481Y13852193D01*
X5394959Y13849687D01*
X5393714Y13847180D01*
X5392745Y13844670D01*
X5392053Y13842159D01*
X5391638Y13839645D01*
X5391500Y13837131D01*
X5376500Y13837772D01*
X5376369Y13840227D01*
X5375975Y13842717D01*
X5375318Y13845244D01*
X5374400Y13847806D01*
X5373218Y13850404D01*
X5371774Y13853038D01*
X5370068Y13855708D01*
X5368099Y13858414D01*
X5365867Y13861156D01*
X5363373Y13863934D01*
X5405337Y13862195D01*
D02*
G37*
G36*
X5593735Y13857037D02*
X5589415Y13851813D01*
X5587660Y13849225D01*
X5586175Y13846654D01*
X5584960Y13844099D01*
X5584015Y13841563D01*
X5583340Y13839043D01*
X5582935Y13836539D01*
X5582800Y13834053D01*
X5567800D01*
X5567665Y13836539D01*
X5567260Y13839043D01*
X5566585Y13841563D01*
X5565640Y13844099D01*
X5564425Y13846654D01*
X5562940Y13849225D01*
X5561185Y13851813D01*
X5559160Y13854416D01*
X5556865Y13857037D01*
X5554300Y13859676D01*
X5596300D01*
X5593735Y13857037D01*
D02*
G37*
G36*
X5200035Y13844337D02*
X5195715Y13839111D01*
X5193960Y13836525D01*
X5192475Y13833954D01*
X5191260Y13831400D01*
X5190315Y13828864D01*
X5189640Y13826343D01*
X5189235Y13823839D01*
X5189100Y13821353D01*
X5174100D01*
X5173965Y13823839D01*
X5173560Y13826343D01*
X5172885Y13828864D01*
X5171940Y13831400D01*
X5170725Y13833954D01*
X5169240Y13836525D01*
X5167485Y13839111D01*
X5165460Y13841716D01*
X5163165Y13844337D01*
X5160600Y13846976D01*
X5202600D01*
X5200035Y13844337D01*
D02*
G37*
G36*
X5582875Y13814345D02*
X5583100Y13811795D01*
X5583475Y13809544D01*
X5584000Y13807594D01*
X5584675Y13805945D01*
X5585500Y13804594D01*
X5586475Y13803545D01*
X5587600Y13802795D01*
X5588875Y13802345D01*
X5590300Y13802196D01*
X5560300D01*
X5561725Y13802345D01*
X5563000Y13802795D01*
X5564125Y13803545D01*
X5565100Y13804594D01*
X5565925Y13805945D01*
X5566600Y13807594D01*
X5567125Y13809544D01*
X5567500Y13811795D01*
X5567725Y13814345D01*
X5567800Y13817195D01*
X5582800D01*
X5582875Y13814345D01*
D02*
G37*
G36*
X5391575D02*
X5391800Y13811795D01*
X5392175Y13809544D01*
X5392700Y13807594D01*
X5393375Y13805945D01*
X5394200Y13804594D01*
X5395175Y13803545D01*
X5396300Y13802795D01*
X5397575Y13802345D01*
X5399000Y13802196D01*
X5369000D01*
X5370425Y13802345D01*
X5371700Y13802795D01*
X5372825Y13803545D01*
X5373800Y13804594D01*
X5374625Y13805945D01*
X5375300Y13807594D01*
X5375825Y13809544D01*
X5376200Y13811795D01*
X5376425Y13814345D01*
X5376500Y13817195D01*
X5391500D01*
X5391575Y13814345D01*
D02*
G37*
G36*
X5189175D02*
X5189400Y13811795D01*
X5189775Y13809544D01*
X5190300Y13807594D01*
X5190975Y13805945D01*
X5191800Y13804594D01*
X5192775Y13803545D01*
X5193900Y13802795D01*
X5195175Y13802345D01*
X5196600Y13802196D01*
X5166600D01*
X5168025Y13802345D01*
X5169300Y13802795D01*
X5170425Y13803545D01*
X5171400Y13804594D01*
X5172225Y13805945D01*
X5172900Y13807594D01*
X5173425Y13809544D01*
X5173800Y13811795D01*
X5174025Y13814345D01*
X5174100Y13817195D01*
X5189100D01*
X5189175Y13814345D01*
D02*
G37*
G36*
X5513801Y13666898D02*
X5514119Y13664775D01*
X5514650Y13662654D01*
X5515392Y13660533D01*
X5516347Y13658411D01*
X5517513Y13656290D01*
X5518892Y13654169D01*
X5520483Y13652048D01*
X5522286Y13649927D01*
X5524302Y13647804D01*
X5513695Y13637198D01*
X5511574Y13639214D01*
X5509453Y13641017D01*
X5507331Y13642607D01*
X5505210Y13643987D01*
X5503089Y13645152D01*
X5500967Y13646107D01*
X5498846Y13646851D01*
X5496725Y13647382D01*
X5494603Y13647699D01*
X5492482Y13647804D01*
X5513695Y13669019D01*
X5513801Y13666898D01*
D02*
G37*
G36*
X5313801D02*
X5314119Y13664775D01*
X5314650Y13662654D01*
X5315392Y13660533D01*
X5316347Y13658411D01*
X5317514Y13656290D01*
X5318893Y13654169D01*
X5320483Y13652048D01*
X5322287Y13649927D01*
X5324302Y13647804D01*
X5313695Y13637198D01*
X5311574Y13639214D01*
X5309453Y13641017D01*
X5307331Y13642607D01*
X5305210Y13643987D01*
X5303089Y13645152D01*
X5300967Y13646107D01*
X5298846Y13646851D01*
X5296725Y13647382D01*
X5294603Y13647699D01*
X5292482Y13647804D01*
X5313695Y13669019D01*
X5313801Y13666898D01*
D02*
G37*
G36*
X5113801D02*
X5114119Y13664775D01*
X5114650Y13662654D01*
X5115392Y13660533D01*
X5116347Y13658411D01*
X5117514Y13656290D01*
X5118892Y13654169D01*
X5120483Y13652048D01*
X5122286Y13649927D01*
X5124302Y13647804D01*
X5113695Y13637198D01*
X5111574Y13639214D01*
X5109453Y13641017D01*
X5107331Y13642607D01*
X5105210Y13643987D01*
X5103089Y13645152D01*
X5100967Y13646107D01*
X5098846Y13646851D01*
X5096725Y13647382D01*
X5094603Y13647699D01*
X5092482Y13647804D01*
X5113695Y13669019D01*
X5113801Y13666898D01*
D02*
G37*
G36*
X5935585Y13407068D02*
X5934310Y13406618D01*
X5933185Y13405869D01*
X5932210Y13404819D01*
X5931385Y13403468D01*
X5930710Y13401817D01*
X5930185Y13399867D01*
X5929810Y13397618D01*
X5929585Y13395068D01*
X5929510Y13392218D01*
X5914510D01*
X5914435Y13395068D01*
X5914210Y13397618D01*
X5913835Y13399867D01*
X5913310Y13401817D01*
X5912635Y13403468D01*
X5911810Y13404819D01*
X5910835Y13405869D01*
X5909710Y13406618D01*
X5908435Y13407068D01*
X5907010Y13407217D01*
X5937010D01*
X5935585Y13407068D01*
D02*
G37*
G36*
X5775565D02*
X5774290Y13406618D01*
X5773165Y13405869D01*
X5772190Y13404819D01*
X5771365Y13403468D01*
X5770690Y13401817D01*
X5770165Y13399867D01*
X5769790Y13397618D01*
X5769565Y13395068D01*
X5769490Y13392218D01*
X5754490D01*
X5754415Y13395068D01*
X5754190Y13397618D01*
X5753815Y13399867D01*
X5753290Y13401817D01*
X5752615Y13403468D01*
X5751790Y13404819D01*
X5750815Y13405869D01*
X5749690Y13406618D01*
X5748415Y13407068D01*
X5746990Y13407217D01*
X5776990D01*
X5775565Y13407068D01*
D02*
G37*
G36*
X5198357Y13376207D02*
X5198207Y13377632D01*
X5197757Y13378906D01*
X5197007Y13380032D01*
X5195957Y13381007D01*
X5194607Y13381833D01*
X5192957Y13382507D01*
X5191007Y13383032D01*
X5188757Y13383408D01*
X5186207Y13383632D01*
X5183357Y13383708D01*
Y13398708D01*
X5186207Y13398782D01*
X5188757Y13399007D01*
X5191007Y13399382D01*
X5192957Y13399907D01*
X5194607Y13400581D01*
X5195957Y13401407D01*
X5197007Y13402382D01*
X5197757Y13403506D01*
X5198207Y13404782D01*
X5198357Y13406207D01*
Y13376207D01*
D02*
G37*
G36*
X5082045Y13404782D02*
X5082495Y13403506D01*
X5083245Y13402382D01*
X5084295Y13401407D01*
X5085645Y13400581D01*
X5087295Y13399907D01*
X5089245Y13399382D01*
X5091495Y13399007D01*
X5094045Y13398782D01*
X5096895Y13398708D01*
Y13383708D01*
X5094045Y13383632D01*
X5091495Y13383408D01*
X5089245Y13383032D01*
X5087295Y13382507D01*
X5085645Y13381833D01*
X5084295Y13381007D01*
X5083245Y13380032D01*
X5082495Y13378906D01*
X5082045Y13377632D01*
X5081895Y13376207D01*
Y13406207D01*
X5082045Y13404782D01*
D02*
G37*
G36*
X5082001Y13346704D02*
X5082319Y13344583D01*
X5082850Y13342462D01*
X5083592Y13340340D01*
X5084547Y13338219D01*
X5085713Y13336098D01*
X5087092Y13333977D01*
X5088683Y13331854D01*
X5090486Y13329733D01*
X5092502Y13327612D01*
X5081895Y13317006D01*
X5079774Y13319022D01*
X5077653Y13320824D01*
X5075531Y13322415D01*
X5073410Y13323795D01*
X5071289Y13324960D01*
X5069167Y13325916D01*
X5067046Y13326659D01*
X5064925Y13327188D01*
X5062803Y13327505D01*
X5060682Y13327612D01*
X5081895Y13348825D01*
X5082001Y13346704D01*
D02*
G37*
G36*
X4862001D02*
X4862319Y13344583D01*
X4862850Y13342462D01*
X4863592Y13340340D01*
X4864547Y13338219D01*
X4865713Y13336098D01*
X4867092Y13333977D01*
X4868683Y13331854D01*
X4870486Y13329733D01*
X4872502Y13327612D01*
X4861895Y13317006D01*
X4859774Y13319022D01*
X4857652Y13320824D01*
X4855531Y13322415D01*
X4853410Y13323795D01*
X4851288Y13324960D01*
X4849167Y13325916D01*
X4847046Y13326659D01*
X4844925Y13327188D01*
X4842803Y13327505D01*
X4840682Y13327612D01*
X4861895Y13348825D01*
X4862001Y13346704D01*
D02*
G37*
G36*
X5548236Y13270435D02*
Y13204521D01*
X5549594Y13197693D01*
X5553462Y13191905D01*
X5595557Y13149809D01*
Y13043639D01*
X5585557Y13040605D01*
X5582529Y13045135D01*
X5568339Y13054617D01*
X5551600Y13057948D01*
X5516943D01*
Y13093700D01*
X5515585Y13100528D01*
X5511717Y13106317D01*
X5510792Y13107242D01*
X5515704Y13119099D01*
X5492069D01*
X5492279Y13117999D01*
X5493047Y13115134D01*
X5493994Y13112468D01*
X5495120Y13110005D01*
X5496424Y13107745D01*
X5497908Y13105690D01*
X5499571Y13103836D01*
X5488964Y13093230D01*
X5487110Y13094891D01*
X5485054Y13096376D01*
X5482795Y13097681D01*
X5480332Y13098807D01*
X5477667Y13099753D01*
X5474800Y13100520D01*
X5473700Y13100731D01*
Y13076276D01*
X5481257Y13071227D01*
Y13057948D01*
X5446600D01*
X5429861Y13054617D01*
X5415671Y13045135D01*
X5406189Y13030946D01*
X5402860Y13014207D01*
Y12959407D01*
X5499100D01*
Y12934007D01*
X5402860D01*
Y12879208D01*
X5406189Y12862469D01*
X5415671Y12848277D01*
X5429861Y12838797D01*
X5446600Y12835468D01*
X5486102D01*
Y12785269D01*
X5472563Y12779661D01*
X5456978Y12764076D01*
X5449240Y12745395D01*
X5558648D01*
X5550910Y12764076D01*
X5535326Y12779661D01*
X5521787Y12785269D01*
Y12835468D01*
X5551600D01*
X5568339Y12838797D01*
X5582529Y12848277D01*
X5592011Y12862469D01*
X5595340Y12879208D01*
Y12907285D01*
X5605340Y12911426D01*
X5689683Y12827083D01*
X5695472Y12823215D01*
X5702300Y12821857D01*
X5821910D01*
X5938457Y12705310D01*
Y12605791D01*
X5854783Y12522117D01*
X5850915Y12516328D01*
X5849557Y12509500D01*
Y12454414D01*
X5773517Y12378373D01*
X5763822Y12378801D01*
X5763395Y12388495D01*
X5791117Y12416217D01*
X5794985Y12422006D01*
X5796343Y12428834D01*
Y12435495D01*
X5796808Y12436466D01*
X5796912Y12438379D01*
X5797137Y12439771D01*
X5797538Y12441268D01*
X5798137Y12442876D01*
X5798964Y12444614D01*
X5800037Y12446472D01*
X5801284Y12448311D01*
X5805000Y12452805D01*
X5807261Y12455131D01*
X5808028Y12457060D01*
X5812410Y12461442D01*
X5818500Y12476143D01*
Y12492057D01*
X5812410Y12506758D01*
X5801158Y12518010D01*
X5786457Y12524100D01*
X5771720D01*
X5769314Y12527148D01*
X5766817Y12533339D01*
X5813692Y12580214D01*
X5813953Y12580252D01*
X5814588Y12581108D01*
X5815593Y12581459D01*
X5817074Y12582780D01*
X5818119Y12583512D01*
X5819217Y12584096D01*
X5820416Y12584558D01*
X5821775Y12584906D01*
X5823331Y12585125D01*
X5825127Y12585193D01*
X5827173Y12585079D01*
X5829478Y12584758D01*
X5832382Y12584130D01*
X5832984Y12584239D01*
X5834043Y12583800D01*
X5849957D01*
X5864658Y12589890D01*
X5875910Y12601142D01*
X5882000Y12615843D01*
Y12631757D01*
X5875910Y12646458D01*
X5864658Y12657710D01*
X5849957Y12663800D01*
X5834043D01*
X5819342Y12657710D01*
X5808090Y12646458D01*
X5803043Y12634273D01*
X5802299Y12633294D01*
X5800397Y12626043D01*
X5799502Y12623232D01*
X5797426Y12617878D01*
X5796474Y12615881D01*
X5795479Y12614075D01*
X5794517Y12612579D01*
X5793609Y12611381D01*
X5792419Y12610070D01*
X5792049Y12609038D01*
X5669436Y12486425D01*
X5667709Y12486167D01*
X5663141Y12489860D01*
X5662614Y12499847D01*
X5746851Y12584084D01*
X5750719Y12589872D01*
X5752077Y12596700D01*
Y12635644D01*
X5807548Y12691114D01*
X5808563Y12691472D01*
X5809989Y12692751D01*
X5811135Y12693577D01*
X5812472Y12694349D01*
X5814038Y12695066D01*
X5815850Y12695709D01*
X5817921Y12696263D01*
X5820107Y12696683D01*
X5825910Y12697233D01*
X5829152Y12697279D01*
X5831059Y12698100D01*
X5837257D01*
X5851958Y12704190D01*
X5863210Y12715442D01*
X5869300Y12730143D01*
Y12746057D01*
X5863210Y12760758D01*
X5851958Y12772010D01*
X5837257Y12778100D01*
X5821343D01*
X5806642Y12772010D01*
X5795390Y12760758D01*
X5789300Y12746057D01*
Y12739859D01*
X5788479Y12737952D01*
X5788431Y12734557D01*
X5788240Y12731674D01*
X5787913Y12729066D01*
X5787463Y12726720D01*
X5786909Y12724648D01*
X5786265Y12722838D01*
X5785549Y12721271D01*
X5784777Y12719934D01*
X5783950Y12718788D01*
X5782672Y12717363D01*
X5782314Y12716348D01*
X5721617Y12655651D01*
X5717750Y12649862D01*
X5716391Y12643034D01*
Y12604091D01*
X5631516Y12519216D01*
X5630418Y12518793D01*
X5628585Y12517050D01*
X5627179Y12515864D01*
X5626681Y12515503D01*
X5583823Y12558361D01*
X5585372Y12560192D01*
X5587106Y12561988D01*
X5587546Y12563106D01*
X5602357Y12577917D01*
X5603306Y12578229D01*
X5603359Y12578333D01*
X5603468Y12578371D01*
X5604915Y12579666D01*
X5606030Y12580461D01*
X5607301Y12581174D01*
X5608766Y12581808D01*
X5610452Y12582352D01*
X5612382Y12582789D01*
X5614571Y12583101D01*
X5617030Y12583270D01*
X5619749Y12583279D01*
X5623009Y12583096D01*
X5625019Y12583800D01*
X5634057D01*
X5648758Y12589890D01*
X5660010Y12601142D01*
X5666100Y12615843D01*
Y12631757D01*
X5660010Y12646458D01*
X5648758Y12657710D01*
X5634057Y12663800D01*
X5618143D01*
X5603442Y12657710D01*
X5592190Y12646458D01*
X5586100Y12631757D01*
Y12628127D01*
X5585397Y12626836D01*
X5584660Y12619931D01*
X5584180Y12617302D01*
X5583581Y12614830D01*
X5582898Y12612630D01*
X5582148Y12610709D01*
X5581349Y12609056D01*
X5580513Y12607653D01*
X5579659Y12606485D01*
X5578399Y12605085D01*
X5578038Y12604065D01*
X5568968Y12594995D01*
X5555314Y12608649D01*
X5556596Y12615097D01*
Y12647647D01*
X5555238Y12654475D01*
X5551370Y12660264D01*
X5535735Y12675898D01*
X5536383Y12686786D01*
X5550910Y12701313D01*
X5558648Y12719995D01*
X5449240D01*
X5456978Y12701313D01*
X5472563Y12685729D01*
X5486608Y12679911D01*
X5487460Y12675628D01*
X5491328Y12669839D01*
X5514717Y12646450D01*
X5505226Y12636958D01*
X5480760Y12661424D01*
X5439455Y12620119D01*
X5427324Y12621654D01*
X5386756Y12662222D01*
X5386897Y12663167D01*
X5387321Y12665159D01*
X5387861Y12667080D01*
X5388516Y12668936D01*
X5389290Y12670739D01*
X5390185Y12672498D01*
X5391206Y12674215D01*
X5392551Y12676182D01*
X5392657Y12676689D01*
X5393042Y12677074D01*
X5393145Y12677158D01*
X5393147Y12677179D01*
X5393310Y12677342D01*
X5399400Y12692043D01*
Y12707957D01*
X5393310Y12722658D01*
X5388928Y12727040D01*
X5388161Y12728969D01*
X5385791Y12731407D01*
X5383892Y12733575D01*
X5382275Y12735656D01*
X5380937Y12737627D01*
X5379864Y12739486D01*
X5379038Y12741223D01*
X5378438Y12742832D01*
X5378037Y12744329D01*
X5377812Y12745722D01*
X5377708Y12747634D01*
X5377243Y12748605D01*
Y12857806D01*
X5375885Y12864636D01*
X5372017Y12870424D01*
X5354443Y12887997D01*
X5351039Y12890273D01*
Y13014207D01*
X5348904Y13024937D01*
X5342826Y13034035D01*
X5333730Y13040112D01*
X5323000Y13042245D01*
X5218000D01*
X5207270Y13040112D01*
X5198174Y13034035D01*
X5192096Y13024937D01*
X5189961Y13014207D01*
Y12879208D01*
X5192096Y12868478D01*
X5198174Y12859381D01*
X5207270Y12853304D01*
X5218000Y12851169D01*
X5251909D01*
X5251954Y12850899D01*
X5252114Y12849094D01*
X5252180Y12846581D01*
X5252657Y12845506D01*
Y12633635D01*
X5240676Y12621654D01*
X5228545Y12620119D01*
X5187240Y12661424D01*
X5175608Y12649792D01*
X5166369Y12653619D01*
Y12684936D01*
X5197997Y12716564D01*
X5201865Y12722352D01*
X5202719Y12726646D01*
X5215581Y12731973D01*
X5226833Y12743225D01*
X5232923Y12757927D01*
Y12773840D01*
X5226833Y12788542D01*
X5215581Y12799794D01*
X5200879Y12805882D01*
X5184966D01*
X5170265Y12799794D01*
X5159013Y12788542D01*
X5152923Y12773840D01*
Y12757927D01*
X5159013Y12743225D01*
X5166602Y12735636D01*
X5142700Y12711733D01*
X5132700Y12715876D01*
Y12720657D01*
X5126610Y12735358D01*
X5115358Y12746610D01*
X5100657Y12752700D01*
X5084743D01*
X5070042Y12746610D01*
X5058790Y12735358D01*
X5052700Y12720657D01*
Y12704743D01*
X5058790Y12690042D01*
X5070042Y12678790D01*
X5084743Y12672700D01*
X5095329D01*
Y12641082D01*
X5085329Y12636940D01*
X5077258Y12645010D01*
X5062557Y12651100D01*
X5046643D01*
X5031942Y12645010D01*
X5020690Y12633758D01*
X5018943Y12629541D01*
X5008943Y12631530D01*
Y12705309D01*
X5143417Y12839783D01*
X5147285Y12845572D01*
X5148643Y12852400D01*
Y13278708D01*
X5147285Y13285536D01*
X5143417Y13291324D01*
X5100771Y13333971D01*
X5100349Y13335068D01*
X5098538Y13336974D01*
X5097145Y13338612D01*
X5095970Y13340179D01*
X5095005Y13341664D01*
X5094241Y13343054D01*
X5093653Y13344360D01*
X5093230Y13345567D01*
X5092946Y13346704D01*
X5092785Y13347778D01*
X5092706Y13349367D01*
X5092200Y13350433D01*
Y13372552D01*
X5092861Y13372662D01*
X5094665Y13372821D01*
X5097181Y13372887D01*
X5098252Y13373364D01*
X5182000D01*
X5183071Y13372887D01*
X5185587Y13372821D01*
X5187391Y13372662D01*
X5187661Y13372617D01*
Y13338708D01*
X5189796Y13327979D01*
X5195874Y13318881D01*
X5204970Y13312804D01*
X5215700Y13310669D01*
X5350700D01*
X5361430Y13312804D01*
X5370526Y13318881D01*
X5376604Y13327979D01*
X5378739Y13338708D01*
Y13426868D01*
X5387978Y13430695D01*
X5548236Y13270435D01*
D02*
G37*
G36*
X5929510Y13338811D02*
X5914510Y13305704D01*
X5914404Y13308447D01*
X5914086Y13310680D01*
X5913555Y13312399D01*
X5912813Y13313606D01*
X5911858Y13314302D01*
X5910692Y13314485D01*
X5909313Y13314156D01*
X5907722Y13313315D01*
X5905919Y13311961D01*
X5903903Y13310097D01*
Y13331310D01*
X5905919Y13333475D01*
X5907722Y13335728D01*
X5909313Y13338069D01*
X5910692Y13340498D01*
X5911858Y13343015D01*
X5912813Y13345619D01*
X5913555Y13348312D01*
X5914086Y13351093D01*
X5914404Y13353961D01*
X5914510Y13356917D01*
X5929510Y13338811D01*
D02*
G37*
G36*
X4942505Y13277002D02*
Y13254807D01*
X4942355Y13256232D01*
X4941905Y13257507D01*
X4941155Y13258632D01*
X4940105Y13259607D01*
X4938755Y13260432D01*
X4937105Y13261107D01*
X4935155Y13261632D01*
X4932905Y13262007D01*
X4930355Y13262231D01*
X4927505Y13262308D01*
Y13277307D01*
X4942505Y13277002D01*
D02*
G37*
G36*
X5929585Y13158746D02*
X5929810Y13156197D01*
X5930185Y13153947D01*
X5930710Y13151997D01*
X5931385Y13150346D01*
X5932210Y13148997D01*
X5933185Y13147948D01*
X5934310Y13147195D01*
X5935585Y13146747D01*
X5937010Y13146597D01*
X5907010D01*
X5908435Y13146747D01*
X5909710Y13147195D01*
X5910835Y13147948D01*
X5911810Y13148997D01*
X5912635Y13150346D01*
X5913310Y13151997D01*
X5913835Y13153947D01*
X5914210Y13156197D01*
X5914435Y13158746D01*
X5914510Y13161597D01*
X5929510D01*
X5929585Y13158746D01*
D02*
G37*
G36*
X5769565D02*
X5769790Y13156197D01*
X5770165Y13153947D01*
X5770690Y13151997D01*
X5771365Y13150346D01*
X5772190Y13148997D01*
X5773165Y13147948D01*
X5774290Y13147195D01*
X5775565Y13146747D01*
X5776990Y13146597D01*
X5746990D01*
X5748415Y13146747D01*
X5749690Y13147195D01*
X5750815Y13147948D01*
X5751790Y13148997D01*
X5752615Y13150346D01*
X5753290Y13151997D01*
X5753815Y13153947D01*
X5754190Y13156197D01*
X5754415Y13158746D01*
X5754490Y13161597D01*
X5769490D01*
X5769565Y13158746D01*
D02*
G37*
G36*
X5030075Y13157462D02*
X5028800Y13157011D01*
X5027675Y13156262D01*
X5026700Y13155212D01*
X5025875Y13153862D01*
X5025200Y13152213D01*
X5024675Y13150262D01*
X5024300Y13148012D01*
X5024075Y13145462D01*
X5024000Y13142612D01*
X5009000D01*
X5008925Y13145462D01*
X5008700Y13148012D01*
X5008325Y13150262D01*
X5007800Y13152213D01*
X5007125Y13153862D01*
X5006300Y13155212D01*
X5005325Y13156262D01*
X5004200Y13157011D01*
X5002925Y13157462D01*
X5001500Y13157613D01*
X5031500D01*
X5030075Y13157462D01*
D02*
G37*
G36*
X4801475D02*
X4800200Y13157011D01*
X4799075Y13156262D01*
X4798100Y13155212D01*
X4797275Y13153862D01*
X4796600Y13152213D01*
X4796075Y13150262D01*
X4795700Y13148012D01*
X4795475Y13145462D01*
X4795400Y13142612D01*
X4780400D01*
X4780325Y13145462D01*
X4780100Y13148012D01*
X4779725Y13150262D01*
X4779200Y13152213D01*
X4778525Y13153862D01*
X4777700Y13155212D01*
X4776725Y13156262D01*
X4775600Y13157011D01*
X4774325Y13157462D01*
X4772900Y13157613D01*
X4802900D01*
X4801475Y13157462D01*
D02*
G37*
G36*
X5506675Y13043701D02*
X5506900Y13041151D01*
X5507275Y13038901D01*
X5507800Y13036951D01*
X5508475Y13035301D01*
X5509300Y13033951D01*
X5510275Y13032901D01*
X5511400Y13032150D01*
X5512675Y13031702D01*
X5514100Y13031551D01*
X5484100D01*
X5485525Y13031702D01*
X5486800Y13032150D01*
X5487925Y13032901D01*
X5488900Y13033951D01*
X5489725Y13035301D01*
X5490400Y13036951D01*
X5490925Y13038901D01*
X5491300Y13041151D01*
X5491525Y13043701D01*
X5491600Y13046552D01*
X5506600D01*
X5506675Y13043701D01*
D02*
G37*
G36*
X5024075D02*
X5024300Y13041151D01*
X5024675Y13038901D01*
X5025200Y13036951D01*
X5025875Y13035301D01*
X5026700Y13033951D01*
X5027675Y13032901D01*
X5028800Y13032150D01*
X5030075Y13031702D01*
X5031500Y13031551D01*
X5001500D01*
X5002925Y13031702D01*
X5004200Y13032150D01*
X5005325Y13032901D01*
X5006300Y13033951D01*
X5007125Y13035301D01*
X5007800Y13036951D01*
X5008325Y13038901D01*
X5008700Y13041151D01*
X5008925Y13043701D01*
X5009000Y13046552D01*
X5024000D01*
X5024075Y13043701D01*
D02*
G37*
G36*
X4795475D02*
X4795700Y13041151D01*
X4796075Y13038901D01*
X4796600Y13036951D01*
X4797275Y13035301D01*
X4798100Y13033951D01*
X4799075Y13032901D01*
X4800200Y13032150D01*
X4801475Y13031702D01*
X4802900Y13031551D01*
X4772900D01*
X4774325Y13031702D01*
X4775600Y13032150D01*
X4776725Y13032901D01*
X4777700Y13033951D01*
X4778525Y13035301D01*
X4779200Y13036951D01*
X4779725Y13038901D01*
X4780100Y13041151D01*
X4780325Y13043701D01*
X4780400Y13046552D01*
X4795400D01*
X4795475Y13043701D01*
D02*
G37*
G36*
X5806791Y13047232D02*
X5807109Y13045110D01*
X5807640Y13042989D01*
X5808382Y13040868D01*
X5809337Y13038747D01*
X5810503Y13036626D01*
X5811882Y13034505D01*
X5813473Y13032382D01*
X5815276Y13030261D01*
X5817292Y13028140D01*
X5812620Y13011600D01*
X5810498Y13013614D01*
X5808377Y13015417D01*
X5806256Y13017007D01*
X5804134Y13018387D01*
X5802013Y13019553D01*
X5799892Y13020508D01*
X5797771Y13021251D01*
X5795649Y13021780D01*
X5793528Y13022099D01*
X5791407Y13022205D01*
X5806685Y13049353D01*
X5806791Y13047232D01*
D02*
G37*
G36*
X5832666Y12993034D02*
X5834647Y12991563D01*
X5836859Y12990202D01*
X5839302Y12988948D01*
X5841976Y12987804D01*
X5844880Y12986769D01*
X5848015Y12985841D01*
X5854978Y12984317D01*
X5858805Y12983717D01*
X5825070Y12958698D01*
X5825513Y12962161D01*
X5825715Y12965453D01*
X5825677Y12968571D01*
X5825398Y12971523D01*
X5824879Y12974303D01*
X5824120Y12976910D01*
X5823121Y12979349D01*
X5821882Y12981615D01*
X5820402Y12983711D01*
X5818682Y12985637D01*
X5830916Y12994617D01*
X5832666Y12993034D01*
D02*
G37*
G36*
X5517519Y12861714D02*
X5516244Y12861264D01*
X5515119Y12860513D01*
X5514144Y12859464D01*
X5513319Y12858115D01*
X5512644Y12856464D01*
X5512119Y12854514D01*
X5511744Y12852264D01*
X5511519Y12849715D01*
X5511444Y12846864D01*
X5496444D01*
X5496369Y12849715D01*
X5496144Y12852264D01*
X5495769Y12854514D01*
X5495244Y12856464D01*
X5494569Y12858115D01*
X5493744Y12859464D01*
X5492769Y12860513D01*
X5491644Y12861264D01*
X5490369Y12861714D01*
X5488944Y12861864D01*
X5518944D01*
X5517519Y12861714D01*
D02*
G37*
G36*
X5284075D02*
X5282800Y12861264D01*
X5281675Y12860513D01*
X5280700Y12859464D01*
X5279875Y12858115D01*
X5279200Y12856464D01*
X5278675Y12854514D01*
X5278300Y12852264D01*
X5278075Y12849715D01*
X5278000Y12846864D01*
X5263000D01*
X5262925Y12849715D01*
X5262700Y12852264D01*
X5262325Y12854514D01*
X5261800Y12856464D01*
X5261125Y12858115D01*
X5260300Y12859464D01*
X5259325Y12860513D01*
X5258200Y12861264D01*
X5256925Y12861714D01*
X5255500Y12861864D01*
X5285500D01*
X5284075Y12861714D01*
D02*
G37*
G36*
X5030075D02*
X5028800Y12861264D01*
X5027675Y12860513D01*
X5026700Y12859464D01*
X5025875Y12858115D01*
X5025200Y12856464D01*
X5024675Y12854514D01*
X5024300Y12852264D01*
X5024075Y12849715D01*
X5024000Y12846864D01*
X5009000D01*
X5008925Y12849715D01*
X5008700Y12852264D01*
X5008325Y12854514D01*
X5007800Y12856464D01*
X5007125Y12858115D01*
X5006300Y12859464D01*
X5005325Y12860513D01*
X5004200Y12861264D01*
X5002925Y12861714D01*
X5001500Y12861864D01*
X5031500D01*
X5030075Y12861714D01*
D02*
G37*
G36*
X4801475D02*
X4800200Y12861264D01*
X4799075Y12860513D01*
X4798100Y12859464D01*
X4797275Y12858115D01*
X4796600Y12856464D01*
X4796075Y12854514D01*
X4795700Y12852264D01*
X4795475Y12849715D01*
X4795400Y12846864D01*
X4780400D01*
X4780325Y12849715D01*
X4780100Y12852264D01*
X4779725Y12854514D01*
X4779200Y12856464D01*
X4778525Y12858115D01*
X4777700Y12859464D01*
X4776725Y12860513D01*
X4775600Y12861264D01*
X4774325Y12861714D01*
X4772900Y12861864D01*
X4802900D01*
X4801475Y12861714D01*
D02*
G37*
G36*
X4913562Y12794635D02*
X4918788Y12790315D01*
X4921375Y12788560D01*
X4923946Y12787075D01*
X4926500Y12785860D01*
X4929037Y12784915D01*
X4931557Y12784240D01*
X4934061Y12783835D01*
X4936547Y12783700D01*
Y12768700D01*
X4934061Y12768565D01*
X4931557Y12768160D01*
X4929037Y12767485D01*
X4926500Y12766540D01*
X4923946Y12765325D01*
X4921375Y12763840D01*
X4918788Y12762085D01*
X4916184Y12760060D01*
X4913562Y12757765D01*
X4910924Y12755200D01*
Y12797200D01*
X4913562Y12794635D01*
D02*
G37*
G36*
X5511579Y12777256D02*
X5511984Y12774752D01*
X5512659Y12772232D01*
X5513604Y12769695D01*
X5514819Y12767141D01*
X5516304Y12764570D01*
X5518059Y12761983D01*
X5520084Y12759379D01*
X5522379Y12756757D01*
X5524944Y12754119D01*
X5482944D01*
X5485509Y12756757D01*
X5489829Y12761983D01*
X5491584Y12764570D01*
X5493069Y12767141D01*
X5494284Y12769695D01*
X5495229Y12772232D01*
X5495904Y12774752D01*
X5496309Y12777256D01*
X5496444Y12779742D01*
X5511444D01*
X5511579Y12777256D01*
D02*
G37*
G36*
X5194381Y12735919D02*
X5194096Y12735839D01*
X5193841Y12735626D01*
X5193615Y12735282D01*
X5193420Y12734806D01*
X5193255Y12734198D01*
X5193120Y12733458D01*
X5193015Y12732586D01*
X5192895Y12730447D01*
X5192880Y12729180D01*
X5177880D01*
X5177872Y12731224D01*
X5177359Y12739805D01*
X5177221Y12740213D01*
X5177066Y12740417D01*
X5194381Y12735919D01*
D02*
G37*
G36*
X5367035Y12744561D02*
X5367440Y12742057D01*
X5368115Y12739537D01*
X5369060Y12737000D01*
X5370275Y12734446D01*
X5371760Y12731875D01*
X5373515Y12729288D01*
X5375540Y12726684D01*
X5377835Y12724062D01*
X5380400Y12721424D01*
X5338400D01*
X5340965Y12724062D01*
X5345285Y12729288D01*
X5347040Y12731875D01*
X5348525Y12734446D01*
X5349740Y12737000D01*
X5350685Y12739537D01*
X5351360Y12742057D01*
X5351765Y12744561D01*
X5351900Y12747047D01*
X5366900D01*
X5367035Y12744561D01*
D02*
G37*
G36*
X5829000Y12708102D02*
X5825321Y12708050D01*
X5818571Y12707409D01*
X5815500Y12706821D01*
X5812633Y12706053D01*
X5809968Y12705106D01*
X5807505Y12703980D01*
X5805246Y12702676D01*
X5803190Y12701192D01*
X5801336Y12699529D01*
X5790729Y12710136D01*
X5792392Y12711990D01*
X5793876Y12714046D01*
X5795180Y12716305D01*
X5796306Y12718768D01*
X5797253Y12721433D01*
X5798021Y12724300D01*
X5798609Y12727371D01*
X5799019Y12730645D01*
X5799250Y12734121D01*
X5799302Y12737800D01*
X5829000Y12708102D01*
D02*
G37*
G36*
X5522379Y12708632D02*
X5518059Y12703407D01*
X5516304Y12700819D01*
X5514819Y12698249D01*
X5513604Y12695695D01*
X5512659Y12693158D01*
X5511984Y12690638D01*
X5511579Y12688134D01*
X5511444Y12685647D01*
X5496444D01*
X5496309Y12688134D01*
X5495904Y12690638D01*
X5495229Y12693158D01*
X5494284Y12695695D01*
X5493069Y12698249D01*
X5491584Y12700819D01*
X5489829Y12703407D01*
X5487804Y12706011D01*
X5485509Y12708632D01*
X5482944Y12711271D01*
X5524944D01*
X5522379Y12708632D01*
D02*
G37*
G36*
X5114648Y12692150D02*
X5114626Y12691835D01*
X5114715Y12691448D01*
X5114917Y12690989D01*
X5115230Y12690457D01*
X5115655Y12689853D01*
X5116192Y12689178D01*
X5117602Y12687609D01*
X5118475Y12686717D01*
X5107868Y12676110D01*
X5106424Y12677544D01*
X5099714Y12683437D01*
X5099481Y12683477D01*
X5114782Y12692393D01*
X5114648Y12692150D01*
D02*
G37*
G36*
X5382077Y12680041D02*
X5380698Y12677721D01*
X5379483Y12675332D01*
X5378428Y12672875D01*
X5377537Y12670349D01*
X5376807Y12667755D01*
X5376240Y12665092D01*
X5375834Y12662361D01*
X5375591Y12659561D01*
X5375510Y12656693D01*
X5360510Y12655734D01*
X5360394Y12658025D01*
X5360046Y12660166D01*
X5359466Y12662157D01*
X5358654Y12663998D01*
X5357610Y12665689D01*
X5356334Y12667230D01*
X5354826Y12668621D01*
X5353086Y12669862D01*
X5351113Y12670953D01*
X5348909Y12671894D01*
X5383617Y12682293D01*
X5382077Y12680041D01*
D02*
G37*
G36*
X4392859Y12752455D02*
X4421091Y12727480D01*
X4429327Y12721375D01*
X4436974Y12716380D01*
X4444034Y12712495D01*
X4450506Y12709720D01*
X4456390Y12708055D01*
X4461687Y12707500D01*
Y12692500D01*
X4456390Y12691945D01*
X4450506Y12690280D01*
X4444034Y12687505D01*
X4436974Y12683620D01*
X4429327Y12678625D01*
X4421091Y12672520D01*
X4402858Y12656980D01*
X4382273Y12637000D01*
Y12763000D01*
X4392859Y12752455D01*
D02*
G37*
G36*
X5541543Y12607281D02*
X5539581Y12605212D01*
X5537937Y12603250D01*
X5536611Y12601394D01*
X5535604Y12599644D01*
X5534914Y12598000D01*
X5534543Y12596462D01*
X5534490Y12595030D01*
X5534755Y12593704D01*
X5535338Y12592484D01*
X5536240Y12591371D01*
X5516115Y12611495D01*
X5517022Y12610801D01*
X5518057Y12610402D01*
X5519219Y12610300D01*
X5520510Y12610495D01*
X5521928Y12610986D01*
X5523474Y12611773D01*
X5525148Y12612857D01*
X5526950Y12614237D01*
X5528879Y12615914D01*
X5530937Y12617887D01*
X5541543Y12607281D01*
D02*
G37*
G36*
X5255083Y12600221D02*
X5253121Y12598153D01*
X5251477Y12596190D01*
X5250151Y12594334D01*
X5249143Y12592584D01*
X5248454Y12590940D01*
X5248083Y12589402D01*
X5248030Y12587970D01*
X5248295Y12586644D01*
X5248878Y12585425D01*
X5249780Y12584311D01*
X5228567Y12605524D01*
X5229680Y12604622D01*
X5230900Y12604039D01*
X5232226Y12603774D01*
X5233658Y12603827D01*
X5235196Y12604198D01*
X5236840Y12604888D01*
X5238590Y12605895D01*
X5240446Y12607221D01*
X5242408Y12608865D01*
X5244477Y12610827D01*
X5255083Y12600221D01*
D02*
G37*
G36*
X5834670Y12594709D02*
X5831372Y12595422D01*
X5828223Y12595862D01*
X5825223Y12596028D01*
X5822372Y12595921D01*
X5819669Y12595540D01*
X5817115Y12594886D01*
X5814710Y12593959D01*
X5812454Y12592758D01*
X5810346Y12591283D01*
X5808387Y12589536D01*
X5800436Y12602798D01*
X5801946Y12604462D01*
X5803395Y12606374D01*
X5804782Y12608532D01*
X5806108Y12610936D01*
X5807372Y12613588D01*
X5809716Y12619632D01*
X5810795Y12623023D01*
X5812769Y12630547D01*
X5834670Y12594709D01*
D02*
G37*
G36*
X5623614Y12593903D02*
X5620033Y12594104D01*
X5616641Y12594093D01*
X5613436Y12593873D01*
X5610418Y12593442D01*
X5607588Y12592801D01*
X5604946Y12591949D01*
X5602491Y12590887D01*
X5600223Y12589614D01*
X5598143Y12588131D01*
X5596251Y12586438D01*
X5586445Y12597845D01*
X5588071Y12599653D01*
X5589552Y12601677D01*
X5590887Y12603919D01*
X5592077Y12606377D01*
X5593121Y12609053D01*
X5594020Y12611946D01*
X5594773Y12615056D01*
X5595380Y12618383D01*
X5596159Y12625688D01*
X5623614Y12593903D01*
D02*
G37*
G36*
X5156027Y12622354D02*
X5156102Y12619429D01*
X5156327Y12616654D01*
X5156702Y12614029D01*
X5157227Y12611554D01*
X5157902Y12609229D01*
X5158727Y12607054D01*
X5159702Y12605029D01*
X5160827Y12603154D01*
X5162102Y12601429D01*
X5163527Y12599854D01*
X5133527Y12593137D01*
X5134952Y12594787D01*
X5136227Y12596737D01*
X5137352Y12598987D01*
X5138327Y12601537D01*
X5139152Y12604387D01*
X5139827Y12607537D01*
X5140352Y12610987D01*
X5140952Y12618787D01*
X5141027Y12623137D01*
X5156027Y12622354D01*
D02*
G37*
G36*
X5425592Y12608865D02*
X5427554Y12607221D01*
X5429410Y12605895D01*
X5431160Y12604888D01*
X5432804Y12604198D01*
X5434342Y12603827D01*
X5435774Y12603774D01*
X5437100Y12604039D01*
X5438320Y12604622D01*
X5439433Y12605524D01*
X5418220Y12584311D01*
X5419122Y12585425D01*
X5419705Y12586644D01*
X5419970Y12587970D01*
X5419917Y12589402D01*
X5419546Y12590940D01*
X5418857Y12592584D01*
X5417849Y12594334D01*
X5416523Y12596190D01*
X5414879Y12598153D01*
X5412917Y12600221D01*
X5423523Y12610827D01*
X5425592Y12608865D01*
D02*
G37*
G36*
X5579319Y12569505D02*
X5577339Y12567455D01*
X5574228Y12563777D01*
X5573097Y12562151D01*
X5572249Y12560665D01*
X5571684Y12559321D01*
X5571402Y12558118D01*
X5571402Y12557057D01*
X5571686Y12556137D01*
X5572253Y12555358D01*
X5552802Y12574809D01*
X5553916Y12573907D01*
X5555135Y12573324D01*
X5556461Y12573059D01*
X5557893Y12573112D01*
X5559431Y12573483D01*
X5561075Y12574172D01*
X5562825Y12575180D01*
X5564681Y12576506D01*
X5566644Y12578150D01*
X5568712Y12580112D01*
X5579319Y12569505D01*
D02*
G37*
G36*
X5073035Y12587038D02*
X5068715Y12581812D01*
X5066960Y12579225D01*
X5065475Y12576654D01*
X5064260Y12574100D01*
X5063315Y12571563D01*
X5062640Y12569043D01*
X5062235Y12566539D01*
X5062100Y12564053D01*
X5047100D01*
X5046965Y12566539D01*
X5046560Y12569043D01*
X5045885Y12571563D01*
X5044940Y12574100D01*
X5043725Y12576654D01*
X5042240Y12579225D01*
X5040485Y12581812D01*
X5038460Y12584416D01*
X5036165Y12587038D01*
X5033600Y12589676D01*
X5075600D01*
X5073035Y12587038D01*
D02*
G37*
G36*
X5120671Y12586998D02*
X5120746Y12584073D01*
X5120971Y12581298D01*
X5121346Y12578673D01*
X5121871Y12576198D01*
X5122546Y12573873D01*
X5123371Y12571698D01*
X5124346Y12569673D01*
X5125471Y12567798D01*
X5126746Y12566073D01*
X5128171Y12564498D01*
X5098171Y12557782D01*
X5099596Y12559432D01*
X5100871Y12561382D01*
X5101996Y12563632D01*
X5102972Y12566182D01*
X5103796Y12569032D01*
X5104471Y12572182D01*
X5104996Y12575632D01*
X5105596Y12583432D01*
X5105671Y12587782D01*
X5120671Y12586998D01*
D02*
G37*
G36*
X5067546Y12544339D02*
X5069502Y12542689D01*
X5071347Y12541352D01*
X5073082Y12540329D01*
X5074707Y12539621D01*
X5076221Y12539226D01*
X5077625Y12539145D01*
X5078918Y12539377D01*
X5080101Y12539924D01*
X5081174Y12540785D01*
X5060392Y12520003D01*
X5061253Y12521075D01*
X5061799Y12522258D01*
X5062032Y12523552D01*
X5061951Y12524956D01*
X5061556Y12526470D01*
X5060847Y12528095D01*
X5059825Y12529830D01*
X5058488Y12531675D01*
X5056837Y12533631D01*
X5054873Y12535697D01*
X5065480Y12546304D01*
X5067546Y12544339D01*
D02*
G37*
G36*
X5648482Y12500342D02*
X5646518Y12498275D01*
X5644867Y12496320D01*
X5643531Y12494474D01*
X5642508Y12492739D01*
X5641799Y12491115D01*
X5641404Y12489601D01*
X5641323Y12488197D01*
X5641556Y12486903D01*
X5642103Y12485720D01*
X5642963Y12484647D01*
X5622181Y12505429D01*
X5623254Y12504569D01*
X5624437Y12504022D01*
X5625731Y12503789D01*
X5627135Y12503870D01*
X5628649Y12504265D01*
X5630273Y12504974D01*
X5632008Y12505997D01*
X5633854Y12507333D01*
X5635809Y12508984D01*
X5637876Y12510948D01*
X5648482Y12500342D01*
D02*
G37*
G36*
X5035102Y12511895D02*
X5040197Y12507444D01*
X5041557Y12506471D01*
X5042748Y12505752D01*
X5043769Y12505289D01*
X5044622Y12505081D01*
X5045305Y12505128D01*
X5045819Y12505429D01*
X5027762Y12487373D01*
X5028663Y12488486D01*
X5029247Y12489706D01*
X5029512Y12491032D01*
X5029459Y12492464D01*
X5029088Y12494002D01*
X5028398Y12495646D01*
X5027391Y12497396D01*
X5026065Y12499252D01*
X5024421Y12501214D01*
X5022459Y12503282D01*
X5033065Y12513889D01*
X5035102Y12511895D01*
D02*
G37*
G36*
X5683838Y12464986D02*
X5681873Y12462920D01*
X5680223Y12460964D01*
X5678886Y12459119D01*
X5677863Y12457384D01*
X5677155Y12455759D01*
X5676760Y12454245D01*
X5676679Y12452841D01*
X5676911Y12451548D01*
X5677458Y12450364D01*
X5678319Y12449292D01*
X5657537Y12470074D01*
X5658609Y12469213D01*
X5659793Y12468666D01*
X5661086Y12468434D01*
X5662490Y12468515D01*
X5664004Y12468910D01*
X5665629Y12469618D01*
X5667364Y12470641D01*
X5669209Y12471978D01*
X5671165Y12473628D01*
X5673231Y12475593D01*
X5683838Y12464986D01*
D02*
G37*
G36*
X4996835Y12473628D02*
X4998791Y12471978D01*
X5000636Y12470641D01*
X5002371Y12469618D01*
X5003996Y12468910D01*
X5005510Y12468515D01*
X5006914Y12468434D01*
X5008207Y12468666D01*
X5009391Y12469213D01*
X5010463Y12470074D01*
X4989681Y12449292D01*
X4990542Y12450364D01*
X4991089Y12451548D01*
X4991321Y12452841D01*
X4991240Y12454245D01*
X4990845Y12455759D01*
X4990137Y12457384D01*
X4989114Y12459119D01*
X4987777Y12460964D01*
X4986127Y12462920D01*
X4984162Y12464986D01*
X4994769Y12475593D01*
X4996835Y12473628D01*
D02*
G37*
G36*
X5796935Y12460038D02*
X5792615Y12454812D01*
X5790860Y12452225D01*
X5789375Y12449654D01*
X5788160Y12447100D01*
X5787215Y12444563D01*
X5786540Y12442043D01*
X5786135Y12439539D01*
X5786000Y12437053D01*
X5771000D01*
X5770865Y12439539D01*
X5770460Y12442043D01*
X5769785Y12444563D01*
X5768840Y12447100D01*
X5767625Y12449654D01*
X5766140Y12452225D01*
X5764385Y12454812D01*
X5762360Y12457416D01*
X5760065Y12460038D01*
X5757500Y12462676D01*
X5799500D01*
X5796935Y12460038D01*
D02*
G37*
G36*
X5949985Y12442087D02*
X5946106Y12441182D01*
X5935937Y12438054D01*
X5933037Y12436875D01*
X5930381Y12435627D01*
X5927969Y12434311D01*
X5925802Y12432927D01*
X5923880Y12431473D01*
X5922202Y12429952D01*
X5909085Y12438049D01*
X5910829Y12440003D01*
X5912305Y12442110D01*
X5913511Y12444368D01*
X5914448Y12446779D01*
X5915116Y12449341D01*
X5915515Y12452055D01*
X5915645Y12454921D01*
X5915506Y12457939D01*
X5915098Y12461109D01*
X5914421Y12464430D01*
X5949985Y12442087D01*
D02*
G37*
G36*
X5503741Y12416136D02*
X5502668Y12416996D01*
X5501485Y12417543D01*
X5500192Y12417776D01*
X5498788Y12417695D01*
X5497274Y12417300D01*
X5495649Y12416591D01*
X5493914Y12415568D01*
X5492069Y12414232D01*
X5490113Y12412581D01*
X5488047Y12410617D01*
X5477440Y12421223D01*
X5479405Y12423290D01*
X5481055Y12425245D01*
X5482392Y12427091D01*
X5483414Y12428826D01*
X5484123Y12430450D01*
X5484518Y12431964D01*
X5484599Y12433368D01*
X5484366Y12434662D01*
X5483820Y12435845D01*
X5482959Y12436918D01*
X5503741Y12416136D01*
D02*
G37*
G36*
X5754548Y12394276D02*
X5752584Y12392209D01*
X5750933Y12390254D01*
X5749597Y12388408D01*
X5748574Y12386673D01*
X5747865Y12385049D01*
X5747470Y12383535D01*
X5747389Y12382131D01*
X5747622Y12380837D01*
X5748169Y12379654D01*
X5749029Y12378581D01*
X5728247Y12399363D01*
X5729320Y12398503D01*
X5730503Y12397956D01*
X5731797Y12397723D01*
X5733201Y12397804D01*
X5734715Y12398199D01*
X5736339Y12398908D01*
X5738074Y12399931D01*
X5739920Y12401267D01*
X5741875Y12402918D01*
X5743942Y12404882D01*
X5754548Y12394276D01*
D02*
G37*
G36*
X6285727Y12383000D02*
X6275141Y12393545D01*
X6246909Y12418520D01*
X6238673Y12424625D01*
X6231026Y12429620D01*
X6223966Y12433505D01*
X6217494Y12436280D01*
X6211610Y12437945D01*
X6206313Y12438500D01*
Y12453500D01*
X6211610Y12454055D01*
X6217494Y12455720D01*
X6223966Y12458495D01*
X6231026Y12462380D01*
X6238673Y12467375D01*
X6246909Y12473480D01*
X6265142Y12489020D01*
X6285727Y12509000D01*
Y12383000D01*
D02*
G37*
G36*
X4392859Y12498455D02*
X4421091Y12473480D01*
X4429327Y12467375D01*
X4436974Y12462380D01*
X4444034Y12458495D01*
X4450506Y12455720D01*
X4456390Y12454055D01*
X4461687Y12453500D01*
Y12438500D01*
X4456390Y12437945D01*
X4450506Y12436280D01*
X4444034Y12433505D01*
X4436974Y12429620D01*
X4429327Y12424625D01*
X4421091Y12418520D01*
X4402858Y12402980D01*
X4382273Y12383000D01*
Y12509000D01*
X4392859Y12498455D01*
D02*
G37*
G36*
X4926125Y12402918D02*
X4928080Y12401267D01*
X4929926Y12399931D01*
X4931661Y12398908D01*
X4933285Y12398199D01*
X4934799Y12397804D01*
X4936203Y12397723D01*
X4937497Y12397956D01*
X4938680Y12398503D01*
X4939753Y12399363D01*
X4918971Y12378581D01*
X4919831Y12379654D01*
X4920378Y12380837D01*
X4920611Y12382131D01*
X4920530Y12383535D01*
X4920135Y12385049D01*
X4919426Y12386673D01*
X4918403Y12388408D01*
X4917067Y12390254D01*
X4915416Y12392209D01*
X4913452Y12394276D01*
X4924058Y12404882D01*
X4926125Y12402918D01*
D02*
G37*
G36*
X5789904Y12358920D02*
X5787939Y12356854D01*
X5786289Y12354898D01*
X5784952Y12353053D01*
X5783929Y12351318D01*
X5783221Y12349693D01*
X5782826Y12348179D01*
X5782745Y12346775D01*
X5782977Y12345482D01*
X5783524Y12344299D01*
X5784385Y12343226D01*
X5763603Y12364008D01*
X5764675Y12363147D01*
X5765858Y12362601D01*
X5767152Y12362368D01*
X5768556Y12362449D01*
X5770070Y12362844D01*
X5771695Y12363553D01*
X5773430Y12364575D01*
X5775275Y12365912D01*
X5777231Y12367563D01*
X5779297Y12369527D01*
X5789904Y12358920D01*
D02*
G37*
G36*
X5421160Y12401450D02*
X5426507Y12397194D01*
X5429139Y12395465D01*
X5431745Y12394002D01*
X5434323Y12392805D01*
X5436874Y12391874D01*
X5439398Y12391208D01*
X5441895Y12390809D01*
X5444364Y12390676D01*
X5444714Y12375677D01*
X5442211Y12375540D01*
X5439702Y12375129D01*
X5437186Y12374444D01*
X5434664Y12373486D01*
X5432135Y12372254D01*
X5429600Y12370749D01*
X5427057Y12368969D01*
X5424509Y12366916D01*
X5421954Y12364589D01*
X5419392Y12361988D01*
X5418445Y12403978D01*
X5421160Y12401450D01*
D02*
G37*
G36*
X4890769Y12367563D02*
X4892725Y12365912D01*
X4894570Y12364575D01*
X4896305Y12363553D01*
X4897930Y12362844D01*
X4899444Y12362449D01*
X4900848Y12362368D01*
X4902142Y12362601D01*
X4903325Y12363147D01*
X4904397Y12364008D01*
X4883615Y12343226D01*
X4884476Y12344299D01*
X4885023Y12345482D01*
X4885255Y12346775D01*
X4885174Y12348179D01*
X4884779Y12349693D01*
X4884071Y12351318D01*
X4883048Y12353053D01*
X4881711Y12354898D01*
X4880061Y12356854D01*
X4878096Y12358920D01*
X4888703Y12369527D01*
X4890769Y12367563D01*
D02*
G37*
G36*
X5820537Y12328287D02*
X5818575Y12326219D01*
X5816931Y12324256D01*
X5815605Y12322400D01*
X5814597Y12320650D01*
X5813908Y12319006D01*
X5813537Y12317468D01*
X5813484Y12316036D01*
X5813749Y12314710D01*
X5814332Y12313491D01*
X5815234Y12312377D01*
X5798958Y12328653D01*
X5799133Y12328689D01*
X5799514Y12328945D01*
X5800099Y12329421D01*
X5803084Y12332164D01*
X5809930Y12338894D01*
X5820537Y12328287D01*
D02*
G37*
G36*
X4855414Y12332207D02*
X4857370Y12330557D01*
X4859215Y12329220D01*
X4860950Y12328197D01*
X4862575Y12327489D01*
X4864089Y12327094D01*
X4865493Y12327013D01*
X4866786Y12327245D01*
X4867969Y12327792D01*
X4869042Y12328653D01*
X4848260Y12307871D01*
X4849121Y12308943D01*
X4849667Y12310127D01*
X4849900Y12311420D01*
X4849819Y12312824D01*
X4849424Y12314338D01*
X4848715Y12315963D01*
X4847693Y12317698D01*
X4846356Y12319543D01*
X4844706Y12321499D01*
X4842741Y12323565D01*
X4853348Y12334172D01*
X4855414Y12332207D01*
D02*
G37*
G36*
X5609807Y12310070D02*
X5599416Y12299248D01*
X5588809Y12309854D01*
X5590771Y12311923D01*
X5592416Y12313885D01*
X5593741Y12315741D01*
X5594749Y12317491D01*
X5595438Y12319135D01*
X5595810Y12320673D01*
X5595863Y12322105D01*
X5595597Y12323431D01*
X5595014Y12324650D01*
X5594113Y12325764D01*
X5609807Y12310070D01*
D02*
G37*
G36*
X5860614Y12288210D02*
X5858650Y12286143D01*
X5856999Y12284188D01*
X5855663Y12282342D01*
X5854640Y12280607D01*
X5853931Y12278983D01*
X5853536Y12277468D01*
X5853455Y12276065D01*
X5853688Y12274771D01*
X5854235Y12273588D01*
X5855095Y12272515D01*
X5834313Y12293297D01*
X5835386Y12292437D01*
X5836569Y12291890D01*
X5837863Y12291657D01*
X5839267Y12291738D01*
X5840781Y12292133D01*
X5842405Y12292842D01*
X5844140Y12293865D01*
X5845986Y12295201D01*
X5847942Y12296852D01*
X5850008Y12298816D01*
X5860614Y12288210D01*
D02*
G37*
G36*
X4820058Y12296852D02*
X4822014Y12295201D01*
X4823859Y12293864D01*
X4825594Y12292842D01*
X4827219Y12292133D01*
X4828733Y12291738D01*
X4830137Y12291657D01*
X4831431Y12291890D01*
X4832614Y12292437D01*
X4833687Y12293297D01*
X4812905Y12272515D01*
X4813765Y12273588D01*
X4814312Y12274771D01*
X4814545Y12276064D01*
X4814464Y12277468D01*
X4814069Y12278983D01*
X4813360Y12280607D01*
X4812337Y12282342D01*
X4811000Y12284188D01*
X4809350Y12286143D01*
X4807386Y12288209D01*
X4817992Y12298816D01*
X4820058Y12296852D01*
D02*
G37*
G36*
X5491941Y13636993D02*
X5493529Y13636916D01*
X5494604Y13636754D01*
X5495741Y13636470D01*
X5496948Y13636047D01*
X5498253Y13635460D01*
X5499645Y13634694D01*
X5501129Y13633730D01*
X5502693Y13632556D01*
X5504334Y13631161D01*
X5506240Y13629350D01*
X5507338Y13628929D01*
X5551801Y13584465D01*
X5557590Y13580597D01*
X5564418Y13579239D01*
X5919201D01*
X5931886Y13566554D01*
X5928060Y13557315D01*
X5851610D01*
Y13482114D01*
X5922010D01*
X5992410D01*
Y13492964D01*
X6001649Y13496791D01*
X6052757Y13445683D01*
Y12445482D01*
X5879583Y12272307D01*
X5869888Y12272735D01*
X5869461Y12282429D01*
X6019717Y12432685D01*
X6023585Y12438473D01*
X6024943Y12445302D01*
Y12725400D01*
X6023585Y12732228D01*
X6019717Y12738017D01*
X5853734Y12903999D01*
X5857876Y12914000D01*
X5862657D01*
X5877358Y12920090D01*
X5888610Y12931342D01*
X5894700Y12946043D01*
Y12961957D01*
X5888610Y12976659D01*
X5878768Y12986501D01*
X5880098Y12993169D01*
X5881834Y12996500D01*
X5909310D01*
Y13084399D01*
X5922010D01*
Y13097099D01*
X5992410D01*
Y13172301D01*
X5939853D01*
Y13336978D01*
X5940287Y13337799D01*
X5939853Y13339206D01*
Y13381512D01*
X5992410D01*
Y13456712D01*
X5922010D01*
X5851610D01*
Y13381512D01*
X5904167D01*
Y13358749D01*
X5903733Y13357928D01*
X5903832Y13357608D01*
X5903693Y13357304D01*
X5903601Y13354752D01*
X5903374Y13352705D01*
X5903005Y13350771D01*
X5902497Y13348927D01*
X5901849Y13347159D01*
X5901059Y13345454D01*
X5900116Y13343793D01*
X5899007Y13342162D01*
X5897719Y13340552D01*
X5895980Y13338684D01*
X5895581Y13337614D01*
X5889736Y13331769D01*
X5883903D01*
X5877075Y13330411D01*
X5875313Y13329234D01*
X5873381Y13331166D01*
X5854700Y13338904D01*
Y13311870D01*
X5857137Y13311414D01*
X5860054Y13311131D01*
X5862837Y13311143D01*
X5865486Y13311447D01*
X5868000Y13312042D01*
X5870380Y13312929D01*
X5872625Y13314107D01*
X5874736Y13315578D01*
X5876712Y13317342D01*
X5884015Y13303432D01*
X5882557Y13301830D01*
X5881131Y13299973D01*
X5879735Y13297859D01*
X5878370Y13295490D01*
X5877036Y13292862D01*
X5874458Y13286838D01*
X5873216Y13283441D01*
X5870822Y13275877D01*
X5854700Y13305794D01*
Y13284200D01*
X5829300D01*
Y13338904D01*
X5810619Y13331166D01*
X5795034Y13315581D01*
X5789833Y13303024D01*
X5779833Y13305014D01*
Y13390862D01*
X5780310Y13391934D01*
X5780376Y13394449D01*
X5780536Y13396252D01*
X5780646Y13396915D01*
X5816990D01*
Y13541914D01*
X5706990D01*
Y13396915D01*
X5743334D01*
X5743444Y13396252D01*
X5743604Y13394449D01*
X5743670Y13391934D01*
X5744147Y13390862D01*
Y13162953D01*
X5743670Y13161880D01*
X5743604Y13159366D01*
X5743444Y13157562D01*
X5743334Y13156902D01*
X5706990D01*
Y13011900D01*
X5789799D01*
X5790866Y13011395D01*
X5792453Y13011314D01*
X5793528Y13011154D01*
X5794665Y13010870D01*
X5795873Y13010448D01*
X5797177Y13009860D01*
X5798570Y13009094D01*
X5800054Y13008128D01*
X5801618Y13006956D01*
X5802847Y13005911D01*
Y12994235D01*
X5804205Y12987407D01*
X5808073Y12981619D01*
X5809792Y12979900D01*
X5809956Y12979233D01*
X5810428Y12978947D01*
X5810610Y12978426D01*
X5811917Y12976962D01*
X5812682Y12975879D01*
X5813335Y12974686D01*
X5813888Y12973335D01*
X5814337Y12971791D01*
X5814668Y12970020D01*
X5814859Y12967996D01*
X5814887Y12965718D01*
X5814731Y12963181D01*
X5814334Y12960069D01*
X5814700Y12958723D01*
Y12946043D01*
X5819547Y12934343D01*
X5815661Y12926286D01*
X5813689Y12924342D01*
X5728116D01*
X5669343Y12983116D01*
Y13310001D01*
X5667985Y13316827D01*
X5664117Y13322617D01*
X5556376Y13430357D01*
X5560203Y13439597D01*
X5562012D01*
X5584212Y13448792D01*
X5601203Y13465782D01*
X5610114Y13487296D01*
X5549998D01*
Y13499995D01*
X5537298D01*
Y13560112D01*
X5515784Y13551199D01*
X5498794Y13534210D01*
X5489598Y13512010D01*
Y13510201D01*
X5480359Y13506374D01*
X5373872Y13612862D01*
X5377699Y13622099D01*
X5439400D01*
Y13629405D01*
X5444000Y13637500D01*
X5490874D01*
X5491941Y13636993D01*
D02*
G37*
G36*
X5895970Y12252854D02*
X5894005Y12250788D01*
X5892355Y12248832D01*
X5891018Y12246987D01*
X5889995Y12245252D01*
X5889287Y12243627D01*
X5888892Y12242113D01*
X5888811Y12240709D01*
X5889043Y12239416D01*
X5889590Y12238233D01*
X5890451Y12237160D01*
X5869669Y12257942D01*
X5870741Y12257081D01*
X5871925Y12256535D01*
X5873218Y12256302D01*
X5874622Y12256383D01*
X5876136Y12256778D01*
X5877761Y12257487D01*
X5879496Y12258509D01*
X5881341Y12259846D01*
X5883297Y12261496D01*
X5885363Y12263461D01*
X5895970Y12252854D01*
D02*
G37*
G36*
X5595635Y12249261D02*
X5596040Y12246757D01*
X5596715Y12244237D01*
X5597660Y12241700D01*
X5598875Y12239146D01*
X5600360Y12236575D01*
X5602115Y12233988D01*
X5604140Y12231384D01*
X5606435Y12228762D01*
X5609000Y12226124D01*
X5567000D01*
X5569565Y12228762D01*
X5573885Y12233988D01*
X5575640Y12236575D01*
X5577125Y12239146D01*
X5578340Y12241700D01*
X5579285Y12244237D01*
X5579960Y12246757D01*
X5580365Y12249261D01*
X5580500Y12251747D01*
X5595500D01*
X5595635Y12249261D01*
D02*
G37*
G36*
X4424905Y12288299D02*
X4421552Y12284161D01*
X4418569Y12278823D01*
X4415955Y12272284D01*
X4413710Y12264545D01*
X4411834Y12255605D01*
X4410328Y12245465D01*
X4408423Y12221584D01*
X4407995Y12192900D01*
X4318900Y12281995D01*
X4333842Y12282024D01*
X4371465Y12284328D01*
X4381605Y12285834D01*
X4390545Y12287710D01*
X4398284Y12289955D01*
X4404823Y12292569D01*
X4410161Y12295552D01*
X4414299Y12298905D01*
X4424905Y12288299D01*
D02*
G37*
G36*
X5066854Y12193125D02*
X5066006Y12192256D01*
X5064127Y12190068D01*
X5063722Y12189478D01*
X5063427Y12188957D01*
X5063243Y12188505D01*
X5063170Y12188123D01*
X5063208Y12187811D01*
X5063356Y12187568D01*
X5047615Y12196051D01*
X5047845Y12196100D01*
X5048215Y12196308D01*
X5048727Y12196677D01*
X5049379Y12197205D01*
X5052180Y12199749D01*
X5056248Y12203731D01*
X5066854Y12193125D01*
D02*
G37*
G36*
X4834961Y12179748D02*
X4833848Y12180650D01*
X4832628Y12181233D01*
X4831302Y12181498D01*
X4829870Y12181445D01*
X4828332Y12181074D01*
X4826688Y12180384D01*
X4824938Y12179377D01*
X4823082Y12178051D01*
X4821120Y12176407D01*
X4819051Y12174445D01*
X4808445Y12185051D01*
X4810407Y12187120D01*
X4812051Y12189082D01*
X4813377Y12190938D01*
X4814384Y12192688D01*
X4815074Y12194332D01*
X4815445Y12195870D01*
X4815498Y12197302D01*
X4815233Y12198628D01*
X4814650Y12199848D01*
X4813748Y12200961D01*
X4834961Y12179748D01*
D02*
G37*
G36*
X5853205Y12002099D02*
X5851243Y12000031D01*
X5849599Y11998068D01*
X5848273Y11996212D01*
X5847265Y11994462D01*
X5846576Y11992818D01*
X5846205Y11991280D01*
X5846152Y11989848D01*
X5846417Y11988523D01*
X5847000Y11987303D01*
X5847902Y11986189D01*
X5826689Y12007402D01*
X5827802Y12006501D01*
X5829022Y12005917D01*
X5830348Y12005652D01*
X5831780Y12005705D01*
X5833318Y12006076D01*
X5834962Y12006766D01*
X5836712Y12007774D01*
X5838568Y12009099D01*
X5840530Y12010743D01*
X5842598Y12012705D01*
X5853205Y12002099D01*
D02*
G37*
G36*
X4790002Y12024577D02*
X4790642Y12017827D01*
X4791231Y12014757D01*
X4791998Y12011889D01*
X4792945Y12009224D01*
X4794071Y12006761D01*
X4795375Y12004502D01*
X4796859Y12002446D01*
X4798522Y12000592D01*
X4787915Y11989985D01*
X4786062Y11991648D01*
X4784005Y11993132D01*
X4781746Y11994437D01*
X4779284Y11995562D01*
X4776619Y11996509D01*
X4773751Y11997277D01*
X4770680Y11997866D01*
X4767407Y11998275D01*
X4763931Y11998506D01*
X4760251Y11998558D01*
X4789950Y12028256D01*
X4790002Y12024577D01*
D02*
G37*
G36*
X4804092Y11970183D02*
X4805434Y11971608D01*
X4806461Y11972883D01*
X4807173Y11974008D01*
X4807569Y11974983D01*
X4807650Y11975808D01*
X4807416Y11976483D01*
X4806866Y11977008D01*
X4806001Y11977382D01*
X4804821Y11977607D01*
X4803325Y11977682D01*
X4811592Y11992683D01*
X4814517Y11992758D01*
X4817292Y11992983D01*
X4819917Y11993358D01*
X4822392Y11993883D01*
X4824717Y11994557D01*
X4826892Y11995382D01*
X4828917Y11996358D01*
X4830792Y11997482D01*
X4832517Y11998758D01*
X4834092Y12000183D01*
X4804092Y11970183D01*
D02*
G37*
G36*
X4397611Y11980387D02*
X4399167Y11978616D01*
X4400975Y11977053D01*
X4403033Y11975699D01*
X4405342Y11974553D01*
X4407902Y11973616D01*
X4410712Y11972887D01*
X4413774Y11972366D01*
X4417086Y11972054D01*
X4420649Y11971949D01*
Y11956949D01*
X4418019Y11956833D01*
X4415686Y11956483D01*
X4413649Y11955900D01*
X4411910Y11955084D01*
X4410467Y11954035D01*
X4409321Y11952752D01*
X4408471Y11951236D01*
X4407919Y11949487D01*
X4407663Y11947505D01*
X4407704Y11945290D01*
X4396305Y11982366D01*
X4397611Y11980387D01*
D02*
G37*
G36*
X5565881Y11920368D02*
X5564601Y11918314D01*
X5563716Y11916257D01*
X5563225Y11914198D01*
X5563129Y11912136D01*
X5563428Y11910072D01*
X5564121Y11908006D01*
X5565209Y11905937D01*
X5566691Y11903866D01*
X5568568Y11901793D01*
X5554489Y11894659D01*
X5551128Y11897993D01*
X5530344Y11916544D01*
X5528509Y11917849D01*
X5567555Y11922420D01*
X5565881Y11920368D01*
D02*
G37*
G36*
X4833687Y11887503D02*
X4832614Y11888363D01*
X4831431Y11888910D01*
X4830137Y11889143D01*
X4828733Y11889062D01*
X4827219Y11888667D01*
X4825594Y11887958D01*
X4823859Y11886936D01*
X4822014Y11885599D01*
X4820058Y11883949D01*
X4817992Y11881984D01*
X4807385Y11892591D01*
X4809350Y11894657D01*
X4811000Y11896613D01*
X4812337Y11898458D01*
X4813360Y11900193D01*
X4814069Y11901817D01*
X4814464Y11903332D01*
X4814545Y11904736D01*
X4814312Y11906029D01*
X4813765Y11907212D01*
X4812905Y11908285D01*
X4833687Y11887503D01*
D02*
G37*
G36*
X5854202Y11907179D02*
X5853625Y11905966D01*
X5853366Y11904646D01*
X5853425Y11903220D01*
X5853800Y11901686D01*
X5854493Y11900046D01*
X5855504Y11898299D01*
X5856832Y11896445D01*
X5858477Y11894484D01*
X5860440Y11892416D01*
X5849833Y11881809D01*
X5847769Y11883776D01*
X5845818Y11885431D01*
X5843982Y11886777D01*
X5842259Y11887812D01*
X5840650Y11888536D01*
X5839155Y11888950D01*
X5837774Y11889054D01*
X5836506Y11888847D01*
X5835353Y11888330D01*
X5834313Y11887503D01*
X5855095Y11908285D01*
X5854202Y11907179D01*
D02*
G37*
G36*
X4735762Y11905635D02*
X4740988Y11901315D01*
X4743575Y11899560D01*
X4746146Y11898075D01*
X4748700Y11896860D01*
X4751237Y11895915D01*
X4753757Y11895240D01*
X4756261Y11894835D01*
X4758747Y11894700D01*
Y11879700D01*
X4756261Y11879565D01*
X4753757Y11879160D01*
X4751237Y11878485D01*
X4748700Y11877540D01*
X4746146Y11876325D01*
X4743575Y11874840D01*
X4740988Y11873085D01*
X4738384Y11871060D01*
X4735762Y11868765D01*
X4733124Y11866200D01*
Y11908200D01*
X4735762Y11905635D01*
D02*
G37*
G36*
X5472362Y11892935D02*
X5477588Y11888615D01*
X5480175Y11886860D01*
X5482746Y11885375D01*
X5485300Y11884160D01*
X5487837Y11883215D01*
X5490357Y11882540D01*
X5492861Y11882135D01*
X5495347Y11882000D01*
Y11867000D01*
X5492861Y11866865D01*
X5490357Y11866460D01*
X5487837Y11865785D01*
X5485300Y11864840D01*
X5482746Y11863625D01*
X5480175Y11862140D01*
X5477588Y11860385D01*
X5474984Y11858360D01*
X5472362Y11856065D01*
X5469724Y11853500D01*
Y11895500D01*
X5472362Y11892935D01*
D02*
G37*
G36*
X4869042Y11852147D02*
X4867969Y11853008D01*
X4866786Y11853555D01*
X4865493Y11853787D01*
X4864089Y11853706D01*
X4862575Y11853311D01*
X4860950Y11852603D01*
X4859215Y11851580D01*
X4857370Y11850243D01*
X4855414Y11848593D01*
X4853348Y11846628D01*
X4842741Y11857235D01*
X4844706Y11859301D01*
X4846356Y11861257D01*
X4847693Y11863102D01*
X4848715Y11864837D01*
X4849424Y11866462D01*
X4849819Y11867976D01*
X4849900Y11869380D01*
X4849667Y11870673D01*
X4849121Y11871857D01*
X4848260Y11872929D01*
X4869042Y11852147D01*
D02*
G37*
G36*
X5596179Y11874285D02*
X5598135Y11872634D01*
X5599980Y11871298D01*
X5601715Y11870275D01*
X5603340Y11869566D01*
X5604854Y11869171D01*
X5606258Y11869090D01*
X5607551Y11869323D01*
X5608734Y11869870D01*
X5609807Y11870730D01*
X5589025Y11849948D01*
X5589885Y11851021D01*
X5590432Y11852204D01*
X5590665Y11853498D01*
X5590584Y11854901D01*
X5590189Y11856415D01*
X5589480Y11858040D01*
X5588457Y11859775D01*
X5587121Y11861620D01*
X5585470Y11863576D01*
X5583506Y11865643D01*
X5594113Y11876249D01*
X5596179Y11874285D01*
D02*
G37*
G36*
X5866905Y11886141D02*
X5868959Y11884657D01*
X5871216Y11883349D01*
X5873679Y11882216D01*
X5876346Y11881258D01*
X5879217Y11880476D01*
X5882293Y11879869D01*
X5885573Y11879437D01*
X5889058Y11879181D01*
X5892747Y11879100D01*
X5862805Y11849647D01*
X5862783Y11853316D01*
X5862577Y11856783D01*
X5862189Y11860050D01*
X5861619Y11863115D01*
X5860866Y11865980D01*
X5859930Y11868643D01*
X5858811Y11871104D01*
X5857510Y11873365D01*
X5856026Y11875425D01*
X5854360Y11877283D01*
X5865056Y11887799D01*
X5866905Y11886141D01*
D02*
G37*
G36*
X5119849Y11830287D02*
X5117885Y11828221D01*
X5116234Y11826265D01*
X5114898Y11824420D01*
X5113875Y11822685D01*
X5113166Y11821060D01*
X5112771Y11819546D01*
X5112690Y11818142D01*
X5112923Y11816849D01*
X5113470Y11815666D01*
X5114330Y11814593D01*
X5093548Y11835375D01*
X5094621Y11834515D01*
X5095804Y11833968D01*
X5097098Y11833735D01*
X5098501Y11833816D01*
X5100015Y11834211D01*
X5101640Y11834920D01*
X5103375Y11835943D01*
X5105220Y11837279D01*
X5107176Y11838930D01*
X5109243Y11840894D01*
X5119849Y11830287D01*
D02*
G37*
G36*
X5299876Y11828100D02*
X5297238Y11830665D01*
X5292012Y11834985D01*
X5289425Y11836740D01*
X5286854Y11838225D01*
X5284300Y11839440D01*
X5281763Y11840385D01*
X5279243Y11841060D01*
X5276739Y11841465D01*
X5274253Y11841600D01*
Y11856600D01*
X5276739Y11856735D01*
X5279243Y11857140D01*
X5281763Y11857815D01*
X5284300Y11858760D01*
X5286854Y11859975D01*
X5289425Y11861460D01*
X5292012Y11863215D01*
X5294616Y11865240D01*
X5297238Y11867535D01*
X5299876Y11870100D01*
Y11828100D01*
D02*
G37*
G36*
X4904397Y11816792D02*
X4903325Y11817653D01*
X4902142Y11818199D01*
X4900848Y11818432D01*
X4899444Y11818351D01*
X4897930Y11817956D01*
X4896305Y11817247D01*
X4894570Y11816225D01*
X4892725Y11814888D01*
X4890769Y11813237D01*
X4888703Y11811273D01*
X4878096Y11821880D01*
X4880061Y11823946D01*
X4881711Y11825902D01*
X4883048Y11827747D01*
X4884071Y11829482D01*
X4884779Y11831107D01*
X4885174Y11832621D01*
X4885255Y11834025D01*
X4885023Y11835318D01*
X4884476Y11836501D01*
X4883615Y11837574D01*
X4904397Y11816792D01*
D02*
G37*
G36*
X5560824Y11838930D02*
X5562780Y11837279D01*
X5564625Y11835943D01*
X5566360Y11834920D01*
X5567985Y11834211D01*
X5569499Y11833816D01*
X5570902Y11833735D01*
X5572196Y11833968D01*
X5573379Y11834515D01*
X5574452Y11835375D01*
X5553670Y11814593D01*
X5554530Y11815666D01*
X5555077Y11816849D01*
X5555310Y11818142D01*
X5555229Y11819546D01*
X5554834Y11821060D01*
X5554125Y11822685D01*
X5553102Y11824420D01*
X5551766Y11826265D01*
X5550115Y11828221D01*
X5548151Y11830287D01*
X5558757Y11840894D01*
X5560824Y11838930D01*
D02*
G37*
G36*
X5342719Y11827643D02*
X5338836Y11821695D01*
X5337258Y11818843D01*
X5335924Y11816072D01*
X5334831Y11813381D01*
X5333982Y11810772D01*
X5333375Y11808243D01*
X5333011Y11805796D01*
X5332890Y11803429D01*
X5317890Y11801295D01*
X5317745Y11803867D01*
X5317311Y11806395D01*
X5316587Y11808878D01*
X5315574Y11811316D01*
X5314272Y11813711D01*
X5312680Y11816060D01*
X5310798Y11818365D01*
X5308627Y11820626D01*
X5306167Y11822841D01*
X5303417Y11825013D01*
X5345025Y11830739D01*
X5342719Y11827643D01*
D02*
G37*
G36*
X4939753Y11781437D02*
X4938680Y11782297D01*
X4937497Y11782844D01*
X4936203Y11783077D01*
X4934799Y11782996D01*
X4933285Y11782601D01*
X4931661Y11781892D01*
X4929926Y11780869D01*
X4928080Y11779533D01*
X4926125Y11777882D01*
X4924058Y11775918D01*
X4913452Y11786524D01*
X4915416Y11788591D01*
X4917067Y11790546D01*
X4918403Y11792392D01*
X4919426Y11794127D01*
X4920135Y11795751D01*
X4920530Y11797265D01*
X4920611Y11798669D01*
X4920378Y11799963D01*
X4919831Y11801146D01*
X4918971Y11802219D01*
X4939753Y11781437D01*
D02*
G37*
G36*
X5742825Y11795846D02*
X5742565Y11795082D01*
X5742533Y11794210D01*
X5742729Y11793229D01*
X5743154Y11792142D01*
X5743807Y11790946D01*
X5744688Y11789643D01*
X5745798Y11788231D01*
X5747136Y11786713D01*
X5748702Y11785086D01*
X5737926Y11774310D01*
X5736316Y11775893D01*
X5731305Y11780293D01*
X5730408Y11780909D01*
X5729654Y11781331D01*
X5729043Y11781560D01*
X5728574Y11781595D01*
X5728247Y11781437D01*
X5743314Y11796503D01*
X5742825Y11795846D01*
D02*
G37*
G36*
X4975108Y11746081D02*
X4974036Y11746942D01*
X4972852Y11747489D01*
X4971559Y11747721D01*
X4970155Y11747640D01*
X4968641Y11747245D01*
X4967016Y11746537D01*
X4965281Y11745514D01*
X4963436Y11744177D01*
X4961480Y11742527D01*
X4959414Y11740562D01*
X4948807Y11751169D01*
X4950772Y11753235D01*
X4952422Y11755191D01*
X4953759Y11757036D01*
X4954782Y11758771D01*
X4955490Y11760396D01*
X4955885Y11761910D01*
X4955966Y11763314D01*
X4955734Y11764607D01*
X4955187Y11765791D01*
X4954326Y11766863D01*
X4975108Y11746081D01*
D02*
G37*
G36*
X5060986Y11764070D02*
X4990876Y11693961D01*
X5004635Y11680202D01*
X4953083Y11628651D01*
X4949215Y11622862D01*
X4947857Y11616034D01*
Y11607400D01*
X4947380Y11606328D01*
X4947314Y11603813D01*
X4947154Y11602009D01*
X4947109Y11601739D01*
X4913200D01*
X4902470Y11599604D01*
X4899508Y11597625D01*
X4813217Y11683917D01*
X4807428Y11687785D01*
X4800600Y11689143D01*
X4747605D01*
X4746634Y11689608D01*
X4744721Y11689712D01*
X4743329Y11689937D01*
X4741832Y11690338D01*
X4740224Y11690937D01*
X4738486Y11691764D01*
X4736628Y11692837D01*
X4734789Y11694084D01*
X4730295Y11697800D01*
X4727969Y11700061D01*
X4729537Y11710118D01*
X4729934Y11711076D01*
X4937164D01*
X4943992Y11712434D01*
X4949781Y11716302D01*
X4959158Y11725679D01*
X4972916Y11711921D01*
X5043025Y11782031D01*
X5060986Y11764070D01*
D02*
G37*
G36*
X5261271Y11688866D02*
X5259306Y11686800D01*
X5257656Y11684844D01*
X5256319Y11682998D01*
X5255296Y11681263D01*
X5254588Y11679639D01*
X5254193Y11678125D01*
X5254112Y11676721D01*
X5254344Y11675427D01*
X5254891Y11674244D01*
X5255752Y11673171D01*
X5234970Y11693953D01*
X5236042Y11693093D01*
X5237225Y11692546D01*
X5238519Y11692313D01*
X5239923Y11692394D01*
X5241437Y11692789D01*
X5243062Y11693498D01*
X5244797Y11694521D01*
X5246642Y11695857D01*
X5248598Y11697508D01*
X5250664Y11699472D01*
X5261271Y11688866D01*
D02*
G37*
G36*
X4424905Y11780299D02*
X4421552Y11776161D01*
X4418569Y11770823D01*
X4415955Y11764284D01*
X4413710Y11756545D01*
X4411834Y11747605D01*
X4410328Y11737465D01*
X4408423Y11713584D01*
X4407995Y11684900D01*
X4318900Y11773995D01*
X4333842Y11774024D01*
X4371465Y11776328D01*
X4381605Y11777834D01*
X4390545Y11779710D01*
X4398284Y11781955D01*
X4404823Y11784569D01*
X4410161Y11787552D01*
X4414299Y11790905D01*
X4424905Y11780299D01*
D02*
G37*
G36*
X5045819Y11675371D02*
X5044746Y11676231D01*
X5043563Y11676778D01*
X5042269Y11677011D01*
X5040865Y11676930D01*
X5039351Y11676535D01*
X5037727Y11675826D01*
X5035992Y11674803D01*
X5034146Y11673467D01*
X5032191Y11671816D01*
X5030124Y11669852D01*
X5019518Y11680458D01*
X5021482Y11682525D01*
X5023133Y11684480D01*
X5024469Y11686326D01*
X5025492Y11688061D01*
X5026201Y11689685D01*
X5026596Y11691199D01*
X5026677Y11692603D01*
X5026444Y11693897D01*
X5025897Y11695080D01*
X5025037Y11696153D01*
X5045819Y11675371D01*
D02*
G37*
G36*
X5640219Y11693196D02*
X5639636Y11691976D01*
X5639370Y11690650D01*
X5639423Y11689219D01*
X5639795Y11687681D01*
X5640484Y11686037D01*
X5641492Y11684287D01*
X5642818Y11682431D01*
X5644462Y11680468D01*
X5646424Y11678400D01*
X5635817Y11667793D01*
X5633772Y11669778D01*
X5630135Y11672930D01*
X5628544Y11674097D01*
X5627105Y11674991D01*
X5625817Y11675612D01*
X5624681Y11675961D01*
X5623696Y11676037D01*
X5622863Y11675840D01*
X5622181Y11675371D01*
X5641121Y11694310D01*
X5640219Y11693196D01*
D02*
G37*
G36*
X4723062Y11689735D02*
X4728288Y11685415D01*
X4730875Y11683660D01*
X4733446Y11682175D01*
X4736000Y11680960D01*
X4738537Y11680015D01*
X4741057Y11679340D01*
X4743561Y11678935D01*
X4746047Y11678800D01*
Y11663800D01*
X4743561Y11663665D01*
X4741057Y11663260D01*
X4738537Y11662585D01*
X4736000Y11661640D01*
X4733446Y11660425D01*
X4730875Y11658940D01*
X4728288Y11657185D01*
X4725684Y11655160D01*
X4723062Y11652865D01*
X4720424Y11650300D01*
Y11692300D01*
X4723062Y11689735D01*
D02*
G37*
G36*
X5081174Y11640015D02*
X5080101Y11640876D01*
X5078918Y11641423D01*
X5077625Y11641655D01*
X5076221Y11641574D01*
X5074707Y11641179D01*
X5073082Y11640471D01*
X5071347Y11639448D01*
X5069502Y11638111D01*
X5067546Y11636461D01*
X5065480Y11634496D01*
X5054873Y11645103D01*
X5056837Y11647169D01*
X5058488Y11649125D01*
X5059825Y11650970D01*
X5060847Y11652705D01*
X5061556Y11654330D01*
X5061951Y11655844D01*
X5062032Y11657248D01*
X5061799Y11658542D01*
X5061253Y11659725D01*
X5060392Y11660797D01*
X5081174Y11640015D01*
D02*
G37*
G36*
X5653429Y11671572D02*
X5655441Y11670094D01*
X5657674Y11668749D01*
X5660129Y11667539D01*
X5662806Y11666462D01*
X5665704Y11665519D01*
X5668823Y11664710D01*
X5672165Y11664035D01*
X5679512Y11663086D01*
X5647072Y11636410D01*
X5647353Y11639953D01*
X5647414Y11643315D01*
X5647254Y11646494D01*
X5646874Y11649491D01*
X5646273Y11652305D01*
X5645452Y11654938D01*
X5644410Y11657388D01*
X5643149Y11659657D01*
X5641666Y11661743D01*
X5639964Y11663647D01*
X5651639Y11673184D01*
X5653429Y11671572D01*
D02*
G37*
G36*
X5606747Y11659725D02*
X5606201Y11658542D01*
X5605968Y11657248D01*
X5606049Y11655844D01*
X5606444Y11654330D01*
X5607153Y11652705D01*
X5608175Y11650970D01*
X5609512Y11649125D01*
X5611163Y11647169D01*
X5613127Y11645103D01*
X5602520Y11634496D01*
X5600454Y11636461D01*
X5598498Y11638111D01*
X5596653Y11639448D01*
X5594918Y11640471D01*
X5593293Y11641179D01*
X5591779Y11641574D01*
X5590375Y11641655D01*
X5589082Y11641423D01*
X5587899Y11640876D01*
X5586826Y11640015D01*
X5607608Y11660797D01*
X5606747Y11659725D01*
D02*
G37*
G36*
X5116529Y11604660D02*
X5115457Y11605521D01*
X5114273Y11606067D01*
X5112980Y11606300D01*
X5111576Y11606219D01*
X5110062Y11605824D01*
X5108437Y11605115D01*
X5106702Y11604093D01*
X5104857Y11602756D01*
X5102901Y11601105D01*
X5100835Y11599141D01*
X5090229Y11609748D01*
X5092193Y11611814D01*
X5093843Y11613770D01*
X5095180Y11615615D01*
X5096203Y11617350D01*
X5096912Y11618974D01*
X5097306Y11620489D01*
X5097388Y11621893D01*
X5097155Y11623186D01*
X5096608Y11624369D01*
X5095747Y11625442D01*
X5116529Y11604660D01*
D02*
G37*
G36*
X5571392Y11624369D02*
X5570845Y11623186D01*
X5570613Y11621893D01*
X5570694Y11620489D01*
X5571089Y11618975D01*
X5571797Y11617350D01*
X5572820Y11615615D01*
X5574157Y11613770D01*
X5575807Y11611814D01*
X5577772Y11609748D01*
X5567165Y11599141D01*
X5565099Y11601106D01*
X5563143Y11602756D01*
X5561298Y11604093D01*
X5559563Y11605115D01*
X5557938Y11605824D01*
X5556424Y11606219D01*
X5555020Y11606300D01*
X5553727Y11606067D01*
X5552543Y11605521D01*
X5551471Y11604660D01*
X5572253Y11625442D01*
X5571392Y11624369D01*
D02*
G37*
G36*
X4973275Y11603193D02*
X4973500Y11600643D01*
X4973875Y11598393D01*
X4974400Y11596443D01*
X4975075Y11594793D01*
X4975900Y11593443D01*
X4976875Y11592393D01*
X4978000Y11591643D01*
X4979275Y11591193D01*
X4980700Y11591043D01*
X4950700D01*
X4952125Y11591193D01*
X4953400Y11591643D01*
X4954525Y11592393D01*
X4955500Y11593443D01*
X4956325Y11594793D01*
X4957000Y11596443D01*
X4957525Y11598393D01*
X4957900Y11600643D01*
X4958125Y11603193D01*
X4958200Y11606043D01*
X4973200D01*
X4973275Y11603193D01*
D02*
G37*
G36*
X5029563Y11598855D02*
X5030104Y11591639D01*
X5030429Y11589625D01*
X5030827Y11587805D01*
X5031296Y11586181D01*
X5031838Y11584752D01*
X5032451Y11583518D01*
X5033138Y11582479D01*
X5010916Y11591043D01*
X5011602Y11591150D01*
X5012216Y11591468D01*
X5012758Y11591998D01*
X5013227Y11592740D01*
X5013624Y11593695D01*
X5013949Y11594862D01*
X5014202Y11596241D01*
X5014382Y11597832D01*
X5014491Y11599635D01*
X5014527Y11601650D01*
X5029527D01*
X5029563Y11598855D01*
D02*
G37*
G36*
X5248879Y11595376D02*
X5248296Y11594156D01*
X5248030Y11592830D01*
X5248083Y11591398D01*
X5248455Y11589860D01*
X5249144Y11588216D01*
X5250152Y11586466D01*
X5251477Y11584610D01*
X5253122Y11582648D01*
X5255084Y11580580D01*
X5244477Y11569973D01*
X5242409Y11571935D01*
X5240446Y11573579D01*
X5238590Y11574905D01*
X5236840Y11575913D01*
X5235196Y11576602D01*
X5233658Y11576974D01*
X5232227Y11577026D01*
X5230901Y11576761D01*
X5229681Y11576178D01*
X5228567Y11575276D01*
X5249780Y11596490D01*
X5248879Y11595376D01*
D02*
G37*
G36*
X5536037Y11589014D02*
X5535490Y11587831D01*
X5535257Y11586537D01*
X5535338Y11585133D01*
X5535733Y11583619D01*
X5536442Y11581995D01*
X5537465Y11580260D01*
X5538801Y11578414D01*
X5540452Y11576458D01*
X5542416Y11574392D01*
X5531810Y11563786D01*
X5529743Y11565750D01*
X5527788Y11567401D01*
X5525942Y11568737D01*
X5524207Y11569760D01*
X5522583Y11570469D01*
X5521068Y11570864D01*
X5519665Y11570945D01*
X5518371Y11570712D01*
X5517188Y11570165D01*
X5516115Y11569305D01*
X5536897Y11590087D01*
X5536037Y11589014D01*
D02*
G37*
G36*
X5312576Y11536000D02*
X5309938Y11538565D01*
X5304712Y11542885D01*
X5302125Y11544640D01*
X5299554Y11546125D01*
X5297000Y11547340D01*
X5294463Y11548285D01*
X5291943Y11548960D01*
X5289439Y11549365D01*
X5286953Y11549500D01*
Y11564500D01*
X5289439Y11564635D01*
X5291943Y11565040D01*
X5294463Y11565715D01*
X5297000Y11566660D01*
X5299554Y11567875D01*
X5302125Y11569360D01*
X5304712Y11571115D01*
X5307316Y11573140D01*
X5309938Y11575435D01*
X5312576Y11578000D01*
Y11536000D01*
D02*
G37*
G36*
X5494335Y11547374D02*
X5493060Y11545649D01*
X5491935Y11543774D01*
X5490960Y11541749D01*
X5490135Y11539574D01*
X5489460Y11537249D01*
X5488935Y11534774D01*
X5488560Y11532149D01*
X5488335Y11529374D01*
X5488260Y11526449D01*
X5473260D01*
X5473185Y11529374D01*
X5472960Y11532149D01*
X5472585Y11534774D01*
X5472060Y11537249D01*
X5471385Y11539574D01*
X5470560Y11541749D01*
X5469585Y11543774D01*
X5468460Y11545649D01*
X5467185Y11547374D01*
X5465760Y11548949D01*
X5495760D01*
X5494335Y11547374D01*
D02*
G37*
G36*
X5628950Y11541066D02*
X5630776Y11539565D01*
X5632598Y11538285D01*
X5634414Y11537226D01*
X5636225Y11536389D01*
X5638031Y11535774D01*
X5639831Y11535381D01*
X5641627Y11535209D01*
X5643417Y11535260D01*
X5645202Y11535531D01*
X5622727Y11514693D01*
X5623128Y11516435D01*
X5623301Y11518178D01*
X5623247Y11519923D01*
X5622966Y11521670D01*
X5622458Y11523418D01*
X5621723Y11525168D01*
X5620761Y11526919D01*
X5619571Y11528672D01*
X5618155Y11530427D01*
X5616512Y11532183D01*
X5627118Y11542790D01*
X5628950Y11541066D01*
D02*
G37*
G36*
X5625390Y11428808D02*
X5627446Y11427324D01*
X5629705Y11426020D01*
X5632168Y11424894D01*
X5634833Y11423947D01*
X5637700Y11423179D01*
X5640771Y11422591D01*
X5644045Y11422181D01*
X5647521Y11421950D01*
X5651200Y11421898D01*
X5621502Y11392200D01*
X5621450Y11395879D01*
X5620809Y11402629D01*
X5620221Y11405700D01*
X5619453Y11408567D01*
X5618506Y11411232D01*
X5617380Y11413695D01*
X5616076Y11415954D01*
X5614592Y11418010D01*
X5612929Y11419864D01*
X5623536Y11430471D01*
X5625390Y11428808D01*
D02*
G37*
G36*
X5077980Y11295935D02*
X5075230Y11293012D01*
X5072717Y11289979D01*
X5070441Y11286837D01*
X5068402Y11283586D01*
X5066599Y11280224D01*
X5065034Y11276754D01*
X5063706Y11273174D01*
X5062614Y11269484D01*
X5062220Y11267732D01*
X5064834Y11265119D01*
X5061591Y11264614D01*
X5061143Y11261777D01*
X5058860Y11264060D01*
X5050661Y11262255D01*
X5047841Y11261378D01*
X5045309Y11260437D01*
X5043066Y11259431D01*
X5041113Y11258361D01*
X5039448Y11257226D01*
X5038072Y11256028D01*
X5027466Y11266634D01*
X5028665Y11268010D01*
X5029799Y11269674D01*
X5030870Y11271628D01*
X5031875Y11273871D01*
X5032816Y11276402D01*
X5033694Y11279223D01*
X5035254Y11285731D01*
X5035535Y11287385D01*
X5033215Y11289704D01*
X5036004Y11290145D01*
X5036557Y11293395D01*
X5039171Y11290782D01*
X5040923Y11291176D01*
X5044612Y11292267D01*
X5048192Y11293596D01*
X5051663Y11295161D01*
X5055024Y11296963D01*
X5058276Y11299003D01*
X5061418Y11301279D01*
X5064451Y11303792D01*
X5067374Y11306542D01*
X5077980Y11295935D01*
D02*
G37*
G36*
X5359097Y11302496D02*
X5360551Y11279995D01*
X5361424Y11274496D01*
X5362490Y11269995D01*
X5363751Y11266496D01*
X5365205Y11263996D01*
X5366853Y11262496D01*
X5368695Y11261996D01*
X5299305D01*
X5301147Y11262496D01*
X5302795Y11263996D01*
X5304250Y11266496D01*
X5305510Y11269995D01*
X5306577Y11274496D01*
X5307449Y11279995D01*
X5308128Y11286496D01*
X5308903Y11302496D01*
X5309000Y11311995D01*
X5359000D01*
X5359097Y11302496D01*
D02*
G37*
G36*
X5625390Y11289108D02*
X5627446Y11287624D01*
X5629705Y11286320D01*
X5632168Y11285194D01*
X5634833Y11284247D01*
X5637700Y11283479D01*
X5640771Y11282891D01*
X5644045Y11282481D01*
X5647521Y11282250D01*
X5651200Y11282198D01*
X5621502Y11252500D01*
X5621450Y11256179D01*
X5620809Y11262929D01*
X5620221Y11266000D01*
X5619453Y11268867D01*
X5618506Y11271532D01*
X5617380Y11273995D01*
X5616076Y11276254D01*
X5614592Y11278310D01*
X5612929Y11280164D01*
X5623536Y11290771D01*
X5625390Y11289108D01*
D02*
G37*
G36*
X5312988Y11259096D02*
X5314480Y11258133D01*
X5316279Y11257215D01*
X5318387Y11256343D01*
X5320801Y11255516D01*
X5326554Y11253996D01*
X5329893Y11253304D01*
X5337492Y11252055D01*
X5309245Y11223809D01*
X5308643Y11227762D01*
X5306567Y11237776D01*
X5305785Y11240499D01*
X5304085Y11245021D01*
X5303167Y11246821D01*
X5302205Y11248313D01*
X5301197Y11249497D01*
X5311804Y11260103D01*
X5312988Y11259096D01*
D02*
G37*
G36*
X5536490Y11200208D02*
X5538546Y11198724D01*
X5540805Y11197420D01*
X5543268Y11196294D01*
X5545933Y11195347D01*
X5548800Y11194579D01*
X5551871Y11193991D01*
X5555145Y11193581D01*
X5558621Y11193350D01*
X5562300Y11193298D01*
X5532602Y11163600D01*
X5532550Y11167279D01*
X5531909Y11174029D01*
X5531321Y11177100D01*
X5530553Y11179967D01*
X5529606Y11182632D01*
X5528480Y11185095D01*
X5527176Y11187354D01*
X5525692Y11189410D01*
X5524029Y11191264D01*
X5534636Y11201871D01*
X5536490Y11200208D01*
D02*
G37*
G36*
X5443235Y11169761D02*
X5443640Y11167257D01*
X5444315Y11164737D01*
X5445260Y11162200D01*
X5446475Y11159646D01*
X5447960Y11157075D01*
X5449715Y11154488D01*
X5451740Y11151884D01*
X5454035Y11149262D01*
X5456600Y11146624D01*
X5414600D01*
X5417165Y11149262D01*
X5421485Y11154488D01*
X5423240Y11157075D01*
X5424725Y11159646D01*
X5425940Y11162200D01*
X5426885Y11164737D01*
X5427560Y11167257D01*
X5427965Y11169761D01*
X5428100Y11172247D01*
X5443100D01*
X5443235Y11169761D01*
D02*
G37*
G36*
X5464192Y11045050D02*
X5465691Y11040800D01*
X5468191Y11037050D01*
X5471691Y11033800D01*
X5476191Y11031050D01*
X5481691Y11028800D01*
X5488191Y11027050D01*
X5495691Y11025800D01*
X5504191Y11025050D01*
X5513691Y11024800D01*
Y10974800D01*
X5504191Y10974550D01*
X5495691Y10973800D01*
X5488191Y10972550D01*
X5481691Y10970800D01*
X5476191Y10968550D01*
X5471691Y10965800D01*
X5468191Y10962550D01*
X5465691Y10958800D01*
X5464191Y10954550D01*
X5463691Y10949800D01*
Y11049800D01*
X5464192Y11045050D01*
D02*
G37*
G36*
X4424905Y11018299D02*
X4421552Y11014161D01*
X4418569Y11008823D01*
X4415955Y11002284D01*
X4413710Y10994545D01*
X4411834Y10985605D01*
X4410328Y10975465D01*
X4408423Y10951584D01*
X4407995Y10922900D01*
X4318900Y11011995D01*
X4333842Y11012024D01*
X4371465Y11014328D01*
X4381605Y11015834D01*
X4390545Y11017710D01*
X4398284Y11019955D01*
X4404823Y11022569D01*
X4410161Y11025552D01*
X4414299Y11028905D01*
X4424905Y11018299D01*
D02*
G37*
G36*
X4357111Y10760414D02*
X4357429Y10755803D01*
X4357707Y10753849D01*
X4358065Y10752128D01*
X4358503Y10750642D01*
X4359020Y10749389D01*
X4359617Y10748371D01*
X4360293Y10747587D01*
X4361049Y10747036D01*
X4337472Y10755868D01*
X4338346Y10755757D01*
X4339128Y10755830D01*
X4339817Y10756088D01*
X4340415Y10756531D01*
X4340921Y10757159D01*
X4341335Y10757972D01*
X4341657Y10758969D01*
X4341887Y10760152D01*
X4342025Y10761519D01*
X4342071Y10763071D01*
X4357071D01*
X4357111Y10760414D01*
D02*
G37*
G36*
X5599047Y10683141D02*
X5601301Y10649189D01*
X5602005Y10646831D01*
X5602803Y10645417D01*
X5603695Y10644945D01*
X5544305D01*
X5545197Y10645417D01*
X5545996Y10646831D01*
X5546700Y10649189D01*
X5547310Y10652490D01*
X5547827Y10656734D01*
X5548578Y10668051D01*
X5549000Y10692100D01*
X5599000D01*
X5599047Y10683141D01*
D02*
G37*
G36*
X5412017Y10657290D02*
X5412245Y10654699D01*
X5412626Y10652413D01*
X5413160Y10650432D01*
X5413845Y10648755D01*
X5414684Y10647384D01*
X5415674Y10646317D01*
X5416817Y10645555D01*
X5418113Y10645098D01*
X5419560Y10644945D01*
X5394305D01*
X5394760Y10645098D01*
X5395168Y10645555D01*
X5395527Y10646317D01*
X5395838Y10647384D01*
X5396101Y10648755D01*
X5396317Y10650432D01*
X5396605Y10654699D01*
X5396700Y10660185D01*
X5411940D01*
X5412017Y10657290D01*
D02*
G37*
G36*
X5359316D02*
X5359545Y10654699D01*
X5359926Y10652413D01*
X5360459Y10650432D01*
X5361145Y10648755D01*
X5361983Y10647384D01*
X5362974Y10646317D01*
X5364117Y10645555D01*
X5365412Y10645098D01*
X5366860Y10644945D01*
X5344305D01*
X5344000Y10660185D01*
X5359240D01*
X5359316Y10657290D01*
D02*
G37*
G36*
X5269687D02*
X5270294Y10650432D01*
X5270658Y10648755D01*
X5271104Y10647384D01*
X5271630Y10646317D01*
X5272238Y10645555D01*
X5272926Y10645098D01*
X5273695Y10644945D01*
X5246786D01*
X5248234Y10645098D01*
X5249530Y10645555D01*
X5250673Y10646317D01*
X5251663Y10647384D01*
X5252501Y10648755D01*
X5253187Y10650432D01*
X5253721Y10652413D01*
X5254102Y10654699D01*
X5254330Y10657290D01*
X5254406Y10660185D01*
X5269646D01*
X5269687Y10657290D01*
D02*
G37*
G36*
X5119047Y10685445D02*
X5121301Y10649445D01*
X5122005Y10646945D01*
X5122803Y10645445D01*
X5123695Y10644945D01*
X5064305D01*
X5065197Y10645445D01*
X5065995Y10646945D01*
X5066700Y10649445D01*
X5067310Y10652945D01*
X5067827Y10657445D01*
X5068813Y10676945D01*
X5069000Y10694945D01*
X5119000D01*
X5119047Y10685445D01*
D02*
G37*
G36*
X5411396Y10530455D02*
X5410991Y10530155D01*
X5410634Y10529655D01*
X5410325Y10528955D01*
X5410063Y10528055D01*
X5409849Y10526955D01*
X5409682Y10525654D01*
X5409492Y10522454D01*
X5409468Y10520554D01*
X5394228D01*
X5394305Y10530555D01*
X5411848D01*
X5411396Y10530455D01*
D02*
G37*
G36*
X5324000Y10520554D02*
X5308760D01*
X5308736Y10522454D01*
X5308379Y10526955D01*
X5308165Y10528055D01*
X5307903Y10528955D01*
X5307594Y10529655D01*
X5307237Y10530155D01*
X5306832Y10530455D01*
X5306380Y10530555D01*
X5323695D01*
X5324000Y10520554D01*
D02*
G37*
G36*
X5522594Y10530405D02*
X5521609Y10529955D01*
X5520740Y10529205D01*
X5519986Y10528155D01*
X5519349Y10526805D01*
X5518827Y10525155D01*
X5518422Y10523205D01*
X5518132Y10520955D01*
X5517958Y10518405D01*
X5517900Y10515555D01*
X5502900D01*
X5502825Y10518405D01*
X5502600Y10520955D01*
X5502225Y10523205D01*
X5501700Y10525155D01*
X5501025Y10526805D01*
X5500200Y10528155D01*
X5499225Y10529205D01*
X5498100Y10529955D01*
X5496825Y10530405D01*
X5495400Y10530555D01*
X5523695D01*
X5522594Y10530405D01*
D02*
G37*
G36*
X5221575D02*
X5220300Y10529955D01*
X5219175Y10529205D01*
X5218200Y10528155D01*
X5217375Y10526805D01*
X5216700Y10525155D01*
X5216175Y10523205D01*
X5215800Y10520955D01*
X5215575Y10518405D01*
X5215500Y10515555D01*
X5200500D01*
X5200438Y10518405D01*
X5199943Y10523205D01*
X5199509Y10525155D01*
X5198952Y10526805D01*
X5198270Y10528155D01*
X5197465Y10529205D01*
X5196535Y10529955D01*
X5195482Y10530405D01*
X5194305Y10530555D01*
X5223000D01*
X5221575Y10530405D01*
D02*
G37*
G36*
X5215500Y10511571D02*
X5215632Y10509110D01*
X5216028Y10506616D01*
X5216689Y10504091D01*
X5217613Y10501533D01*
X5218801Y10498944D01*
X5220253Y10496322D01*
X5221969Y10493668D01*
X5223950Y10490981D01*
X5226194Y10488263D01*
X5228703Y10485512D01*
X5186726Y10486912D01*
X5189343Y10489437D01*
X5191685Y10491961D01*
X5193751Y10494482D01*
X5195542Y10497002D01*
X5197057Y10499521D01*
X5198296Y10502037D01*
X5199261Y10504552D01*
X5199949Y10507066D01*
X5200362Y10509577D01*
X5200500Y10512087D01*
X5215500Y10511571D01*
D02*
G37*
G36*
X5518039Y10509654D02*
X5518455Y10507140D01*
X5519149Y10504630D01*
X5520120Y10502124D01*
X5521369Y10499622D01*
X5522896Y10497125D01*
X5524700Y10494633D01*
X5526781Y10492144D01*
X5529141Y10489661D01*
X5531777Y10487181D01*
X5489823Y10485221D01*
X5492308Y10488016D01*
X5496492Y10493492D01*
X5498192Y10496173D01*
X5499631Y10498815D01*
X5500808Y10501418D01*
X5501723Y10503984D01*
X5502377Y10506511D01*
X5502769Y10508999D01*
X5502900Y10511449D01*
X5517900Y10512173D01*
X5518039Y10509654D01*
D02*
G37*
G36*
X4424905Y10510299D02*
X4421552Y10506161D01*
X4418569Y10500823D01*
X4415955Y10494284D01*
X4413710Y10486545D01*
X4411834Y10477605D01*
X4410328Y10467465D01*
X4408423Y10443584D01*
X4407995Y10414900D01*
X4318900Y10503995D01*
X4333842Y10504024D01*
X4371465Y10506328D01*
X4381605Y10507834D01*
X4390545Y10509710D01*
X4398284Y10511955D01*
X4404823Y10514569D01*
X4410161Y10517552D01*
X4414299Y10520905D01*
X4424905Y10510299D01*
D02*
G37*
%LPC*%
G36*
X5350700Y13258849D02*
X5295900D01*
Y13175307D01*
X5394440D01*
Y13215108D01*
X5391111Y13231847D01*
X5381629Y13246036D01*
X5367439Y13255518D01*
X5350700Y13258849D01*
D02*
G37*
G36*
X5270500D02*
X5215700D01*
X5198961Y13255518D01*
X5184771Y13246036D01*
X5175289Y13231847D01*
X5171960Y13215108D01*
Y13175307D01*
X5270500D01*
Y13258849D01*
D02*
G37*
G36*
X5448300Y13186504D02*
X5429619Y13178766D01*
X5414034Y13163181D01*
X5408426Y13149643D01*
X5394440D01*
Y13149907D01*
X5295900D01*
Y13066367D01*
X5350700D01*
X5367439Y13069696D01*
X5381629Y13079178D01*
X5391111Y13093369D01*
X5394440Y13110107D01*
Y13113957D01*
X5408426D01*
X5414034Y13100420D01*
X5429619Y13084834D01*
X5448300Y13077097D01*
Y13131799D01*
Y13186504D01*
D02*
G37*
G36*
X5473700D02*
Y13144501D01*
X5515704D01*
X5507966Y13163181D01*
X5492381Y13178766D01*
X5473700Y13186504D01*
D02*
G37*
G36*
X5478598Y13119099D02*
X5473700D01*
Y13114201D01*
X5478598Y13119099D01*
D02*
G37*
G36*
X5270500Y13149907D02*
X5171960D01*
Y13110107D01*
X5175289Y13093369D01*
X5184771Y13079178D01*
X5198961Y13069696D01*
X5215700Y13066367D01*
X5270500D01*
Y13149907D01*
D02*
G37*
%LPD*%
G36*
X5368193Y13145375D02*
X5368643Y13144099D01*
X5369393Y13142975D01*
X5370443Y13142000D01*
X5371793Y13141174D01*
X5373443Y13140500D01*
X5375393Y13139975D01*
X5377643Y13139600D01*
X5380193Y13139375D01*
X5383043Y13139301D01*
Y13124300D01*
X5380193Y13124225D01*
X5377643Y13124001D01*
X5375393Y13123625D01*
X5373443Y13123100D01*
X5371793Y13122424D01*
X5370443Y13121600D01*
X5369393Y13120625D01*
X5368643Y13119501D01*
X5368193Y13118225D01*
X5368043Y13116800D01*
Y13146800D01*
X5368193Y13145375D01*
D02*
G37*
G36*
X5439576Y13110800D02*
X5436938Y13113365D01*
X5431712Y13117685D01*
X5429125Y13119440D01*
X5426554Y13120924D01*
X5424000Y13122141D01*
X5421463Y13123085D01*
X5418943Y13123759D01*
X5416439Y13124165D01*
X5413953Y13124300D01*
Y13139301D01*
X5416439Y13139435D01*
X5418943Y13139841D01*
X5421463Y13140515D01*
X5424000Y13141460D01*
X5426554Y13142674D01*
X5429125Y13144160D01*
X5431712Y13145915D01*
X5434316Y13147940D01*
X5436938Y13150235D01*
X5439576Y13152800D01*
Y13110800D01*
D02*
G37*
%LPC*%
G36*
X5562698Y13560112D02*
Y13512695D01*
X5610114D01*
X5601203Y13534210D01*
X5584212Y13551199D01*
X5562698Y13560112D01*
D02*
G37*
G36*
X5992410Y13071700D02*
X5934710D01*
Y12996500D01*
X5992410D01*
Y13071700D01*
D02*
G37*
%LPD*%
G36*
X4921950Y11088463D02*
X4923888Y11086843D01*
X4925848Y11085413D01*
X4927829Y11084174D01*
X4929832Y11083126D01*
X4931857Y11082268D01*
X4933903Y11081601D01*
X4935970Y11081125D01*
X4938059Y11080839D01*
X4940170Y11080743D01*
X4918957Y11059530D01*
X4918861Y11061641D01*
X4918575Y11063730D01*
X4918099Y11065797D01*
X4917432Y11067843D01*
X4916574Y11069868D01*
X4915526Y11071871D01*
X4914287Y11073852D01*
X4912857Y11075812D01*
X4911237Y11077750D01*
X4909427Y11079667D01*
X4920033Y11090273D01*
X4921950Y11088463D01*
D02*
G37*
G36*
X5829079Y10958901D02*
X5826961Y10958798D01*
X5824849Y10958489D01*
X5822742Y10957974D01*
X5820642Y10957253D01*
X5818548Y10956325D01*
X5816460Y10955192D01*
X5814379Y10953852D01*
X5812303Y10952307D01*
X5810233Y10950555D01*
X5808169Y10948598D01*
X5797562Y10959204D01*
X5799520Y10961268D01*
X5801272Y10963338D01*
X5802817Y10965414D01*
X5804157Y10967495D01*
X5805290Y10969584D01*
X5806217Y10971678D01*
X5806939Y10973778D01*
X5807454Y10975884D01*
X5807763Y10977996D01*
X5807866Y10980114D01*
X5829079Y10958901D01*
D02*
G37*
G36*
X5751162Y10928183D02*
X5752065Y10927601D01*
X5753179Y10927087D01*
X5754504Y10926642D01*
X5756039Y10926266D01*
X5757785Y10925958D01*
X5759742Y10925718D01*
X5764286Y10925444D01*
X5766875Y10925410D01*
Y10910410D01*
X5765199Y10910361D01*
X5763685Y10910214D01*
X5762335Y10909969D01*
X5761149Y10909625D01*
X5760126Y10909184D01*
X5759266Y10908644D01*
X5758569Y10908006D01*
X5758036Y10907271D01*
X5757666Y10906437D01*
X5757459Y10905505D01*
X5750469Y10928833D01*
X5751162Y10928183D01*
D02*
G37*
G36*
X5204309Y10995900D02*
X5204159Y10997325D01*
X5203709Y10998600D01*
X5202959Y10999725D01*
X5201909Y11000700D01*
X5200559Y11001525D01*
X5198909Y11002200D01*
X5196959Y11002725D01*
X5194709Y11003100D01*
X5192159Y11003325D01*
X5189309Y11003400D01*
Y11018400D01*
X5192159Y11018475D01*
X5194709Y11018700D01*
X5196959Y11019075D01*
X5198909Y11019600D01*
X5200559Y11020275D01*
X5201909Y11021100D01*
X5202959Y11022075D01*
X5203709Y11023200D01*
X5204159Y11024475D01*
X5204309Y11025900D01*
Y10995900D01*
D02*
G37*
G36*
X5088793Y11024475D02*
X5089243Y11023200D01*
X5089993Y11022075D01*
X5091043Y11021100D01*
X5092393Y11020275D01*
X5094043Y11019600D01*
X5095993Y11019075D01*
X5098243Y11018700D01*
X5100793Y11018475D01*
X5103643Y11018400D01*
Y11003400D01*
X5100793Y11003325D01*
X5098243Y11003100D01*
X5095993Y11002725D01*
X5094043Y11002200D01*
X5092393Y11001525D01*
X5091043Y11000700D01*
X5089993Y10999725D01*
X5089243Y10998600D01*
X5088793Y10997325D01*
X5088643Y10995900D01*
Y11025900D01*
X5088793Y11024475D01*
D02*
G37*
G36*
X4645274Y10141916D02*
X4643999Y10141466D01*
X4642874Y10140716D01*
X4641899Y10139666D01*
X4641074Y10138316D01*
X4640399Y10136666D01*
X4639874Y10134716D01*
X4639499Y10132466D01*
X4639274Y10129916D01*
X4639199Y10127066D01*
X4624199D01*
X4624124Y10129916D01*
X4623899Y10132466D01*
X4623524Y10134716D01*
X4622999Y10136666D01*
X4622324Y10138316D01*
X4621499Y10139666D01*
X4620524Y10140716D01*
X4619399Y10141466D01*
X4618124Y10141916D01*
X4616699Y10142066D01*
X4646699D01*
X4645274Y10141916D01*
D02*
G37*
G36*
X4639334Y10085970D02*
X4639739Y10083467D01*
X4640414Y10080947D01*
X4641359Y10078410D01*
X4642574Y10075856D01*
X4644059Y10073285D01*
X4645814Y10070697D01*
X4647839Y10068093D01*
X4650134Y10065472D01*
X4652699Y10062834D01*
X4610699D01*
X4613264Y10065472D01*
X4617584Y10070697D01*
X4619339Y10073285D01*
X4620824Y10075856D01*
X4622039Y10078410D01*
X4622984Y10080947D01*
X4623659Y10083467D01*
X4624064Y10085970D01*
X4624199Y10088457D01*
X4639199D01*
X4639334Y10085970D01*
D02*
G37*
G36*
X6059679Y10141916D02*
X6058404Y10141466D01*
X6057279Y10140716D01*
X6056304Y10139666D01*
X6055479Y10138316D01*
X6054804Y10136666D01*
X6054279Y10134716D01*
X6053904Y10132466D01*
X6053679Y10129916D01*
X6053604Y10127066D01*
X6038604D01*
X6038529Y10129916D01*
X6038304Y10132466D01*
X6037929Y10134716D01*
X6037404Y10136666D01*
X6036729Y10138316D01*
X6035904Y10139666D01*
X6034929Y10140716D01*
X6033804Y10141466D01*
X6032529Y10141916D01*
X6031104Y10142066D01*
X6061104D01*
X6059679Y10141916D01*
D02*
G37*
G36*
X6053739Y10083397D02*
X6054144Y10080893D01*
X6054819Y10078373D01*
X6055764Y10075836D01*
X6056979Y10073282D01*
X6058464Y10070711D01*
X6060219Y10068124D01*
X6062244Y10065520D01*
X6064539Y10062898D01*
X6067104Y10060260D01*
X6025104D01*
X6027669Y10062898D01*
X6031989Y10068124D01*
X6033744Y10070711D01*
X6035229Y10073282D01*
X6036444Y10075836D01*
X6037389Y10078373D01*
X6038064Y10080893D01*
X6038469Y10083397D01*
X6038604Y10085883D01*
X6053604D01*
X6053739Y10083397D01*
D02*
G37*
D10*
X5922010Y13084401D02*
D03*
Y13469414D02*
D03*
X5761990D02*
D03*
Y13084401D02*
D03*
D11*
X5012200Y13387308D02*
D03*
X4792200D02*
D03*
Y13217307D02*
D03*
X5012200D02*
D03*
D12*
X5714000Y14112500D02*
D03*
X4954000D02*
D03*
D13*
X5499100Y12946707D02*
D03*
X5016500D02*
D03*
X4737100Y11506200D02*
D03*
X4787900Y12946707D02*
D03*
X5270500D02*
D03*
X4965700Y11506200D02*
D03*
D14*
X5474573Y12549171D02*
D03*
X5193427Y11631629D02*
D03*
X5052006Y11773051D02*
D03*
X5651349Y12372394D02*
D03*
X5686705Y12337039D02*
D03*
X5615994Y12407749D02*
D03*
X5757415Y12266328D02*
D03*
X5580639Y12443105D02*
D03*
X5509928Y12513815D02*
D03*
X4839874Y11985183D02*
D03*
X4875229Y11949827D02*
D03*
X4910585Y11914472D02*
D03*
X4945940Y11879116D02*
D03*
X4981295Y11843761D02*
D03*
X5016651Y11808406D02*
D03*
X5087361Y11737695D02*
D03*
X5122716Y11702340D02*
D03*
X5158072Y11666985D02*
D03*
X5228783Y11596274D02*
D03*
X5828126Y12195617D02*
D03*
X5792771Y12230973D02*
D03*
X5722060Y12301684D02*
D03*
X5545284Y12478460D02*
D03*
X5439217Y12584526D02*
D03*
D15*
X5384000Y13725000D02*
D03*
X5584000D02*
D03*
X5484000D02*
D03*
X5284000D02*
D03*
X5184000D02*
D03*
X5084000D02*
D03*
D16*
X5792771Y11949827D02*
D03*
X4875229Y12230973D02*
D03*
X5509928Y11666985D02*
D03*
X5580639Y11737695D02*
D03*
X5439217Y11596274D02*
D03*
X5615994Y11773051D02*
D03*
X5474573Y11631629D02*
D03*
X5651349Y11808406D02*
D03*
X5545284Y11702340D02*
D03*
X5757415Y11914472D02*
D03*
X5228783Y12584526D02*
D03*
X5193427Y12549171D02*
D03*
X5158072Y12513815D02*
D03*
X5122716Y12478460D02*
D03*
X5087361Y12443105D02*
D03*
X5052006Y12407749D02*
D03*
X5016651Y12372394D02*
D03*
X4981295Y12337039D02*
D03*
X4945940Y12301684D02*
D03*
X4910585Y12266328D02*
D03*
X4839874Y12195617D02*
D03*
X5686705Y11843761D02*
D03*
X5722060Y11879116D02*
D03*
X5828126Y11985183D02*
D03*
D17*
X6045200Y10382000D02*
D03*
X4641625D02*
D03*
X5892800Y11008835D02*
D03*
Y10818835D02*
D03*
X4641625Y10192000D02*
D03*
X6045200D02*
D03*
D18*
X5654000Y10587750D02*
D03*
X5014000D02*
D03*
X5574000D02*
D03*
X5094000D02*
D03*
D19*
X5283200Y13162607D02*
D03*
X5003800Y11010900D02*
D03*
Y11239500D02*
D03*
X5283200Y13391206D02*
D03*
D20*
X5239004Y10999800D02*
D03*
X5334000Y11199800D02*
D03*
X5428996Y10999800D02*
D03*
D21*
X5509000Y10587750D02*
D03*
X5459000D02*
D03*
X5409000D02*
D03*
X5359000D02*
D03*
X5159000D02*
D03*
X5209000D02*
D03*
X5259000D02*
D03*
X5309000D02*
D03*
D22*
X5892800Y10818835D02*
X5901481D01*
X5943600Y10668000D02*
Y10776716D01*
X5901481Y10818835D02*
X5943600Y10776716D01*
X5820690Y12994235D02*
Y13014136D01*
X5854700Y12953999D02*
Y12960225D01*
X5820690Y12994235D02*
X5854700Y12960225D01*
X5828126Y11985183D02*
X5832208Y11989264D01*
X5871490Y12030990D02*
Y12056390D01*
X5880100Y12065000D01*
X5832208Y11989264D02*
Y11991708D01*
X5871490Y12030990D01*
X5792771Y11949478D02*
Y11949827D01*
Y11949478D02*
X5892800Y11849449D01*
Y11849100D02*
Y11849449D01*
X5158072Y11666984D02*
Y11666985D01*
X5093653Y11577817D02*
Y11602566D01*
X5092700Y11576864D02*
X5093653Y11577817D01*
Y11602566D02*
X5158072Y11666984D01*
X5092700Y11557000D02*
Y11576864D01*
Y11557000D02*
X5214830Y11434871D01*
X5287633D01*
X5766875Y10917910D02*
X5857800Y11008835D01*
X5727700Y10909300D02*
X5736310Y10917910D01*
X5857800Y11008835D02*
X5892800D01*
X5736310Y10917910D02*
X5766875D01*
X5435600Y11125200D02*
Y11286904D01*
X5287633Y11434871D02*
X5435600Y11286904D01*
X5686705Y12347645D02*
X5697311D01*
X5778500Y12428834D02*
Y12484100D01*
X5697311Y12347645D02*
X5778500Y12428834D01*
X5686705Y12337039D02*
Y12347645D01*
X5956300Y12598400D02*
Y12712700D01*
X5867400Y12509500D02*
X5956300Y12598400D01*
X5829300Y12839700D02*
X5956300Y12712700D01*
X5702300Y12839700D02*
X5829300D01*
X5613400Y12928600D02*
X5702300Y12839700D01*
X5613400Y12928600D02*
Y13157201D01*
X5615994Y12407749D02*
X5832045Y12623800D01*
X5842000D01*
X5734234Y12643034D02*
X5829300Y12738100D01*
X5734234Y12596700D02*
Y12643034D01*
X5867400Y12447023D02*
Y12509500D01*
X5722060Y12301684D02*
X5867400Y12447023D01*
X5757415Y12275772D02*
X5943600Y12461957D01*
Y12471400D01*
X5757415Y12266328D02*
Y12275772D01*
X5761990Y13072835D02*
Y13469414D01*
Y13072835D02*
X5820690Y13014136D01*
X5651500Y12975725D02*
Y13310001D01*
Y12975725D02*
X5720725Y12906500D01*
X5826000D01*
X6007100Y12725400D01*
Y12445302D02*
Y12725400D01*
X4556699Y10678099D02*
X4610100Y10731500D01*
Y11649575D01*
X5016500Y12839700D02*
Y13213007D01*
X4889500Y12776200D02*
X4953000D01*
X5016500Y12839700D01*
X5897126Y13313927D02*
X5922010Y13338811D01*
Y13469414D01*
Y13084401D02*
Y13338811D01*
X5698500Y14097000D02*
X5714000Y14112500D01*
X5575300Y14097000D02*
X5698500D01*
X5854177Y13284200D02*
X5883903Y13313927D01*
X5897126D01*
X5842000Y13284200D02*
X5854177D01*
X5473700Y12550044D02*
X5538753Y12615097D01*
X5461000Y13131799D02*
X5499100Y13093700D01*
Y12946707D02*
Y13093700D01*
X5384000Y13883228D02*
X5385242Y13884470D01*
X5384000Y13725000D02*
Y13883228D01*
X5503944Y12732695D02*
Y12941862D01*
Y12682456D02*
Y12732695D01*
X5499100Y12946707D02*
X5503944Y12941862D01*
X5538753Y12615097D02*
Y12647647D01*
X5503944Y12682456D02*
X5538753Y12647647D01*
X6045200Y10382000D02*
X6075200Y10352000D01*
X5314007Y13131799D02*
X5461000D01*
X5283200Y13162607D02*
X5314007Y13131799D01*
X5321300Y11849100D02*
X5325390Y11845010D01*
X5128055Y11849100D02*
X5321300D01*
X4969500Y14097000D02*
X5080000D01*
X4954000Y14112500D02*
X4969500Y14097000D01*
X4792200Y13387308D02*
X4802200D01*
X5012200Y13217307D02*
X5016500Y13213007D01*
X4959700Y13269807D02*
X5012200Y13217307D01*
X4919700Y13269807D02*
X4959700D01*
X4802200Y13387308D02*
X4919700Y13269807D01*
X5193427Y11631629D02*
X5325390Y11763592D01*
Y11845010D01*
X5052006Y11773051D02*
X5128055Y11849100D01*
X4988800Y11010900D02*
X5003800D01*
X5227904D02*
X5239004Y10999800D01*
X5003800Y11010900D02*
X5227904D01*
X4818643Y11152189D02*
X4847512D01*
X4810033Y11160799D02*
X4818643Y11152189D01*
X4847512D02*
X4988800Y11010900D01*
X4902000Y10476250D02*
Y10531250D01*
X5032769Y11261331D02*
X5072677Y11301239D01*
X5306500Y11254800D02*
X5334000Y11227300D01*
X5113171Y12569322D02*
Y12681413D01*
X5092700Y12701885D02*
X5113171Y12681413D01*
Y12569322D02*
X5158072Y12524422D01*
X5092700Y12701885D02*
Y12712700D01*
X5185380Y12729180D02*
Y12758341D01*
X5192923Y12765884D01*
X5148527Y12692327D02*
X5185380Y12729180D01*
X5148527Y12604678D02*
Y12692327D01*
Y12604678D02*
X5193427Y12559778D01*
Y12549171D02*
Y12559778D01*
X5158072Y12513815D02*
Y12524422D01*
X5054600Y12546577D02*
Y12611100D01*
Y12546577D02*
X5122716Y12478460D01*
X4991100Y12545247D02*
X5087361Y12448986D01*
X4991100Y12545247D02*
Y12712700D01*
X5130800Y12852400D01*
X5087361Y12443105D02*
Y12448986D01*
X4749800Y12293600D02*
X4812601D01*
X4875229Y12230973D02*
X4875229D01*
X4812601Y12293600D02*
X4875229Y12230973D01*
X4420649Y11964449D02*
X4749800Y12293600D01*
X4318000Y11938000D02*
X4344449Y11964449D01*
X4420649D01*
X4470400Y12344400D02*
X4832513D01*
X4910585Y12266328D01*
X4318000Y12192000D02*
X4470400Y12344400D01*
X4318000Y12700000D02*
X4618334D01*
X4981295Y12337039D01*
X4318000Y12446000D02*
X4801623D01*
X4945940Y12301684D01*
X4318000Y11684000D02*
X4829617Y12195617D01*
X4839874D01*
X4556699Y10449500D02*
Y10678099D01*
X4494507Y10781007D02*
X4533900Y10820400D01*
X4494507Y10590507D02*
Y10781007D01*
X4533900Y10820400D02*
Y11645900D01*
X4318000Y10668000D02*
X4349571Y10699571D01*
Y10763071D01*
X4469507Y10883007D01*
Y11645007D01*
X4610100Y11785600D01*
X4852423D01*
X4945940Y11879116D01*
X4584700Y11823700D02*
X4819813D01*
X4910585Y11914472D01*
X4444507Y11683507D02*
X4584700Y11823700D01*
X4641919Y11753919D02*
X4891453D01*
X4533900Y11645900D02*
X4641919Y11753919D01*
X4444507Y11048507D02*
Y11683507D01*
X4759951Y12028556D02*
X4803325Y11985183D01*
X4839874D01*
X4711700Y11887200D02*
X4812601D01*
X4875229Y11949827D02*
X4875229D01*
X4812601Y11887200D02*
X4875229Y11949827D01*
X4610100Y11649575D02*
X4689444Y11728919D01*
X4318000Y10160000D02*
Y10204649D01*
X4357148Y10243797D02*
Y10249950D01*
X4556699Y10449500D01*
X4318000Y10204649D02*
X4357148Y10243797D01*
X4318000Y10922000D02*
X4444507Y11048507D01*
X4318000Y10414000D02*
X4494507Y10590507D01*
X4891453Y11753919D02*
X4981295Y11843761D01*
X4689444Y11728919D02*
X4937164D01*
X5016651Y11808406D01*
X5480760Y11245140D02*
X5562600Y11163300D01*
X5480760Y11245140D02*
Y11554731D01*
X5439217Y11596274D02*
X5480760Y11554731D01*
X5563000Y11340700D02*
Y11543202D01*
X5474573Y11631629D02*
X5563000Y11543202D01*
Y11340700D02*
X5651500Y11252200D01*
X5509928Y11666985D02*
X5588000Y11588913D01*
Y11455400D02*
Y11588913D01*
Y11455400D02*
X5651500Y11391900D01*
X5621815Y11537487D02*
Y11625809D01*
X5651500Y11506200D02*
Y11507801D01*
X5621815Y11537487D02*
X5651500Y11507801D01*
X5545284Y11702340D02*
X5621815Y11625809D01*
X5580639Y11733578D02*
X5676900Y11637317D01*
X5580639Y11733578D02*
Y11737695D01*
X5676900Y11633200D02*
Y11637317D01*
X5448300Y11874500D02*
X5514545D01*
X5615994Y11773051D01*
X5545397Y11914358D02*
Y11942644D01*
Y11914358D02*
X5651349Y11808406D01*
X5792771Y12230973D02*
X6007100Y12445302D01*
X6070600Y12438091D02*
Y13453073D01*
X5926591Y13597083D02*
X6070600Y13453073D01*
X5828126Y12195617D02*
X6070600Y12438091D01*
X5580639Y12443105D02*
X5734234Y12596700D01*
X5513022Y12513815D02*
X5623007Y12623800D01*
X5626100D01*
X5509928Y12513815D02*
X5513022D01*
X5588000Y12204700D02*
Y12298438D01*
X5651349Y12361788D02*
Y12372394D01*
X5588000Y12298438D02*
X5651349Y12361788D01*
X5575300Y13733701D02*
X5584000Y13725000D01*
X5575300Y13733701D02*
Y13881100D01*
X5484000Y13677499D02*
Y13725000D01*
Y13677499D02*
X5564418Y13597083D01*
X5926591D01*
X5084000Y13677499D02*
X5197900Y13563600D01*
X5280305D01*
X5566079Y13277826D01*
Y13204521D02*
X5613400Y13157201D01*
X5566079Y13204521D02*
Y13277826D01*
X5284000Y13677499D02*
X5651500Y13310001D01*
X5284000Y13677499D02*
Y13725000D01*
X5084000Y13677499D02*
Y13725000D01*
X5041900Y12166600D02*
Y12178777D01*
X5061551Y12198428D01*
Y12302745D01*
X5058193Y12306103D02*
X5061551Y12302745D01*
X5058193Y12306103D02*
Y12330852D01*
X5016651Y12372394D02*
X5058193Y12330852D01*
X4965700Y11515788D02*
Y11616034D01*
X4699000Y11671300D02*
X4800600D01*
X4894373Y11577527D01*
X4903961D02*
X4965700Y11515788D01*
X4894373Y11577527D02*
X4903961D01*
X4965700Y11506200D02*
Y11515788D01*
X5022027Y11562527D02*
Y11601650D01*
X4965700Y11506200D02*
X5022027Y11562527D01*
Y11601650D02*
X5122716Y11702340D01*
X4965700Y11616034D02*
X5087361Y11737695D01*
X5228783Y11596274D02*
X5268057Y11557000D01*
X5334000D01*
X5228783Y11596274D02*
X5228783D01*
X5712515Y11984121D02*
X5715873Y11980763D01*
X5712515Y11984121D02*
Y11998619D01*
X5715873Y11956014D02*
Y11980763D01*
X5712515Y11998619D02*
X6159896Y12446000D01*
X5715873Y11956014D02*
X5757415Y11914472D01*
X6159896Y12446000D02*
X6350000D01*
X5398176Y12383176D02*
X5450000D01*
X5545284Y12478460D01*
X5397500Y12382500D02*
X5398176Y12383176D01*
X5181600Y13727400D02*
Y13868401D01*
Y13727400D02*
X5184000Y13725000D01*
X5341827Y12875381D02*
X5359400Y12857806D01*
X5332239Y12875381D02*
X5341827D01*
X5270500Y12937119D02*
Y12946707D01*
Y12626244D02*
Y12946707D01*
Y12937119D02*
X5332239Y12875381D01*
X5359400Y12700000D02*
Y12857806D01*
Y12700000D02*
X5368010Y12691390D01*
Y12655734D02*
Y12691390D01*
Y12655734D02*
X5439217Y12584527D01*
Y12584526D02*
Y12584527D01*
X5228783D02*
X5270500Y12626244D01*
X5228783Y12584526D02*
Y12584527D01*
X4787900Y13213007D02*
X4792200Y13217307D01*
X4787900Y12946707D02*
Y13213007D01*
Y12671855D02*
Y12946707D01*
Y12671855D02*
X5052006Y12407749D01*
X5130800Y12852400D02*
Y13278708D01*
X5022200Y13387308D02*
X5130800Y13278708D01*
X5016100Y13391206D02*
X5283200D01*
X5012200Y13387308D02*
X5022200D01*
X5510400Y10466200D02*
X5511800Y10464800D01*
X5510400Y10466200D02*
Y10586350D01*
X5509000Y10587750D02*
X5510400Y10586350D01*
X5207000Y10464800D02*
X5208000Y10465800D01*
Y10586750D01*
X5209000Y10587750D01*
X6046104Y10038836D02*
Y10191096D01*
X6045200Y10192000D02*
X6046104Y10191096D01*
X4631699Y10041409D02*
Y10182074D01*
X4641625Y10192000D01*
D23*
X4994927Y10778473D02*
X5012611D01*
X5094000Y10697084D01*
X4991100Y10782300D02*
X4994927Y10778473D01*
X5428996Y10999800D02*
X5538800D01*
X5041707Y11264900D02*
X5061307Y11284500D01*
Y11332807D02*
X5112900Y11384400D01*
X5029200Y11264900D02*
X5041707D01*
X5061307Y11284500D02*
Y11332807D01*
X5003800Y11239500D02*
X5029200Y11264900D01*
X5334000Y11227300D02*
Y11328400D01*
X5112900Y11384400D02*
X5278000D01*
X5334000Y11328400D01*
Y11199800D02*
Y11227300D01*
X5094000Y10587750D02*
Y10697084D01*
X5624187Y10742287D02*
X5687687D01*
X5574000Y10692100D02*
X5624187Y10742287D01*
X5574000Y10587750D02*
Y10692100D01*
D24*
X5376380Y10737193D02*
X5743314Y11104127D01*
X5376380Y10647630D02*
Y10737193D01*
X5743314Y11104127D02*
Y11779698D01*
X5404320Y10725620D02*
X5771254Y11092554D01*
Y11819486D01*
X5404320Y10587750D02*
Y10725620D01*
X5259000Y10587750D02*
X5262026Y10590776D01*
Y10684472D02*
X5270954Y10693400D01*
X5342693D01*
X5262026Y10590776D02*
Y10684472D01*
X5351620Y10637630D02*
X5356541Y10632709D01*
X5351620Y10637630D02*
Y10684472D01*
X5342693Y10693400D02*
X5351620Y10684472D01*
X5356541Y10632709D02*
X5359000D01*
X5401848Y10520554D02*
Y10580597D01*
X5392920Y10511626D02*
X5401848Y10520554D01*
X5325308Y10511626D02*
X5392920D01*
X5401848Y10580597D02*
X5409000Y10587750D01*
X5316380Y10520554D02*
X5325308Y10511626D01*
X5316380Y10520554D02*
Y10580370D01*
X5309000Y10587750D02*
X5316380Y10580370D01*
X5359000Y10587750D02*
Y10632709D01*
X5722060Y11868680D02*
X5771254Y11819486D01*
X5722060Y11868680D02*
Y11879116D01*
X5697142Y11825870D02*
X5743314Y11779698D01*
X5697142Y11825870D02*
Y11843761D01*
X5359000Y10630250D02*
X5376380Y10647630D01*
X5686705Y11843761D02*
X5697142D01*
D25*
X4318000Y13970000D02*
X4533900D01*
D26*
X6350000Y10160000D02*
D03*
X4318000Y13716000D02*
D03*
Y10160000D02*
D03*
Y10414000D02*
D03*
Y10668000D02*
D03*
Y10922000D02*
D03*
Y11176000D02*
D03*
Y11430000D02*
D03*
Y11684000D02*
D03*
Y11938000D02*
D03*
Y12192000D02*
D03*
Y12446000D02*
D03*
Y12700000D02*
D03*
Y12953999D02*
D03*
Y13208000D02*
D03*
Y13462000D02*
D03*
X6350000Y10414000D02*
D03*
Y10668000D02*
D03*
Y10922000D02*
D03*
Y11176000D02*
D03*
Y11430000D02*
D03*
Y11684000D02*
D03*
Y11938000D02*
D03*
Y12192000D02*
D03*
Y12446000D02*
D03*
Y12700000D02*
D03*
Y12953999D02*
D03*
Y13208000D02*
D03*
Y13462000D02*
D03*
Y13716000D02*
D03*
D27*
X5766000Y10531250D02*
D03*
X4902000D02*
D03*
D28*
X5766000Y10113250D02*
D03*
X4902000D02*
D03*
D29*
X4318000Y13970000D02*
D03*
X6350000D02*
D03*
D30*
X5623000Y10481250D02*
D03*
X5045000D02*
D03*
D31*
X5943600Y10668000D02*
D03*
X5854700Y12953999D02*
D03*
X5880100Y12065000D02*
D03*
X5892800Y11849100D02*
D03*
X5435600Y11125200D02*
D03*
X5727700Y10909300D02*
D03*
X5778500Y12484100D02*
D03*
X5842000Y12623800D02*
D03*
X5829300Y12738100D02*
D03*
X5943600Y12471400D02*
D03*
X6096000Y10731500D02*
D03*
X4889500Y12776200D02*
D03*
X5842000Y13284200D02*
D03*
X5575300Y14097000D02*
D03*
X5503944Y12732695D02*
D03*
X5461000Y13131799D02*
D03*
X5385242Y13884470D02*
D03*
X5080000Y14097000D02*
D03*
X5334000Y11988800D02*
D03*
X5321300Y11849100D02*
D03*
X4535536Y13709901D02*
D03*
X4810033Y11160799D02*
D03*
X5511800Y10464800D02*
D03*
X5092700Y12712700D02*
D03*
X5192923Y12765884D02*
D03*
X5054600Y12611100D02*
D03*
X4759951Y12028556D02*
D03*
X4711700Y11887200D02*
D03*
X4533900Y13970000D02*
D03*
X4622800Y10541000D02*
D03*
X6083300Y10883900D02*
D03*
X5562600Y11163300D02*
D03*
X5651500Y11252200D02*
D03*
Y11391900D02*
D03*
Y11506200D02*
D03*
X5676900Y11633200D02*
D03*
X5448300Y11874500D02*
D03*
X5545397Y11942644D02*
D03*
X5626100Y12623800D02*
D03*
X5588000Y12204700D02*
D03*
X5575300Y13881100D02*
D03*
X5041900Y12166600D02*
D03*
X4699000Y11671300D02*
D03*
X5334000Y11557000D02*
D03*
X5397500Y12382500D02*
D03*
X5181600Y13868401D02*
D03*
X5359400Y12700000D02*
D03*
X5207000Y10464800D02*
D03*
X6046104Y10038836D02*
D03*
X4631699Y10041409D02*
D03*
D32*
X4991100Y10782300D02*
D03*
X5999998Y13799995D02*
D03*
X6149998Y13499995D02*
D03*
Y12299996D02*
D03*
X5549998Y13499995D02*
D03*
X4799999Y13799995D02*
D03*
X4649999Y13499995D02*
D03*
X4499999Y13199995D02*
D03*
Y12599996D02*
D03*
X5538800Y10999800D02*
D03*
X5112900Y11384400D02*
D03*
X5687687Y10742287D02*
D03*
%TF.MD5,9f4153075b4f6a6c3e0509fa7f3023d6*%
M02*
