%TF.GenerationSoftware,Altium Limited,Altium Designer,26.5.1 (12)*%
G04 Layer_Physical_Order=2*
G04 Layer_Color=32768*
G04 Board_Origin=0|0*
%FSLAX45Y45*%
%MOMM*%
%TF.SameCoordinates,62A7B766-ACB9-45BE-ACEC-DECC99EEDB6B*%
%TF.FilePolarity,Negative*%
%TF.FileFunction,Copper,L2,Inr,Plane*%
%TF.Part,Single*%
G01*
G75*
%TA.AperFunction,NonConductor*%
%ADD33C,1.01600*%
%TA.AperFunction,ComponentPad*%
G04:AMPARAMS|DCode=34|XSize=2.624mm|YSize=2.624mm|CornerRadius=0mm|HoleSize=0mm|Usage=FLASHONLY|Rotation=0.000|XOffset=0mm|YOffset=0mm|HoleType=Round|Shape=Relief|Width=0.254mm|Gap=0.254mm|Entries=4|*
%AMTHD34*
7,0,0,2.62402,2.11602,0.25400,45*
%
%ADD34THD34*%
%AMTHOVALD35*
21,1,1.10000,2.12400,0,0,90.0*
1,1,2.12400,0.00000,-0.55000*
1,1,2.12400,0.00000,0.55000*
21,0,1.10000,1.61600,0,0,90.0*
1,0,1.61600,0.00000,-0.55000*
1,0,1.61600,0.00000,0.55000*
4,0,4,0.08980,-0.46020,0.84075,-1.21114,0.66114,-1.39075,-0.08980,-0.63980,0.08980,-0.46020,0.0*
4,0,4,0.08980,0.63980,-0.66114,1.39075,-0.84075,1.21114,-0.08980,0.46020,0.08980,0.63980,0.0*
4,0,4,0.08980,-0.63980,-0.66114,-1.39075,-0.84075,-1.21114,-0.08980,-0.46020,0.08980,-0.63980,0.0*
4,0,4,0.08980,0.46020,0.84075,1.21114,0.66114,1.39075,-0.08980,0.63980,0.08980,0.46020,0.0*
%
%ADD35THOVALD35*%

%AMTHOVALD36*
21,1,0.80000,2.12400,0,0,90.0*
1,1,2.12400,0.00000,-0.40000*
1,1,2.12400,0.00000,0.40000*
21,0,0.80000,1.61600,0,0,90.0*
1,0,1.61600,0.00000,-0.40000*
1,0,1.61600,0.00000,0.40000*
4,0,4,0.08980,-0.31020,0.84075,-1.06114,0.66114,-1.24075,-0.08980,-0.48980,0.08980,-0.31020,0.0*
4,0,4,0.08980,0.48980,-0.66114,1.24075,-0.84075,1.06114,-0.08980,0.31020,0.08980,0.48980,0.0*
4,0,4,0.08980,-0.48980,-0.66114,-1.24075,-0.84075,-1.06114,-0.08980,-0.31020,0.08980,-0.48980,0.0*
4,0,4,0.08980,0.31020,0.84075,1.06114,0.66114,1.24075,-0.08980,0.48980,0.08980,0.31020,0.0*
%
%ADD36THOVALD36*%

%ADD37C,2.11602*%
%ADD38C,1.66600*%
%TA.AperFunction,ViaPad*%
%ADD39C,1.31600*%
%ADD40C,1.41600*%
G04:AMPARAMS|DCode=41|XSize=1.824mm|YSize=1.824mm|CornerRadius=0mm|HoleSize=0mm|Usage=FLASHONLY|Rotation=0.000|XOffset=0mm|YOffset=0mm|HoleType=Round|Shape=Relief|Width=0.254mm|Gap=0.254mm|Entries=4|*
%AMTHD41*
7,0,0,1.82400,1.31600,0.25400,45*
%
%ADD41THD41*%
G04:AMPARAMS|DCode=42|XSize=1.924mm|YSize=1.924mm|CornerRadius=0mm|HoleSize=0mm|Usage=FLASHONLY|Rotation=0.000|XOffset=0mm|YOffset=0mm|HoleType=Round|Shape=Relief|Width=0.254mm|Gap=0.254mm|Entries=4|*
%AMTHD42*
7,0,0,1.92400,1.41600,0.25400,45*
%
%ADD42THD42*%
D33*
X4152900Y9906000D02*
X6515100D01*
Y14224001D01*
X4152900D02*
X6515100D01*
X4152900Y9906000D02*
Y14224001D01*
D34*
X6350000Y10160000D02*
D03*
X4318000Y13716000D02*
D03*
D35*
X5766000Y10531250D02*
D03*
X4902000D02*
D03*
D36*
X5766000Y10113250D02*
D03*
X4902000D02*
D03*
D37*
X4318000Y10160000D02*
D03*
Y10414000D02*
D03*
Y10668000D02*
D03*
Y10922000D02*
D03*
Y11176000D02*
D03*
Y11430000D02*
D03*
Y11684000D02*
D03*
Y11938000D02*
D03*
Y12192000D02*
D03*
Y12446000D02*
D03*
Y12700000D02*
D03*
Y12953999D02*
D03*
Y13208000D02*
D03*
Y13462000D02*
D03*
Y13970000D02*
D03*
X6350000Y10414000D02*
D03*
Y10668000D02*
D03*
Y10922000D02*
D03*
Y11176000D02*
D03*
Y11430000D02*
D03*
Y11684000D02*
D03*
Y11938000D02*
D03*
Y12192000D02*
D03*
Y12446000D02*
D03*
Y12700000D02*
D03*
Y12953999D02*
D03*
Y13208000D02*
D03*
Y13462000D02*
D03*
Y13716000D02*
D03*
Y13970000D02*
D03*
D38*
X5623000Y10481250D02*
D03*
X5045000D02*
D03*
D39*
X5943600Y10668000D02*
D03*
X5854700Y12953999D02*
D03*
X5880100Y12065000D02*
D03*
X5435600Y11125200D02*
D03*
X5727700Y10909300D02*
D03*
X5778500Y12484100D02*
D03*
X5842000Y12623800D02*
D03*
X5829300Y12738100D02*
D03*
X5943600Y12471400D02*
D03*
X5511800Y10464800D02*
D03*
X5092700Y12712700D02*
D03*
X5192923Y12765884D02*
D03*
X5054600Y12611100D02*
D03*
X4759951Y12028556D02*
D03*
X4711700Y11887200D02*
D03*
X4533900Y13970000D02*
D03*
X4622800Y10541000D02*
D03*
X6083300Y10883900D02*
D03*
X5562600Y11163300D02*
D03*
X5651500Y11252200D02*
D03*
Y11391900D02*
D03*
Y11506200D02*
D03*
X5676900Y11633200D02*
D03*
X5448300Y11874500D02*
D03*
X5545397Y11942644D02*
D03*
X5626100Y12623800D02*
D03*
X5588000Y12204700D02*
D03*
X5575300Y13881100D02*
D03*
X5041900Y12166600D02*
D03*
X4699000Y11671300D02*
D03*
X5334000Y11557000D02*
D03*
X5397500Y12382500D02*
D03*
X5181600Y13868401D02*
D03*
X5359400Y12700000D02*
D03*
X5207000Y10464800D02*
D03*
X6046104Y10038836D02*
D03*
X4631699Y10041409D02*
D03*
D40*
X4991100Y10782300D02*
D03*
X5538800Y10999800D02*
D03*
X5112900Y11384400D02*
D03*
X5687687Y10742287D02*
D03*
D41*
X5892800Y11849100D02*
D03*
X6096000Y10731500D02*
D03*
X4889500Y12776200D02*
D03*
X5842000Y13284200D02*
D03*
X5575300Y14097000D02*
D03*
X5503944Y12732695D02*
D03*
X5461000Y13131799D02*
D03*
X5385242Y13884470D02*
D03*
X5080000Y14097000D02*
D03*
X5334000Y11988800D02*
D03*
X5321300Y11849100D02*
D03*
X4535536Y13709901D02*
D03*
X4810033Y11160799D02*
D03*
D42*
X5999998Y13799995D02*
D03*
X6149998Y13499995D02*
D03*
Y12299996D02*
D03*
X5549998Y13499995D02*
D03*
X4799999Y13799995D02*
D03*
X4649999Y13499995D02*
D03*
X4499999Y13199995D02*
D03*
Y12599996D02*
D03*
%TF.MD5,5fcd6562c83e8cfc7298888849e04baf*%
M02*
