%TF.GenerationSoftware,Altium Limited,Altium Designer,26.5.1 (12)*%
G04 Layer_Physical_Order=4*
G04 Layer_Color=16711680*
G04 Board_Origin=0|0*
%FSLAX45Y45*%
%MOMM*%
%TF.SameCoordinates,62A7B766-ACB9-45BE-ACEC-DECC99EEDB6B*%
%TF.FilePolarity,Positive*%
%TF.FileFunction,Copper,L4,Bot,Signal*%
%TF.Part,Single*%
G01*
G75*
%TA.AperFunction,SMDPad,CuDef*%
G04:AMPARAMS|DCode=13|XSize=1.4mm|YSize=1.7mm|CornerRadius=0.175mm|HoleSize=0mm|Usage=FLASHONLY|Rotation=180.000|XOffset=0mm|YOffset=0mm|HoleType=Round|Shape=RoundedRectangle|*
%AMROUNDEDRECTD13*
21,1,1.40000,1.35000,0,0,180.0*
21,1,1.05000,1.70000,0,0,180.0*
1,1,0.35000,-0.52500,0.67500*
1,1,0.35000,0.52500,0.67500*
1,1,0.35000,0.52500,-0.67500*
1,1,0.35000,-0.52500,-0.67500*
%
%ADD13ROUNDEDRECTD13*%
G04:AMPARAMS|DCode=17|XSize=1mm|YSize=1.7mm|CornerRadius=0.125mm|HoleSize=0mm|Usage=FLASHONLY|Rotation=270.000|XOffset=0mm|YOffset=0mm|HoleType=Round|Shape=RoundedRectangle|*
%AMROUNDEDRECTD17*
21,1,1.00000,1.45000,0,0,270.0*
21,1,0.75000,1.70000,0,0,270.0*
1,1,0.25000,-0.72500,-0.37500*
1,1,0.25000,-0.72500,0.37500*
1,1,0.25000,0.72500,0.37500*
1,1,0.25000,0.72500,-0.37500*
%
%ADD17ROUNDEDRECTD17*%
G04:AMPARAMS|DCode=19|XSize=1.4mm|YSize=1.7mm|CornerRadius=0.175mm|HoleSize=0mm|Usage=FLASHONLY|Rotation=90.000|XOffset=0mm|YOffset=0mm|HoleType=Round|Shape=RoundedRectangle|*
%AMROUNDEDRECTD19*
21,1,1.40000,1.35000,0,0,90.0*
21,1,1.05000,1.70000,0,0,90.0*
1,1,0.35000,0.67500,0.52500*
1,1,0.35000,0.67500,-0.52500*
1,1,0.35000,-0.67500,-0.52500*
1,1,0.35000,-0.67500,0.52500*
%
%ADD19ROUNDEDRECTD19*%
%TA.AperFunction,Conductor*%
%ADD22C,0.15000*%
%ADD23C,0.50000*%
%ADD25C,0.30000*%
%TA.AperFunction,ComponentPad*%
%ADD26C,1.80000*%
%ADD27O,1.00000X2.10000*%
%ADD28O,1.00000X1.80000*%
%ADD29R,1.80000X1.80000*%
%ADD30C,0.65000*%
%TA.AperFunction,ViaPad*%
%ADD31C,0.60000*%
%ADD32C,0.70000*%
%TA.AperFunction,SMDPad,CuDef*%
%ADD45R,1.20000X1.45000*%
G04:AMPARAMS|DCode=46|XSize=2.20415mm|YSize=3.25981mm|CornerRadius=0.48491mm|HoleSize=0mm|Usage=FLASHONLY|Rotation=90.000|XOffset=0mm|YOffset=0mm|HoleType=Round|Shape=RoundedRectangle|*
%AMROUNDEDRECTD46*
21,1,2.20415,2.28998,0,0,90.0*
21,1,1.23432,3.25981,0,0,90.0*
1,1,0.96983,1.14499,0.61716*
1,1,0.96983,1.14499,-0.61716*
1,1,0.96983,-1.14499,-0.61716*
1,1,0.96983,-1.14499,0.61716*
%
%ADD46ROUNDEDRECTD46*%
G04:AMPARAMS|DCode=47|XSize=2.20415mm|YSize=0.95981mm|CornerRadius=0.4799mm|HoleSize=0mm|Usage=FLASHONLY|Rotation=90.000|XOffset=0mm|YOffset=0mm|HoleType=Round|Shape=RoundedRectangle|*
%AMROUNDEDRECTD47*
21,1,2.20415,0.00000,0,0,90.0*
21,1,1.24435,0.95981,0,0,90.0*
1,1,0.95981,0.00000,0.62217*
1,1,0.95981,0.00000,-0.62217*
1,1,0.95981,0.00000,-0.62217*
1,1,0.95981,0.00000,0.62217*
%
%ADD47ROUNDEDRECTD47*%
%ADD48R,0.95981X2.20415*%
%TA.AperFunction,Conductor*%
%ADD49C,0.40000*%
G36*
X6515100Y9926391D02*
X4152900D01*
Y14203609D01*
X6515100D01*
Y9926391D01*
D02*
G37*
%LPC*%
G36*
X5588000Y14151704D02*
Y14109700D01*
X5630004D01*
X5622266Y14128381D01*
X5606681Y14143967D01*
X5588000Y14151704D01*
D02*
G37*
G36*
X5562600D02*
X5543919Y14143967D01*
X5528334Y14128381D01*
X5520596Y14109700D01*
X5562600D01*
Y14151704D01*
D02*
G37*
G36*
X5092700D02*
Y14109700D01*
X5134704D01*
X5126966Y14128381D01*
X5111381Y14143967D01*
X5092700Y14151704D01*
D02*
G37*
G36*
X5067300D02*
X5048619Y14143967D01*
X5033034Y14128381D01*
X5025296Y14109700D01*
X5067300D01*
Y14151704D01*
D02*
G37*
G36*
X5630004Y14084300D02*
X5588000D01*
Y14042296D01*
X5606681Y14050034D01*
X5622266Y14065619D01*
X5630004Y14084300D01*
D02*
G37*
G36*
X5562600D02*
X5520596D01*
X5528334Y14065619D01*
X5543919Y14050034D01*
X5562600Y14042296D01*
Y14084300D01*
D02*
G37*
G36*
X5134704D02*
X5092700D01*
Y14042296D01*
X5111381Y14050034D01*
X5126966Y14065619D01*
X5134704Y14084300D01*
D02*
G37*
G36*
X5067300D02*
X5025296D01*
X5033034Y14065619D01*
X5048619Y14050034D01*
X5067300Y14042296D01*
Y14084300D01*
D02*
G37*
G36*
X4541857Y14010001D02*
X4525943D01*
X4511242Y14003909D01*
X4499990Y13992657D01*
X4493900Y13977957D01*
Y13962044D01*
X4499990Y13947342D01*
X4511242Y13936090D01*
X4525943Y13930000D01*
X4541857D01*
X4556558Y13936090D01*
X4567810Y13947342D01*
X4573900Y13962044D01*
Y13977957D01*
X4567810Y13992657D01*
X4556558Y14003909D01*
X4541857Y14010001D01*
D02*
G37*
G36*
X5397942Y13939174D02*
Y13897169D01*
X5439946D01*
X5432208Y13915852D01*
X5416623Y13931436D01*
X5397942Y13939174D01*
D02*
G37*
G36*
X5372542D02*
X5353861Y13931436D01*
X5338276Y13915852D01*
X5330538Y13897169D01*
X5372542D01*
Y13939174D01*
D02*
G37*
G36*
X4418000Y14070000D02*
X4218000D01*
Y13870000D01*
X4418000D01*
Y14070000D01*
D02*
G37*
G36*
X5583257Y13921100D02*
X5567343D01*
X5552642Y13915010D01*
X5541390Y13903758D01*
X5535300Y13889056D01*
Y13873143D01*
X5541390Y13858443D01*
X5552642Y13847189D01*
X5567343Y13841100D01*
X5583257D01*
X5597958Y13847189D01*
X5609210Y13858443D01*
X5615300Y13873143D01*
Y13889056D01*
X5609210Y13903758D01*
X5597958Y13915010D01*
X5583257Y13921100D01*
D02*
G37*
G36*
X5439946Y13871770D02*
X5397942D01*
Y13829765D01*
X5416623Y13837505D01*
X5432208Y13853088D01*
X5439946Y13871770D01*
D02*
G37*
G36*
X5372542D02*
X5330538D01*
X5338276Y13853088D01*
X5353861Y13837505D01*
X5372542Y13829765D01*
Y13871770D01*
D02*
G37*
G36*
X6012698Y13860112D02*
Y13812695D01*
X6060114D01*
X6051203Y13834210D01*
X6034212Y13851199D01*
X6012698Y13860112D01*
D02*
G37*
G36*
X5987298D02*
X5965784Y13851199D01*
X5948794Y13834210D01*
X5939882Y13812695D01*
X5987298D01*
Y13860112D01*
D02*
G37*
G36*
X4812699D02*
Y13812695D01*
X4860114D01*
X4851203Y13834210D01*
X4834212Y13851199D01*
X4812699Y13860112D01*
D02*
G37*
G36*
X4787299D02*
X4765785Y13851199D01*
X4748794Y13834210D01*
X4739883Y13812695D01*
X4787299D01*
Y13860112D01*
D02*
G37*
G36*
X6060114Y13787296D02*
X6012698D01*
Y13739880D01*
X6034212Y13748792D01*
X6051203Y13765782D01*
X6060114Y13787296D01*
D02*
G37*
G36*
X5987298D02*
X5939882D01*
X5948794Y13765782D01*
X5965784Y13748792D01*
X5987298Y13739880D01*
Y13787296D01*
D02*
G37*
G36*
X4860114D02*
X4812699D01*
Y13739880D01*
X4834212Y13748792D01*
X4851203Y13765782D01*
X4860114Y13787296D01*
D02*
G37*
G36*
X4787299D02*
X4739883D01*
X4748794Y13765782D01*
X4765785Y13748792D01*
X4787299Y13739880D01*
Y13787296D01*
D02*
G37*
G36*
X4305300Y13831400D02*
X4302807D01*
X4273457Y13823535D01*
X4247143Y13808344D01*
X4225657Y13786858D01*
X4210465Y13760542D01*
X4202600Y13731194D01*
Y13728700D01*
X4305300D01*
Y13831400D01*
D02*
G37*
G36*
X4548236Y13764606D02*
Y13722601D01*
X4590240D01*
X4582502Y13741283D01*
X4566918Y13756866D01*
X4548236Y13764606D01*
D02*
G37*
G36*
X4590240Y13697202D02*
X4548236D01*
Y13655197D01*
X4566918Y13662935D01*
X4582502Y13678520D01*
X4590240Y13697202D01*
D02*
G37*
G36*
X4333193Y13831400D02*
X4330700D01*
Y13716000D01*
Y13600600D01*
X4333193D01*
X4362543Y13608466D01*
X4388857Y13623657D01*
X4410343Y13645143D01*
X4425535Y13671457D01*
X4427051Y13677112D01*
X4431051Y13679752D01*
X4438008Y13683659D01*
X4444477Y13686606D01*
X4450428Y13688628D01*
X4455839Y13689781D01*
X4461546Y13690205D01*
X4462149Y13690511D01*
X4483604D01*
X4488570Y13678520D01*
X4504155Y13662935D01*
X4522836Y13655197D01*
Y13709901D01*
Y13764606D01*
X4504155Y13756866D01*
X4488778Y13741490D01*
X4462149D01*
X4461545Y13741794D01*
X4455839Y13742220D01*
X4450429Y13743373D01*
X4444475Y13745395D01*
X4438008Y13748341D01*
X4431051Y13752249D01*
X4427051Y13754887D01*
X4425535Y13760542D01*
X4410343Y13786858D01*
X4388857Y13808344D01*
X4362543Y13823535D01*
X4333193Y13831400D01*
D02*
G37*
G36*
X4305300Y13703300D02*
X4202600D01*
Y13700807D01*
X4210465Y13671457D01*
X4225657Y13645143D01*
X4247143Y13623657D01*
X4273457Y13608466D01*
X4302807Y13600600D01*
X4305300D01*
Y13703300D01*
D02*
G37*
G36*
X6137298Y13560112D02*
X6115784Y13551199D01*
X6098793Y13534210D01*
X6089882Y13512695D01*
X6137298D01*
Y13560112D01*
D02*
G37*
G36*
X5562698D02*
Y13512695D01*
X5610114D01*
X5601203Y13534210D01*
X5584212Y13551199D01*
X5562698Y13560112D01*
D02*
G37*
G36*
X5537298D02*
X5515784Y13551199D01*
X5498794Y13534210D01*
X5489882Y13512695D01*
X5537298D01*
Y13560112D01*
D02*
G37*
G36*
X4662699D02*
Y13512695D01*
X4710115D01*
X4701203Y13534210D01*
X4684212Y13551199D01*
X4662699Y13560112D01*
D02*
G37*
G36*
X4637299D02*
X4615785Y13551199D01*
X4598794Y13534210D01*
X4589883Y13512695D01*
X4637299D01*
Y13560112D01*
D02*
G37*
G36*
X5610114Y13487296D02*
X5562698D01*
Y13439880D01*
X5584212Y13448792D01*
X5601203Y13465782D01*
X5610114Y13487296D01*
D02*
G37*
G36*
X5537298D02*
X5489882D01*
X5498794Y13465782D01*
X5515784Y13448792D01*
X5537298Y13439880D01*
Y13487296D01*
D02*
G37*
G36*
X4710115D02*
X4662699D01*
Y13439880D01*
X4684212Y13448792D01*
X4701203Y13465782D01*
X4710115Y13487296D01*
D02*
G37*
G36*
X4637299D02*
X4589883D01*
X4598794Y13465782D01*
X4615785Y13448792D01*
X4637299Y13439880D01*
Y13487296D01*
D02*
G37*
G36*
X5854700Y13338904D02*
Y13296899D01*
X5896704D01*
X5888966Y13315581D01*
X5873381Y13331166D01*
X5854700Y13338904D01*
D02*
G37*
G36*
X5829300D02*
X5810619Y13331166D01*
X5795034Y13315581D01*
X5787296Y13296899D01*
X5829300D01*
Y13338904D01*
D02*
G37*
G36*
X5896704Y13271500D02*
X5854700D01*
Y13229495D01*
X5873381Y13237234D01*
X5888966Y13252818D01*
X5896704Y13271500D01*
D02*
G37*
G36*
X5829300D02*
X5787296D01*
X5795034Y13252818D01*
X5810619Y13237234D01*
X5829300Y13229495D01*
Y13271500D01*
D02*
G37*
G36*
X4487299Y13187296D02*
X4439883D01*
X4448794Y13165782D01*
X4465785Y13148792D01*
X4487299Y13139880D01*
Y13187296D01*
D02*
G37*
G36*
X5448300Y13119099D02*
X5434876D01*
X5436072Y13115109D01*
X5435888Y13115219D01*
X5435492Y13115318D01*
X5434884Y13115405D01*
X5433032Y13115546D01*
X5426782Y13115685D01*
X5424690Y13115691D01*
Y13119099D01*
X5395367D01*
X5338437Y13062170D01*
X5323000Y13065240D01*
X5283200D01*
Y12966701D01*
X5366740D01*
Y13021500D01*
X5363670Y13036937D01*
X5420593Y13093860D01*
X5429619Y13084834D01*
X5448300Y13077097D01*
Y13119099D01*
D02*
G37*
G36*
X5257800Y13065240D02*
X5218000D01*
X5201261Y13061911D01*
X5187071Y13052429D01*
X5177589Y13038239D01*
X5174260Y13021500D01*
Y12966701D01*
X5257800D01*
Y13065240D01*
D02*
G37*
G36*
X5366740Y12941299D02*
X5283200D01*
Y12842760D01*
X5323000D01*
X5339739Y12846089D01*
X5353929Y12855571D01*
X5363411Y12869762D01*
X5366740Y12886501D01*
Y12941299D01*
D02*
G37*
G36*
X5257800D02*
X5174260D01*
Y12886501D01*
X5177589Y12869762D01*
X5187071Y12855571D01*
X5201261Y12846089D01*
X5218000Y12842760D01*
X5257800D01*
Y12941299D01*
D02*
G37*
G36*
X4331165Y13562000D02*
X4304835D01*
X4279402Y13555185D01*
X4256599Y13542020D01*
X4237980Y13523401D01*
X4224815Y13500598D01*
X4218000Y13475165D01*
Y13448836D01*
X4224815Y13423402D01*
X4237980Y13400600D01*
X4256599Y13381979D01*
X4279402Y13368816D01*
X4304835Y13362000D01*
X4316844D01*
X4318738Y13361182D01*
X4347072Y13360760D01*
X4370239Y13358913D01*
X4379696Y13357507D01*
X4387922Y13355782D01*
X4394759Y13353798D01*
X4400154Y13351640D01*
X4404068Y13349454D01*
X4407484Y13346684D01*
X4408333Y13346434D01*
X4485132Y13269635D01*
X4482500Y13258124D01*
X4465785Y13251201D01*
X4448794Y13234210D01*
X4439883Y13212695D01*
X4499999D01*
Y13199995D01*
X4512699D01*
Y13139880D01*
X4534212Y13148792D01*
X4551203Y13165782D01*
X4558127Y13182497D01*
X4569638Y13185129D01*
X4920703Y12834064D01*
X4915038Y12825586D01*
X4902200Y12830904D01*
Y12776200D01*
X4889500D01*
Y12763500D01*
X4834796D01*
X4842534Y12744819D01*
X4847571Y12739782D01*
X4843744Y12730543D01*
X4820691D01*
X4433566Y13117667D01*
X4433315Y13118517D01*
X4430547Y13121931D01*
X4428360Y13125845D01*
X4426202Y13131242D01*
X4424219Y13138078D01*
X4422493Y13146304D01*
X4421103Y13155663D01*
X4418848Y13192497D01*
X4418819Y13207121D01*
X4418000Y13209090D01*
Y13221165D01*
X4411185Y13246597D01*
X4398020Y13269402D01*
X4379401Y13288020D01*
X4356598Y13301186D01*
X4331165Y13308000D01*
X4304835D01*
X4279402Y13301186D01*
X4256599Y13288020D01*
X4237980Y13269402D01*
X4224815Y13246597D01*
X4218000Y13221165D01*
Y13194835D01*
X4224815Y13169402D01*
X4237980Y13146599D01*
X4256599Y13127980D01*
X4279402Y13114815D01*
X4304835Y13108000D01*
X4316844D01*
X4318738Y13107182D01*
X4347072Y13106760D01*
X4370239Y13104912D01*
X4379696Y13103506D01*
X4387922Y13101781D01*
X4394759Y13099799D01*
X4400154Y13097641D01*
X4404068Y13095454D01*
X4407484Y13092685D01*
X4408333Y13092435D01*
X4800683Y12700083D01*
X4806472Y12696215D01*
X4813300Y12694857D01*
X5044095D01*
X5045066Y12694392D01*
X5046979Y12694288D01*
X5048371Y12694063D01*
X5049868Y12693662D01*
X5051476Y12693063D01*
X5053214Y12692236D01*
X5055072Y12691163D01*
X5056911Y12689916D01*
X5061405Y12686200D01*
X5063731Y12683939D01*
X5065660Y12683172D01*
X5070042Y12678790D01*
X5084743Y12672700D01*
X5100657D01*
X5115358Y12678790D01*
X5126610Y12690042D01*
X5132700Y12704743D01*
Y12720657D01*
X5126610Y12735358D01*
X5116911Y12745057D01*
X5118524Y12752400D01*
X5119977Y12755057D01*
X5142091D01*
X5142307Y12754898D01*
X5143356Y12755054D01*
X5144312Y12754593D01*
X5146293Y12754481D01*
X5147549Y12754259D01*
X5148740Y12753895D01*
X5149917Y12753374D01*
X5151123Y12752660D01*
X5152382Y12751712D01*
X5153702Y12750489D01*
X5155070Y12748962D01*
X5156475Y12747105D01*
X5158087Y12744607D01*
X5158582Y12744265D01*
X5159013Y12743225D01*
X5170265Y12731973D01*
X5184966Y12725884D01*
X5200879D01*
X5215581Y12731973D01*
X5226833Y12743225D01*
X5232923Y12757927D01*
Y12773840D01*
X5226833Y12788542D01*
X5215581Y12799794D01*
X5200879Y12805882D01*
X5184966D01*
X5172739Y12800819D01*
X5171537Y12800653D01*
X5165067Y12796866D01*
X5162453Y12795512D01*
X5157205Y12793194D01*
X5155120Y12792454D01*
X5153141Y12791881D01*
X5151397Y12791501D01*
X5149913Y12791297D01*
X5148144Y12791211D01*
X5147152Y12790743D01*
X5014491D01*
X4433566Y13371667D01*
X4433315Y13372516D01*
X4430547Y13375932D01*
X4428360Y13379845D01*
X4426202Y13385242D01*
X4424219Y13392078D01*
X4422493Y13400304D01*
X4421103Y13409663D01*
X4418848Y13446498D01*
X4418819Y13461121D01*
X4418000Y13463089D01*
Y13475165D01*
X4411185Y13500598D01*
X4398020Y13523401D01*
X4379401Y13542020D01*
X4356598Y13555185D01*
X4331165Y13562000D01*
D02*
G37*
G36*
X4876800Y12830904D02*
X4858119Y12823166D01*
X4842534Y12807581D01*
X4834796Y12788900D01*
X4876800D01*
Y12830904D01*
D02*
G37*
G36*
X5516644Y12787399D02*
Y12745395D01*
X5558648D01*
X5550910Y12764076D01*
X5535326Y12779661D01*
X5516644Y12787399D01*
D02*
G37*
G36*
X5491244D02*
X5472563Y12779661D01*
X5456978Y12764076D01*
X5449240Y12745395D01*
X5491244D01*
Y12787399D01*
D02*
G37*
G36*
X5558648Y12719995D02*
X5516644D01*
Y12677991D01*
X5535326Y12685729D01*
X5550910Y12701313D01*
X5558648Y12719995D01*
D02*
G37*
G36*
X5491244D02*
X5449240D01*
X5456978Y12701313D01*
X5472563Y12685729D01*
X5491244Y12677991D01*
Y12719995D01*
D02*
G37*
G36*
X5551600Y13049539D02*
X5446600D01*
X5435870Y13047404D01*
X5426774Y13041325D01*
X5420696Y13032230D01*
X5418561Y13021500D01*
Y12891109D01*
X5418444Y12890858D01*
X5418370Y12889238D01*
X5418218Y12888126D01*
X5417959Y12887001D01*
X5417585Y12885854D01*
X5417080Y12884660D01*
X5416429Y12883417D01*
X5415614Y12882114D01*
X5414623Y12880756D01*
X5413443Y12879344D01*
X5411858Y12877666D01*
X5411443Y12876576D01*
X5346783Y12811917D01*
X5342915Y12806128D01*
X5341557Y12799300D01*
Y12748605D01*
X5341092Y12747634D01*
X5340988Y12745721D01*
X5340763Y12744329D01*
X5340362Y12742832D01*
X5339763Y12741224D01*
X5338936Y12739486D01*
X5337863Y12737628D01*
X5336616Y12735789D01*
X5332900Y12731295D01*
X5330639Y12728969D01*
X5329872Y12727040D01*
X5325490Y12722658D01*
X5319400Y12707957D01*
Y12692043D01*
X5325490Y12677342D01*
X5336742Y12666090D01*
X5351443Y12660000D01*
X5367357D01*
X5382058Y12666090D01*
X5393310Y12677342D01*
X5399400Y12692043D01*
Y12707957D01*
X5393310Y12722658D01*
X5388928Y12727040D01*
X5388161Y12728969D01*
X5385791Y12731407D01*
X5383892Y12733575D01*
X5382275Y12735656D01*
X5380937Y12737627D01*
X5379864Y12739486D01*
X5379038Y12741223D01*
X5378438Y12742832D01*
X5378037Y12744329D01*
X5377812Y12745722D01*
X5377708Y12747634D01*
X5377243Y12748605D01*
Y12791909D01*
X5436676Y12851343D01*
X5437766Y12851758D01*
X5439442Y12853342D01*
X5440857Y12854524D01*
X5442214Y12855515D01*
X5443517Y12856329D01*
X5444761Y12856979D01*
X5445953Y12857484D01*
X5447101Y12857858D01*
X5448223Y12858118D01*
X5449338Y12858270D01*
X5450958Y12858344D01*
X5451209Y12858461D01*
X5551600D01*
X5562330Y12860596D01*
X5571426Y12866673D01*
X5577504Y12875771D01*
X5579639Y12886501D01*
Y13021500D01*
X5577504Y13032230D01*
X5571426Y13041325D01*
X5562330Y13047404D01*
X5551600Y13049539D01*
D02*
G37*
G36*
X4512699Y12660112D02*
Y12612696D01*
X4560115D01*
X4551203Y12634210D01*
X4534212Y12651201D01*
X4512699Y12660112D01*
D02*
G37*
G36*
X4487299D02*
X4465785Y12651201D01*
X4448794Y12634210D01*
X4439883Y12612696D01*
X4487299D01*
Y12660112D01*
D02*
G37*
G36*
X6450000Y14070000D02*
X6250000D01*
Y13903127D01*
X6249494Y13902058D01*
X6249415Y13900471D01*
X6249254Y13899396D01*
X6248970Y13898259D01*
X6248547Y13897052D01*
X6247960Y13895747D01*
X6247194Y13894354D01*
X6246229Y13892871D01*
X6245057Y13891307D01*
X6243662Y13889667D01*
X6241851Y13887759D01*
X6241429Y13886662D01*
X6108783Y13754018D01*
X6104915Y13748228D01*
X6103557Y13741400D01*
Y13646819D01*
X5938488Y13481749D01*
X5934620Y13475961D01*
X5933262Y13469133D01*
Y12956197D01*
X5647852Y12670786D01*
X5646837Y12670428D01*
X5645411Y12669149D01*
X5644265Y12668323D01*
X5642928Y12667551D01*
X5641362Y12666834D01*
X5639550Y12666191D01*
X5637479Y12665637D01*
X5635293Y12665217D01*
X5629490Y12664667D01*
X5626248Y12664621D01*
X5624341Y12663800D01*
X5618143D01*
X5603442Y12657710D01*
X5592190Y12646458D01*
X5586100Y12631757D01*
Y12615843D01*
X5592190Y12601142D01*
X5603442Y12589890D01*
X5618143Y12583800D01*
X5634057D01*
X5648758Y12589890D01*
X5660010Y12601142D01*
X5666100Y12615843D01*
Y12622041D01*
X5666921Y12623948D01*
X5666969Y12627343D01*
X5667160Y12630226D01*
X5667487Y12632834D01*
X5667937Y12635180D01*
X5668491Y12637252D01*
X5669135Y12639062D01*
X5669851Y12640629D01*
X5670623Y12641966D01*
X5671450Y12643112D01*
X5672728Y12644537D01*
X5673086Y12645552D01*
X5781931Y12754398D01*
X5790409Y12748733D01*
X5789300Y12746057D01*
Y12730143D01*
X5795390Y12715442D01*
X5806642Y12704190D01*
X5821343Y12698100D01*
X5837257D01*
X5851958Y12704190D01*
X5863210Y12715442D01*
X5869300Y12730143D01*
Y12736341D01*
X5870121Y12738248D01*
X5870169Y12741643D01*
X5870360Y12744526D01*
X5870687Y12747134D01*
X5871137Y12749480D01*
X5871691Y12751552D01*
X5872335Y12753362D01*
X5873051Y12754929D01*
X5873823Y12756266D01*
X5874650Y12757412D01*
X5875928Y12758837D01*
X5876286Y12759852D01*
X6057817Y12941383D01*
X6061685Y12947173D01*
X6063043Y12953999D01*
Y13301837D01*
X6241360Y13480154D01*
X6248422Y13476076D01*
X6250000Y13474652D01*
Y13463156D01*
X6249182Y13461263D01*
X6248760Y13432928D01*
X6246912Y13409761D01*
X6245507Y13400304D01*
X6243781Y13392078D01*
X6241798Y13385242D01*
X6239641Y13379846D01*
X6237454Y13375932D01*
X6234685Y13372516D01*
X6234434Y13371667D01*
X6096083Y13233318D01*
X6092215Y13227528D01*
X6090857Y13220700D01*
Y12859792D01*
X5991314Y12760248D01*
X5960605D01*
X5953777Y12758890D01*
X5947988Y12755022D01*
X5863752Y12670786D01*
X5862737Y12670428D01*
X5861311Y12669149D01*
X5860165Y12668323D01*
X5858828Y12667551D01*
X5857262Y12666834D01*
X5855450Y12666191D01*
X5853379Y12665637D01*
X5851193Y12665217D01*
X5845390Y12664667D01*
X5842148Y12664621D01*
X5840241Y12663800D01*
X5834043D01*
X5819342Y12657710D01*
X5808090Y12646458D01*
X5802000Y12631757D01*
Y12615843D01*
X5808090Y12601142D01*
X5819342Y12589890D01*
X5834043Y12583800D01*
X5836080D01*
X5840222Y12573800D01*
X5831864Y12565443D01*
X5765800D01*
X5758972Y12564085D01*
X5753183Y12560217D01*
X5575383Y12382417D01*
X5571515Y12376628D01*
X5570157Y12369800D01*
Y12253305D01*
X5569692Y12252334D01*
X5569588Y12250421D01*
X5569363Y12249029D01*
X5568962Y12247532D01*
X5568363Y12245924D01*
X5567536Y12244186D01*
X5566463Y12242328D01*
X5565216Y12240489D01*
X5561500Y12235995D01*
X5559239Y12233669D01*
X5558472Y12231740D01*
X5554090Y12227358D01*
X5548000Y12212657D01*
Y12196743D01*
X5554090Y12182042D01*
X5565342Y12170790D01*
X5580043Y12164700D01*
X5595957D01*
X5610658Y12170790D01*
X5621910Y12182042D01*
X5628000Y12196743D01*
Y12212657D01*
X5621910Y12227358D01*
X5617528Y12231740D01*
X5616761Y12233669D01*
X5614391Y12236107D01*
X5612492Y12238275D01*
X5610875Y12240356D01*
X5609537Y12242327D01*
X5608464Y12244186D01*
X5607638Y12245923D01*
X5607038Y12247532D01*
X5606637Y12249029D01*
X5606412Y12250422D01*
X5606308Y12252334D01*
X5605843Y12253305D01*
Y12362409D01*
X5728500Y12485067D01*
X5738500Y12480924D01*
Y12476143D01*
X5744590Y12461442D01*
X5755842Y12450190D01*
X5770543Y12444100D01*
X5786457D01*
X5801158Y12450190D01*
X5805540Y12454572D01*
X5807469Y12455339D01*
X5809907Y12457709D01*
X5812075Y12459608D01*
X5814156Y12461225D01*
X5816127Y12462563D01*
X5817986Y12463636D01*
X5819723Y12464462D01*
X5821332Y12465062D01*
X5822829Y12465463D01*
X5824222Y12465688D01*
X5826134Y12465792D01*
X5827105Y12466257D01*
X5880100D01*
X5886928Y12467615D01*
X5892717Y12471483D01*
X5893600Y12472367D01*
X5903600Y12468224D01*
Y12463443D01*
X5909690Y12448742D01*
X5920942Y12437490D01*
X5935643Y12431400D01*
X5951557D01*
X5966258Y12437490D01*
X5977510Y12448742D01*
X5983600Y12463443D01*
Y12469641D01*
X5984421Y12471548D01*
X5984469Y12474943D01*
X5984660Y12477826D01*
X5984987Y12480434D01*
X5985437Y12482780D01*
X5985991Y12484852D01*
X5986635Y12486662D01*
X5987351Y12488229D01*
X5988123Y12489566D01*
X5988950Y12490712D01*
X5990228Y12492137D01*
X5990586Y12493152D01*
X6179591Y12682157D01*
X6204407D01*
X6205185Y12681735D01*
X6209557Y12681277D01*
X6213873Y12680056D01*
X6219212Y12677767D01*
X6225449Y12674335D01*
X6232486Y12669738D01*
X6240086Y12664104D01*
X6267731Y12639649D01*
X6278073Y12629347D01*
X6278074Y12629346D01*
X6278074Y12629346D01*
X6278089Y12629332D01*
X6280059Y12628520D01*
X6288599Y12619980D01*
X6311402Y12606815D01*
X6336835Y12600000D01*
X6363165D01*
X6388598Y12606815D01*
X6411401Y12619980D01*
X6430020Y12638599D01*
X6443185Y12661402D01*
X6450000Y12686835D01*
Y12713165D01*
X6443185Y12738598D01*
X6430020Y12761401D01*
X6411401Y12780020D01*
X6388598Y12793185D01*
X6363165Y12800000D01*
X6336835D01*
X6311402Y12793185D01*
X6288599Y12780020D01*
X6280107Y12771528D01*
X6278189Y12770767D01*
X6257855Y12751031D01*
X6240166Y12735955D01*
X6232486Y12730262D01*
X6225448Y12725665D01*
X6219214Y12722235D01*
X6213873Y12719944D01*
X6209558Y12718723D01*
X6205185Y12718265D01*
X6204407Y12717843D01*
X6172200D01*
X6165372Y12716485D01*
X6159583Y12712617D01*
X5965352Y12518386D01*
X5964337Y12518028D01*
X5962911Y12516749D01*
X5961765Y12515923D01*
X5960428Y12515151D01*
X5958862Y12514434D01*
X5957050Y12513791D01*
X5954979Y12513237D01*
X5952793Y12512817D01*
X5947711Y12512335D01*
X5946570Y12513443D01*
X5943413Y12522179D01*
X6259667Y12838434D01*
X6260516Y12838686D01*
X6263932Y12841454D01*
X6267845Y12843640D01*
X6273242Y12845798D01*
X6280078Y12847781D01*
X6288304Y12849507D01*
X6297663Y12850897D01*
X6334498Y12853152D01*
X6349121Y12853181D01*
X6351089Y12853999D01*
X6363165D01*
X6388598Y12860815D01*
X6411401Y12873981D01*
X6430020Y12892599D01*
X6443185Y12915402D01*
X6450000Y12940836D01*
Y12967165D01*
X6443185Y12992598D01*
X6430020Y13015401D01*
X6411401Y13034019D01*
X6388598Y13047185D01*
X6363165Y13053999D01*
X6336835D01*
X6311402Y13047185D01*
X6288599Y13034019D01*
X6269980Y13015401D01*
X6256815Y12992598D01*
X6250000Y12967165D01*
Y12955156D01*
X6249182Y12953262D01*
X6248760Y12924928D01*
X6246912Y12901761D01*
X6245507Y12892303D01*
X6243781Y12884077D01*
X6241798Y12877242D01*
X6239641Y12871846D01*
X6237454Y12867932D01*
X6234685Y12864516D01*
X6234434Y12863667D01*
X5872709Y12501943D01*
X5827105D01*
X5826134Y12502408D01*
X5824221Y12502512D01*
X5822829Y12502737D01*
X5821332Y12503138D01*
X5819724Y12503737D01*
X5817986Y12504564D01*
X5816128Y12505637D01*
X5814289Y12506884D01*
X5809795Y12510600D01*
X5807469Y12512861D01*
X5805540Y12513628D01*
X5801158Y12518010D01*
X5796941Y12519757D01*
X5798930Y12529757D01*
X5839255D01*
X5846083Y12531115D01*
X5851872Y12534983D01*
X6197517Y12880627D01*
X6201385Y12886417D01*
X6202743Y12893245D01*
Y13035509D01*
X6259667Y13092435D01*
X6260516Y13092685D01*
X6263932Y13095453D01*
X6267845Y13097639D01*
X6273242Y13099799D01*
X6280078Y13101781D01*
X6288304Y13103506D01*
X6297663Y13104897D01*
X6334498Y13107152D01*
X6349121Y13107181D01*
X6351089Y13108000D01*
X6363165D01*
X6388598Y13114815D01*
X6411401Y13127980D01*
X6430020Y13146599D01*
X6443185Y13169402D01*
X6450000Y13194835D01*
Y13221165D01*
X6443185Y13246597D01*
X6430020Y13269402D01*
X6411401Y13288020D01*
X6388598Y13301186D01*
X6363165Y13308000D01*
X6336835D01*
X6311402Y13301186D01*
X6288599Y13288020D01*
X6269980Y13269402D01*
X6256815Y13246597D01*
X6250000Y13221165D01*
Y13209155D01*
X6249182Y13207262D01*
X6248760Y13178928D01*
X6246912Y13155762D01*
X6245507Y13146304D01*
X6243781Y13138078D01*
X6241798Y13131241D01*
X6239641Y13125845D01*
X6237454Y13121931D01*
X6234685Y13118517D01*
X6234434Y13117667D01*
X6172283Y13055518D01*
X6168415Y13049728D01*
X6167057Y13042900D01*
Y12900636D01*
X6135782Y12869360D01*
X6126543Y12873187D01*
Y13213309D01*
X6259667Y13346434D01*
X6260516Y13346684D01*
X6263932Y13349454D01*
X6267845Y13351640D01*
X6273242Y13353798D01*
X6280078Y13355782D01*
X6288304Y13357507D01*
X6297663Y13358897D01*
X6334498Y13361153D01*
X6349121Y13361182D01*
X6351089Y13362000D01*
X6363165D01*
X6388598Y13368816D01*
X6411401Y13381979D01*
X6430020Y13400600D01*
X6443185Y13423402D01*
X6450000Y13448836D01*
Y13475165D01*
X6443185Y13500598D01*
X6430020Y13523401D01*
X6411401Y13542020D01*
X6388598Y13555185D01*
X6363165Y13562000D01*
X6337348D01*
X6335924Y13563577D01*
X6331846Y13570641D01*
X6352089Y13590884D01*
X6355957Y13596672D01*
X6356791Y13600864D01*
X6357783Y13602953D01*
X6357949Y13606235D01*
X6358324Y13608488D01*
X6358869Y13610275D01*
X6359533Y13611668D01*
X6360308Y13612788D01*
X6361248Y13613757D01*
X6362462Y13614661D01*
X6364068Y13615514D01*
X6366158Y13616289D01*
X6369302Y13617055D01*
X6370576Y13617986D01*
X6388598Y13622815D01*
X6411401Y13635980D01*
X6430020Y13654599D01*
X6443185Y13677402D01*
X6450000Y13702835D01*
Y13729166D01*
X6443185Y13754597D01*
X6430020Y13777402D01*
X6411401Y13796021D01*
X6388598Y13809184D01*
X6363165Y13816000D01*
X6336835D01*
X6311402Y13809184D01*
X6288599Y13796021D01*
X6269980Y13777402D01*
X6256815Y13754597D01*
X6250000Y13729166D01*
Y13702835D01*
X6256815Y13677402D01*
X6269980Y13654599D01*
X6288599Y13635980D01*
X6307591Y13625015D01*
X6308255Y13624239D01*
X6311305Y13622682D01*
X6313478Y13621260D01*
X6315290Y13619742D01*
X6316796Y13618121D01*
X6318050Y13616360D01*
X6319096Y13614400D01*
X6319944Y13612181D01*
X6320545Y13609805D01*
X6219637Y13508897D01*
X6209873Y13513277D01*
X6201203Y13534210D01*
X6184212Y13551199D01*
X6162698Y13560112D01*
Y13499995D01*
X6149998D01*
Y13487296D01*
X6089882D01*
X6098793Y13465782D01*
X6115784Y13448792D01*
X6136717Y13440121D01*
X6141096Y13430357D01*
X6032583Y13321844D01*
X6028715Y13316055D01*
X6027357Y13309229D01*
Y12961391D01*
X5851052Y12785086D01*
X5850037Y12784728D01*
X5848611Y12783449D01*
X5847465Y12782623D01*
X5846128Y12781851D01*
X5844562Y12781134D01*
X5842750Y12780491D01*
X5840679Y12779937D01*
X5838493Y12779517D01*
X5832690Y12778967D01*
X5829448Y12778921D01*
X5827541Y12778100D01*
X5821343D01*
X5818667Y12776991D01*
X5813002Y12785469D01*
X5963722Y12936188D01*
X5967590Y12941977D01*
X5968948Y12948805D01*
Y13461742D01*
X6134017Y13626811D01*
X6137885Y13632599D01*
X6139243Y13639429D01*
Y13734009D01*
X6266662Y13861429D01*
X6267760Y13861852D01*
X6269666Y13863663D01*
X6271305Y13865054D01*
X6272872Y13866229D01*
X6274357Y13867195D01*
X6275746Y13867960D01*
X6277052Y13868547D01*
X6278259Y13868970D01*
X6279396Y13869254D01*
X6280471Y13869415D01*
X6282059Y13869495D01*
X6283126Y13870000D01*
X6450000D01*
Y14070000D01*
D02*
G37*
G36*
X4331165Y12800000D02*
X4304835D01*
X4279402Y12793185D01*
X4256599Y12780020D01*
X4237980Y12761401D01*
X4224815Y12738598D01*
X4218000Y12713165D01*
Y12686835D01*
X4224815Y12661402D01*
X4237980Y12638599D01*
X4256599Y12619980D01*
X4279402Y12606815D01*
X4304835Y12600000D01*
X4331165D01*
X4356598Y12606815D01*
X4379401Y12619980D01*
X4398020Y12638599D01*
X4411185Y12661402D01*
X4418000Y12686835D01*
Y12713165D01*
X4411185Y12738598D01*
X4398020Y12761401D01*
X4379401Y12780020D01*
X4356598Y12793185D01*
X4331165Y12800000D01*
D02*
G37*
G36*
Y13053999D02*
X4304835D01*
X4279402Y13047185D01*
X4256599Y13034019D01*
X4237980Y13015401D01*
X4224815Y12992598D01*
X4218000Y12967165D01*
Y12940836D01*
X4224815Y12915402D01*
X4237980Y12892599D01*
X4256599Y12873981D01*
X4279402Y12860815D01*
X4304835Y12853999D01*
X4316844D01*
X4318738Y12853181D01*
X4347072Y12852760D01*
X4370239Y12850912D01*
X4379696Y12849507D01*
X4387922Y12847781D01*
X4394759Y12845798D01*
X4400154Y12843642D01*
X4404068Y12841454D01*
X4407484Y12838686D01*
X4408333Y12838434D01*
X4648283Y12598483D01*
X4654072Y12594615D01*
X4660900Y12593257D01*
X5005995D01*
X5006966Y12592792D01*
X5008879Y12592688D01*
X5010271Y12592463D01*
X5011768Y12592062D01*
X5013376Y12591463D01*
X5015114Y12590636D01*
X5016972Y12589563D01*
X5018811Y12588316D01*
X5023305Y12584600D01*
X5025631Y12582339D01*
X5027560Y12581572D01*
X5031942Y12577190D01*
X5046643Y12571100D01*
X5062557D01*
X5077258Y12577190D01*
X5088510Y12588442D01*
X5094600Y12603143D01*
Y12619057D01*
X5088510Y12633758D01*
X5077258Y12645010D01*
X5062557Y12651100D01*
X5046643D01*
X5031942Y12645010D01*
X5027560Y12640628D01*
X5025631Y12639861D01*
X5023193Y12637491D01*
X5021025Y12635592D01*
X5018944Y12633975D01*
X5016973Y12632637D01*
X5015114Y12631564D01*
X5013377Y12630738D01*
X5011768Y12630138D01*
X5010271Y12629737D01*
X5008878Y12629512D01*
X5006966Y12629408D01*
X5005995Y12628943D01*
X4668291D01*
X4433566Y12863667D01*
X4433315Y12864516D01*
X4430547Y12867932D01*
X4428360Y12871844D01*
X4426202Y12877242D01*
X4424219Y12884077D01*
X4422493Y12892303D01*
X4421103Y12901663D01*
X4418848Y12938498D01*
X4418819Y12953120D01*
X4418000Y12955089D01*
Y12967165D01*
X4411185Y12992598D01*
X4398020Y13015401D01*
X4379401Y13034019D01*
X4356598Y13047185D01*
X4331165Y13053999D01*
D02*
G37*
G36*
X4560115Y12587296D02*
X4512699D01*
Y12539880D01*
X4534212Y12548792D01*
X4551203Y12565782D01*
X4560115Y12587296D01*
D02*
G37*
G36*
X4487299D02*
X4439883D01*
X4448794Y12565782D01*
X4465785Y12548792D01*
X4487299Y12539880D01*
Y12587296D01*
D02*
G37*
G36*
X6363165Y12546000D02*
X6336835D01*
X6311402Y12539185D01*
X6288599Y12526020D01*
X6269980Y12507401D01*
X6256815Y12484598D01*
X6250000Y12459165D01*
Y12432835D01*
X6256815Y12407402D01*
X6269980Y12384599D01*
X6288599Y12365980D01*
X6311402Y12352815D01*
X6336835Y12346000D01*
X6363165D01*
X6388598Y12352815D01*
X6411401Y12365980D01*
X6430020Y12384599D01*
X6443185Y12407402D01*
X6450000Y12432835D01*
Y12459165D01*
X6443185Y12484598D01*
X6430020Y12507401D01*
X6411401Y12526020D01*
X6388598Y12539185D01*
X6363165Y12546000D01*
D02*
G37*
G36*
X4331165D02*
X4304835D01*
X4279402Y12539185D01*
X4256599Y12526020D01*
X4237980Y12507401D01*
X4224815Y12484598D01*
X4218000Y12459165D01*
Y12432835D01*
X4224815Y12407402D01*
X4237980Y12384599D01*
X4256599Y12365980D01*
X4279402Y12352815D01*
X4304835Y12346000D01*
X4331165D01*
X4356598Y12352815D01*
X4379401Y12365980D01*
X4398020Y12384599D01*
X4411185Y12407402D01*
X4418000Y12432835D01*
Y12459165D01*
X4411185Y12484598D01*
X4398020Y12507401D01*
X4379401Y12526020D01*
X4356598Y12539185D01*
X4331165Y12546000D01*
D02*
G37*
G36*
X6162698Y12360112D02*
Y12312696D01*
X6210114D01*
X6201203Y12334210D01*
X6184212Y12351201D01*
X6162698Y12360112D01*
D02*
G37*
G36*
X6137298D02*
X6115784Y12351201D01*
X6098793Y12334210D01*
X6089882Y12312696D01*
X6137298D01*
Y12360112D01*
D02*
G37*
G36*
X6210114Y12287296D02*
X6162698D01*
Y12239880D01*
X6184212Y12248792D01*
X6201203Y12265782D01*
X6210114Y12287296D01*
D02*
G37*
G36*
X6137298D02*
X6089882D01*
X6098793Y12265782D01*
X6115784Y12248792D01*
X6137298Y12239880D01*
Y12287296D01*
D02*
G37*
G36*
X5405457Y12422500D02*
X5389543D01*
X5374842Y12416410D01*
X5363590Y12405158D01*
X5357500Y12390457D01*
Y12374543D01*
X5363590Y12359842D01*
X5365991Y12357441D01*
X5363917Y12350266D01*
X5362056Y12347233D01*
X5354321Y12345694D01*
X5346879Y12340722D01*
X5341906Y12333279D01*
X5340159Y12324500D01*
Y12249500D01*
X5341906Y12240721D01*
X5346879Y12233279D01*
X5354321Y12228306D01*
X5363100Y12226559D01*
X5508100D01*
X5516879Y12228306D01*
X5524321Y12233279D01*
X5529294Y12240721D01*
X5531040Y12249500D01*
Y12324500D01*
X5529294Y12333279D01*
X5524321Y12340722D01*
X5516879Y12345694D01*
X5508100Y12347441D01*
X5454222D01*
X5454146Y12347900D01*
X5453986Y12349704D01*
X5453920Y12352219D01*
X5453443Y12353291D01*
Y12359500D01*
X5452085Y12366328D01*
X5448391Y12371855D01*
X5447973Y12373023D01*
X5444387Y12376975D01*
X5443126Y12378603D01*
X5441924Y12380342D01*
X5440862Y12382084D01*
X5439932Y12383833D01*
X5439130Y12385591D01*
X5438449Y12387364D01*
X5437886Y12389162D01*
X5437356Y12391318D01*
X5436940Y12391885D01*
X5436960Y12392589D01*
X5436348Y12393237D01*
X5431410Y12405158D01*
X5420158Y12416410D01*
X5405457Y12422500D01*
D02*
G37*
G36*
X5189557Y13908400D02*
X5173643D01*
X5158942Y13902310D01*
X5147690Y13891058D01*
X5141600Y13876357D01*
Y13860443D01*
X5147690Y13845741D01*
X5152072Y13841360D01*
X5152839Y13839432D01*
X5155209Y13836993D01*
X5157108Y13834825D01*
X5158725Y13832744D01*
X5160063Y13830772D01*
X5161136Y13828914D01*
X5161962Y13827177D01*
X5162562Y13825568D01*
X5162963Y13824071D01*
X5163188Y13822678D01*
X5163292Y13820766D01*
X5163757Y13819795D01*
Y13512801D01*
X5165115Y13505972D01*
X5168983Y13500183D01*
X5471967Y13197200D01*
X5467824Y13187199D01*
X5449980D01*
X5429619Y13178766D01*
X5414034Y13163181D01*
X5406296Y13144501D01*
X5461000D01*
Y13131799D01*
X5473700D01*
Y13077097D01*
X5492381Y13084834D01*
X5507966Y13100420D01*
X5516400Y13120779D01*
Y13138625D01*
X5526400Y13142767D01*
X5727783Y12941383D01*
X5733572Y12937515D01*
X5740400Y12936157D01*
X5797482D01*
X5801624Y12926157D01*
X5533848Y12658381D01*
X5529980Y12652593D01*
X5528622Y12645764D01*
Y12638155D01*
X5259024Y12368557D01*
X5257934Y12368142D01*
X5256258Y12366558D01*
X5254843Y12365376D01*
X5253486Y12364386D01*
X5252183Y12363571D01*
X5250939Y12362920D01*
X5249747Y12362415D01*
X5248599Y12362041D01*
X5247477Y12361782D01*
X5246362Y12361630D01*
X5244742Y12361556D01*
X5244491Y12361439D01*
X5114100D01*
X5103370Y12359304D01*
X5094274Y12353226D01*
X5088196Y12344130D01*
X5086061Y12333400D01*
Y12238247D01*
X5085946Y12238002D01*
X5085867Y12236411D01*
X5085708Y12235329D01*
X5085428Y12234196D01*
X5085012Y12232993D01*
X5084441Y12231713D01*
X5083694Y12230344D01*
X5082754Y12228890D01*
X5081610Y12227358D01*
X5080250Y12225754D01*
X5078478Y12223887D01*
X5078057Y12222791D01*
X5067107Y12211841D01*
X5066342Y12211633D01*
X5066139Y12211278D01*
X5065752Y12211142D01*
X5064293Y12209838D01*
X5063199Y12209064D01*
X5061979Y12208391D01*
X5060592Y12207813D01*
X5059001Y12207333D01*
X5057172Y12206968D01*
X5055093Y12206739D01*
X5052756Y12206668D01*
X5050155Y12206772D01*
X5046995Y12207101D01*
X5045308Y12206600D01*
X5033943D01*
X5019242Y12200510D01*
X5007990Y12189258D01*
X5001900Y12174557D01*
Y12158643D01*
X5007990Y12143942D01*
X5019242Y12132690D01*
X5033943Y12126600D01*
X5049857D01*
X5064558Y12132690D01*
X5075810Y12143942D01*
X5081900Y12158643D01*
Y12160866D01*
X5082439Y12161797D01*
X5082899Y12165263D01*
X5084126Y12171461D01*
X5084803Y12173896D01*
X5085577Y12176166D01*
X5086404Y12178157D01*
X5087263Y12179863D01*
X5088138Y12181300D01*
X5089013Y12182484D01*
X5090255Y12183862D01*
X5090618Y12184885D01*
X5099597Y12193864D01*
X5099862Y12193904D01*
X5100504Y12194771D01*
X5100627Y12194893D01*
X5101714Y12195307D01*
X5103318Y12196819D01*
X5104608Y12197887D01*
X5105800Y12198739D01*
X5106886Y12199391D01*
X5107858Y12199865D01*
X5108718Y12200187D01*
X5109482Y12200387D01*
X5110176Y12200490D01*
X5110838Y12200514D01*
X5112108Y12200418D01*
X5112752Y12200630D01*
X5114100Y12200361D01*
X5249100D01*
X5259830Y12202496D01*
X5268926Y12208574D01*
X5275004Y12217670D01*
X5277139Y12228400D01*
Y12328791D01*
X5277256Y12329042D01*
X5277330Y12330662D01*
X5277482Y12331775D01*
X5277741Y12332899D01*
X5278115Y12334047D01*
X5278620Y12335239D01*
X5279271Y12336484D01*
X5280086Y12337786D01*
X5281077Y12339145D01*
X5282257Y12340556D01*
X5283842Y12342234D01*
X5284257Y12343324D01*
X5559081Y12618148D01*
X5562949Y12623936D01*
X5564307Y12630764D01*
Y12638374D01*
X5832948Y12907014D01*
X5833963Y12907372D01*
X5835389Y12908652D01*
X5836535Y12909477D01*
X5837872Y12910249D01*
X5839438Y12910966D01*
X5841250Y12911609D01*
X5843321Y12912163D01*
X5845507Y12912582D01*
X5851310Y12913133D01*
X5854552Y12913179D01*
X5856459Y12914000D01*
X5862657D01*
X5877358Y12920090D01*
X5888610Y12931342D01*
X5894700Y12946043D01*
Y12961957D01*
X5888610Y12976659D01*
X5877358Y12987910D01*
X5862657Y12994000D01*
X5846743D01*
X5832042Y12987910D01*
X5827660Y12983528D01*
X5825731Y12982761D01*
X5823293Y12980391D01*
X5821125Y12978493D01*
X5819044Y12976875D01*
X5817073Y12975537D01*
X5815214Y12974464D01*
X5813477Y12973637D01*
X5811868Y12973038D01*
X5810371Y12972636D01*
X5808978Y12972412D01*
X5807066Y12972308D01*
X5806095Y12971843D01*
X5747791D01*
X5199443Y13520190D01*
Y13819795D01*
X5199908Y13820766D01*
X5200012Y13822679D01*
X5200237Y13824071D01*
X5200638Y13825568D01*
X5201237Y13827176D01*
X5202064Y13828914D01*
X5203137Y13830772D01*
X5204384Y13832611D01*
X5208100Y13837105D01*
X5210361Y13839432D01*
X5211128Y13841360D01*
X5215510Y13845741D01*
X5221600Y13860443D01*
Y13876357D01*
X5215510Y13891058D01*
X5204258Y13902310D01*
X5189557Y13908400D01*
D02*
G37*
G36*
X5508100Y12173142D02*
X5448300D01*
Y12109700D01*
X5546742D01*
Y12134500D01*
X5543801Y12149288D01*
X5535424Y12161824D01*
X5522888Y12170201D01*
X5508100Y12173142D01*
D02*
G37*
G36*
X5422900D02*
X5363100D01*
X5348312Y12170201D01*
X5335776Y12161824D01*
X5327399Y12149288D01*
X5324458Y12134500D01*
Y12109700D01*
X5422900D01*
Y12173142D01*
D02*
G37*
G36*
X4331165Y12292000D02*
X4304835D01*
X4279402Y12285185D01*
X4256599Y12272020D01*
X4237980Y12253401D01*
X4224815Y12230598D01*
X4218000Y12205165D01*
Y12178835D01*
X4224815Y12153402D01*
X4237980Y12130599D01*
X4256599Y12111980D01*
X4279402Y12098815D01*
X4304835Y12092000D01*
X4331165D01*
X4356598Y12098815D01*
X4379401Y12111980D01*
X4398020Y12130599D01*
X4411185Y12153402D01*
X4418000Y12178835D01*
Y12205165D01*
X4411185Y12230598D01*
X4398020Y12253401D01*
X4379401Y12272020D01*
X4356598Y12285185D01*
X4331165Y12292000D01*
D02*
G37*
G36*
X5249100Y12148540D02*
X5194300D01*
Y12065000D01*
X5292840D01*
Y12104800D01*
X5289511Y12121539D01*
X5280029Y12135729D01*
X5265839Y12145211D01*
X5249100Y12148540D01*
D02*
G37*
G36*
X5168900D02*
X5114100D01*
X5097361Y12145211D01*
X5083171Y12135729D01*
X5073689Y12121539D01*
X5070360Y12104800D01*
Y12065000D01*
X5168900D01*
Y12148540D01*
D02*
G37*
G36*
X5422900Y12084300D02*
X5324458D01*
Y12059500D01*
X5325512Y12054200D01*
X5322980Y12044200D01*
X5318454Y12042325D01*
X5302619Y12035766D01*
X5302079Y12035227D01*
X5292840Y12039053D01*
Y12039600D01*
X5194300D01*
Y11956060D01*
X5249100D01*
X5265839Y11959389D01*
X5273322Y11964390D01*
X5285677Y11960694D01*
X5287034Y11957419D01*
X5302619Y11941834D01*
X5321300Y11934096D01*
Y11988800D01*
X5334000D01*
Y12001500D01*
X5355594D01*
X5325677Y12017622D01*
X5329588Y12018804D01*
X5339778Y12022532D01*
X5342662Y12023836D01*
X5347659Y12026535D01*
X5349773Y12027931D01*
X5351630Y12029357D01*
X5353231Y12030815D01*
X5366490Y12022860D01*
X5364851Y12021008D01*
X5363491Y12019008D01*
X5362409Y12016861D01*
X5361607Y12014566D01*
X5361084Y12012123D01*
X5360839Y12009533D01*
X5360873Y12006796D01*
X5361187Y12003910D01*
X5361658Y12001500D01*
X5388704D01*
X5384828Y12010857D01*
X5391510Y12020858D01*
X5422900D01*
Y12084300D01*
D02*
G37*
G36*
X5546742D02*
X5448300D01*
Y12020858D01*
X5508100D01*
X5522888Y12023799D01*
X5535424Y12032176D01*
X5543801Y12044712D01*
X5546742Y12059500D01*
Y12084300D01*
D02*
G37*
G36*
X6363165Y12292000D02*
X6336835D01*
X6311402Y12285185D01*
X6288599Y12272020D01*
X6269980Y12253401D01*
X6256815Y12230598D01*
X6250000Y12205165D01*
Y12193156D01*
X6249182Y12191262D01*
X6248760Y12162928D01*
X6246912Y12139761D01*
X6245507Y12130304D01*
X6243781Y12122078D01*
X6241798Y12115241D01*
X6239641Y12109846D01*
X6237454Y12105932D01*
X6234685Y12102516D01*
X6234434Y12101667D01*
X6149188Y12016422D01*
X6139972Y12021348D01*
X6140739Y12025200D01*
Y12130200D01*
X6138604Y12140930D01*
X6132526Y12150026D01*
X6123430Y12156104D01*
X6112700Y12158239D01*
X5977700D01*
X5966970Y12156104D01*
X5957874Y12150026D01*
X5951796Y12140930D01*
X5949661Y12130200D01*
Y12083591D01*
X5949391Y12083546D01*
X5947587Y12083386D01*
X5945072Y12083320D01*
X5944000Y12082843D01*
X5928705D01*
X5927734Y12083308D01*
X5925821Y12083412D01*
X5924429Y12083637D01*
X5922932Y12084038D01*
X5921324Y12084637D01*
X5919586Y12085464D01*
X5917728Y12086537D01*
X5915889Y12087784D01*
X5911395Y12091500D01*
X5909069Y12093761D01*
X5907140Y12094528D01*
X5902758Y12098910D01*
X5888057Y12105000D01*
X5872143D01*
X5857442Y12098910D01*
X5853060Y12094528D01*
X5851131Y12093761D01*
X5848804Y12091499D01*
X5844311Y12087784D01*
X5842473Y12086537D01*
X5840614Y12085464D01*
X5838877Y12084638D01*
X5837268Y12084038D01*
X5835771Y12083637D01*
X5834378Y12083412D01*
X5832466Y12083308D01*
X5831495Y12082843D01*
X5816200D01*
X5815128Y12083320D01*
X5812613Y12083386D01*
X5810809Y12083546D01*
X5810539Y12083591D01*
Y12130200D01*
X5808404Y12140930D01*
X5802326Y12150026D01*
X5793230Y12156104D01*
X5782500Y12158239D01*
X5647500D01*
X5636770Y12156104D01*
X5627674Y12150026D01*
X5621596Y12140930D01*
X5619461Y12130200D01*
Y12025200D01*
X5621596Y12014470D01*
X5627674Y12005374D01*
X5636770Y11999296D01*
X5647500Y11997161D01*
X5782500D01*
X5793230Y11999296D01*
X5802326Y12005374D01*
X5808404Y12014470D01*
X5810539Y12025200D01*
Y12046409D01*
X5810809Y12046454D01*
X5812613Y12046614D01*
X5815128Y12046680D01*
X5816200Y12047157D01*
X5831495D01*
X5832466Y12046692D01*
X5834379Y12046588D01*
X5835771Y12046363D01*
X5837268Y12045962D01*
X5838876Y12045363D01*
X5840614Y12044536D01*
X5842472Y12043463D01*
X5844445Y12042125D01*
X5846524Y12040508D01*
X5848695Y12038607D01*
X5851131Y12036239D01*
X5853060Y12035472D01*
X5857442Y12031090D01*
X5872143Y12025000D01*
X5888057D01*
X5902758Y12031090D01*
X5907140Y12035472D01*
X5909069Y12036239D01*
X5911507Y12038609D01*
X5913675Y12040508D01*
X5915756Y12042125D01*
X5917727Y12043463D01*
X5919586Y12044536D01*
X5921323Y12045362D01*
X5922932Y12045962D01*
X5924429Y12046363D01*
X5925822Y12046588D01*
X5927734Y12046692D01*
X5928705Y12047157D01*
X5944000D01*
X5945072Y12046680D01*
X5947587Y12046614D01*
X5949391Y12046454D01*
X5949661Y12046409D01*
Y12025200D01*
X5951796Y12014470D01*
X5957874Y12005374D01*
X5966970Y11999296D01*
X5977700Y11997161D01*
X6112700D01*
X6116552Y11997928D01*
X6121478Y11988712D01*
X6093253Y11960487D01*
X5594001D01*
X5593030Y11960952D01*
X5591118Y11961056D01*
X5589726Y11961281D01*
X5588229Y11961682D01*
X5586620Y11962281D01*
X5584883Y11963108D01*
X5583025Y11964181D01*
X5581186Y11965428D01*
X5576691Y11969144D01*
X5574366Y11971405D01*
X5572437Y11972172D01*
X5568055Y11976554D01*
X5553353Y11982644D01*
X5537440D01*
X5522739Y11976554D01*
X5511486Y11965302D01*
X5505397Y11950601D01*
Y11934688D01*
X5511486Y11919986D01*
X5522739Y11908734D01*
X5537440Y11902644D01*
X5553353D01*
X5568055Y11908734D01*
X5572437Y11913116D01*
X5574366Y11913883D01*
X5576804Y11916253D01*
X5578972Y11918152D01*
X5581052Y11919769D01*
X5583024Y11921107D01*
X5584883Y11922180D01*
X5586620Y11923007D01*
X5588229Y11923606D01*
X5589726Y11924007D01*
X5591118Y11924232D01*
X5593030Y11924336D01*
X5594001Y11924801D01*
X5600296D01*
X5606386Y11914801D01*
X5603760Y11901600D01*
Y11861800D01*
X5715000D01*
Y11849100D01*
X5727700D01*
Y11752860D01*
X5782500D01*
X5799239Y11756189D01*
X5813429Y11765671D01*
X5822911Y11779861D01*
X5826240Y11796600D01*
Y11831257D01*
X5840226D01*
X5845834Y11817719D01*
X5861419Y11802134D01*
X5880100Y11794396D01*
Y11849100D01*
X5905500D01*
Y11794396D01*
X5924181Y11802134D01*
X5924721Y11802673D01*
X5933960Y11798847D01*
Y11796600D01*
X5937289Y11779861D01*
X5946771Y11765671D01*
X5960961Y11756189D01*
X5977700Y11752860D01*
X6032500D01*
Y11849100D01*
X6045200D01*
Y11861800D01*
X6156440D01*
Y11901600D01*
X6153111Y11918339D01*
X6143629Y11932529D01*
X6135402Y11938026D01*
X6133797Y11950564D01*
X6259667Y12076434D01*
X6260516Y12076685D01*
X6263932Y12079453D01*
X6267845Y12081640D01*
X6273242Y12083798D01*
X6280078Y12085781D01*
X6288304Y12087507D01*
X6297663Y12088897D01*
X6334498Y12091152D01*
X6349121Y12091181D01*
X6351089Y12092000D01*
X6363165D01*
X6388598Y12098815D01*
X6411401Y12111980D01*
X6430020Y12130599D01*
X6443185Y12153402D01*
X6450000Y12178835D01*
Y12205165D01*
X6443185Y12230598D01*
X6430020Y12253401D01*
X6411401Y12272020D01*
X6388598Y12285185D01*
X6363165Y12292000D01*
D02*
G37*
G36*
X5168900Y12039600D02*
X5070360D01*
Y11999800D01*
X5073689Y11983061D01*
X5083171Y11968871D01*
X5097361Y11959389D01*
X5114100Y11956060D01*
X5168900D01*
Y12039600D01*
D02*
G37*
G36*
X5388704Y11976100D02*
X5346700D01*
Y11934096D01*
X5365381Y11941834D01*
X5380966Y11957419D01*
X5388704Y11976100D01*
D02*
G37*
G36*
X5334000Y11903804D02*
Y11861800D01*
X5376004D01*
X5368266Y11880481D01*
X5352681Y11896066D01*
X5334000Y11903804D01*
D02*
G37*
G36*
X5308600D02*
X5289919Y11896066D01*
X5274334Y11880481D01*
X5266596Y11861800D01*
X5308600D01*
Y11903804D01*
D02*
G37*
G36*
X4331165Y12038000D02*
X4304835D01*
X4279402Y12031185D01*
X4256599Y12018020D01*
X4237980Y11999401D01*
X4224815Y11976598D01*
X4218000Y11951165D01*
Y11924835D01*
X4224815Y11899402D01*
X4237980Y11876599D01*
X4256599Y11857980D01*
X4279402Y11844815D01*
X4304835Y11838000D01*
X4331165D01*
X4356598Y11844815D01*
X4379401Y11857980D01*
X4398020Y11876599D01*
X4411185Y11899402D01*
X4418000Y11924835D01*
Y11951165D01*
X4411185Y11976598D01*
X4398020Y11999401D01*
X4379401Y12018020D01*
X4356598Y12031185D01*
X4331165Y12038000D01*
D02*
G37*
G36*
X5338899Y11836400D02*
X5334000D01*
Y11831502D01*
X5338899Y11836400D01*
D02*
G37*
G36*
X5376004D02*
X5352368D01*
X5352579Y11835300D01*
X5353347Y11832432D01*
X5354294Y11829767D01*
X5355419Y11827305D01*
X5356724Y11825046D01*
X5358208Y11822989D01*
X5359871Y11821136D01*
X5349264Y11810529D01*
X5347410Y11812192D01*
X5345354Y11813676D01*
X5343094Y11814980D01*
X5340632Y11816106D01*
X5337967Y11817053D01*
X5335099Y11817821D01*
X5334000Y11818031D01*
Y11794396D01*
X5345858Y11799308D01*
X5354748Y11790418D01*
X5352060Y11776900D01*
Y11722100D01*
X5435600D01*
Y11820640D01*
X5395800D01*
X5379061Y11817311D01*
X5378618Y11817015D01*
X5371092Y11824541D01*
X5376004Y11836400D01*
D02*
G37*
G36*
X5308600D02*
X5266596D01*
X5274334Y11817719D01*
X5278090Y11813963D01*
X5273164Y11804747D01*
X5272200Y11804939D01*
X5167200D01*
X5156470Y11802804D01*
X5147374Y11796726D01*
X5141296Y11787630D01*
X5139161Y11776900D01*
Y11727991D01*
X5138891Y11727946D01*
X5137087Y11727786D01*
X5134572Y11727720D01*
X5133500Y11727243D01*
X5093652D01*
X5092580Y11727720D01*
X5090065Y11727786D01*
X5088261Y11727946D01*
X5087600Y11728056D01*
Y11817300D01*
X4947600D01*
Y11652300D01*
X5087600D01*
Y11690744D01*
X5088261Y11690854D01*
X5090065Y11691014D01*
X5092580Y11691080D01*
X5093652Y11691557D01*
X5133500D01*
X5134572Y11691080D01*
X5137087Y11691014D01*
X5138891Y11690854D01*
X5139161Y11690809D01*
Y11641900D01*
X5141296Y11631170D01*
X5147374Y11622074D01*
X5156470Y11615996D01*
X5167200Y11613861D01*
X5246333D01*
X5246577Y11613746D01*
X5250285Y11613561D01*
X5253481Y11613081D01*
X5256737Y11612267D01*
X5260073Y11611100D01*
X5263493Y11609561D01*
X5267007Y11607628D01*
X5270612Y11605285D01*
X5274296Y11602522D01*
X5278062Y11599321D01*
X5282088Y11595496D01*
X5282848Y11595204D01*
X5299593Y11578459D01*
X5294000Y11564957D01*
Y11549043D01*
X5300090Y11534342D01*
X5311342Y11523090D01*
X5326043Y11517000D01*
X5341957D01*
X5356658Y11523090D01*
X5367910Y11534342D01*
X5374000Y11549043D01*
Y11564957D01*
X5367910Y11579658D01*
X5356658Y11590910D01*
X5349884Y11593716D01*
X5348939Y11598465D01*
X5343414Y11606734D01*
X5318896Y11631252D01*
X5318604Y11632012D01*
X5314779Y11636038D01*
X5311582Y11639799D01*
X5308816Y11643487D01*
X5306473Y11647090D01*
X5304539Y11650607D01*
X5303000Y11654028D01*
X5301833Y11657363D01*
X5301019Y11660619D01*
X5300539Y11663815D01*
X5300354Y11667524D01*
X5300239Y11667767D01*
Y11776900D01*
X5298104Y11787630D01*
X5297836Y11788031D01*
X5304466Y11796108D01*
X5308600Y11794396D01*
Y11836400D01*
D02*
G37*
G36*
X6363165Y12038000D02*
X6336835D01*
X6311402Y12031185D01*
X6288599Y12018020D01*
X6269980Y11999401D01*
X6256815Y11976598D01*
X6250000Y11951165D01*
Y11939156D01*
X6249182Y11937262D01*
X6248760Y11908928D01*
X6246912Y11885761D01*
X6245507Y11876304D01*
X6243781Y11868078D01*
X6241798Y11861241D01*
X6239641Y11855846D01*
X6237454Y11851932D01*
X6234685Y11848516D01*
X6234434Y11847667D01*
X6164389Y11777623D01*
X6153712Y11780055D01*
X6153266Y11780642D01*
X6156440Y11796600D01*
Y11836400D01*
X6057900D01*
Y11752860D01*
X6112700D01*
X6128658Y11756034D01*
X6129245Y11755588D01*
X6131677Y11744911D01*
X6114009Y11727243D01*
X5625188D01*
X5496776Y11855654D01*
X5496414Y11856677D01*
X5495164Y11858065D01*
X5494296Y11859244D01*
X5493438Y11860664D01*
X5492600Y11862355D01*
X5491804Y11864317D01*
X5491065Y11866562D01*
X5490430Y11868963D01*
X5489314Y11875103D01*
X5488922Y11878538D01*
X5488300Y11879660D01*
Y11882457D01*
X5482210Y11897158D01*
X5470958Y11908410D01*
X5456257Y11914500D01*
X5440343D01*
X5425642Y11908410D01*
X5414390Y11897158D01*
X5408300Y11882457D01*
Y11866543D01*
X5414390Y11851842D01*
X5425642Y11840590D01*
X5440343Y11834500D01*
X5450771D01*
X5452632Y11833910D01*
X5455830Y11834184D01*
X5458479Y11834247D01*
X5460858Y11834139D01*
X5462986Y11833879D01*
X5464850Y11833488D01*
X5464882Y11833478D01*
X5466195Y11830641D01*
X5461775Y11822319D01*
X5461000Y11821796D01*
Y11722100D01*
X5544540D01*
Y11744358D01*
X5553779Y11748185D01*
X5605181Y11696783D01*
X5610969Y11692915D01*
X5617798Y11691557D01*
X6121400D01*
X6128228Y11692915D01*
X6134017Y11696783D01*
X6259667Y11822434D01*
X6260516Y11822685D01*
X6263932Y11825453D01*
X6267845Y11827640D01*
X6273242Y11829798D01*
X6280078Y11831781D01*
X6288304Y11833507D01*
X6297663Y11834897D01*
X6334498Y11837152D01*
X6349121Y11837181D01*
X6351089Y11838000D01*
X6363165D01*
X6388598Y11844815D01*
X6411401Y11857980D01*
X6430020Y11876599D01*
X6443185Y11899402D01*
X6450000Y11924835D01*
Y11951165D01*
X6443185Y11976598D01*
X6430020Y11999401D01*
X6411401Y12018020D01*
X6388598Y12031185D01*
X6363165Y12038000D01*
D02*
G37*
G36*
X5702300Y11836400D02*
X5603760D01*
Y11796600D01*
X5607089Y11779861D01*
X5616571Y11765671D01*
X5630761Y11756189D01*
X5647500Y11752860D01*
X5702300D01*
Y11836400D01*
D02*
G37*
G36*
X6363165Y11784000D02*
X6336835D01*
X6311402Y11777185D01*
X6288599Y11764020D01*
X6269980Y11745401D01*
X6256815Y11722598D01*
X6250000Y11697165D01*
Y11670835D01*
X6252846Y11660214D01*
X6252487Y11658483D01*
X6247446Y11652891D01*
X6245252Y11651043D01*
X5725505D01*
X5724534Y11651508D01*
X5722621Y11651612D01*
X5721229Y11651837D01*
X5719732Y11652238D01*
X5718124Y11652837D01*
X5716386Y11653664D01*
X5714528Y11654737D01*
X5712689Y11655984D01*
X5708195Y11659700D01*
X5705869Y11661961D01*
X5703940Y11662728D01*
X5699558Y11667110D01*
X5684857Y11673200D01*
X5668943D01*
X5654242Y11667110D01*
X5642990Y11655858D01*
X5636900Y11641157D01*
Y11625243D01*
X5642990Y11610542D01*
X5654242Y11599290D01*
X5668943Y11593200D01*
X5684857D01*
X5699558Y11599290D01*
X5703940Y11603672D01*
X5705869Y11604439D01*
X5708307Y11606809D01*
X5710475Y11608708D01*
X5712556Y11610325D01*
X5714527Y11611663D01*
X5716386Y11612736D01*
X5718123Y11613562D01*
X5719732Y11614162D01*
X5721229Y11614563D01*
X5722622Y11614788D01*
X5724534Y11614892D01*
X5725505Y11615357D01*
X6258713D01*
X6265542Y11616715D01*
X6269151Y11619127D01*
X6271344Y11619930D01*
X6272024Y11620555D01*
X6288599Y11603980D01*
X6311402Y11590815D01*
X6336835Y11584000D01*
X6363165D01*
X6388598Y11590815D01*
X6411401Y11603980D01*
X6430020Y11622599D01*
X6443185Y11645402D01*
X6450000Y11670835D01*
Y11697165D01*
X6443185Y11722598D01*
X6430020Y11745401D01*
X6411401Y11764020D01*
X6388598Y11777185D01*
X6363165Y11784000D01*
D02*
G37*
G36*
X5544540Y11696700D02*
X5461000D01*
Y11598160D01*
X5500800D01*
X5517539Y11601489D01*
X5531729Y11610971D01*
X5541211Y11625161D01*
X5544540Y11641900D01*
Y11696700D01*
D02*
G37*
G36*
X5435600D02*
X5352060D01*
Y11641900D01*
X5355389Y11625161D01*
X5364871Y11610971D01*
X5379061Y11601489D01*
X5395800Y11598160D01*
X5435600D01*
Y11696700D01*
D02*
G37*
G36*
X4331165Y11784000D02*
X4304835D01*
X4279402Y11777185D01*
X4256599Y11764020D01*
X4237980Y11745401D01*
X4224815Y11722598D01*
X4218000Y11697165D01*
Y11670835D01*
X4224815Y11645402D01*
X4237980Y11622599D01*
X4256599Y11603980D01*
X4279402Y11590815D01*
X4304835Y11584000D01*
X4331165D01*
X4356598Y11590815D01*
X4379401Y11603980D01*
X4398020Y11622599D01*
X4411185Y11645402D01*
X4418000Y11670835D01*
Y11697165D01*
X4411185Y11722598D01*
X4398020Y11745401D01*
X4379401Y11764020D01*
X4356598Y11777185D01*
X4331165Y11784000D01*
D02*
G37*
G36*
X4766615Y11592040D02*
X4726815D01*
Y11493500D01*
X4810355D01*
Y11548300D01*
X4807026Y11565039D01*
X4797544Y11579229D01*
X4783353Y11588711D01*
X4766615Y11592040D01*
D02*
G37*
G36*
X4701415D02*
X4661615D01*
X4644876Y11588711D01*
X4630686Y11579229D01*
X4621204Y11565039D01*
X4617874Y11548300D01*
Y11493500D01*
X4701415D01*
Y11592040D01*
D02*
G37*
G36*
X5448499Y11505753D02*
X5219501D01*
X5196679Y11501214D01*
X5177331Y11488286D01*
X5164403Y11468938D01*
X5159864Y11446116D01*
Y11431805D01*
X5159325Y11430278D01*
X5158282Y11428714D01*
X5156511Y11427070D01*
X5153680Y11425339D01*
X5149612Y11423675D01*
X5144277Y11422239D01*
X5139497Y11421442D01*
X5138391Y11422549D01*
X5121851Y11429400D01*
X5103949D01*
X5087410Y11422549D01*
X5074751Y11409890D01*
X5067900Y11393351D01*
Y11375449D01*
X5074751Y11358909D01*
X5087410Y11346251D01*
X5103949Y11339400D01*
X5121851D01*
X5138391Y11346251D01*
X5139497Y11347358D01*
X5144277Y11346561D01*
X5149613Y11345124D01*
X5153680Y11343460D01*
X5156511Y11341730D01*
X5158282Y11340086D01*
X5159325Y11338521D01*
X5159864Y11336994D01*
Y11322684D01*
X5164403Y11299862D01*
X5177331Y11280514D01*
X5196679Y11267586D01*
X5219501Y11263047D01*
X5286594D01*
X5288122Y11262508D01*
X5289686Y11261465D01*
X5291330Y11259694D01*
X5293061Y11256862D01*
X5294725Y11252794D01*
X5296161Y11247460D01*
X5297255Y11240898D01*
X5297939Y11233145D01*
X5298180Y11223979D01*
X5298314Y11223678D01*
Y10917819D01*
X5298178Y10917504D01*
X5298034Y10908892D01*
X5296896Y10893400D01*
X5295954Y10886820D01*
X5294742Y10880756D01*
X5293300Y10875340D01*
X5291650Y10870576D01*
X5289825Y10866465D01*
X5287857Y10862992D01*
X5285391Y10859584D01*
X5284896Y10857509D01*
X5279374Y10849244D01*
X5274874Y10826617D01*
Y10702183D01*
X5279374Y10679556D01*
X5292191Y10660374D01*
X5307439Y10650186D01*
X5304406Y10640186D01*
X5201366D01*
X5189644Y10651907D01*
X5189529Y10652210D01*
X5184120Y10657959D01*
X5179526Y10663516D01*
X5175517Y10669114D01*
X5172083Y10674747D01*
X5169205Y10680426D01*
X5166870Y10686154D01*
X5165065Y10691944D01*
X5163780Y10697815D01*
X5163126Y10702872D01*
Y10826617D01*
X5158626Y10849244D01*
X5145809Y10868426D01*
X5126627Y10881243D01*
X5104000Y10885744D01*
X5081373Y10881243D01*
X5062191Y10868426D01*
X5049374Y10849244D01*
X5046443Y10834506D01*
X5045968Y10833796D01*
X5045248Y10830194D01*
X5044346Y10828132D01*
X5042980Y10826283D01*
X5040906Y10824452D01*
X5037871Y10822636D01*
X5033738Y10820947D01*
X5028462Y10819508D01*
X5022075Y10818419D01*
X5018909Y10818131D01*
X5016590Y10820449D01*
X5000051Y10827300D01*
X4982149D01*
X4965610Y10820449D01*
X4963146Y10817986D01*
X4961430D01*
X4961128Y10818120D01*
X4951963Y10818361D01*
X4944210Y10819045D01*
X4937647Y10820139D01*
X4932312Y10821576D01*
X4928247Y10823239D01*
X4925413Y10824970D01*
X4923642Y10826614D01*
X4922600Y10828178D01*
X4921975Y10829950D01*
X4921608Y10833433D01*
X4921539Y10833561D01*
Y10834800D01*
X4919404Y10845530D01*
X4913326Y10854626D01*
X4904230Y10860704D01*
X4893500Y10862839D01*
X4758500D01*
X4747770Y10860704D01*
X4738674Y10854626D01*
X4732596Y10845530D01*
X4730461Y10834800D01*
Y10729800D01*
X4732596Y10719070D01*
X4738674Y10709974D01*
X4747770Y10703896D01*
X4758500Y10701761D01*
X4893500D01*
X4904230Y10703896D01*
X4913326Y10709974D01*
X4919404Y10719070D01*
X4921539Y10729800D01*
Y10731039D01*
X4921608Y10731167D01*
X4921975Y10734650D01*
X4922600Y10736422D01*
X4923643Y10737986D01*
X4925413Y10739630D01*
X4928247Y10741361D01*
X4932312Y10743024D01*
X4937647Y10744461D01*
X4944210Y10745555D01*
X4951963Y10746239D01*
X4961128Y10746480D01*
X4961430Y10746614D01*
X4963146D01*
X4965610Y10744151D01*
X4982149Y10737300D01*
X5000051D01*
X5016590Y10744151D01*
X5017805Y10745366D01*
X5022717Y10744932D01*
X5029280Y10743838D01*
X5034615Y10742402D01*
X5038683Y10740738D01*
X5041514Y10739008D01*
X5043285Y10737363D01*
X5044327Y10735799D01*
X5044874Y10734252D01*
Y10702183D01*
X5049374Y10679556D01*
X5062191Y10660374D01*
X5081373Y10647557D01*
X5083760Y10647082D01*
X5085098Y10646591D01*
X5088082Y10645161D01*
X5096134Y10640188D01*
X5100345Y10637120D01*
X5122660Y10617645D01*
X5128958Y10611464D01*
X5129285Y10611332D01*
X5161350Y10579266D01*
X5172928Y10571531D01*
X5186584Y10568814D01*
X5613400D01*
X5627056Y10571531D01*
X5638634Y10579266D01*
X5700366Y10640999D01*
X5707900Y10634391D01*
X5700138Y10624275D01*
X5692541Y10605934D01*
X5689950Y10586250D01*
Y10543950D01*
X5766001D01*
X5842051D01*
Y10585150D01*
X5845617Y10588009D01*
X5850785Y10590557D01*
X5949612Y10491730D01*
Y10424119D01*
X5950145Y10421439D01*
X5949759Y10419500D01*
Y10344500D01*
X5951506Y10335721D01*
X5956479Y10328279D01*
X5963921Y10323306D01*
X5972700Y10321559D01*
X6117700D01*
X6126479Y10323306D01*
X6133921Y10328279D01*
X6138894Y10335721D01*
X6140640Y10344500D01*
Y10381392D01*
X6140899Y10381867D01*
X6141065Y10383450D01*
X6141090Y10383522D01*
X6141133Y10383586D01*
X6141504Y10383930D01*
X6142537Y10384561D01*
X6144403Y10385325D01*
X6147137Y10386061D01*
X6150701Y10386655D01*
X6155053Y10387039D01*
X6160419Y10387180D01*
X6160882Y10387386D01*
X6161369Y10387247D01*
X6161844Y10387511D01*
X6206026D01*
X6206630Y10387206D01*
X6212302Y10386784D01*
X6217707Y10385635D01*
X6223673Y10383622D01*
X6230180Y10380685D01*
X6237187Y10376794D01*
X6244667Y10371927D01*
X6252491Y10366150D01*
X6269746Y10351346D01*
X6278916Y10342500D01*
X6280834Y10341746D01*
X6288599Y10333980D01*
X6311402Y10320815D01*
X6336835Y10314000D01*
X6363165D01*
X6388598Y10320815D01*
X6411401Y10333980D01*
X6430020Y10352599D01*
X6443185Y10375402D01*
X6450000Y10400835D01*
Y10427165D01*
X6443185Y10452598D01*
X6430020Y10475401D01*
X6411401Y10494020D01*
X6388598Y10507185D01*
X6363165Y10514000D01*
X6336835D01*
X6311402Y10507185D01*
X6288599Y10494020D01*
X6279378Y10484798D01*
X6277497Y10484053D01*
X6259824Y10466920D01*
X6251787Y10460092D01*
X6244048Y10454192D01*
X6236716Y10449287D01*
X6229814Y10445366D01*
X6223383Y10442410D01*
X6217447Y10440381D01*
X6212030Y10439222D01*
X6206291Y10438794D01*
X6205688Y10438490D01*
X6157539D01*
X6156744Y10438824D01*
X6151190Y10438853D01*
X6137573Y10439287D01*
X6131330Y10439832D01*
X6129302Y10440127D01*
X6127952Y10440408D01*
X6127622Y10440509D01*
X6127260Y10440689D01*
X6126976Y10440708D01*
X6126784Y10440767D01*
X6126499Y10440740D01*
X6126125Y10440765D01*
X6117700Y10442441D01*
X6010788D01*
Y10504400D01*
X6008459Y10516106D01*
X6001829Y10526029D01*
X5800129Y10727729D01*
X5790206Y10734359D01*
X5778500Y10736688D01*
X5778499Y10736688D01*
X5738789D01*
X5732687Y10742790D01*
Y10751238D01*
X5725836Y10767777D01*
X5713177Y10780436D01*
X5696638Y10787287D01*
X5678736D01*
X5662196Y10780436D01*
X5649538Y10767777D01*
X5642687Y10751238D01*
Y10733336D01*
X5644916Y10727954D01*
Y10686483D01*
X5631229Y10672797D01*
X5621990Y10676623D01*
Y10884608D01*
X5506010D01*
Y10644193D01*
X5497669Y10640186D01*
X5363594D01*
X5360561Y10650186D01*
X5375809Y10660374D01*
X5388626Y10679556D01*
X5393126Y10702183D01*
Y10826617D01*
X5388626Y10849244D01*
X5383104Y10857509D01*
X5382609Y10859584D01*
X5380143Y10862992D01*
X5378176Y10866465D01*
X5376351Y10870574D01*
X5374699Y10875342D01*
X5373258Y10880756D01*
X5372046Y10886820D01*
X5371103Y10893403D01*
X5369966Y10908892D01*
X5369822Y10917504D01*
X5369686Y10917819D01*
Y11223678D01*
X5369820Y11223979D01*
X5370061Y11233145D01*
X5370745Y11240898D01*
X5371839Y11247460D01*
X5373276Y11252795D01*
X5374939Y11256863D01*
X5376670Y11259694D01*
X5378314Y11261465D01*
X5379878Y11262508D01*
X5381406Y11263047D01*
X5448499D01*
X5471321Y11267586D01*
X5490669Y11280514D01*
X5503597Y11299862D01*
X5508136Y11322684D01*
Y11446116D01*
X5503597Y11468938D01*
X5490669Y11488286D01*
X5471321Y11501214D01*
X5448499Y11505753D01*
D02*
G37*
G36*
X4907600Y11817300D02*
X4767600D01*
Y11753456D01*
X4766939Y11753346D01*
X4765135Y11753186D01*
X4762620Y11753120D01*
X4760780Y11752301D01*
X4755672Y11751285D01*
X4749883Y11747417D01*
X4720752Y11718286D01*
X4719737Y11717928D01*
X4718311Y11716649D01*
X4717165Y11715823D01*
X4715828Y11715051D01*
X4714262Y11714334D01*
X4712450Y11713691D01*
X4710379Y11713137D01*
X4708193Y11712717D01*
X4702390Y11712167D01*
X4699148Y11712121D01*
X4697241Y11711300D01*
X4691043D01*
X4676342Y11705210D01*
X4665090Y11693958D01*
X4659000Y11679257D01*
Y11663343D01*
X4665090Y11648642D01*
X4676342Y11637390D01*
X4691043Y11631300D01*
X4706957D01*
X4721658Y11637390D01*
X4726040Y11641772D01*
X4727969Y11642539D01*
X4730407Y11644909D01*
X4732575Y11646808D01*
X4734656Y11648425D01*
X4736627Y11649763D01*
X4738486Y11650836D01*
X4740223Y11651662D01*
X4741832Y11652262D01*
X4743329Y11652663D01*
X4744722Y11652888D01*
X4745359Y11652923D01*
X4858771Y11539510D01*
X4862176Y11537235D01*
Y11413300D01*
X4864311Y11402570D01*
X4870389Y11393474D01*
X4879485Y11387396D01*
X4890215Y11385261D01*
X4995215D01*
X5005945Y11387396D01*
X5015041Y11393474D01*
X5021119Y11402570D01*
X5023253Y11413300D01*
Y11548300D01*
X5021119Y11559030D01*
X5015041Y11568126D01*
X5005945Y11574204D01*
X4995215Y11576339D01*
X4890215D01*
X4879485Y11574204D01*
X4876523Y11572225D01*
X4805687Y11643061D01*
X4809514Y11652300D01*
X4907600D01*
Y11817300D01*
D02*
G37*
G36*
X4810355Y11468100D02*
X4726815D01*
Y11369560D01*
X4766615D01*
X4783353Y11372889D01*
X4797544Y11382371D01*
X4807026Y11396561D01*
X4810355Y11413300D01*
Y11468100D01*
D02*
G37*
G36*
X4701415D02*
X4617874D01*
Y11413300D01*
X4621204Y11396561D01*
X4630686Y11382371D01*
X4644876Y11372889D01*
X4661615Y11369560D01*
X4701415D01*
Y11468100D01*
D02*
G37*
G36*
X5659457Y11546200D02*
X5643543D01*
X5628842Y11540110D01*
X5617590Y11528858D01*
X5611500Y11514157D01*
Y11498243D01*
X5617590Y11483542D01*
X5628842Y11472290D01*
X5643543Y11466200D01*
X5659457D01*
X5674158Y11472290D01*
X5678540Y11476672D01*
X5680469Y11477439D01*
X5682907Y11479809D01*
X5685075Y11481708D01*
X5687156Y11483325D01*
X5689127Y11484663D01*
X5690986Y11485736D01*
X5692723Y11486562D01*
X5694332Y11487162D01*
X5695829Y11487563D01*
X5697222Y11487788D01*
X5699134Y11487892D01*
X5700105Y11488357D01*
X6240991D01*
X6242546Y11486165D01*
X6244806Y11482092D01*
X6246707Y11477607D01*
X6248240Y11472670D01*
X6249389Y11467265D01*
X6250133Y11461369D01*
X6250451Y11454982D01*
X6250327Y11448104D01*
X6249722Y11440440D01*
X6250000Y11439583D01*
Y11438131D01*
X6249881Y11437554D01*
X6250000Y11437373D01*
Y11416835D01*
X6256815Y11391402D01*
X6269980Y11368599D01*
X6288599Y11349980D01*
X6311402Y11336815D01*
X6336835Y11330000D01*
X6363165D01*
X6388598Y11336815D01*
X6411401Y11349980D01*
X6430020Y11368599D01*
X6443185Y11391402D01*
X6450000Y11416835D01*
Y11443165D01*
X6443185Y11468598D01*
X6430020Y11491401D01*
X6411401Y11510020D01*
X6388598Y11523185D01*
X6363165Y11530000D01*
X6336835D01*
X6311402Y11523185D01*
X6306252Y11520212D01*
X6306021Y11520259D01*
X6304810Y11519462D01*
X6303361Y11519381D01*
X6297220Y11516425D01*
X6291851Y11514362D01*
X6286943Y11512996D01*
X6282513Y11512278D01*
X6278540Y11512144D01*
X6274979Y11512530D01*
X6271737Y11513395D01*
X6268693Y11514748D01*
X6265747Y11516649D01*
X6262306Y11519655D01*
X6260161Y11520378D01*
X6256710Y11522685D01*
X6249882Y11524043D01*
X5700105D01*
X5699134Y11524508D01*
X5697221Y11524612D01*
X5695829Y11524837D01*
X5694332Y11525238D01*
X5692724Y11525837D01*
X5690986Y11526664D01*
X5689128Y11527737D01*
X5687289Y11528984D01*
X5682795Y11532700D01*
X5680469Y11534961D01*
X5678540Y11535728D01*
X5674158Y11540110D01*
X5659457Y11546200D01*
D02*
G37*
G36*
X4822733Y11215503D02*
Y11173499D01*
X4864737D01*
X4856999Y11192180D01*
X4841414Y11207764D01*
X4822733Y11215503D01*
D02*
G37*
G36*
X4797333D02*
X4778652Y11207764D01*
X4763067Y11192180D01*
X4755329Y11173499D01*
X4797333D01*
Y11215503D01*
D02*
G37*
G36*
X5659457Y11431900D02*
X5643543D01*
X5628842Y11425810D01*
X5617590Y11414558D01*
X5611500Y11399857D01*
Y11383943D01*
X5617590Y11369242D01*
X5628842Y11357990D01*
X5643543Y11351900D01*
X5659457D01*
X5674158Y11357990D01*
X5678540Y11362372D01*
X5680469Y11363139D01*
X5682907Y11365509D01*
X5685075Y11367408D01*
X5687156Y11369025D01*
X5689127Y11370363D01*
X5690986Y11371436D01*
X5692723Y11372262D01*
X5694332Y11372862D01*
X5695829Y11373263D01*
X5697222Y11373488D01*
X5699134Y11373592D01*
X5700105Y11374057D01*
X6126709D01*
X6234434Y11266333D01*
X6234685Y11265484D01*
X6237453Y11262068D01*
X6239640Y11258155D01*
X6241798Y11252758D01*
X6243781Y11245922D01*
X6245507Y11237696D01*
X6246897Y11228337D01*
X6249152Y11191502D01*
X6249181Y11176879D01*
X6250000Y11174911D01*
Y11162835D01*
X6256815Y11137402D01*
X6269980Y11114599D01*
X6288599Y11095980D01*
X6311402Y11082815D01*
X6336835Y11076000D01*
X6363165D01*
X6388598Y11082815D01*
X6411401Y11095980D01*
X6430020Y11114599D01*
X6443185Y11137402D01*
X6450000Y11162835D01*
Y11189165D01*
X6443185Y11214598D01*
X6430020Y11237401D01*
X6411401Y11256020D01*
X6388598Y11269185D01*
X6363165Y11276000D01*
X6351156D01*
X6349262Y11276818D01*
X6320928Y11277240D01*
X6297761Y11279088D01*
X6288304Y11280493D01*
X6280078Y11282219D01*
X6273241Y11284202D01*
X6267846Y11286359D01*
X6263932Y11288546D01*
X6260516Y11291315D01*
X6259667Y11291566D01*
X6146717Y11404517D01*
X6140928Y11408385D01*
X6134100Y11409743D01*
X5700105D01*
X5699134Y11410208D01*
X5697221Y11410312D01*
X5695829Y11410537D01*
X5694332Y11410938D01*
X5692724Y11411537D01*
X5690986Y11412364D01*
X5689128Y11413437D01*
X5687289Y11414684D01*
X5682795Y11418400D01*
X5680469Y11420661D01*
X5678540Y11421428D01*
X5674158Y11425810D01*
X5659457Y11431900D01*
D02*
G37*
G36*
X4767908Y12068556D02*
X4751995D01*
X4737293Y12062466D01*
X4726041Y12051214D01*
X4719951Y12036513D01*
Y12030315D01*
X4719130Y12028409D01*
X4719082Y12025013D01*
X4718891Y12022130D01*
X4718565Y12019522D01*
X4718115Y12017176D01*
X4717560Y12015104D01*
X4716917Y12013294D01*
X4716201Y12011728D01*
X4715428Y12010390D01*
X4714601Y12009244D01*
X4713323Y12007819D01*
X4712966Y12006804D01*
X4488714Y11782552D01*
X4484846Y11776764D01*
X4483488Y11769935D01*
Y11620721D01*
X4408333Y11545566D01*
X4407484Y11545315D01*
X4404068Y11542547D01*
X4400155Y11540360D01*
X4394758Y11538202D01*
X4387922Y11536219D01*
X4379696Y11534493D01*
X4370337Y11533103D01*
X4333502Y11530848D01*
X4318879Y11530819D01*
X4316911Y11530000D01*
X4304835D01*
X4279402Y11523185D01*
X4256599Y11510020D01*
X4237980Y11491401D01*
X4224815Y11468598D01*
X4218000Y11443165D01*
Y11416835D01*
X4224815Y11391402D01*
X4237980Y11368599D01*
X4256599Y11349980D01*
X4279402Y11336815D01*
X4304835Y11330000D01*
X4331165D01*
X4356598Y11336815D01*
X4379401Y11349980D01*
X4398020Y11368599D01*
X4411185Y11391402D01*
X4418000Y11416835D01*
Y11428844D01*
X4418818Y11430738D01*
X4419240Y11459072D01*
X4421088Y11482239D01*
X4422493Y11491696D01*
X4424219Y11499922D01*
X4426202Y11506759D01*
X4428359Y11512154D01*
X4430546Y11516068D01*
X4433315Y11519484D01*
X4433566Y11520333D01*
X4499249Y11586015D01*
X4508488Y11582189D01*
Y11391721D01*
X4408333Y11291566D01*
X4407484Y11291315D01*
X4404068Y11288547D01*
X4400155Y11286360D01*
X4394758Y11284202D01*
X4387922Y11282219D01*
X4379696Y11280493D01*
X4370337Y11279103D01*
X4333502Y11276848D01*
X4318879Y11276819D01*
X4316911Y11276000D01*
X4304835D01*
X4279402Y11269185D01*
X4256599Y11256020D01*
X4237980Y11237401D01*
X4224815Y11214598D01*
X4218000Y11189165D01*
Y11162835D01*
X4224815Y11137402D01*
X4237980Y11114599D01*
X4256599Y11095980D01*
X4279402Y11082815D01*
X4304835Y11076000D01*
X4331165D01*
X4356598Y11082815D01*
X4379401Y11095980D01*
X4398020Y11114599D01*
X4411185Y11137402D01*
X4418000Y11162835D01*
Y11174844D01*
X4418818Y11176738D01*
X4419240Y11205072D01*
X4421088Y11228239D01*
X4422493Y11237696D01*
X4424219Y11245922D01*
X4426202Y11252759D01*
X4428359Y11258154D01*
X4430546Y11262068D01*
X4433315Y11265484D01*
X4433566Y11266333D01*
X4538947Y11371714D01*
X4542815Y11377503D01*
X4544173Y11384331D01*
Y11694440D01*
X4689948Y11840214D01*
X4690963Y11840572D01*
X4692389Y11841851D01*
X4693535Y11842677D01*
X4694872Y11843449D01*
X4696438Y11844166D01*
X4698250Y11844809D01*
X4700321Y11845363D01*
X4702507Y11845783D01*
X4708310Y11846333D01*
X4711552Y11846379D01*
X4713459Y11847200D01*
X4719657D01*
X4734358Y11853290D01*
X4745610Y11864542D01*
X4751700Y11879243D01*
Y11895157D01*
X4745610Y11909858D01*
X4734358Y11921110D01*
X4719657Y11927200D01*
X4703743D01*
X4693889Y11923118D01*
X4688224Y11931596D01*
X4738199Y11981570D01*
X4739215Y11981928D01*
X4740640Y11983207D01*
X4741786Y11984033D01*
X4743123Y11984805D01*
X4744690Y11985522D01*
X4746502Y11986166D01*
X4748572Y11986719D01*
X4750758Y11987139D01*
X4756561Y11987689D01*
X4759804Y11987735D01*
X4761711Y11988556D01*
X4767908D01*
X4782609Y11994646D01*
X4793862Y12005898D01*
X4799951Y12020600D01*
Y12036513D01*
X4793862Y12051214D01*
X4782609Y12062466D01*
X4767908Y12068556D01*
D02*
G37*
G36*
X4864737Y11148099D02*
X4755329D01*
X4763067Y11129417D01*
X4775344Y11117140D01*
X4771202Y11107140D01*
X4758500D01*
X4741761Y11103811D01*
X4727571Y11094329D01*
X4718089Y11080139D01*
X4714760Y11063400D01*
Y11023600D01*
X4826000D01*
X4937240D01*
Y11063400D01*
X4933911Y11080139D01*
X4924429Y11094329D01*
X4910239Y11103811D01*
X4893500Y11107140D01*
X4848864D01*
X4844722Y11117140D01*
X4856999Y11129417D01*
X4864737Y11148099D01*
D02*
G37*
G36*
X4937240Y10998200D02*
X4838700D01*
Y10914660D01*
X4893500D01*
X4910239Y10917989D01*
X4924429Y10927471D01*
X4933911Y10941661D01*
X4937240Y10958400D01*
Y10998200D01*
D02*
G37*
G36*
X4813300D02*
X4714760D01*
Y10958400D01*
X4718089Y10941661D01*
X4727571Y10927471D01*
X4741761Y10917989D01*
X4758500Y10914660D01*
X4813300D01*
Y10998200D01*
D02*
G37*
G36*
X5659457Y11292200D02*
X5643543D01*
X5628842Y11286110D01*
X5617590Y11274858D01*
X5611500Y11260157D01*
Y11244243D01*
X5617590Y11229542D01*
X5628842Y11218290D01*
X5643543Y11212200D01*
X5659457D01*
X5674158Y11218290D01*
X5678540Y11222672D01*
X5680469Y11223439D01*
X5682907Y11225809D01*
X5685075Y11227708D01*
X5687156Y11229325D01*
X5689127Y11230663D01*
X5690986Y11231736D01*
X5692723Y11232562D01*
X5694332Y11233162D01*
X5695829Y11233563D01*
X5697222Y11233788D01*
X5699134Y11233892D01*
X5700105Y11234357D01*
X6012409D01*
X6234434Y11012333D01*
X6234685Y11011484D01*
X6237453Y11008068D01*
X6239640Y11004155D01*
X6241798Y10998758D01*
X6243781Y10991922D01*
X6245507Y10983696D01*
X6246897Y10974337D01*
X6249152Y10937502D01*
X6249181Y10922879D01*
X6250000Y10920911D01*
Y10908835D01*
X6254597Y10891678D01*
X6245631Y10886502D01*
X5956217Y11175917D01*
X5950428Y11179785D01*
X5943600Y11181143D01*
X5611205D01*
X5610234Y11181608D01*
X5608321Y11181712D01*
X5606929Y11181937D01*
X5605432Y11182338D01*
X5603824Y11182937D01*
X5602086Y11183764D01*
X5600228Y11184837D01*
X5598389Y11186084D01*
X5593895Y11189800D01*
X5591569Y11192061D01*
X5589640Y11192828D01*
X5585258Y11197210D01*
X5570557Y11203300D01*
X5554643D01*
X5539942Y11197210D01*
X5528690Y11185958D01*
X5522600Y11171257D01*
Y11155343D01*
X5525055Y11149418D01*
X5521373Y11144988D01*
X5517327Y11141943D01*
X5511800Y11143043D01*
X5484205D01*
X5483234Y11143508D01*
X5481321Y11143612D01*
X5479929Y11143837D01*
X5478432Y11144238D01*
X5476824Y11144837D01*
X5475086Y11145664D01*
X5473228Y11146737D01*
X5471389Y11147984D01*
X5466895Y11151700D01*
X5464569Y11153961D01*
X5462640Y11154728D01*
X5458258Y11159110D01*
X5443557Y11165200D01*
X5427643D01*
X5412942Y11159110D01*
X5401690Y11147858D01*
X5395600Y11133157D01*
Y11117243D01*
X5401690Y11102542D01*
X5412942Y11091290D01*
X5427643Y11085200D01*
X5443557D01*
X5458258Y11091290D01*
X5462640Y11095672D01*
X5464569Y11096439D01*
X5467007Y11098809D01*
X5469175Y11100708D01*
X5471256Y11102325D01*
X5473227Y11103663D01*
X5475086Y11104736D01*
X5476823Y11105562D01*
X5478432Y11106162D01*
X5479929Y11106563D01*
X5481322Y11106788D01*
X5483234Y11106892D01*
X5484205Y11107357D01*
X5504409D01*
X5562076Y11049690D01*
X5556412Y11041213D01*
X5547751Y11044800D01*
X5529849D01*
X5513310Y11037949D01*
X5500651Y11025291D01*
X5493800Y11008751D01*
Y10990849D01*
X5500651Y10974310D01*
X5513310Y10961651D01*
X5529849Y10954800D01*
X5547751D01*
X5564291Y10961651D01*
X5576949Y10974310D01*
X5583800Y10990849D01*
Y11008751D01*
X5580213Y11017412D01*
X5588690Y11023076D01*
X5680714Y10931052D01*
X5681072Y10930037D01*
X5682351Y10928611D01*
X5683177Y10927465D01*
X5683949Y10926128D01*
X5684666Y10924562D01*
X5685309Y10922750D01*
X5685863Y10920679D01*
X5686283Y10918493D01*
X5686833Y10912690D01*
X5686879Y10909448D01*
X5687700Y10907541D01*
Y10901343D01*
X5693790Y10886642D01*
X5705042Y10875390D01*
X5719743Y10869300D01*
X5735657D01*
X5750358Y10875390D01*
X5761610Y10886642D01*
X5767700Y10901343D01*
Y10917257D01*
X5761610Y10931958D01*
X5750358Y10943210D01*
X5735657Y10949300D01*
X5729459D01*
X5727552Y10950121D01*
X5724157Y10950169D01*
X5721274Y10950360D01*
X5718666Y10950687D01*
X5716320Y10951137D01*
X5714248Y10951691D01*
X5712438Y10952335D01*
X5710871Y10953051D01*
X5709534Y10953823D01*
X5708388Y10954650D01*
X5706963Y10955928D01*
X5705948Y10956286D01*
X5546302Y11115931D01*
X5551967Y11124409D01*
X5554643Y11123300D01*
X5570557D01*
X5585258Y11129390D01*
X5589640Y11133772D01*
X5591569Y11134539D01*
X5594007Y11136909D01*
X5596175Y11138808D01*
X5598256Y11140425D01*
X5600227Y11141763D01*
X5602086Y11142836D01*
X5603823Y11143662D01*
X5605432Y11144262D01*
X5606929Y11144663D01*
X5608322Y11144888D01*
X5610234Y11144992D01*
X5611205Y11145457D01*
X5936209D01*
X6310222Y10771444D01*
X6310438Y10770860D01*
X6310670Y10768539D01*
X6308192Y10759332D01*
X6288599Y10748020D01*
X6269980Y10729401D01*
X6256815Y10706598D01*
X6250000Y10681165D01*
Y10654835D01*
X6256815Y10629402D01*
X6269980Y10606599D01*
X6288599Y10587980D01*
X6311402Y10574815D01*
X6336835Y10568000D01*
X6363165D01*
X6388598Y10574815D01*
X6411401Y10587980D01*
X6430020Y10606599D01*
X6443185Y10629402D01*
X6450000Y10654835D01*
Y10681165D01*
X6443185Y10706598D01*
X6430020Y10729401D01*
X6411401Y10748020D01*
X6388598Y10761185D01*
X6363165Y10768000D01*
X6355104D01*
X6353775Y10768714D01*
X6353742Y10768851D01*
X6353584Y10770064D01*
X6353503Y10772133D01*
X6352523Y10774262D01*
X6351672Y10778541D01*
X6347804Y10784329D01*
X6314502Y10817631D01*
X6319678Y10826597D01*
X6336835Y10822000D01*
X6363165D01*
X6388598Y10828815D01*
X6411401Y10841980D01*
X6430020Y10860599D01*
X6443185Y10883402D01*
X6450000Y10908835D01*
Y10935165D01*
X6443185Y10960598D01*
X6430020Y10983401D01*
X6411401Y11002020D01*
X6388598Y11015185D01*
X6363165Y11022000D01*
X6351156D01*
X6349262Y11022818D01*
X6320928Y11023240D01*
X6297761Y11025088D01*
X6288304Y11026493D01*
X6280078Y11028219D01*
X6273241Y11030202D01*
X6267846Y11032359D01*
X6263932Y11034546D01*
X6260516Y11037315D01*
X6259667Y11037566D01*
X6032417Y11264817D01*
X6026628Y11268685D01*
X6019800Y11270043D01*
X5700105D01*
X5699134Y11270508D01*
X5697221Y11270612D01*
X5695829Y11270837D01*
X5694332Y11271238D01*
X5692724Y11271837D01*
X5690986Y11272664D01*
X5689128Y11273737D01*
X5687289Y11274984D01*
X5682795Y11278700D01*
X5680469Y11280961D01*
X5678540Y11281728D01*
X5674158Y11286110D01*
X5659457Y11292200D01*
D02*
G37*
G36*
X5965300Y11069276D02*
X5820300D01*
X5811521Y11067530D01*
X5804079Y11062557D01*
X5799106Y11055114D01*
X5797359Y11046335D01*
Y10971335D01*
X5799106Y10962556D01*
X5804079Y10955114D01*
X5811521Y10950141D01*
X5820300Y10948395D01*
X5955350D01*
X5955995Y10948090D01*
X5957590Y10948012D01*
X5958678Y10947853D01*
X5959809Y10947577D01*
X5961000Y10947167D01*
X5962271Y10946604D01*
X5963621Y10945872D01*
X5965054Y10944949D01*
X5966563Y10943827D01*
X5968141Y10942491D01*
X5969981Y10940745D01*
X5971077Y10940325D01*
X6031508Y10879893D01*
X6037297Y10876025D01*
X6041650Y10875160D01*
X6043809Y10874191D01*
X6044029Y10874184D01*
X6049390Y10861242D01*
X6060642Y10849990D01*
X6075343Y10843900D01*
X6091257D01*
X6105958Y10849990D01*
X6117210Y10861242D01*
X6123300Y10875943D01*
Y10891857D01*
X6117210Y10906558D01*
X6105958Y10917810D01*
X6091257Y10923900D01*
X6075343D01*
X6060642Y10917810D01*
X6058719Y10915887D01*
X6047901Y10915217D01*
X6046113Y10915756D01*
X5996311Y10965558D01*
X5995890Y10966654D01*
X5994142Y10968497D01*
X5992809Y10970072D01*
X5991686Y10971581D01*
X5990763Y10973014D01*
X5990031Y10974364D01*
X5989468Y10975635D01*
X5989059Y10976826D01*
X5988782Y10977958D01*
X5988623Y10979045D01*
X5988545Y10980640D01*
X5988240Y10981286D01*
Y11046335D01*
X5986494Y11055114D01*
X5981521Y11062557D01*
X5974079Y11067530D01*
X5965300Y11069276D01*
D02*
G37*
G36*
X4331165Y11022000D02*
X4304835D01*
X4279402Y11015185D01*
X4256599Y11002020D01*
X4237980Y10983401D01*
X4224815Y10960598D01*
X4218000Y10935165D01*
Y10908835D01*
X4224815Y10883402D01*
X4237980Y10860599D01*
X4256599Y10841980D01*
X4279402Y10828815D01*
X4304835Y10822000D01*
X4331165D01*
X4356598Y10828815D01*
X4379401Y10841980D01*
X4398020Y10860599D01*
X4411185Y10883402D01*
X4418000Y10908835D01*
Y10935165D01*
X4411185Y10960598D01*
X4398020Y10983401D01*
X4379401Y11002020D01*
X4356598Y11015185D01*
X4331165Y11022000D01*
D02*
G37*
G36*
X6108700Y10786204D02*
Y10744200D01*
X6150704D01*
X6142966Y10762881D01*
X6127381Y10778466D01*
X6108700Y10786204D01*
D02*
G37*
G36*
X6083300D02*
X6064619Y10778466D01*
X6049034Y10762881D01*
X6041296Y10744200D01*
X6083300D01*
Y10786204D01*
D02*
G37*
G36*
X6150704Y10718800D02*
X6108700D01*
Y10676796D01*
X6127381Y10684534D01*
X6142966Y10700119D01*
X6150704Y10718800D01*
D02*
G37*
G36*
X6083300D02*
X6041296D01*
X6049034Y10700119D01*
X6064619Y10684534D01*
X6083300Y10676796D01*
Y10718800D01*
D02*
G37*
G36*
X5965300Y10879276D02*
X5820300D01*
X5811521Y10877529D01*
X5804079Y10872557D01*
X5799106Y10865114D01*
X5797359Y10856335D01*
Y10781335D01*
X5799106Y10772556D01*
X5804079Y10765114D01*
X5811521Y10760141D01*
X5820300Y10758395D01*
X5925757D01*
Y10703905D01*
X5920942Y10701910D01*
X5909690Y10690658D01*
X5903600Y10675957D01*
Y10660043D01*
X5909690Y10645342D01*
X5920942Y10634090D01*
X5935643Y10628000D01*
X5951557D01*
X5966258Y10634090D01*
X5977510Y10645342D01*
X5983600Y10660043D01*
Y10675957D01*
X5977510Y10690658D01*
X5966258Y10701910D01*
X5961443Y10703905D01*
Y10758395D01*
X5965300D01*
X5974079Y10760141D01*
X5981521Y10765114D01*
X5986494Y10772556D01*
X5988240Y10781335D01*
Y10856335D01*
X5986494Y10865114D01*
X5981521Y10872557D01*
X5974079Y10877529D01*
X5965300Y10879276D01*
D02*
G37*
G36*
X4331165Y10768000D02*
X4304835D01*
X4279402Y10761185D01*
X4256599Y10748020D01*
X4237980Y10729401D01*
X4224815Y10706598D01*
X4218000Y10681165D01*
Y10654835D01*
X4224815Y10629402D01*
X4237980Y10606599D01*
X4256599Y10587980D01*
X4279402Y10574815D01*
X4304835Y10568000D01*
X4331165D01*
X4356598Y10574815D01*
X4379401Y10587980D01*
X4398020Y10606599D01*
X4411185Y10629402D01*
X4418000Y10654835D01*
Y10681165D01*
X4411185Y10706598D01*
X4398020Y10729401D01*
X4379401Y10748020D01*
X4356598Y10761185D01*
X4331165Y10768000D01*
D02*
G37*
G36*
X4914701Y10660629D02*
Y10543950D01*
X4978051D01*
Y10586250D01*
X4975460Y10605934D01*
X4967862Y10624275D01*
X4955776Y10640026D01*
X4940026Y10652112D01*
X4921684Y10659709D01*
X4914701Y10660629D01*
D02*
G37*
G36*
X4889301Y10660629D02*
X4882317Y10659709D01*
X4863975Y10652112D01*
X4848224Y10640026D01*
X4836139Y10624275D01*
X4828541Y10605934D01*
X4825950Y10586250D01*
Y10543950D01*
X4889301D01*
Y10660629D01*
D02*
G37*
G36*
X5631454Y10523750D02*
X5614546D01*
X5598926Y10517280D01*
X5586970Y10505324D01*
X5580500Y10489704D01*
Y10472796D01*
X5586970Y10457176D01*
X5598926Y10445220D01*
X5614546Y10438750D01*
X5631454D01*
X5647075Y10445220D01*
X5659030Y10457176D01*
X5665500Y10472796D01*
Y10489704D01*
X5659030Y10505324D01*
X5647075Y10517280D01*
X5631454Y10523750D01*
D02*
G37*
G36*
X5053454D02*
X5036546D01*
X5020926Y10517280D01*
X5008970Y10505324D01*
X5002500Y10489704D01*
Y10472796D01*
X5008970Y10457176D01*
X5020926Y10445220D01*
X5036546Y10438750D01*
X5053454D01*
X5069075Y10445220D01*
X5081030Y10457176D01*
X5087500Y10472796D01*
Y10489704D01*
X5081030Y10505324D01*
X5069075Y10517280D01*
X5053454Y10523750D01*
D02*
G37*
G36*
X5842051Y10518550D02*
X5778701D01*
Y10401871D01*
X5785684Y10402790D01*
X5804025Y10410388D01*
X5819776Y10422474D01*
X5831862Y10438224D01*
X5839459Y10456566D01*
X5842051Y10476250D01*
Y10518550D01*
D02*
G37*
G36*
X4978051D02*
X4914701D01*
Y10401871D01*
X4921684Y10402790D01*
X4940026Y10410388D01*
X4955776Y10422474D01*
X4967862Y10438224D01*
X4975460Y10456566D01*
X4978051Y10476250D01*
Y10518550D01*
D02*
G37*
G36*
X5753301D02*
X5689950D01*
Y10476250D01*
X5692541Y10456566D01*
X5700138Y10438224D01*
X5712224Y10422474D01*
X5727975Y10410388D01*
X5746317Y10402790D01*
X5753301Y10401871D01*
Y10518550D01*
D02*
G37*
G36*
X4889301D02*
X4825950D01*
Y10476250D01*
X4828541Y10456566D01*
X4836139Y10438224D01*
X4848224Y10422474D01*
X4863975Y10410388D01*
X4882317Y10402790D01*
X4889301Y10401871D01*
Y10518550D01*
D02*
G37*
G36*
X4630757Y10581000D02*
X4614843D01*
X4600142Y10574910D01*
X4588890Y10563658D01*
X4582800Y10548957D01*
Y10533043D01*
X4588890Y10518342D01*
X4593272Y10513960D01*
X4594039Y10512031D01*
X4596409Y10509593D01*
X4598308Y10507425D01*
X4599925Y10505344D01*
X4601263Y10503373D01*
X4602336Y10501514D01*
X4603162Y10499777D01*
X4603762Y10498168D01*
X4604163Y10496671D01*
X4604388Y10495278D01*
X4604492Y10493366D01*
X4604957Y10492395D01*
Y10448291D01*
X4604480Y10447219D01*
X4604414Y10444704D01*
X4604254Y10442900D01*
X4604178Y10442441D01*
X4569125D01*
X4560346Y10440694D01*
X4552904Y10435722D01*
X4547931Y10428279D01*
X4546184Y10419500D01*
Y10344500D01*
X4547931Y10335721D01*
X4552904Y10328279D01*
X4560346Y10323306D01*
X4569125Y10321559D01*
X4714125D01*
X4722904Y10323306D01*
X4730346Y10328279D01*
X4735319Y10335721D01*
X4737065Y10344500D01*
Y10419500D01*
X4735319Y10428279D01*
X4730346Y10435722D01*
X4722904Y10440694D01*
X4714125Y10442441D01*
X4641422D01*
X4641346Y10442900D01*
X4641186Y10444704D01*
X4641120Y10447219D01*
X4640643Y10448291D01*
Y10492395D01*
X4641108Y10493366D01*
X4641212Y10495279D01*
X4641437Y10496671D01*
X4641838Y10498168D01*
X4642437Y10499776D01*
X4643264Y10501514D01*
X4644337Y10503372D01*
X4645584Y10505211D01*
X4649300Y10509705D01*
X4651561Y10512031D01*
X4652328Y10513960D01*
X4656710Y10518342D01*
X4662800Y10533043D01*
Y10548957D01*
X4656710Y10563658D01*
X4645458Y10574910D01*
X4630757Y10581000D01*
D02*
G37*
G36*
X4331165Y10514000D02*
X4304835D01*
X4279402Y10507185D01*
X4256599Y10494020D01*
X4237980Y10475401D01*
X4224815Y10452598D01*
X4218000Y10427165D01*
Y10400835D01*
X4224815Y10375402D01*
X4237980Y10352599D01*
X4256599Y10333980D01*
X4279402Y10320815D01*
X4304835Y10314000D01*
X4331165D01*
X4356598Y10320815D01*
X4379401Y10333980D01*
X4398020Y10352599D01*
X4411185Y10375402D01*
X4418000Y10400835D01*
Y10427165D01*
X4411185Y10452598D01*
X4398020Y10475401D01*
X4379401Y10494020D01*
X4356598Y10507185D01*
X4331165Y10514000D01*
D02*
G37*
G36*
X5519757Y10504800D02*
X5503843D01*
X5489142Y10498710D01*
X5477890Y10487458D01*
X5471800Y10472757D01*
Y10456843D01*
X5477890Y10442142D01*
X5482272Y10437760D01*
X5483039Y10435831D01*
X5485409Y10433393D01*
X5487308Y10431225D01*
X5488925Y10429144D01*
X5490263Y10427173D01*
X5491336Y10425314D01*
X5492162Y10423577D01*
X5492762Y10421968D01*
X5493163Y10420471D01*
X5493388Y10419078D01*
X5493492Y10417166D01*
X5493957Y10416195D01*
Y10397491D01*
X5493480Y10396419D01*
X5493414Y10393904D01*
X5493254Y10392100D01*
X5493178Y10391641D01*
X5439300D01*
X5430521Y10389894D01*
X5423079Y10384922D01*
X5418106Y10377479D01*
X5416359Y10368700D01*
Y10293700D01*
X5418106Y10284921D01*
X5423079Y10277479D01*
X5430521Y10272506D01*
X5439300Y10270759D01*
X5584300D01*
X5593079Y10272506D01*
X5600521Y10277479D01*
X5605494Y10284921D01*
X5607240Y10293700D01*
Y10368700D01*
X5605494Y10377479D01*
X5600521Y10384922D01*
X5593079Y10389894D01*
X5584300Y10391641D01*
X5530422D01*
X5530346Y10392100D01*
X5530186Y10393904D01*
X5530120Y10396419D01*
X5529643Y10397491D01*
Y10416195D01*
X5530108Y10417166D01*
X5530212Y10419079D01*
X5530437Y10420471D01*
X5530838Y10421968D01*
X5531437Y10423576D01*
X5532264Y10425314D01*
X5533337Y10427172D01*
X5534584Y10429011D01*
X5538300Y10433505D01*
X5540561Y10435831D01*
X5541328Y10437760D01*
X5545710Y10442142D01*
X5551800Y10456843D01*
Y10472757D01*
X5545710Y10487458D01*
X5534458Y10498710D01*
X5519757Y10504800D01*
D02*
G37*
G36*
X5214957D02*
X5199043D01*
X5184342Y10498710D01*
X5173090Y10487458D01*
X5167000Y10472757D01*
Y10456843D01*
X5173090Y10442142D01*
X5177472Y10437760D01*
X5178239Y10435831D01*
X5180609Y10433393D01*
X5182508Y10431225D01*
X5184125Y10429144D01*
X5185463Y10427173D01*
X5186536Y10425314D01*
X5187362Y10423577D01*
X5187962Y10421968D01*
X5188363Y10420471D01*
X5188588Y10419078D01*
X5188692Y10417166D01*
X5189157Y10416195D01*
Y10397491D01*
X5188680Y10396419D01*
X5188614Y10393904D01*
X5188454Y10392100D01*
X5188378Y10391641D01*
X5134500D01*
X5125721Y10389894D01*
X5118279Y10384922D01*
X5113306Y10377479D01*
X5111559Y10368700D01*
Y10293700D01*
X5113306Y10284921D01*
X5118279Y10277479D01*
X5125721Y10272506D01*
X5134500Y10270759D01*
X5279500D01*
X5288279Y10272506D01*
X5295721Y10277479D01*
X5300694Y10284921D01*
X5302440Y10293700D01*
Y10368700D01*
X5300694Y10377479D01*
X5295721Y10384922D01*
X5288279Y10389894D01*
X5279500Y10391641D01*
X5225622D01*
X5225546Y10392100D01*
X5225386Y10393904D01*
X5225320Y10396419D01*
X5224843Y10397491D01*
Y10416195D01*
X5225308Y10417166D01*
X5225412Y10419079D01*
X5225637Y10420471D01*
X5226038Y10421968D01*
X5226637Y10423576D01*
X5227464Y10425314D01*
X5228537Y10427172D01*
X5229784Y10429011D01*
X5233500Y10433505D01*
X5235761Y10435831D01*
X5236528Y10437760D01*
X5240910Y10442142D01*
X5247000Y10456843D01*
Y10472757D01*
X5240910Y10487458D01*
X5229658Y10498710D01*
X5214957Y10504800D01*
D02*
G37*
G36*
X6365193Y10275400D02*
X6362700D01*
Y10172700D01*
X6465400D01*
Y10175193D01*
X6457535Y10204543D01*
X6442343Y10230857D01*
X6420857Y10252343D01*
X6394543Y10267535D01*
X6365193Y10275400D01*
D02*
G37*
G36*
X6337300D02*
X6334807D01*
X6305457Y10267535D01*
X6279143Y10252343D01*
X6257657Y10230857D01*
X6242465Y10204543D01*
X6234600Y10175193D01*
Y10172700D01*
X6337300D01*
Y10275400D01*
D02*
G37*
G36*
X5279500Y10217342D02*
X5219700D01*
Y10153900D01*
X5318142D01*
Y10178700D01*
X5315201Y10193488D01*
X5306824Y10206024D01*
X5294288Y10214401D01*
X5279500Y10217342D01*
D02*
G37*
G36*
X5499100D02*
X5439300D01*
X5424512Y10214401D01*
X5411976Y10206024D01*
X5403599Y10193488D01*
X5400658Y10178700D01*
Y10153900D01*
X5499100D01*
Y10217342D01*
D02*
G37*
G36*
X5753300Y10227629D02*
X5746317Y10226709D01*
X5727975Y10219112D01*
X5712224Y10207026D01*
X5700138Y10191275D01*
X5692541Y10172933D01*
X5689950Y10153250D01*
Y10146318D01*
X5622942D01*
Y10178700D01*
X5620001Y10193488D01*
X5611624Y10206024D01*
X5599088Y10214401D01*
X5584300Y10217342D01*
X5524500D01*
Y10141200D01*
Y10065058D01*
X5584300D01*
X5599088Y10067999D01*
X5611624Y10076376D01*
X5620001Y10088912D01*
X5622942Y10103700D01*
Y10110632D01*
X5689950D01*
Y10073250D01*
X5692541Y10053567D01*
X5700138Y10035225D01*
X5712224Y10019474D01*
X5727975Y10007388D01*
X5746317Y9999791D01*
X5753300Y9998872D01*
Y10113250D01*
Y10227629D01*
D02*
G37*
G36*
X5778700Y10227629D02*
Y10125950D01*
X5842051D01*
Y10153250D01*
X5839459Y10172933D01*
X5831862Y10191275D01*
X5819776Y10207026D01*
X5804025Y10219112D01*
X5785684Y10226709D01*
X5778700Y10227629D01*
D02*
G37*
G36*
X4889300Y10227629D02*
X4882317Y10226709D01*
X4863975Y10219112D01*
X4848224Y10207026D01*
X4836139Y10191275D01*
X4828541Y10172933D01*
X4825950Y10153250D01*
Y10125950D01*
X4889300D01*
Y10227629D01*
D02*
G37*
G36*
X5499100Y10128500D02*
X5400658D01*
Y10103700D01*
X5403599Y10088912D01*
X5411976Y10076376D01*
X5424512Y10067999D01*
X5439300Y10065058D01*
X5499100D01*
Y10128500D01*
D02*
G37*
G36*
X5318142D02*
X5219700D01*
Y10065058D01*
X5279500D01*
X5294288Y10067999D01*
X5306824Y10076376D01*
X5315201Y10088912D01*
X5318142Y10103700D01*
Y10128500D01*
D02*
G37*
G36*
X4914700Y10227629D02*
Y10113250D01*
Y9998871D01*
X4921684Y9999791D01*
X4940026Y10007388D01*
X4955776Y10019474D01*
X4967862Y10035225D01*
X4975460Y10053567D01*
X4978051Y10073250D01*
Y10110632D01*
X5095858D01*
Y10103700D01*
X5098799Y10088912D01*
X5107176Y10076376D01*
X5119712Y10067999D01*
X5134500Y10065058D01*
X5194300D01*
Y10141200D01*
Y10217342D01*
X5134500D01*
X5119712Y10214401D01*
X5107176Y10206024D01*
X5098799Y10193488D01*
X5095858Y10178700D01*
Y10146318D01*
X4978051D01*
Y10153250D01*
X4975460Y10172933D01*
X4967862Y10191275D01*
X4955776Y10207026D01*
X4940026Y10219112D01*
X4921684Y10226709D01*
X4914700Y10227629D01*
D02*
G37*
G36*
X4331165Y10260000D02*
X4304835D01*
X4279402Y10253185D01*
X4256599Y10240020D01*
X4237980Y10221401D01*
X4224815Y10198598D01*
X4218000Y10173165D01*
Y10146835D01*
X4224815Y10121402D01*
X4237980Y10098599D01*
X4256599Y10079980D01*
X4279402Y10066815D01*
X4304835Y10060000D01*
X4331165D01*
X4356598Y10066815D01*
X4379401Y10079980D01*
X4398020Y10098599D01*
X4411185Y10121402D01*
X4418000Y10146835D01*
Y10173165D01*
X4411185Y10198598D01*
X4398020Y10221401D01*
X4379401Y10240020D01*
X4356598Y10253185D01*
X4331165Y10260000D01*
D02*
G37*
G36*
X6465400Y10147300D02*
X6362700D01*
Y10044600D01*
X6365193D01*
X6394543Y10052465D01*
X6420857Y10067657D01*
X6442343Y10089143D01*
X6457535Y10115457D01*
X6465400Y10144807D01*
Y10147300D01*
D02*
G37*
G36*
X6337300D02*
X6234600D01*
Y10144807D01*
X6242465Y10115457D01*
X6257657Y10089143D01*
X6279143Y10067657D01*
X6305457Y10052465D01*
X6334807Y10044600D01*
X6337300D01*
Y10147300D01*
D02*
G37*
G36*
X4714125Y10252441D02*
X4569125D01*
X4560346Y10250694D01*
X4552904Y10245721D01*
X4547931Y10238279D01*
X4546184Y10229500D01*
Y10154500D01*
X4547931Y10145721D01*
X4552904Y10138278D01*
X4560346Y10133306D01*
X4569125Y10131559D01*
X4613077D01*
X4613154Y10131100D01*
X4613313Y10129296D01*
X4613379Y10126781D01*
X4613856Y10125709D01*
Y10090014D01*
X4613391Y10089043D01*
X4613287Y10087131D01*
X4613062Y10085739D01*
X4612661Y10084242D01*
X4612062Y10082633D01*
X4611235Y10080896D01*
X4610162Y10079037D01*
X4608915Y10077199D01*
X4605199Y10072704D01*
X4602938Y10070379D01*
X4602171Y10068450D01*
X4597789Y10064068D01*
X4591699Y10049366D01*
Y10033453D01*
X4597789Y10018751D01*
X4609041Y10007499D01*
X4623743Y10001410D01*
X4639656D01*
X4654357Y10007499D01*
X4665609Y10018751D01*
X4671699Y10033453D01*
Y10049366D01*
X4665609Y10064068D01*
X4661227Y10068450D01*
X4660460Y10070378D01*
X4658090Y10072817D01*
X4656191Y10074985D01*
X4654574Y10077065D01*
X4653237Y10079037D01*
X4652163Y10080896D01*
X4651337Y10082632D01*
X4650737Y10084242D01*
X4650336Y10085739D01*
X4650111Y10087131D01*
X4650007Y10089043D01*
X4649542Y10090014D01*
Y10125709D01*
X4650019Y10126781D01*
X4650085Y10129296D01*
X4650245Y10131100D01*
X4650321Y10131559D01*
X4714125D01*
X4722904Y10133306D01*
X4730346Y10138278D01*
X4735319Y10145721D01*
X4737065Y10154500D01*
Y10229500D01*
X4735319Y10238279D01*
X4730346Y10245721D01*
X4722904Y10250694D01*
X4714125Y10252441D01*
D02*
G37*
G36*
X4889300Y10100550D02*
X4825950D01*
Y10073250D01*
X4828541Y10053567D01*
X4836139Y10035225D01*
X4848224Y10019474D01*
X4863975Y10007388D01*
X4882317Y9999791D01*
X4889300Y9998872D01*
Y10100550D01*
D02*
G37*
G36*
X5842051D02*
X5778700D01*
Y9998871D01*
X5785684Y9999791D01*
X5804025Y10007388D01*
X5819776Y10019474D01*
X5831862Y10035225D01*
X5839459Y10053567D01*
X5842051Y10073250D01*
Y10100550D01*
D02*
G37*
G36*
X6117700Y10252441D02*
X5972700D01*
X5963921Y10250694D01*
X5956479Y10245721D01*
X5951506Y10238279D01*
X5949759Y10229500D01*
Y10154500D01*
X5951506Y10145721D01*
X5956479Y10138278D01*
X5963921Y10133306D01*
X5972700Y10131559D01*
X6026578D01*
X6026654Y10131100D01*
X6026814Y10129296D01*
X6026880Y10126781D01*
X6027357Y10125709D01*
Y10087188D01*
X6026891Y10086214D01*
X6026790Y10084314D01*
X6026566Y10082906D01*
X6026164Y10081375D01*
X6025561Y10079710D01*
X6024732Y10077909D01*
X6023659Y10075980D01*
X6022406Y10074051D01*
X6018727Y10069371D01*
X6016493Y10066936D01*
X6015837Y10065138D01*
X6012193Y10061494D01*
X6006104Y10046792D01*
Y10030879D01*
X6012193Y10016178D01*
X6023446Y10004926D01*
X6038147Y9998836D01*
X6054060D01*
X6068762Y10004926D01*
X6080014Y10016178D01*
X6086104Y10030879D01*
Y10046792D01*
X6080014Y10061494D01*
X6074846Y10066662D01*
X6073988Y10068650D01*
X6071589Y10070979D01*
X6069678Y10073049D01*
X6068061Y10075033D01*
X6066723Y10076925D01*
X6065654Y10078709D01*
X6064834Y10080378D01*
X6064237Y10081938D01*
X6063839Y10083395D01*
X6063613Y10084770D01*
X6063508Y10086694D01*
X6063043Y10087663D01*
Y10125709D01*
X6063520Y10126781D01*
X6063586Y10129296D01*
X6063746Y10131100D01*
X6063822Y10131559D01*
X6117700D01*
X6126479Y10133306D01*
X6133921Y10138278D01*
X6138894Y10145721D01*
X6140640Y10154500D01*
Y10229500D01*
X6138894Y10238279D01*
X6133921Y10245721D01*
X6126479Y10250694D01*
X6117700Y10252441D01*
D02*
G37*
%LPD*%
G36*
X4510290Y13693695D02*
X4509232Y13695084D01*
X4507934Y13696326D01*
X4506394Y13697421D01*
X4504615Y13698370D01*
X4502595Y13699174D01*
X4500334Y13699831D01*
X4497833Y13700343D01*
X4495092Y13700708D01*
X4492110Y13700928D01*
X4488887Y13700999D01*
X4496210Y13731000D01*
X4499482Y13731038D01*
X4507953Y13731612D01*
X4510327Y13731955D01*
X4514402Y13732870D01*
X4516102Y13733443D01*
X4517578Y13734093D01*
X4518829Y13734818D01*
X4510290Y13693695D01*
D02*
G37*
G36*
X4391526Y13769881D02*
X4409096Y13754520D01*
X4417411Y13748280D01*
X4425414Y13742999D01*
X4433105Y13738680D01*
X4440483Y13735320D01*
X4447548Y13732919D01*
X4454301Y13731480D01*
X4460741Y13731000D01*
Y13700999D01*
X4454301Y13700520D01*
X4447548Y13699080D01*
X4440483Y13696680D01*
X4433105Y13693320D01*
X4425414Y13689000D01*
X4417411Y13683720D01*
X4409096Y13677480D01*
X4391526Y13662120D01*
X4382273Y13653000D01*
Y13778999D01*
X4391526Y13769881D01*
D02*
G37*
G36*
X5349873Y13037767D02*
X5348063Y13035851D01*
X5346443Y13033913D01*
X5345013Y13031952D01*
X5343774Y13029971D01*
X5342726Y13027968D01*
X5341868Y13025943D01*
X5341201Y13023897D01*
X5340725Y13021831D01*
X5340439Y13019740D01*
X5340343Y13017630D01*
X5319130Y13038843D01*
X5321241Y13038939D01*
X5323330Y13039224D01*
X5325397Y13039700D01*
X5327443Y13040369D01*
X5329468Y13041226D01*
X5331471Y13042274D01*
X5333452Y13043513D01*
X5335412Y13044943D01*
X5337350Y13046564D01*
X5339267Y13048373D01*
X5349873Y13037767D01*
D02*
G37*
G36*
X4408024Y13446158D02*
X4410328Y13408534D01*
X4411834Y13398395D01*
X4413710Y13389455D01*
X4415955Y13381715D01*
X4418569Y13375177D01*
X4421552Y13369839D01*
X4424905Y13365701D01*
X4414299Y13355095D01*
X4410161Y13358447D01*
X4404823Y13361430D01*
X4398284Y13364046D01*
X4390545Y13366290D01*
X4381605Y13368166D01*
X4371465Y13369672D01*
X4347584Y13371577D01*
X4318900Y13372005D01*
X4407995Y13461099D01*
X4408024Y13446158D01*
D02*
G37*
G36*
Y13192159D02*
X4410328Y13154535D01*
X4411834Y13144395D01*
X4413710Y13135455D01*
X4415955Y13127716D01*
X4418569Y13121178D01*
X4421552Y13115839D01*
X4424905Y13111700D01*
X4414299Y13101096D01*
X4410161Y13104448D01*
X4404823Y13107431D01*
X4398284Y13110045D01*
X4390545Y13112289D01*
X4381605Y13114166D01*
X4371465Y13115672D01*
X4347584Y13117577D01*
X4318900Y13118005D01*
X4407995Y13207100D01*
X4408024Y13192159D01*
D02*
G37*
G36*
X5167181Y12750477D02*
X5165351Y12753312D01*
X5163433Y12755849D01*
X5161427Y12758088D01*
X5159333Y12760028D01*
X5157152Y12761669D01*
X5154883Y12763012D01*
X5152525Y12764057D01*
X5150080Y12764803D01*
X5147547Y12765251D01*
X5144927Y12765400D01*
X5148669Y12780400D01*
X5150915Y12780509D01*
X5153292Y12780837D01*
X5155799Y12781382D01*
X5158437Y12782146D01*
X5161205Y12783128D01*
X5167133Y12785747D01*
X5170293Y12787384D01*
X5177004Y12791312D01*
X5167181Y12750477D01*
D02*
G37*
G36*
X5071276Y12691700D02*
X5068638Y12694265D01*
X5063412Y12698585D01*
X5060825Y12700340D01*
X5058254Y12701825D01*
X5055700Y12703040D01*
X5053163Y12703985D01*
X5050643Y12704660D01*
X5048139Y12705065D01*
X5045653Y12705200D01*
Y12720200D01*
X5048139Y12720335D01*
X5050643Y12720740D01*
X5053163Y12721415D01*
X5055700Y12722360D01*
X5058254Y12723575D01*
X5060825Y12725060D01*
X5063412Y12726815D01*
X5066016Y12728840D01*
X5068638Y12731135D01*
X5071276Y12733700D01*
Y12691700D01*
D02*
G37*
G36*
X5450470Y12869157D02*
X5448359Y12869061D01*
X5446270Y12868774D01*
X5444203Y12868298D01*
X5442157Y12867632D01*
X5440132Y12866774D01*
X5438129Y12865726D01*
X5436148Y12864487D01*
X5434188Y12863057D01*
X5432250Y12861436D01*
X5430333Y12859627D01*
X5419727Y12870233D01*
X5421537Y12872150D01*
X5423157Y12874088D01*
X5424587Y12876048D01*
X5425826Y12878029D01*
X5426874Y12880032D01*
X5427732Y12882057D01*
X5428399Y12884103D01*
X5428875Y12886169D01*
X5429161Y12888258D01*
X5429257Y12890370D01*
X5450470Y12869157D01*
D02*
G37*
G36*
X5367035Y12744561D02*
X5367440Y12742057D01*
X5368115Y12739537D01*
X5369060Y12737000D01*
X5370275Y12734446D01*
X5371760Y12731875D01*
X5373515Y12729288D01*
X5375540Y12726684D01*
X5377835Y12724062D01*
X5380400Y12721424D01*
X5338400D01*
X5340965Y12724062D01*
X5345285Y12729288D01*
X5347040Y12731875D01*
X5348525Y12734446D01*
X5349740Y12737000D01*
X5350685Y12739537D01*
X5351360Y12742057D01*
X5351765Y12744561D01*
X5351900Y12747047D01*
X5366900D01*
X5367035Y12744561D01*
D02*
G37*
G36*
X6281518Y13880305D02*
X6279397Y13880199D01*
X6277275Y13879881D01*
X6275154Y13879350D01*
X6273033Y13878609D01*
X6270912Y13877654D01*
X6268790Y13876488D01*
X6266669Y13875108D01*
X6264548Y13873517D01*
X6262426Y13871713D01*
X6260305Y13869698D01*
X6249698Y13880305D01*
X6251714Y13882426D01*
X6253517Y13884547D01*
X6255108Y13886668D01*
X6256487Y13888789D01*
X6257653Y13890912D01*
X6258608Y13893033D01*
X6259350Y13895154D01*
X6259881Y13897275D01*
X6260199Y13899397D01*
X6260305Y13901518D01*
X6281518Y13880305D01*
D02*
G37*
G36*
X6366742Y13627571D02*
X6362986Y13626657D01*
X6359625Y13625410D01*
X6356660Y13623833D01*
X6354090Y13621922D01*
X6351915Y13619682D01*
X6350136Y13617110D01*
X6348752Y13614204D01*
X6347764Y13610968D01*
X6347170Y13607401D01*
X6346973Y13603500D01*
X6331973D01*
X6331785Y13607755D01*
X6331221Y13611739D01*
X6330281Y13615453D01*
X6328964Y13618896D01*
X6327272Y13622070D01*
X6325204Y13624973D01*
X6322760Y13627605D01*
X6319940Y13629967D01*
X6316744Y13632059D01*
X6313171Y13633881D01*
X6366742Y13627571D01*
D02*
G37*
G36*
X6349100Y13372005D02*
X6334158Y13371976D01*
X6296535Y13369672D01*
X6286395Y13368166D01*
X6277455Y13366290D01*
X6269716Y13364046D01*
X6263177Y13361430D01*
X6257839Y13358447D01*
X6253701Y13355095D01*
X6243095Y13365701D01*
X6246448Y13369839D01*
X6249431Y13375177D01*
X6252045Y13381715D01*
X6254290Y13389455D01*
X6256166Y13398395D01*
X6257672Y13408534D01*
X6259577Y13432416D01*
X6260005Y13461099D01*
X6349100Y13372005D01*
D02*
G37*
G36*
Y13118005D02*
X6334158Y13117976D01*
X6296535Y13115672D01*
X6286395Y13114166D01*
X6277455Y13112289D01*
X6269716Y13110045D01*
X6263177Y13107431D01*
X6257839Y13104448D01*
X6253701Y13101096D01*
X6243095Y13111700D01*
X6246448Y13115839D01*
X6249431Y13121178D01*
X6252045Y13127716D01*
X6254290Y13135455D01*
X6256166Y13144395D01*
X6257672Y13154535D01*
X6259577Y13178416D01*
X6260005Y13207100D01*
X6349100Y13118005D01*
D02*
G37*
G36*
Y12864005D02*
X6334158Y12863976D01*
X6296535Y12861671D01*
X6286395Y12860165D01*
X6277455Y12858290D01*
X6269716Y12856046D01*
X6263177Y12853432D01*
X6257839Y12850449D01*
X6253701Y12847095D01*
X6243095Y12857701D01*
X6246448Y12861839D01*
X6249431Y12867177D01*
X6252045Y12873717D01*
X6254290Y12881454D01*
X6256166Y12890395D01*
X6257672Y12900536D01*
X6259577Y12924416D01*
X6260005Y12953101D01*
X6349100Y12864005D01*
D02*
G37*
G36*
X5867871Y12766064D02*
X5866208Y12764210D01*
X5864724Y12762154D01*
X5863420Y12759895D01*
X5862294Y12757432D01*
X5861347Y12754767D01*
X5860579Y12751900D01*
X5859991Y12748829D01*
X5859581Y12745555D01*
X5859350Y12742079D01*
X5859298Y12738400D01*
X5829600Y12768098D01*
X5833279Y12768150D01*
X5840029Y12768791D01*
X5843100Y12769379D01*
X5845967Y12770147D01*
X5848632Y12771094D01*
X5851095Y12772220D01*
X5853354Y12773524D01*
X5855410Y12775008D01*
X5857264Y12776671D01*
X5867871Y12766064D01*
D02*
G37*
G36*
X6285727Y12637000D02*
X6275141Y12647545D01*
X6246909Y12672520D01*
X6238673Y12678625D01*
X6231026Y12683620D01*
X6223966Y12687505D01*
X6217494Y12690280D01*
X6211610Y12691945D01*
X6206313Y12692500D01*
Y12707500D01*
X6211610Y12708055D01*
X6217494Y12709720D01*
X6223966Y12712495D01*
X6231026Y12716380D01*
X6238673Y12721375D01*
X6246909Y12727480D01*
X6265142Y12743020D01*
X6285727Y12763000D01*
Y12637000D01*
D02*
G37*
G36*
X5880571Y12651764D02*
X5878908Y12649910D01*
X5877424Y12647854D01*
X5876120Y12645595D01*
X5874994Y12643132D01*
X5874047Y12640467D01*
X5873279Y12637600D01*
X5872691Y12634529D01*
X5872281Y12631255D01*
X5872050Y12627779D01*
X5871998Y12624100D01*
X5842300Y12653798D01*
X5845979Y12653850D01*
X5852729Y12654491D01*
X5855800Y12655079D01*
X5858667Y12655847D01*
X5861332Y12656794D01*
X5863795Y12657920D01*
X5866054Y12659224D01*
X5868110Y12660708D01*
X5869964Y12662371D01*
X5880571Y12651764D01*
D02*
G37*
G36*
X5664671D02*
X5663008Y12649910D01*
X5661524Y12647854D01*
X5660220Y12645595D01*
X5659094Y12643132D01*
X5658147Y12640467D01*
X5657379Y12637600D01*
X5656791Y12634529D01*
X5656381Y12631255D01*
X5656150Y12627779D01*
X5656098Y12624100D01*
X5626400Y12653798D01*
X5630079Y12653850D01*
X5636829Y12654491D01*
X5639900Y12655079D01*
X5642767Y12655847D01*
X5645432Y12656794D01*
X5647895Y12657920D01*
X5650154Y12659224D01*
X5652210Y12660708D01*
X5654064Y12662371D01*
X5664671Y12651764D01*
D02*
G37*
G36*
X5982171Y12499364D02*
X5980508Y12497510D01*
X5979024Y12495454D01*
X5977720Y12493195D01*
X5976594Y12490732D01*
X5975647Y12488067D01*
X5974879Y12485200D01*
X5974291Y12482129D01*
X5973881Y12478855D01*
X5973650Y12475379D01*
X5973598Y12471700D01*
X5943900Y12501398D01*
X5947579Y12501450D01*
X5954329Y12502091D01*
X5957400Y12502679D01*
X5960267Y12503447D01*
X5962932Y12504394D01*
X5965395Y12505520D01*
X5967654Y12506824D01*
X5969710Y12508308D01*
X5971564Y12509971D01*
X5982171Y12499364D01*
D02*
G37*
G36*
X5802562Y12502535D02*
X5807788Y12498215D01*
X5810375Y12496460D01*
X5812946Y12494975D01*
X5815500Y12493760D01*
X5818037Y12492815D01*
X5820557Y12492140D01*
X5823061Y12491735D01*
X5825547Y12491600D01*
Y12476600D01*
X5823061Y12476465D01*
X5820557Y12476060D01*
X5818037Y12475385D01*
X5815500Y12474440D01*
X5812946Y12473225D01*
X5810375Y12471740D01*
X5807788Y12469985D01*
X5805184Y12467960D01*
X5802562Y12465665D01*
X5799924Y12463100D01*
Y12505100D01*
X5802562Y12502535D01*
D02*
G37*
G36*
X5595635Y12249261D02*
X5596040Y12246757D01*
X5596715Y12244237D01*
X5597660Y12241700D01*
X5598875Y12239146D01*
X5600360Y12236575D01*
X5602115Y12233988D01*
X5604140Y12231384D01*
X5606435Y12228762D01*
X5609000Y12226124D01*
X5567000D01*
X5569565Y12228762D01*
X5573885Y12233988D01*
X5575640Y12236575D01*
X5577125Y12239146D01*
X5578340Y12241700D01*
X5579285Y12244237D01*
X5579960Y12246757D01*
X5580365Y12249261D01*
X5580500Y12251747D01*
X5595500D01*
X5595635Y12249261D01*
D02*
G37*
G36*
X4408024Y12938158D02*
X4410328Y12900536D01*
X4411834Y12890395D01*
X4413710Y12881454D01*
X4415955Y12873717D01*
X4418569Y12867177D01*
X4421552Y12861839D01*
X4424905Y12857701D01*
X4414299Y12847095D01*
X4410161Y12850449D01*
X4404823Y12853432D01*
X4398284Y12856046D01*
X4390545Y12858290D01*
X4381605Y12860165D01*
X4371465Y12861671D01*
X4347584Y12863577D01*
X4318900Y12864005D01*
X4407995Y12953101D01*
X4408024Y12938158D01*
D02*
G37*
G36*
X5033176Y12590100D02*
X5030538Y12592665D01*
X5025312Y12596985D01*
X5022725Y12598740D01*
X5020154Y12600225D01*
X5017600Y12601440D01*
X5015063Y12602385D01*
X5012543Y12603060D01*
X5010039Y12603465D01*
X5007553Y12603600D01*
Y12618600D01*
X5010039Y12618735D01*
X5012543Y12619140D01*
X5015063Y12619815D01*
X5017600Y12620760D01*
X5020154Y12621975D01*
X5022725Y12623460D01*
X5025312Y12625215D01*
X5027916Y12627240D01*
X5030538Y12629535D01*
X5033176Y12632100D01*
Y12590100D01*
D02*
G37*
G36*
X5427455Y12386250D02*
X5428222Y12383805D01*
X5429144Y12381401D01*
X5430222Y12379040D01*
X5431455Y12376720D01*
X5432844Y12374442D01*
X5434389Y12372206D01*
X5436089Y12370012D01*
X5439957Y12365750D01*
X5430297Y12354197D01*
X5428688Y12355649D01*
X5427038Y12356828D01*
X5425347Y12357735D01*
X5423615Y12358368D01*
X5421842Y12358729D01*
X5420028Y12358817D01*
X5418174Y12358632D01*
X5416278Y12358175D01*
X5414341Y12357444D01*
X5412364Y12356441D01*
X5426845Y12388737D01*
X5427455Y12386250D01*
D02*
G37*
G36*
X5443175Y12349084D02*
X5443400Y12346534D01*
X5443775Y12344284D01*
X5444300Y12342334D01*
X5444975Y12340684D01*
X5445800Y12339334D01*
X5446775Y12338284D01*
X5447900Y12337534D01*
X5449175Y12337084D01*
X5450600Y12336934D01*
X5420600D01*
X5422025Y12337084D01*
X5423300Y12337534D01*
X5424425Y12338284D01*
X5425400Y12339334D01*
X5426225Y12340684D01*
X5426900Y12342334D01*
X5427425Y12344284D01*
X5427800Y12346534D01*
X5428025Y12349084D01*
X5428100Y12351934D01*
X5443100D01*
X5443175Y12349084D01*
D02*
G37*
G36*
X5200035Y13844337D02*
X5195715Y13839111D01*
X5193960Y13836525D01*
X5192475Y13833954D01*
X5191260Y13831400D01*
X5190315Y13828864D01*
X5189640Y13826343D01*
X5189235Y13823839D01*
X5189100Y13821353D01*
X5174100D01*
X5173965Y13823839D01*
X5173560Y13826343D01*
X5172885Y13828864D01*
X5171940Y13831400D01*
X5170725Y13833954D01*
X5169240Y13836525D01*
X5167485Y13839111D01*
X5165460Y13841716D01*
X5163165Y13844337D01*
X5160600Y13846976D01*
X5202600D01*
X5200035Y13844337D01*
D02*
G37*
G36*
X5833276Y12945126D02*
X5854400Y12924002D01*
X5850721Y12923950D01*
X5843971Y12923309D01*
X5840900Y12922720D01*
X5838033Y12921953D01*
X5835368Y12921005D01*
X5832905Y12919881D01*
X5830646Y12918576D01*
X5828590Y12917091D01*
X5826736Y12915430D01*
X5816129Y12926036D01*
X5817792Y12927890D01*
X5819276Y12929945D01*
X5820580Y12932205D01*
X5821706Y12934668D01*
X5822653Y12937334D01*
X5823421Y12940199D01*
X5823596Y12941116D01*
X5822825Y12941640D01*
X5820254Y12943124D01*
X5817700Y12944341D01*
X5815163Y12945285D01*
X5812643Y12945959D01*
X5810139Y12946365D01*
X5807653Y12946500D01*
Y12961501D01*
X5810139Y12961635D01*
X5812643Y12962041D01*
X5815163Y12962715D01*
X5817700Y12963660D01*
X5820254Y12964874D01*
X5822825Y12966360D01*
X5825412Y12968115D01*
X5828016Y12970140D01*
X5830638Y12972435D01*
X5833276Y12975000D01*
Y12945126D01*
D02*
G37*
G36*
X5275973Y12349667D02*
X5274163Y12347750D01*
X5272543Y12345812D01*
X5271113Y12343852D01*
X5269874Y12341871D01*
X5268826Y12339868D01*
X5267968Y12337843D01*
X5267301Y12335797D01*
X5266825Y12333730D01*
X5266539Y12331641D01*
X5266443Y12329530D01*
X5245230Y12350743D01*
X5247341Y12350839D01*
X5249430Y12351125D01*
X5251497Y12351601D01*
X5253543Y12352268D01*
X5255568Y12353126D01*
X5257571Y12354174D01*
X5259552Y12355413D01*
X5261512Y12356843D01*
X5263450Y12358463D01*
X5265367Y12360273D01*
X5275973Y12349667D01*
D02*
G37*
G36*
X5112924Y12211212D02*
X5111051Y12211353D01*
X5109180Y12211285D01*
X5107311Y12211007D01*
X5105444Y12210519D01*
X5103579Y12209821D01*
X5101717Y12208913D01*
X5099857Y12207795D01*
X5097998Y12206468D01*
X5096143Y12204930D01*
X5094289Y12203183D01*
X5086329Y12216436D01*
X5088310Y12218523D01*
X5090083Y12220614D01*
X5091647Y12222708D01*
X5093003Y12224806D01*
X5094150Y12226908D01*
X5095088Y12229013D01*
X5095818Y12231122D01*
X5096340Y12233234D01*
X5096652Y12235350D01*
X5096757Y12237470D01*
X5112924Y12211212D01*
D02*
G37*
G36*
X5082217Y12191111D02*
X5080621Y12189340D01*
X5079145Y12187344D01*
X5077791Y12185120D01*
X5076559Y12182671D01*
X5075447Y12179995D01*
X5074457Y12177093D01*
X5073588Y12173965D01*
X5072214Y12167028D01*
X5071709Y12163221D01*
X5045874Y12196336D01*
X5049377Y12195971D01*
X5052704Y12195837D01*
X5055853Y12195934D01*
X5058827Y12196261D01*
X5061624Y12196820D01*
X5064245Y12197609D01*
X5066690Y12198628D01*
X5068958Y12199879D01*
X5071049Y12201360D01*
X5072965Y12203071D01*
X5082217Y12191111D01*
D02*
G37*
G36*
X5376187Y12047066D02*
X5374762Y12046916D01*
X5373487Y12046466D01*
X5372362Y12045716D01*
X5371387Y12044666D01*
X5370562Y12043316D01*
X5369887Y12041666D01*
X5369362Y12039716D01*
X5368987Y12037466D01*
X5368762Y12034916D01*
X5368687Y12032066D01*
X5353687Y12036637D01*
X5353666Y12039518D01*
X5352940Y12050355D01*
X5352670Y12051808D01*
X5352359Y12053024D01*
X5352007Y12054002D01*
X5351612Y12054741D01*
X5376187Y12047066D01*
D02*
G37*
G36*
X5266593Y12010985D02*
X5267043Y12009710D01*
X5267793Y12008585D01*
X5268843Y12007610D01*
X5270193Y12006785D01*
X5271843Y12006110D01*
X5273793Y12005585D01*
X5276043Y12005210D01*
X5278593Y12004985D01*
X5281443Y12004910D01*
X5278185Y11989910D01*
X5275510Y11989859D01*
X5270582Y11989448D01*
X5268330Y11989089D01*
X5266218Y11988628D01*
X5264247Y11988063D01*
X5262417Y11987396D01*
X5260728Y11986627D01*
X5259179Y11985755D01*
X5257772Y11984780D01*
X5266443Y12012410D01*
X5266593Y12010985D01*
D02*
G37*
G36*
X5307450Y11974832D02*
X5305808Y11977697D01*
X5304054Y11980260D01*
X5302190Y11982522D01*
X5300214Y11984482D01*
X5298127Y11986141D01*
X5295928Y11987498D01*
X5293618Y11988553D01*
X5291197Y11989307D01*
X5288664Y11989759D01*
X5286021Y11989910D01*
X5290693Y12004910D01*
X5292855Y12005012D01*
X5295177Y12005316D01*
X5297658Y12005824D01*
X5300300Y12006535D01*
X5303101Y12007449D01*
X5309183Y12009886D01*
X5312464Y12011410D01*
X5319504Y12015065D01*
X5307450Y11974832D01*
D02*
G37*
G36*
X6349100Y12102005D02*
X6334158Y12101976D01*
X6296535Y12099672D01*
X6286395Y12098166D01*
X6277455Y12096290D01*
X6269716Y12094045D01*
X6263177Y12091431D01*
X6257839Y12088448D01*
X6253701Y12085095D01*
X6243095Y12095701D01*
X6246448Y12099839D01*
X6249431Y12105177D01*
X6252045Y12111716D01*
X6254290Y12119455D01*
X6256166Y12128395D01*
X6257672Y12138535D01*
X6259577Y12162416D01*
X6260005Y12191100D01*
X6349100Y12102005D01*
D02*
G37*
G36*
X5960357Y12050000D02*
X5960207Y12051425D01*
X5959757Y12052700D01*
X5959007Y12053825D01*
X5957957Y12054800D01*
X5956607Y12055625D01*
X5954957Y12056300D01*
X5953007Y12056825D01*
X5950757Y12057200D01*
X5948207Y12057425D01*
X5945357Y12057500D01*
Y12072500D01*
X5948207Y12072575D01*
X5950757Y12072800D01*
X5953007Y12073175D01*
X5954957Y12073700D01*
X5956607Y12074375D01*
X5957957Y12075200D01*
X5959007Y12076175D01*
X5959757Y12077300D01*
X5960207Y12078575D01*
X5960357Y12080000D01*
Y12050000D01*
D02*
G37*
G36*
X5799993Y12078575D02*
X5800443Y12077300D01*
X5801193Y12076175D01*
X5802243Y12075200D01*
X5803593Y12074375D01*
X5805243Y12073700D01*
X5807193Y12073175D01*
X5809443Y12072800D01*
X5811993Y12072575D01*
X5814843Y12072500D01*
Y12057500D01*
X5811993Y12057425D01*
X5809443Y12057200D01*
X5807193Y12056825D01*
X5805243Y12056300D01*
X5803593Y12055625D01*
X5802243Y12054800D01*
X5801193Y12053825D01*
X5800443Y12052700D01*
X5799993Y12051425D01*
X5799843Y12050000D01*
Y12080000D01*
X5799993Y12078575D01*
D02*
G37*
G36*
X5904162Y12083435D02*
X5909388Y12079115D01*
X5911975Y12077360D01*
X5914546Y12075875D01*
X5917100Y12074660D01*
X5919637Y12073715D01*
X5922157Y12073040D01*
X5924661Y12072635D01*
X5927147Y12072500D01*
Y12057500D01*
X5924661Y12057365D01*
X5922157Y12056960D01*
X5919637Y12056285D01*
X5917100Y12055340D01*
X5914546Y12054125D01*
X5911975Y12052640D01*
X5909388Y12050885D01*
X5906784Y12048860D01*
X5904162Y12046565D01*
X5901524Y12044000D01*
Y12086000D01*
X5904162Y12083435D01*
D02*
G37*
G36*
X5858676Y12044000D02*
X5856038Y12046565D01*
X5853416Y12048860D01*
X5850812Y12050885D01*
X5848225Y12052640D01*
X5845654Y12054125D01*
X5843100Y12055340D01*
X5840563Y12056285D01*
X5838043Y12056960D01*
X5835539Y12057365D01*
X5833053Y12057500D01*
Y12072500D01*
X5835539Y12072635D01*
X5838043Y12073040D01*
X5840563Y12073715D01*
X5843100Y12074660D01*
X5845654Y12075875D01*
X5848225Y12077360D01*
X5850812Y12079115D01*
X5856038Y12083435D01*
X5858676Y12086000D01*
Y12044000D01*
D02*
G37*
G36*
X5569459Y11961079D02*
X5574685Y11956759D01*
X5577272Y11955004D01*
X5579843Y11953519D01*
X5582397Y11952304D01*
X5584934Y11951359D01*
X5587454Y11950684D01*
X5589957Y11950279D01*
X5592444Y11950144D01*
Y11935144D01*
X5589957Y11935009D01*
X5587454Y11934604D01*
X5584934Y11933929D01*
X5582397Y11932984D01*
X5579843Y11931769D01*
X5577272Y11930284D01*
X5574685Y11928529D01*
X5572080Y11926504D01*
X5569459Y11924209D01*
X5566821Y11921644D01*
Y11963644D01*
X5569459Y11961079D01*
D02*
G37*
G36*
X5960357Y11834100D02*
X5960207Y11835525D01*
X5959757Y11836800D01*
X5959007Y11837925D01*
X5957957Y11838900D01*
X5956607Y11839725D01*
X5954957Y11840400D01*
X5953007Y11840925D01*
X5950757Y11841300D01*
X5948207Y11841525D01*
X5945357Y11841600D01*
Y11856600D01*
X5948207Y11856675D01*
X5950757Y11856900D01*
X5953007Y11857275D01*
X5954957Y11857800D01*
X5956607Y11858475D01*
X5957957Y11859300D01*
X5959007Y11860275D01*
X5959757Y11861400D01*
X5960207Y11862675D01*
X5960357Y11864100D01*
Y11834100D01*
D02*
G37*
G36*
X5799993Y11862675D02*
X5800443Y11861400D01*
X5801193Y11860275D01*
X5802243Y11859300D01*
X5803593Y11858475D01*
X5805243Y11857800D01*
X5807193Y11857275D01*
X5809443Y11856900D01*
X5811993Y11856675D01*
X5814843Y11856600D01*
Y11841600D01*
X5811993Y11841525D01*
X5809443Y11841300D01*
X5807193Y11840925D01*
X5805243Y11840400D01*
X5803593Y11839725D01*
X5802243Y11838900D01*
X5801193Y11837925D01*
X5800443Y11836800D01*
X5799993Y11835525D01*
X5799843Y11834100D01*
Y11864100D01*
X5799993Y11862675D01*
D02*
G37*
G36*
X5916862Y11867535D02*
X5922088Y11863215D01*
X5924675Y11861460D01*
X5927246Y11859975D01*
X5929800Y11858760D01*
X5932337Y11857815D01*
X5934857Y11857140D01*
X5937361Y11856735D01*
X5939847Y11856600D01*
Y11841600D01*
X5937361Y11841465D01*
X5934857Y11841060D01*
X5932337Y11840385D01*
X5929800Y11839440D01*
X5927246Y11838225D01*
X5924675Y11836740D01*
X5922088Y11834985D01*
X5919484Y11832960D01*
X5916862Y11830665D01*
X5914224Y11828100D01*
Y11870100D01*
X5916862Y11867535D01*
D02*
G37*
G36*
X5871376Y11828100D02*
X5868738Y11830665D01*
X5866116Y11832960D01*
X5863512Y11834985D01*
X5860925Y11836740D01*
X5858354Y11838225D01*
X5855800Y11839440D01*
X5853263Y11840385D01*
X5850743Y11841060D01*
X5848239Y11841465D01*
X5845753Y11841600D01*
Y11856600D01*
X5848239Y11856735D01*
X5850743Y11857140D01*
X5853263Y11857815D01*
X5855800Y11858760D01*
X5858354Y11859975D01*
X5860925Y11861460D01*
X5863512Y11863215D01*
X5868738Y11867535D01*
X5871376Y11870100D01*
Y11828100D01*
D02*
G37*
G36*
X5379695Y11801417D02*
X5381519Y11799911D01*
X5383378Y11798583D01*
X5385271Y11797432D01*
X5387200Y11796457D01*
X5389164Y11795660D01*
X5391163Y11795040D01*
X5393197Y11794598D01*
X5395266Y11794332D01*
X5397369Y11794243D01*
X5378457Y11770730D01*
X5378356Y11772846D01*
X5378053Y11774952D01*
X5377549Y11777047D01*
X5376842Y11779132D01*
X5375934Y11781207D01*
X5374824Y11783272D01*
X5373512Y11785326D01*
X5371999Y11787370D01*
X5370283Y11789403D01*
X5368366Y11791427D01*
X5377906Y11803100D01*
X5379695Y11801417D01*
D02*
G37*
G36*
X5149857Y11694400D02*
X5149706Y11695825D01*
X5149257Y11697100D01*
X5148507Y11698225D01*
X5147457Y11699200D01*
X5146107Y11700025D01*
X5144457Y11700700D01*
X5142507Y11701225D01*
X5140257Y11701600D01*
X5137707Y11701825D01*
X5134857Y11701900D01*
Y11716900D01*
X5137707Y11716975D01*
X5140257Y11717200D01*
X5142507Y11717575D01*
X5144457Y11718100D01*
X5146107Y11718775D01*
X5147457Y11719600D01*
X5148507Y11720575D01*
X5149257Y11721700D01*
X5149706Y11722975D01*
X5149857Y11724400D01*
Y11694400D01*
D02*
G37*
G36*
X5077445Y11722975D02*
X5077895Y11721700D01*
X5078645Y11720575D01*
X5079695Y11719600D01*
X5081045Y11718775D01*
X5082695Y11718100D01*
X5084645Y11717575D01*
X5086895Y11717200D01*
X5089445Y11716975D01*
X5092295Y11716900D01*
Y11701900D01*
X5089445Y11701825D01*
X5086895Y11701600D01*
X5084645Y11701225D01*
X5082695Y11700700D01*
X5081045Y11700025D01*
X5079695Y11699200D01*
X5078645Y11698225D01*
X5077895Y11697100D01*
X5077445Y11695825D01*
X5077295Y11694400D01*
Y11724400D01*
X5077445Y11722975D01*
D02*
G37*
G36*
X5289755Y11662740D02*
X5290392Y11658498D01*
X5291452Y11654255D01*
X5292938Y11650013D01*
X5294847Y11645770D01*
X5297180Y11641527D01*
X5299938Y11637285D01*
X5303120Y11633042D01*
X5306726Y11628799D01*
X5310756Y11624557D01*
X5289543Y11603344D01*
X5285301Y11607374D01*
X5281058Y11610980D01*
X5276815Y11614162D01*
X5272573Y11616920D01*
X5268330Y11619253D01*
X5264088Y11621162D01*
X5259845Y11622648D01*
X5255602Y11623708D01*
X5251360Y11624345D01*
X5247117Y11624557D01*
X5289543Y11666983D01*
X5289755Y11662740D01*
D02*
G37*
G36*
X5336518Y11578472D02*
X5335756Y11577217D01*
X5335085Y11575920D01*
X5334502Y11574578D01*
X5334010Y11573193D01*
X5333607Y11571764D01*
X5333293Y11570291D01*
X5333069Y11568774D01*
X5332935Y11567214D01*
X5332890Y11565610D01*
X5317890D01*
X5317845Y11567214D01*
X5317711Y11568774D01*
X5317487Y11570291D01*
X5317173Y11571764D01*
X5316770Y11573193D01*
X5316278Y11574578D01*
X5315695Y11575920D01*
X5315023Y11577217D01*
X5314262Y11578472D01*
X5313411Y11579682D01*
X5337369D01*
X5336518Y11578472D01*
D02*
G37*
G36*
X5478600Y11873520D02*
X5479857Y11866607D01*
X5480682Y11863485D01*
X5481637Y11860586D01*
X5482723Y11857909D01*
X5483939Y11855456D01*
X5485286Y11853225D01*
X5486764Y11851217D01*
X5488372Y11849432D01*
X5478908Y11837683D01*
X5477001Y11839388D01*
X5474914Y11840870D01*
X5472645Y11842129D01*
X5470196Y11843164D01*
X5467567Y11843977D01*
X5464756Y11844567D01*
X5461765Y11844933D01*
X5458593Y11845077D01*
X5455241Y11844997D01*
X5451708Y11844694D01*
X5478168Y11877311D01*
X5478600Y11873520D01*
D02*
G37*
G36*
X6349100Y11848005D02*
X6334158Y11847976D01*
X6296535Y11845672D01*
X6286395Y11844166D01*
X6277455Y11842290D01*
X6269716Y11840045D01*
X6263177Y11837431D01*
X6257839Y11834448D01*
X6253701Y11831095D01*
X6243095Y11841701D01*
X6246448Y11845839D01*
X6249431Y11851177D01*
X6252045Y11857716D01*
X6254290Y11865455D01*
X6256166Y11874395D01*
X6257672Y11884535D01*
X6259577Y11908416D01*
X6260005Y11937100D01*
X6349100Y11848005D01*
D02*
G37*
G36*
X6278862Y11628870D02*
X6277623Y11630267D01*
X6276330Y11631332D01*
X6274982Y11632065D01*
X6273579Y11632466D01*
X6272122Y11632534D01*
X6270610Y11632271D01*
X6269044Y11631675D01*
X6267423Y11630748D01*
X6265747Y11629488D01*
X6264017Y11627897D01*
X6253410Y11638503D01*
X6255726Y11640942D01*
X6257743Y11643328D01*
X6259461Y11645661D01*
X6260881Y11647941D01*
X6262001Y11650168D01*
X6262823Y11652342D01*
X6263345Y11654463D01*
X6263569Y11656532D01*
X6263494Y11658547D01*
X6263120Y11660509D01*
X6278862Y11628870D01*
D02*
G37*
G36*
X5700962Y11651635D02*
X5706188Y11647315D01*
X5708775Y11645560D01*
X5711346Y11644075D01*
X5713900Y11642860D01*
X5716437Y11641915D01*
X5718957Y11641240D01*
X5721461Y11640835D01*
X5723947Y11640700D01*
Y11625700D01*
X5721461Y11625565D01*
X5718957Y11625160D01*
X5716437Y11624485D01*
X5713900Y11623540D01*
X5711346Y11622325D01*
X5708775Y11620840D01*
X5706188Y11619085D01*
X5703584Y11617060D01*
X5700962Y11614765D01*
X5698324Y11612200D01*
Y11654200D01*
X5700962Y11651635D01*
D02*
G37*
G36*
X5171081Y11334400D02*
X5170581Y11339150D01*
X5169081Y11343400D01*
X5166581Y11347150D01*
X5163081Y11350400D01*
X5158582Y11353150D01*
X5153081Y11355400D01*
X5146582Y11357150D01*
X5139081Y11358400D01*
X5130582Y11359150D01*
X5121081Y11359400D01*
Y11409400D01*
X5130582Y11409650D01*
X5139081Y11410400D01*
X5146582Y11411650D01*
X5153081Y11413400D01*
X5158582Y11415650D01*
X5163081Y11418400D01*
X5166581Y11421650D01*
X5169081Y11425400D01*
X5170581Y11429650D01*
X5171081Y11434400D01*
Y11334400D01*
D02*
G37*
G36*
X5379250Y11273764D02*
X5375000Y11272264D01*
X5371250Y11269764D01*
X5368000Y11266264D01*
X5365250Y11261764D01*
X5363000Y11256264D01*
X5361250Y11249764D01*
X5360000Y11242264D01*
X5359250Y11233764D01*
X5359000Y11224264D01*
X5309000D01*
X5308750Y11233764D01*
X5308000Y11242264D01*
X5306750Y11249764D01*
X5305000Y11256264D01*
X5302750Y11261764D01*
X5300000Y11266264D01*
X5296750Y11269764D01*
X5293000Y11272264D01*
X5288750Y11273764D01*
X5284000Y11274264D01*
X5384000D01*
X5379250Y11273764D01*
D02*
G37*
G36*
X5359148Y10908403D02*
X5360336Y10892236D01*
X5361374Y10884989D01*
X5362710Y10878302D01*
X5364343Y10872172D01*
X5366272Y10866601D01*
X5368498Y10861588D01*
X5371021Y10857134D01*
X5373841Y10853238D01*
X5294159D01*
X5296979Y10857134D01*
X5299502Y10861588D01*
X5301728Y10866601D01*
X5303657Y10872172D01*
X5305290Y10878302D01*
X5306626Y10884989D01*
X5307664Y10892236D01*
X5308852Y10908403D01*
X5309000Y10917324D01*
X5359000D01*
X5359148Y10908403D01*
D02*
G37*
G36*
X4911343Y10827550D02*
X4912843Y10823300D01*
X4915343Y10819550D01*
X4918843Y10816300D01*
X4923343Y10813550D01*
X4928843Y10811300D01*
X4935343Y10809550D01*
X4942843Y10808300D01*
X4951343Y10807550D01*
X4960843Y10807300D01*
Y10757300D01*
X4951343Y10757050D01*
X4942843Y10756300D01*
X4935343Y10755050D01*
X4928843Y10753300D01*
X4923343Y10751050D01*
X4918843Y10748300D01*
X4915343Y10745050D01*
X4912843Y10741300D01*
X4911343Y10737050D01*
X4910843Y10732300D01*
Y10832300D01*
X4911343Y10827550D01*
D02*
G37*
G36*
X5056084Y10731678D02*
X5055584Y10736428D01*
X5054084Y10740678D01*
X5051584Y10744428D01*
X5048084Y10747678D01*
X5043584Y10750428D01*
X5038084Y10752678D01*
X5031584Y10754428D01*
X5024084Y10755677D01*
X5015584Y10756428D01*
X5006084Y10756677D01*
Y10806677D01*
X5015235Y10806927D01*
X5023475Y10807677D01*
X5030804Y10808927D01*
X5037221Y10810677D01*
X5042727Y10812927D01*
X5047321Y10815677D01*
X5051003Y10818927D01*
X5053774Y10822677D01*
X5055634Y10826927D01*
X5056582Y10831677D01*
X5056084Y10731678D01*
D02*
G37*
G36*
X5152213Y10702864D02*
X5153105Y10695961D01*
X5154592Y10689171D01*
X5156673Y10682494D01*
X5159349Y10675929D01*
X5162619Y10669477D01*
X5166484Y10663137D01*
X5170944Y10656910D01*
X5175998Y10650795D01*
X5181647Y10644792D01*
X5136540Y10619189D01*
X5130013Y10625594D01*
X5107104Y10645587D01*
X5102176Y10649178D01*
X5093280Y10654672D01*
X5089312Y10656575D01*
X5085663Y10657914D01*
X5151916Y10709879D01*
X5152213Y10702864D01*
D02*
G37*
G36*
X6123605Y10430420D02*
X6125258Y10429912D01*
X6127417Y10429464D01*
X6130081Y10429076D01*
X6136927Y10428478D01*
X6150989Y10428030D01*
X6156687Y10428000D01*
X6160134Y10398000D01*
X6154434Y10397850D01*
X6149334Y10397400D01*
X6144834Y10396650D01*
X6140934Y10395600D01*
X6137634Y10394250D01*
X6134934Y10392600D01*
X6132834Y10390650D01*
X6131334Y10388400D01*
X6130434Y10385850D01*
X6130134Y10383000D01*
X6122458Y10430988D01*
X6123605Y10430420D01*
D02*
G37*
G36*
X6076410Y10398002D02*
X6075317Y10397783D01*
X6073904Y10397153D01*
X6072172Y10396111D01*
X6070121Y10394658D01*
X6065060Y10390517D01*
X6058721Y10384731D01*
X6051105Y10377298D01*
X6040498Y10387905D01*
X6044420Y10391873D01*
X6059311Y10408972D01*
X6060353Y10410704D01*
X6060983Y10412117D01*
X6061201Y10413210D01*
X6076410Y10398002D01*
D02*
G37*
G36*
X6286431Y10350290D02*
X6277034Y10359355D01*
X6259239Y10374622D01*
X6250840Y10380825D01*
X6242774Y10386073D01*
X6235040Y10390367D01*
X6227640Y10393706D01*
X6220572Y10396092D01*
X6213836Y10397523D01*
X6207434Y10398000D01*
X6207096Y10428000D01*
X6213572Y10428483D01*
X6220341Y10429931D01*
X6227403Y10432346D01*
X6234758Y10435725D01*
X6242405Y10440071D01*
X6250345Y10445382D01*
X6258578Y10451658D01*
X6267103Y10458901D01*
X6285031Y10476282D01*
X6286431Y10350290D01*
D02*
G37*
G36*
X4777905Y11719800D02*
X4777755Y11721225D01*
X4777305Y11722500D01*
X4776555Y11723625D01*
X4775505Y11724600D01*
X4774155Y11725425D01*
X4772505Y11726100D01*
X4770555Y11726625D01*
X4768305Y11727000D01*
X4765755Y11727225D01*
X4762905Y11727300D01*
Y11742300D01*
X4765755Y11742375D01*
X4768305Y11742600D01*
X4770555Y11742975D01*
X4772505Y11743500D01*
X4774155Y11744175D01*
X4775505Y11745000D01*
X4776555Y11745975D01*
X4777305Y11747100D01*
X4777755Y11748375D01*
X4777905Y11749800D01*
Y11719800D01*
D02*
G37*
G36*
X4737571Y11699264D02*
X4735908Y11697410D01*
X4734424Y11695354D01*
X4733120Y11693095D01*
X4731994Y11690632D01*
X4731047Y11687967D01*
X4730279Y11685100D01*
X4730104Y11684183D01*
X4730875Y11683660D01*
X4733446Y11682175D01*
X4736000Y11680960D01*
X4738537Y11680015D01*
X4741057Y11679340D01*
X4743561Y11678935D01*
X4746047Y11678800D01*
Y11663800D01*
X4743561Y11663665D01*
X4741057Y11663260D01*
X4738537Y11662585D01*
X4736000Y11661640D01*
X4733446Y11660425D01*
X4730875Y11658940D01*
X4728288Y11657185D01*
X4725684Y11655160D01*
X4723062Y11652865D01*
X4720424Y11650300D01*
Y11680174D01*
X4699300Y11701298D01*
X4702979Y11701350D01*
X4709729Y11701991D01*
X4712800Y11702579D01*
X4715667Y11703347D01*
X4718332Y11704294D01*
X4720795Y11705420D01*
X4723054Y11706724D01*
X4725110Y11708208D01*
X4726964Y11709871D01*
X4737571Y11699264D01*
D02*
G37*
G36*
X5675562Y11524635D02*
X5680788Y11520315D01*
X5683375Y11518560D01*
X5685946Y11517075D01*
X5688500Y11515860D01*
X5691037Y11514915D01*
X5693557Y11514240D01*
X5696061Y11513835D01*
X5698547Y11513700D01*
Y11498700D01*
X5696061Y11498565D01*
X5693557Y11498160D01*
X5691037Y11497485D01*
X5688500Y11496540D01*
X5685946Y11495325D01*
X5683375Y11493840D01*
X5680788Y11492085D01*
X5678184Y11490060D01*
X5675562Y11487765D01*
X5672924Y11485200D01*
Y11527200D01*
X5675562Y11524635D01*
D02*
G37*
G36*
X6259218Y11507980D02*
X6263530Y11505198D01*
X6268120Y11503157D01*
X6272989Y11501858D01*
X6278137Y11501300D01*
X6283564Y11501483D01*
X6289269Y11502407D01*
X6295252Y11504073D01*
X6301514Y11506480D01*
X6308055Y11509628D01*
X6260512Y11439588D01*
X6261143Y11447578D01*
X6261280Y11455155D01*
X6260922Y11462319D01*
X6260071Y11469070D01*
X6258724Y11475407D01*
X6256884Y11481331D01*
X6254549Y11486842D01*
X6251720Y11491940D01*
X6248396Y11496625D01*
X6244578Y11500897D01*
X6255185Y11511503D01*
X6259218Y11507980D01*
D02*
G37*
G36*
X5675562Y11410335D02*
X5680788Y11406015D01*
X5683375Y11404260D01*
X5685946Y11402775D01*
X5688500Y11401560D01*
X5691037Y11400615D01*
X5693557Y11399940D01*
X5696061Y11399535D01*
X5698547Y11399400D01*
Y11384400D01*
X5696061Y11384265D01*
X5693557Y11383860D01*
X5691037Y11383185D01*
X5688500Y11382240D01*
X5685946Y11381025D01*
X5683375Y11379540D01*
X5680788Y11377785D01*
X5678184Y11375760D01*
X5675562Y11373465D01*
X5672924Y11370900D01*
Y11412900D01*
X5675562Y11410335D01*
D02*
G37*
G36*
X6257839Y11279552D02*
X6263177Y11276569D01*
X6269716Y11273955D01*
X6277455Y11271710D01*
X6286395Y11269834D01*
X6296535Y11268328D01*
X6320416Y11266423D01*
X6349100Y11265995D01*
X6260005Y11176900D01*
X6259976Y11191842D01*
X6257672Y11229465D01*
X6256166Y11239605D01*
X6254290Y11248545D01*
X6252045Y11256284D01*
X6249431Y11262823D01*
X6246448Y11268161D01*
X6243095Y11272299D01*
X6253701Y11282905D01*
X6257839Y11279552D01*
D02*
G37*
G36*
X4759651Y11998558D02*
X4755972Y11998506D01*
X4749222Y11997866D01*
X4746152Y11997277D01*
X4743284Y11996509D01*
X4740619Y11995562D01*
X4738157Y11994437D01*
X4735897Y11993132D01*
X4733841Y11991648D01*
X4731987Y11989985D01*
X4721381Y12000592D01*
X4723043Y12002446D01*
X4724527Y12004502D01*
X4725832Y12006761D01*
X4726958Y12009224D01*
X4727904Y12011889D01*
X4728672Y12014757D01*
X4729261Y12017827D01*
X4729670Y12021101D01*
X4729901Y12024577D01*
X4729953Y12028256D01*
X4759651Y11998558D01*
D02*
G37*
G36*
X4711400Y11857202D02*
X4707721Y11857150D01*
X4700971Y11856509D01*
X4697900Y11855921D01*
X4695033Y11855153D01*
X4692368Y11854206D01*
X4689905Y11853080D01*
X4687646Y11851776D01*
X4685590Y11850292D01*
X4683736Y11848629D01*
X4673129Y11859236D01*
X4674792Y11861090D01*
X4676276Y11863146D01*
X4677580Y11865405D01*
X4678706Y11867868D01*
X4679653Y11870533D01*
X4680421Y11873400D01*
X4681009Y11876471D01*
X4681419Y11879745D01*
X4681650Y11883221D01*
X4681702Y11886900D01*
X4711400Y11857202D01*
D02*
G37*
G36*
X4424905Y11526299D02*
X4421552Y11522161D01*
X4418569Y11516823D01*
X4415955Y11510284D01*
X4413710Y11502545D01*
X4411834Y11493605D01*
X4410328Y11483465D01*
X4408423Y11459584D01*
X4407995Y11430900D01*
X4318900Y11519995D01*
X4333842Y11520024D01*
X4371465Y11522328D01*
X4381605Y11523834D01*
X4390545Y11525710D01*
X4398284Y11527955D01*
X4404823Y11530569D01*
X4410161Y11533552D01*
X4414299Y11536905D01*
X4424905Y11526299D01*
D02*
G37*
G36*
Y11272299D02*
X4421552Y11268161D01*
X4418569Y11262823D01*
X4415955Y11256284D01*
X4413710Y11248545D01*
X4411834Y11239605D01*
X4410328Y11229465D01*
X4408423Y11205584D01*
X4407995Y11176900D01*
X4318900Y11265995D01*
X4333842Y11266024D01*
X4371465Y11268328D01*
X4381605Y11269834D01*
X4390545Y11271710D01*
X4398284Y11273955D01*
X4404823Y11276569D01*
X4410161Y11279552D01*
X4414299Y11282905D01*
X4424905Y11272299D01*
D02*
G37*
G36*
X4828468Y11136736D02*
X4824148Y11131511D01*
X4822393Y11128923D01*
X4820908Y11126352D01*
X4819693Y11123798D01*
X4818748Y11121261D01*
X4818073Y11118741D01*
X4817668Y11116238D01*
X4817533Y11113751D01*
X4802533D01*
X4802398Y11116238D01*
X4801993Y11118741D01*
X4801318Y11121261D01*
X4800373Y11123798D01*
X4799158Y11126352D01*
X4797673Y11128923D01*
X4795918Y11131511D01*
X4793893Y11134115D01*
X4791598Y11136736D01*
X4789033Y11139374D01*
X4831033D01*
X4828468Y11136736D01*
D02*
G37*
G36*
X4817608Y11092893D02*
X4817833Y11090343D01*
X4818208Y11088093D01*
X4818733Y11086143D01*
X4819408Y11084493D01*
X4820233Y11083143D01*
X4821208Y11082093D01*
X4822333Y11081343D01*
X4823608Y11080894D01*
X4825033Y11080743D01*
X4795033D01*
X4796458Y11080894D01*
X4797733Y11081343D01*
X4798858Y11082093D01*
X4799833Y11083143D01*
X4800658Y11084493D01*
X4801333Y11086143D01*
X4801858Y11088093D01*
X4802233Y11090343D01*
X4802458Y11092893D01*
X4802533Y11095743D01*
X4817533D01*
X4817608Y11092893D01*
D02*
G37*
G36*
X5675562Y11270635D02*
X5680788Y11266315D01*
X5683375Y11264560D01*
X5685946Y11263075D01*
X5688500Y11261860D01*
X5691037Y11260915D01*
X5693557Y11260240D01*
X5696061Y11259835D01*
X5698547Y11259700D01*
Y11244700D01*
X5696061Y11244565D01*
X5693557Y11244160D01*
X5691037Y11243485D01*
X5688500Y11242540D01*
X5685946Y11241325D01*
X5683375Y11239840D01*
X5680788Y11238085D01*
X5678184Y11236060D01*
X5675562Y11233765D01*
X5672924Y11231200D01*
Y11273200D01*
X5675562Y11270635D01*
D02*
G37*
G36*
X5586662Y11181735D02*
X5591888Y11177415D01*
X5594475Y11175660D01*
X5597046Y11174175D01*
X5599600Y11172960D01*
X5602137Y11172015D01*
X5604657Y11171340D01*
X5607161Y11170935D01*
X5609647Y11170800D01*
Y11155800D01*
X5607161Y11155665D01*
X5604657Y11155260D01*
X5602137Y11154585D01*
X5599600Y11153640D01*
X5597046Y11152425D01*
X5594475Y11150940D01*
X5591888Y11149185D01*
X5589284Y11147160D01*
X5586662Y11144865D01*
X5584024Y11142300D01*
Y11184300D01*
X5586662Y11181735D01*
D02*
G37*
G36*
X5459662Y11143635D02*
X5464888Y11139315D01*
X5467475Y11137560D01*
X5470046Y11136075D01*
X5472600Y11134860D01*
X5475137Y11133915D01*
X5477657Y11133240D01*
X5480161Y11132835D01*
X5482647Y11132700D01*
Y11117700D01*
X5480161Y11117565D01*
X5477657Y11117160D01*
X5475137Y11116485D01*
X5472600Y11115540D01*
X5470046Y11114325D01*
X5467475Y11112840D01*
X5464888Y11111085D01*
X5462284Y11109060D01*
X5459662Y11106765D01*
X5457024Y11104200D01*
Y11146200D01*
X5459662Y11143635D01*
D02*
G37*
G36*
X6257839Y11025552D02*
X6263177Y11022569D01*
X6269716Y11019955D01*
X6277455Y11017710D01*
X6286395Y11015834D01*
X6296535Y11014328D01*
X6320416Y11012423D01*
X6349100Y11011995D01*
X6260005Y10922900D01*
X6259976Y10937842D01*
X6257672Y10975465D01*
X6256166Y10985605D01*
X6254290Y10994545D01*
X6252045Y11002284D01*
X6249431Y11008823D01*
X6246448Y11014161D01*
X6243095Y11018299D01*
X6253701Y11028905D01*
X6257839Y11025552D01*
D02*
G37*
G36*
X5701590Y10946208D02*
X5703646Y10944724D01*
X5705905Y10943420D01*
X5708368Y10942294D01*
X5711033Y10941347D01*
X5713900Y10940579D01*
X5716971Y10939991D01*
X5720245Y10939581D01*
X5723721Y10939350D01*
X5727400Y10939298D01*
X5697702Y10909600D01*
X5697650Y10913279D01*
X5697009Y10920029D01*
X5696421Y10923100D01*
X5695653Y10925967D01*
X5694706Y10928632D01*
X5693580Y10931095D01*
X5692276Y10933354D01*
X5690792Y10935410D01*
X5689129Y10937264D01*
X5699736Y10947871D01*
X5701590Y10946208D01*
D02*
G37*
G36*
X6342787Y10769153D02*
X6343086Y10766856D01*
X6343585Y10764823D01*
X6344283Y10763053D01*
X6345181Y10761546D01*
X6346278Y10760302D01*
X6347574Y10759322D01*
X6349070Y10758605D01*
X6350766Y10758151D01*
X6352660Y10757960D01*
X6318275Y10752223D01*
X6320063Y10753056D01*
X6321664Y10754137D01*
X6323075Y10755466D01*
X6324299Y10757043D01*
X6325334Y10758868D01*
X6326181Y10760941D01*
X6326840Y10763262D01*
X6327311Y10765831D01*
X6327593Y10768648D01*
X6327687Y10771713D01*
X6342687D01*
X6342787Y10769153D01*
D02*
G37*
G36*
X5977837Y10977996D02*
X5978146Y10975884D01*
X5978661Y10973778D01*
X5979383Y10971678D01*
X5980310Y10969584D01*
X5981443Y10967495D01*
X5982783Y10965414D01*
X5984328Y10963338D01*
X5986080Y10961268D01*
X5988038Y10959204D01*
X5977431Y10948598D01*
X5975367Y10950555D01*
X5973297Y10952307D01*
X5971221Y10953852D01*
X5969140Y10955192D01*
X5967052Y10956325D01*
X5964958Y10957253D01*
X5962858Y10957974D01*
X5960751Y10958489D01*
X5958639Y10958798D01*
X5956521Y10958901D01*
X5977734Y10980114D01*
X5977837Y10977996D01*
D02*
G37*
G36*
X6053541Y10880105D02*
X6053334Y10881037D01*
X6052964Y10881871D01*
X6052431Y10882606D01*
X6051734Y10883244D01*
X6050874Y10883784D01*
X6049851Y10884225D01*
X6048665Y10884569D01*
X6047315Y10884814D01*
X6045801Y10884961D01*
X6044125Y10885010D01*
Y10900010D01*
X6046714Y10900044D01*
X6053215Y10900558D01*
X6054961Y10900866D01*
X6056496Y10901242D01*
X6057821Y10901687D01*
X6058935Y10902201D01*
X6059838Y10902783D01*
X6060531Y10903433D01*
X6053541Y10880105D01*
D02*
G37*
G36*
X4641235Y10516938D02*
X4636915Y10511712D01*
X4635160Y10509125D01*
X4633675Y10506554D01*
X4632460Y10504000D01*
X4631515Y10501463D01*
X4630840Y10498943D01*
X4630435Y10496439D01*
X4630300Y10493953D01*
X4615300D01*
X4615165Y10496439D01*
X4614760Y10498943D01*
X4614085Y10501463D01*
X4613140Y10504000D01*
X4611925Y10506554D01*
X4610440Y10509125D01*
X4608685Y10511712D01*
X4606660Y10514316D01*
X4604365Y10516938D01*
X4601800Y10519576D01*
X4643800D01*
X4641235Y10516938D01*
D02*
G37*
G36*
X4630375Y10444084D02*
X4630600Y10441534D01*
X4630975Y10439284D01*
X4631500Y10437334D01*
X4632175Y10435684D01*
X4633000Y10434334D01*
X4633975Y10433284D01*
X4635100Y10432534D01*
X4636375Y10432084D01*
X4637800Y10431934D01*
X4607800D01*
X4609225Y10432084D01*
X4610500Y10432534D01*
X4611625Y10433284D01*
X4612600Y10434334D01*
X4613425Y10435684D01*
X4614100Y10437334D01*
X4614625Y10439284D01*
X4615000Y10441534D01*
X4615225Y10444084D01*
X4615300Y10446934D01*
X4630300D01*
X4630375Y10444084D01*
D02*
G37*
G36*
X5530235Y10440738D02*
X5525915Y10435512D01*
X5524160Y10432925D01*
X5522675Y10430354D01*
X5521460Y10427800D01*
X5520515Y10425263D01*
X5519840Y10422743D01*
X5519435Y10420239D01*
X5519300Y10417753D01*
X5504300D01*
X5504165Y10420239D01*
X5503760Y10422743D01*
X5503085Y10425263D01*
X5502140Y10427800D01*
X5500925Y10430354D01*
X5499440Y10432925D01*
X5497685Y10435512D01*
X5495660Y10438116D01*
X5493365Y10440738D01*
X5490800Y10443376D01*
X5532800D01*
X5530235Y10440738D01*
D02*
G37*
G36*
X5519375Y10393284D02*
X5519600Y10390734D01*
X5519975Y10388484D01*
X5520500Y10386534D01*
X5521175Y10384884D01*
X5522000Y10383534D01*
X5522975Y10382484D01*
X5524100Y10381734D01*
X5525375Y10381284D01*
X5526800Y10381134D01*
X5496800D01*
X5498225Y10381284D01*
X5499500Y10381734D01*
X5500625Y10382484D01*
X5501600Y10383534D01*
X5502425Y10384884D01*
X5503100Y10386534D01*
X5503625Y10388484D01*
X5504000Y10390734D01*
X5504225Y10393284D01*
X5504300Y10396134D01*
X5519300D01*
X5519375Y10393284D01*
D02*
G37*
G36*
X5225435Y10440738D02*
X5221115Y10435512D01*
X5219360Y10432925D01*
X5217875Y10430354D01*
X5216660Y10427800D01*
X5215715Y10425263D01*
X5215040Y10422743D01*
X5214635Y10420239D01*
X5214500Y10417753D01*
X5199500D01*
X5199365Y10420239D01*
X5198960Y10422743D01*
X5198285Y10425263D01*
X5197340Y10427800D01*
X5196125Y10430354D01*
X5194640Y10432925D01*
X5192885Y10435512D01*
X5190860Y10438116D01*
X5188565Y10440738D01*
X5186000Y10443376D01*
X5228000D01*
X5225435Y10440738D01*
D02*
G37*
G36*
X5214575Y10393284D02*
X5214800Y10390734D01*
X5215175Y10388484D01*
X5215700Y10386534D01*
X5216375Y10384884D01*
X5217200Y10383534D01*
X5218175Y10382484D01*
X5219300Y10381734D01*
X5220575Y10381284D01*
X5222000Y10381134D01*
X5192000D01*
X5193425Y10381284D01*
X5194700Y10381734D01*
X5195825Y10382484D01*
X5196800Y10383534D01*
X5197625Y10384884D01*
X5198300Y10386534D01*
X5198825Y10388484D01*
X5199200Y10390734D01*
X5199425Y10393284D01*
X5199500Y10396134D01*
X5214500D01*
X5214575Y10393284D01*
D02*
G37*
G36*
X5716065Y10113475D02*
X5715914Y10114900D01*
X5715465Y10116175D01*
X5714715Y10117300D01*
X5713664Y10118275D01*
X5712314Y10119100D01*
X5710664Y10119775D01*
X5708715Y10120300D01*
X5706465Y10120675D01*
X5703914Y10120900D01*
X5701065Y10120975D01*
Y10135975D01*
X5703914Y10136050D01*
X5706465Y10136275D01*
X5708715Y10136650D01*
X5710664Y10137175D01*
X5712314Y10137850D01*
X5713664Y10138675D01*
X5714715Y10139650D01*
X5715465Y10140775D01*
X5715914Y10142050D01*
X5716065Y10143475D01*
Y10113475D01*
D02*
G37*
G36*
X5596884Y10142050D02*
X5597334Y10140775D01*
X5598084Y10139650D01*
X5599134Y10138675D01*
X5600484Y10137850D01*
X5602134Y10137175D01*
X5604084Y10136650D01*
X5606334Y10136275D01*
X5608884Y10136050D01*
X5611734Y10135975D01*
Y10120975D01*
X5608884Y10120900D01*
X5606334Y10120675D01*
X5604084Y10120300D01*
X5602134Y10119775D01*
X5600484Y10119100D01*
X5599134Y10118275D01*
X5598084Y10117300D01*
X5597334Y10116175D01*
X5596884Y10114900D01*
X5596734Y10113475D01*
Y10143475D01*
X5596884Y10142050D01*
D02*
G37*
G36*
X5122066Y10113475D02*
X5121916Y10114900D01*
X5121466Y10116175D01*
X5120716Y10117300D01*
X5119666Y10118275D01*
X5118316Y10119100D01*
X5116666Y10119775D01*
X5114716Y10120300D01*
X5112466Y10120675D01*
X5109916Y10120900D01*
X5107066Y10120975D01*
Y10135975D01*
X5109916Y10136050D01*
X5112466Y10136275D01*
X5114716Y10136650D01*
X5116666Y10137175D01*
X5118316Y10137850D01*
X5119666Y10138675D01*
X5120716Y10139650D01*
X5121466Y10140775D01*
X5121916Y10142050D01*
X5122066Y10143475D01*
Y10113475D01*
D02*
G37*
G36*
X4952086Y10142050D02*
X4952536Y10140775D01*
X4953286Y10139650D01*
X4954336Y10138675D01*
X4955686Y10137850D01*
X4957336Y10137175D01*
X4959286Y10136650D01*
X4961536Y10136275D01*
X4964086Y10136050D01*
X4966936Y10135975D01*
Y10120975D01*
X4964086Y10120900D01*
X4961536Y10120675D01*
X4959286Y10120300D01*
X4957336Y10119775D01*
X4955686Y10119100D01*
X4954336Y10118275D01*
X4953286Y10117300D01*
X4952536Y10116175D01*
X4952086Y10114900D01*
X4951936Y10113475D01*
Y10143475D01*
X4952086Y10142050D01*
D02*
G37*
G36*
X4645274Y10141916D02*
X4643999Y10141466D01*
X4642874Y10140716D01*
X4641899Y10139666D01*
X4641074Y10138316D01*
X4640399Y10136666D01*
X4639874Y10134716D01*
X4639499Y10132466D01*
X4639274Y10129916D01*
X4639199Y10127066D01*
X4624199D01*
X4624124Y10129916D01*
X4623899Y10132466D01*
X4623524Y10134716D01*
X4622999Y10136666D01*
X4622324Y10138316D01*
X4621499Y10139666D01*
X4620524Y10140716D01*
X4619399Y10141466D01*
X4618124Y10141916D01*
X4616699Y10142066D01*
X4646699D01*
X4645274Y10141916D01*
D02*
G37*
G36*
X4639334Y10085970D02*
X4639739Y10083467D01*
X4640414Y10080947D01*
X4641359Y10078410D01*
X4642574Y10075856D01*
X4644059Y10073285D01*
X4645814Y10070697D01*
X4647839Y10068093D01*
X4650134Y10065472D01*
X4652699Y10062834D01*
X4610699D01*
X4613264Y10065472D01*
X4617584Y10070697D01*
X4619339Y10073285D01*
X4620824Y10075856D01*
X4622039Y10078410D01*
X4622984Y10080947D01*
X4623659Y10083467D01*
X4624064Y10085970D01*
X4624199Y10088457D01*
X4639199D01*
X4639334Y10085970D01*
D02*
G37*
G36*
X6058775Y10141916D02*
X6057500Y10141466D01*
X6056375Y10140716D01*
X6055400Y10139666D01*
X6054575Y10138316D01*
X6053900Y10136666D01*
X6053375Y10134716D01*
X6053000Y10132466D01*
X6052775Y10129916D01*
X6052700Y10127066D01*
X6037700D01*
X6037625Y10129916D01*
X6037400Y10132466D01*
X6037025Y10134716D01*
X6036500Y10136666D01*
X6035825Y10138316D01*
X6035000Y10139666D01*
X6034025Y10140716D01*
X6032900Y10141466D01*
X6031625Y10141916D01*
X6030200Y10142066D01*
X6060200D01*
X6058775Y10141916D01*
D02*
G37*
G36*
X6052838Y10083594D02*
X6053250Y10081083D01*
X6053937Y10078569D01*
X6054900Y10076052D01*
X6056137Y10073531D01*
X6057650Y10071008D01*
X6059437Y10068482D01*
X6061499Y10065952D01*
X6063836Y10063419D01*
X6066449Y10060883D01*
X6024468Y10059618D01*
X6026982Y10062358D01*
X6031216Y10067745D01*
X6032936Y10070393D01*
X6034392Y10073010D01*
X6035583Y10075596D01*
X6036509Y10078152D01*
X6037171Y10080677D01*
X6037568Y10083171D01*
X6037700Y10085635D01*
X6052700Y10086102D01*
X6052838Y10083594D01*
D02*
G37*
D13*
X5219700Y11709400D02*
D03*
X5448300D02*
D03*
X5270500Y12953999D02*
D03*
X4714115Y11480800D02*
D03*
X4942715D02*
D03*
X5499100Y12953999D02*
D03*
D17*
X5435600Y12097000D02*
D03*
X5511800Y10141200D02*
D03*
X5207000D02*
D03*
X5892800Y10818835D02*
D03*
Y11008835D02*
D03*
X4641625Y10192000D02*
D03*
Y10382000D02*
D03*
X6045200Y10192000D02*
D03*
Y10382000D02*
D03*
X5435600Y12287000D02*
D03*
X5511800Y10331200D02*
D03*
X5207000D02*
D03*
D19*
X6045200Y11849100D02*
D03*
X5715000D02*
D03*
X5181600Y12052300D02*
D03*
X4826000Y11010900D02*
D03*
X5181600Y12280900D02*
D03*
X5715000Y12077700D02*
D03*
X6045200D02*
D03*
X4826000Y10782300D02*
D03*
D22*
X5943600Y10668000D02*
Y10776716D01*
X5901481Y10818835D02*
X5943600Y10776716D01*
X5892800Y10818835D02*
X5901481D01*
X5546464Y12645764D02*
X5854700Y12953999D01*
X5546464Y12630764D02*
Y12645764D01*
X5181600Y13512801D02*
X5740400Y12953999D01*
X5196600Y12280900D02*
X5546464Y12630764D01*
X5181600Y12280900D02*
X5196600D01*
X5740400Y12953999D02*
X5854700D01*
X5727700Y12065000D02*
X6032500D01*
X5715000Y11849100D02*
X6045200D01*
X5511800Y11125200D02*
X5727700Y10909300D01*
X5435600Y11125200D02*
X5511800D01*
X5839255Y12547600D02*
X6184900Y12893245D01*
X5588000Y12369800D02*
X5765800Y12547600D01*
X5839255D01*
X5778500Y12484100D02*
X5880100D01*
X6350000Y12953999D01*
X6184900Y12893245D02*
Y13042900D01*
X6350000Y13208000D01*
X5588000Y12204700D02*
Y12369800D01*
X5960605Y12742405D02*
X5998705D01*
X6108700Y12852400D01*
X5842000Y12623800D02*
X5960605Y12742405D01*
X5829300Y12738100D02*
X6045200Y12953999D01*
Y13309229D01*
X5943600Y12471400D02*
X6172200Y12700000D01*
X6350000D01*
X5452390Y13123190D02*
X5461000Y13131799D01*
X5424690Y13123190D02*
X5452390D01*
X5403306Y12097000D02*
X5435600D01*
X5361187Y12054881D02*
X5403306Y12097000D01*
X5448300Y11709400D02*
Y11722099D01*
X5361187Y12028164D02*
Y12054881D01*
X5334000Y12000977D02*
X5361187Y12028164D01*
X5334000Y11988800D02*
Y12000977D01*
X5750775Y10128475D02*
X5766000Y10113250D01*
X5511800Y10141200D02*
X5524525Y10128475D01*
X5750775D01*
X5270500Y12969000D02*
X5424690Y13123190D01*
X5270500Y12953999D02*
Y12969000D01*
X5325390Y11997410D02*
X5334000Y11988800D01*
X5321300Y11849099D02*
Y11849100D01*
X5236490Y11997410D02*
X5325390D01*
X5181600Y12052300D02*
X5236490Y11997410D01*
X4529437Y13716000D02*
X4535536Y13709901D01*
X5321300Y11849099D02*
X5448300Y11722099D01*
X5194275Y10128475D02*
X5207000Y10141200D01*
X4917225Y10128475D02*
X5194275D01*
X4810033Y11026867D02*
Y11160799D01*
X4902000Y10113250D02*
X4917225Y10128475D01*
X4810033Y11026867D02*
X4826000Y11010900D01*
X6349000Y10413000D02*
X6350000Y10414000D01*
X6045200Y10382000D02*
X6076200Y10413000D01*
X6022319Y10382000D02*
X6045200D01*
X5980200Y10424119D02*
X6022319Y10382000D01*
X4826000Y10782300D02*
X4826234Y10782534D01*
X5680602Y10735202D02*
X5687687Y10742287D01*
X4318000Y13208000D02*
X4813300Y12712700D01*
X5092700D01*
X5185906Y12772900D02*
X5192923Y12765884D01*
X5007100Y12772900D02*
X5185906D01*
X4318000Y13462000D02*
X5007100Y12772900D01*
X4660900Y12611100D02*
X5054600D01*
X4318000Y12953999D02*
X4660900Y12611100D01*
X4501331Y11769935D02*
X4759951Y12028556D01*
X4501331Y11613331D02*
Y11769935D01*
X4318000Y11430000D02*
X4501331Y11613331D01*
X4526331Y11701831D02*
X4711700Y11887200D01*
X4526331Y11384331D02*
Y11701831D01*
X4318000Y11176000D02*
X4526331Y11384331D01*
X4622800Y10400825D02*
X4641625Y10382000D01*
X4622800Y10400825D02*
Y10541000D01*
X6074690Y10892510D02*
X6083300Y10883900D01*
X5927800Y11008835D02*
X6044125Y10892510D01*
X6074690D01*
X5892800Y11008835D02*
X5927800D01*
X5943600Y11163300D02*
X6335187Y10771713D01*
Y10682813D02*
Y10771713D01*
Y10682813D02*
X6350000Y10668000D01*
X5562600Y11163300D02*
X5943600D01*
X6019800Y11252200D02*
X6350000Y10922000D01*
X5651500Y11252200D02*
X6019800D01*
X5651500Y11391900D02*
X6134100D01*
X6350000Y11176000D01*
X5651500Y11506200D02*
X6249882D01*
X6326082Y11430000D02*
X6350000D01*
X6249882Y11506200D02*
X6326082Y11430000D01*
X6309513Y11684000D02*
X6350000D01*
X5676900Y11633200D02*
X6258713D01*
X6309513Y11684000D01*
X5617798Y11709400D02*
X6121400D01*
X6350000Y11938000D01*
X5452698Y11874500D02*
X5617798Y11709400D01*
X5448300Y11874500D02*
X5452698D01*
X5545397Y11942644D02*
X6100644D01*
X6350000Y12192000D01*
X6045200Y13309229D02*
X6339473Y13603500D01*
X5951105Y13469133D02*
X6121400Y13639429D01*
Y13741400D02*
X6350000Y13970000D01*
X6121400Y13639429D02*
Y13741400D01*
X5626100Y12623800D02*
X5951105Y12948805D01*
Y13469133D01*
X6108700Y12852400D02*
Y13220700D01*
X5181600Y13512801D02*
Y13868401D01*
X6339473Y13603500D02*
Y13705473D01*
X6350000Y13716000D01*
X6108700Y13220700D02*
X6350000Y13462000D01*
X5047100Y12166600D02*
X5161400Y12280900D01*
X5041900Y12166600D02*
X5047100D01*
X5161400Y12280900D02*
X5181600D01*
X4699000Y11671300D02*
X4762500Y11734800D01*
X4837600D01*
X4880976Y11552127D02*
X4942715Y11490388D01*
Y11480800D02*
Y11490388D01*
X4871388Y11552127D02*
X4880976D01*
X4752215Y11671300D02*
X4871388Y11552127D01*
X4699000Y11671300D02*
X4752215D01*
X5043000Y11709400D02*
X5219700D01*
X5017600Y11734800D02*
X5043000Y11709400D01*
X5219700Y11694400D02*
Y11709400D01*
X5325390Y11565610D02*
Y11588710D01*
Y11565610D02*
X5334000Y11557000D01*
X6032500Y12065000D02*
X6045200Y12077700D01*
X5715000D02*
X5727700Y12065000D01*
X5406110Y12373890D02*
X5421210D01*
X5435600Y12359500D01*
X5397500Y12382500D02*
X5406110Y12373890D01*
X5435600Y12287000D02*
Y12359500D01*
X5359400Y12799300D02*
X5499100Y12939000D01*
X5359400Y12700000D02*
Y12799300D01*
X5499100Y12939000D02*
Y12953999D01*
X5511800Y10331200D02*
Y10464800D01*
X5207000Y10331200D02*
Y10464800D01*
X6045200Y10039740D02*
X6046104Y10038836D01*
X6045200Y10039740D02*
Y10192000D01*
X4631699Y10041409D02*
Y10182074D01*
X4641625Y10192000D01*
D23*
X4991100Y10782300D02*
X4991723Y10781677D01*
X5082759D01*
X5095423Y10769014D01*
X4826467Y10782300D02*
X4991100D01*
X5095423Y10695661D02*
X5186584Y10604500D01*
X5095423Y10695661D02*
Y10769014D01*
X4826234Y10782534D02*
X4826467Y10782300D01*
X5112900Y11384400D02*
X5334000D01*
Y10764400D02*
Y11384400D01*
X5186584Y10604500D02*
X5613400D01*
X5680602Y10671702D01*
Y10735202D01*
D25*
X4318000Y13716000D02*
X4529437D01*
X6076200Y10413000D02*
X6349000D01*
X5219700Y11694400D02*
X5325390Y11588710D01*
D26*
X6350000Y10160000D02*
D03*
X4318000Y13716000D02*
D03*
Y10160000D02*
D03*
Y10414000D02*
D03*
Y10668000D02*
D03*
Y10922000D02*
D03*
Y11176000D02*
D03*
Y11430000D02*
D03*
Y11684000D02*
D03*
Y11938000D02*
D03*
Y12192000D02*
D03*
Y12446000D02*
D03*
Y12700000D02*
D03*
Y12953999D02*
D03*
Y13208000D02*
D03*
Y13462000D02*
D03*
X6350000Y10414000D02*
D03*
Y10668000D02*
D03*
Y10922000D02*
D03*
Y11176000D02*
D03*
Y11430000D02*
D03*
Y11684000D02*
D03*
Y11938000D02*
D03*
Y12192000D02*
D03*
Y12446000D02*
D03*
Y12700000D02*
D03*
Y12953999D02*
D03*
Y13208000D02*
D03*
Y13462000D02*
D03*
Y13716000D02*
D03*
D27*
X5766000Y10531250D02*
D03*
X4902000D02*
D03*
D28*
X5766000Y10113250D02*
D03*
X4902000D02*
D03*
D29*
X4318000Y13970000D02*
D03*
X6350000D02*
D03*
D30*
X5623000Y10481250D02*
D03*
X5045000D02*
D03*
D31*
X5943600Y10668000D02*
D03*
X5854700Y12953999D02*
D03*
X5880100Y12065000D02*
D03*
X5892800Y11849100D02*
D03*
X5435600Y11125200D02*
D03*
X5727700Y10909300D02*
D03*
X5778500Y12484100D02*
D03*
X5842000Y12623800D02*
D03*
X5829300Y12738100D02*
D03*
X5943600Y12471400D02*
D03*
X6096000Y10731500D02*
D03*
X4889500Y12776200D02*
D03*
X5842000Y13284200D02*
D03*
X5575300Y14097000D02*
D03*
X5503944Y12732695D02*
D03*
X5461000Y13131799D02*
D03*
X5385242Y13884470D02*
D03*
X5080000Y14097000D02*
D03*
X5334000Y11988800D02*
D03*
X5321300Y11849100D02*
D03*
X4535536Y13709901D02*
D03*
X4810033Y11160799D02*
D03*
X5511800Y10464800D02*
D03*
X5092700Y12712700D02*
D03*
X5192923Y12765884D02*
D03*
X5054600Y12611100D02*
D03*
X4759951Y12028556D02*
D03*
X4711700Y11887200D02*
D03*
X4533900Y13970000D02*
D03*
X4622800Y10541000D02*
D03*
X6083300Y10883900D02*
D03*
X5562600Y11163300D02*
D03*
X5651500Y11252200D02*
D03*
Y11391900D02*
D03*
Y11506200D02*
D03*
X5676900Y11633200D02*
D03*
X5448300Y11874500D02*
D03*
X5545397Y11942644D02*
D03*
X5626100Y12623800D02*
D03*
X5588000Y12204700D02*
D03*
X5575300Y13881100D02*
D03*
X5041900Y12166600D02*
D03*
X4699000Y11671300D02*
D03*
X5334000Y11557000D02*
D03*
X5397500Y12382500D02*
D03*
X5181600Y13868401D02*
D03*
X5359400Y12700000D02*
D03*
X5207000Y10464800D02*
D03*
X6046104Y10038836D02*
D03*
X4631699Y10041409D02*
D03*
D32*
X4991100Y10782300D02*
D03*
X5999998Y13799995D02*
D03*
X6149998Y13499995D02*
D03*
Y12299996D02*
D03*
X5549998Y13499995D02*
D03*
X4799999Y13799995D02*
D03*
X4649999Y13499995D02*
D03*
X4499999Y13199995D02*
D03*
Y12599996D02*
D03*
X5538800Y10999800D02*
D03*
X5112900Y11384400D02*
D03*
X5687687Y10742287D02*
D03*
D45*
X4837600Y11734800D02*
D03*
X5017600D02*
D03*
D46*
X5334000Y11384400D02*
D03*
D47*
X5104000Y10764400D02*
D03*
X5334000D02*
D03*
D48*
X5564000D02*
D03*
D49*
X5726119Y10706100D02*
X5778500D01*
X5980200Y10504400D01*
X5687687Y10742287D02*
X5689932D01*
X5726119Y10706100D01*
X5980200Y10424119D02*
Y10504400D01*
%TF.MD5,d1c7c1b1283e48c7bf204779bf212b91*%
M02*
