%TF.GenerationSoftware,Altium Limited,Altium Designer,26.5.1 (12)*%
G04 Layer_Color=32896*
G04 Board_Origin=0|0*
%FSLAX45Y45*%
%MOMM*%
%TF.SameCoordinates,62A7B766-ACB9-45BE-ACEC-DECC99EEDB6B*%
%TF.FilePolarity,Positive*%
%TF.FileFunction,Legend,Bot*%
%TF.Part,Single*%
G01*
G75*
%TA.AperFunction,NonConductor*%
%ADD52C,0.25000*%
%ADD53C,0.20000*%
G36*
X5169465Y11595369D02*
X5170736Y11593520D01*
X5172239Y11591671D01*
X5173626Y11590053D01*
X5175013Y11588666D01*
X5176053Y11587510D01*
X5176515Y11587164D01*
X5176862Y11586817D01*
X5176977Y11586701D01*
X5177093Y11586586D01*
X5179520Y11584621D01*
X5181947Y11582772D01*
X5184258Y11581154D01*
X5186570Y11579883D01*
X5188534Y11578727D01*
X5189343Y11578265D01*
X5190037Y11577918D01*
X5190614Y11577571D01*
X5191077Y11577456D01*
X5191308Y11577225D01*
X5191423D01*
Y11567748D01*
X5189690Y11568441D01*
X5187956Y11569250D01*
X5186223Y11570059D01*
X5184605Y11570868D01*
X5183218Y11571562D01*
X5182062Y11572140D01*
X5181369Y11572602D01*
X5181253Y11572718D01*
X5181138D01*
X5179057Y11573989D01*
X5177208Y11575260D01*
X5175590Y11576416D01*
X5174319Y11577456D01*
X5173163Y11578265D01*
X5172470Y11578958D01*
X5171892Y11579421D01*
X5171777Y11579536D01*
Y11517013D01*
X5161953D01*
Y11597334D01*
X5168309D01*
X5169465Y11595369D01*
D02*
G37*
G36*
X5244817Y11598143D02*
X5248515Y11597565D01*
X5251751Y11596872D01*
X5253253Y11596409D01*
X5254640Y11595947D01*
X5255912Y11595485D01*
X5257067Y11595023D01*
X5257992Y11594676D01*
X5258916Y11594329D01*
X5259494Y11593982D01*
X5259956Y11593751D01*
X5260303Y11593636D01*
X5260419Y11593520D01*
X5263539Y11591555D01*
X5266197Y11589244D01*
X5268509Y11586933D01*
X5270473Y11584621D01*
X5271976Y11582541D01*
X5272554Y11581616D01*
X5273016Y11580807D01*
X5273478Y11580230D01*
X5273709Y11579767D01*
X5273825Y11579421D01*
X5273940Y11579305D01*
X5275558Y11575722D01*
X5276714Y11572024D01*
X5277523Y11568326D01*
X5278101Y11564974D01*
X5278332Y11563472D01*
X5278448Y11561970D01*
X5278563Y11560814D01*
Y11559658D01*
X5278679Y11558849D01*
Y11558156D01*
Y11557693D01*
Y11557578D01*
X5278448Y11553417D01*
X5277985Y11549372D01*
X5277408Y11545790D01*
X5276945Y11544056D01*
X5276599Y11542554D01*
X5276252Y11541167D01*
X5275790Y11539896D01*
X5275443Y11538740D01*
X5275212Y11537815D01*
X5274865Y11537122D01*
X5274749Y11536544D01*
X5274518Y11536197D01*
Y11536082D01*
X5272785Y11532615D01*
X5270820Y11529494D01*
X5268740Y11526836D01*
X5267700Y11525796D01*
X5266775Y11524756D01*
X5265851Y11523831D01*
X5264926Y11523022D01*
X5264117Y11522329D01*
X5263424Y11521867D01*
X5262961Y11521404D01*
X5262499Y11521058D01*
X5262268Y11520942D01*
X5262152Y11520827D01*
X5260534Y11519902D01*
X5258916Y11519093D01*
X5255449Y11517822D01*
X5251982Y11516897D01*
X5248631Y11516319D01*
X5247013Y11516088D01*
X5245626Y11515857D01*
X5244355Y11515742D01*
X5243314D01*
X5242390Y11515626D01*
X5241119D01*
X5238807Y11515742D01*
X5236611Y11515973D01*
X5234531Y11516204D01*
X5232566Y11516666D01*
X5230717Y11517244D01*
X5228984Y11517822D01*
X5227366Y11518400D01*
X5225863Y11519093D01*
X5224592Y11519671D01*
X5223321Y11520249D01*
X5222396Y11520827D01*
X5221472Y11521404D01*
X5220894Y11521867D01*
X5220316Y11522098D01*
X5220085Y11522329D01*
X5219969Y11522445D01*
X5218351Y11523831D01*
X5216964Y11525218D01*
X5215693Y11526836D01*
X5214422Y11528454D01*
X5212342Y11531690D01*
X5210724Y11534926D01*
X5210030Y11536429D01*
X5209452Y11537815D01*
X5208990Y11539087D01*
X5208643Y11540127D01*
X5208297Y11541051D01*
X5208066Y11541745D01*
X5207950Y11542207D01*
Y11542323D01*
X5218582Y11544981D01*
X5219045Y11543132D01*
X5219623Y11541398D01*
X5220200Y11539780D01*
X5220778Y11538278D01*
X5221472Y11536891D01*
X5222165Y11535735D01*
X5222974Y11534579D01*
X5223667Y11533539D01*
X5224245Y11532615D01*
X5224939Y11531921D01*
X5225517Y11531228D01*
X5225979Y11530650D01*
X5226441Y11530303D01*
X5226788Y11529957D01*
X5226903Y11529841D01*
X5227019Y11529725D01*
X5228175Y11528801D01*
X5229446Y11528108D01*
X5231989Y11526836D01*
X5234415Y11525912D01*
X5236842Y11525334D01*
X5238923Y11524872D01*
X5239732Y11524756D01*
X5240541D01*
X5241234Y11524640D01*
X5242043D01*
X5244701Y11524756D01*
X5247244Y11525218D01*
X5249555Y11525796D01*
X5251635Y11526490D01*
X5253253Y11527183D01*
X5253947Y11527530D01*
X5254525Y11527761D01*
X5254987Y11527992D01*
X5255334Y11528223D01*
X5255565Y11528339D01*
X5255680D01*
X5257876Y11529957D01*
X5259725Y11531690D01*
X5261343Y11533655D01*
X5262615Y11535504D01*
X5263655Y11537122D01*
X5264348Y11538509D01*
X5264579Y11539087D01*
X5264810Y11539433D01*
X5264926Y11539664D01*
Y11539780D01*
X5265851Y11542785D01*
X5266544Y11545790D01*
X5267122Y11548795D01*
X5267469Y11551568D01*
X5267584Y11552839D01*
X5267700Y11553995D01*
Y11555035D01*
X5267815Y11555844D01*
Y11556538D01*
Y11557116D01*
Y11557462D01*
Y11557578D01*
X5267700Y11560583D01*
X5267469Y11563356D01*
X5267006Y11565899D01*
X5266544Y11568210D01*
X5266197Y11570175D01*
X5265966Y11570984D01*
X5265735Y11571677D01*
X5265619Y11572255D01*
X5265504Y11572602D01*
X5265388Y11572833D01*
Y11572949D01*
X5264233Y11575607D01*
X5262961Y11578034D01*
X5261574Y11579998D01*
X5260072Y11581732D01*
X5258801Y11583119D01*
X5257761Y11584043D01*
X5256952Y11584621D01*
X5256836Y11584852D01*
X5256720D01*
X5254294Y11586355D01*
X5251635Y11587510D01*
X5249093Y11588319D01*
X5246666Y11588782D01*
X5244470Y11589128D01*
X5243546Y11589244D01*
X5242737D01*
X5242159Y11589360D01*
X5241234D01*
X5238345Y11589244D01*
X5235687Y11588782D01*
X5233491Y11588088D01*
X5231526Y11587395D01*
X5230024Y11586586D01*
X5228868Y11586008D01*
X5228175Y11585546D01*
X5227944Y11585315D01*
X5226094Y11583581D01*
X5224361Y11581616D01*
X5222974Y11579536D01*
X5221818Y11577456D01*
X5220894Y11575607D01*
X5220547Y11574682D01*
X5220316Y11573989D01*
X5220085Y11573411D01*
X5219854Y11572949D01*
X5219738Y11572718D01*
Y11572602D01*
X5209337Y11575029D01*
X5210030Y11577109D01*
X5210724Y11578958D01*
X5211648Y11580692D01*
X5212457Y11582425D01*
X5213382Y11583928D01*
X5214422Y11585315D01*
X5215346Y11586701D01*
X5216271Y11587857D01*
X5217196Y11588782D01*
X5218005Y11589706D01*
X5218814Y11590515D01*
X5219391Y11591093D01*
X5219969Y11591671D01*
X5220432Y11592018D01*
X5220663Y11592133D01*
X5220778Y11592249D01*
X5222396Y11593289D01*
X5224014Y11594329D01*
X5225632Y11595138D01*
X5227366Y11595832D01*
X5230833Y11596872D01*
X5233953Y11597565D01*
X5235456Y11597912D01*
X5236727Y11598027D01*
X5237998Y11598143D01*
X5239038Y11598258D01*
X5239847Y11598374D01*
X5241003D01*
X5244817Y11598143D01*
D02*
G37*
G36*
X5113760Y11597103D02*
X5116650Y11596641D01*
X5119077Y11595832D01*
X5121157Y11595023D01*
X5122890Y11594098D01*
X5123584Y11593751D01*
X5124162Y11593289D01*
X5124624Y11593058D01*
X5124971Y11592827D01*
X5125086Y11592596D01*
X5125202D01*
X5127282Y11590746D01*
X5129016Y11588551D01*
X5130518Y11586355D01*
X5131674Y11584275D01*
X5132598Y11582310D01*
X5133061Y11581501D01*
X5133292Y11580692D01*
X5133523Y11580114D01*
X5133754Y11579652D01*
X5133870Y11579421D01*
Y11579305D01*
X5134332Y11577571D01*
X5134794Y11575838D01*
X5135488Y11572024D01*
X5136065Y11568210D01*
X5136412Y11564628D01*
X5136528Y11562894D01*
X5136643Y11561392D01*
Y11560005D01*
X5136759Y11558734D01*
Y11557809D01*
Y11557000D01*
Y11556538D01*
Y11556422D01*
X5136643Y11552377D01*
X5136412Y11548563D01*
X5136065Y11545096D01*
X5135488Y11541860D01*
X5134910Y11538856D01*
X5134216Y11536197D01*
X5133523Y11533770D01*
X5132829Y11531690D01*
X5132136Y11529841D01*
X5131327Y11528223D01*
X5130749Y11526836D01*
X5130171Y11525796D01*
X5129594Y11524872D01*
X5129247Y11524294D01*
X5129016Y11523947D01*
X5128900Y11523831D01*
X5127629Y11522445D01*
X5126242Y11521173D01*
X5124740Y11520018D01*
X5123237Y11519093D01*
X5121735Y11518284D01*
X5120232Y11517591D01*
X5118730Y11517128D01*
X5117343Y11516666D01*
X5115956Y11516319D01*
X5114685Y11516088D01*
X5113529Y11515857D01*
X5112605Y11515742D01*
X5111796Y11515626D01*
X5110640D01*
X5107520Y11515857D01*
X5104630Y11516319D01*
X5102203Y11517128D01*
X5100123Y11517937D01*
X5098390Y11518746D01*
X5097812Y11519209D01*
X5097234Y11519555D01*
X5096772Y11519786D01*
X5096425Y11520018D01*
X5096309Y11520249D01*
X5096194D01*
X5094114Y11522213D01*
X5092380Y11524294D01*
X5090878Y11526605D01*
X5089722Y11528685D01*
X5088797Y11530650D01*
X5088335Y11531459D01*
X5088104Y11532268D01*
X5087873Y11532846D01*
X5087642Y11533308D01*
X5087526Y11533539D01*
Y11533655D01*
X5086948Y11535388D01*
X5086486Y11537122D01*
X5085792Y11540820D01*
X5085215Y11544634D01*
X5084868Y11548332D01*
X5084752Y11549950D01*
X5084637Y11551453D01*
Y11552839D01*
X5084521Y11554111D01*
Y11555035D01*
Y11555844D01*
Y11556307D01*
Y11556422D01*
Y11558618D01*
X5084637Y11560698D01*
Y11562547D01*
X5084752Y11564396D01*
X5084983Y11566014D01*
X5085099Y11567632D01*
X5085215Y11569019D01*
X5085446Y11570291D01*
X5085561Y11571446D01*
X5085792Y11572486D01*
X5085908Y11573295D01*
X5086024Y11573989D01*
X5086139Y11574567D01*
X5086255Y11574913D01*
X5086370Y11575144D01*
Y11575260D01*
X5087064Y11577803D01*
X5087873Y11580114D01*
X5088797Y11582079D01*
X5089491Y11583812D01*
X5090300Y11585315D01*
X5090762Y11586355D01*
X5091224Y11586933D01*
X5091340Y11587164D01*
X5092611Y11588897D01*
X5093882Y11590400D01*
X5095269Y11591671D01*
X5096540Y11592827D01*
X5097696Y11593636D01*
X5098621Y11594214D01*
X5099199Y11594560D01*
X5099314Y11594676D01*
X5099430D01*
X5101279Y11595600D01*
X5103244Y11596178D01*
X5105093Y11596641D01*
X5106826Y11596987D01*
X5108329Y11597218D01*
X5109600Y11597334D01*
X5110640D01*
X5113760Y11597103D01*
D02*
G37*
G36*
X6080237Y11098551D02*
X6084043Y11097846D01*
X6087285Y11096718D01*
X6090105Y11095591D01*
X6091373Y11094886D01*
X6092360Y11094322D01*
X6093347Y11093758D01*
X6094052Y11093194D01*
X6094616Y11092771D01*
X6095039Y11092489D01*
X6095321Y11092348D01*
X6095462Y11092207D01*
X6098140Y11089529D01*
X6100254Y11086569D01*
X6101946Y11083467D01*
X6103356Y11080366D01*
X6104202Y11077688D01*
X6104625Y11076560D01*
X6104907Y11075573D01*
X6105047Y11074727D01*
X6105188Y11074163D01*
X6105329Y11073740D01*
Y11073599D01*
X6093347Y11071485D01*
X6092783Y11074586D01*
X6091937Y11077265D01*
X6090950Y11079520D01*
X6089964Y11081353D01*
X6088977Y11082762D01*
X6088131Y11083749D01*
X6087567Y11084454D01*
X6087426Y11084595D01*
X6085594Y11086005D01*
X6083620Y11087133D01*
X6081787Y11087837D01*
X6079955Y11088401D01*
X6078263Y11088683D01*
X6076994Y11088965D01*
X6075867D01*
X6073329Y11088824D01*
X6071074Y11088260D01*
X6069100Y11087555D01*
X6067408Y11086851D01*
X6066140Y11086005D01*
X6065153Y11085300D01*
X6064448Y11084736D01*
X6064307Y11084595D01*
X6062756Y11082903D01*
X6061629Y11081071D01*
X6060924Y11079238D01*
X6060360Y11077547D01*
X6060078Y11075996D01*
X6059796Y11074868D01*
Y11074022D01*
Y11073881D01*
Y11073740D01*
Y11072190D01*
X6060078Y11070780D01*
X6060783Y11068384D01*
X6061770Y11066269D01*
X6062897Y11064436D01*
X6064025Y11063168D01*
X6065012Y11062181D01*
X6065717Y11061617D01*
X6065858Y11061476D01*
X6065999D01*
X6068395Y11060207D01*
X6070651Y11059220D01*
X6073047Y11058516D01*
X6075162Y11058093D01*
X6076994Y11057811D01*
X6078545Y11057529D01*
X6080378D01*
X6080942Y11057670D01*
X6081646D01*
X6083056Y11047097D01*
X6081224Y11047520D01*
X6079532Y11047802D01*
X6078122Y11048084D01*
X6076853Y11048225D01*
X6075867Y11048366D01*
X6074598D01*
X6071638Y11048084D01*
X6068959Y11047520D01*
X6066563Y11046674D01*
X6064589Y11045687D01*
X6063038Y11044701D01*
X6061911Y11043855D01*
X6061206Y11043291D01*
X6060924Y11043009D01*
X6059091Y11040894D01*
X6057682Y11038639D01*
X6056695Y11036383D01*
X6056131Y11034128D01*
X6055708Y11032295D01*
X6055567Y11030745D01*
X6055426Y11030181D01*
Y11029758D01*
Y11029476D01*
Y11029335D01*
X6055708Y11026233D01*
X6056413Y11023414D01*
X6057259Y11021018D01*
X6058386Y11018903D01*
X6059514Y11017211D01*
X6060360Y11015943D01*
X6061065Y11015097D01*
X6061347Y11014815D01*
X6063602Y11012841D01*
X6065999Y11011432D01*
X6068395Y11010445D01*
X6070651Y11009740D01*
X6072624Y11009317D01*
X6074175Y11009176D01*
X6074739Y11009035D01*
X6075585D01*
X6078122Y11009176D01*
X6080519Y11009740D01*
X6082633Y11010445D01*
X6084325Y11011291D01*
X6085735Y11011996D01*
X6086862Y11012700D01*
X6087426Y11013264D01*
X6087708Y11013405D01*
X6089400Y11015379D01*
X6090810Y11017634D01*
X6092078Y11020031D01*
X6093065Y11022568D01*
X6093770Y11024683D01*
X6094052Y11025670D01*
X6094193Y11026515D01*
X6094334Y11027220D01*
X6094475Y11027784D01*
X6094616Y11028066D01*
Y11028207D01*
X6106598Y11026656D01*
X6106316Y11024401D01*
X6105893Y11022286D01*
X6104625Y11018339D01*
X6103074Y11014956D01*
X6102228Y11013546D01*
X6101382Y11012136D01*
X6100536Y11010868D01*
X6099691Y11009881D01*
X6098986Y11008894D01*
X6098281Y11008189D01*
X6097858Y11007625D01*
X6097435Y11007203D01*
X6097153Y11006921D01*
X6097012Y11006780D01*
X6095321Y11005511D01*
X6093629Y11004242D01*
X6091937Y11003255D01*
X6090105Y11002410D01*
X6086580Y11001000D01*
X6083197Y11000154D01*
X6081646Y10999872D01*
X6080237Y10999590D01*
X6078968Y10999449D01*
X6077840Y10999308D01*
X6076994Y10999167D01*
X6075726D01*
X6073047Y10999308D01*
X6070651Y10999590D01*
X6068254Y11000013D01*
X6065999Y11000577D01*
X6063884Y11001282D01*
X6062052Y11001987D01*
X6060219Y11002832D01*
X6058668Y11003678D01*
X6057118Y11004383D01*
X6055849Y11005229D01*
X6054721Y11005934D01*
X6053875Y11006639D01*
X6053171Y11007203D01*
X6052607Y11007625D01*
X6052325Y11007907D01*
X6052184Y11008048D01*
X6050492Y11009740D01*
X6049082Y11011573D01*
X6047814Y11013405D01*
X6046686Y11015238D01*
X6045840Y11016929D01*
X6044994Y11018762D01*
X6043867Y11022145D01*
X6043585Y11023696D01*
X6043303Y11025106D01*
X6043021Y11026374D01*
X6042880Y11027502D01*
X6042739Y11028348D01*
Y11029053D01*
Y11029476D01*
Y11029617D01*
X6042880Y11033000D01*
X6043444Y11036101D01*
X6044289Y11038780D01*
X6045135Y11041035D01*
X6045981Y11042868D01*
X6046827Y11044278D01*
X6047391Y11045123D01*
X6047532Y11045405D01*
X6049505Y11047520D01*
X6051620Y11049353D01*
X6053875Y11050762D01*
X6056131Y11051890D01*
X6058104Y11052736D01*
X6059655Y11053300D01*
X6060219Y11053441D01*
X6060642Y11053582D01*
X6060924Y11053723D01*
X6061065D01*
X6058668Y11054991D01*
X6056695Y11056260D01*
X6055003Y11057670D01*
X6053593Y11058939D01*
X6052466Y11060066D01*
X6051620Y11061053D01*
X6051197Y11061617D01*
X6051056Y11061899D01*
X6049928Y11063872D01*
X6049082Y11065846D01*
X6048378Y11067820D01*
X6047955Y11069652D01*
X6047673Y11071203D01*
X6047532Y11072331D01*
Y11073176D01*
Y11073458D01*
X6047673Y11075855D01*
X6048096Y11078251D01*
X6048659Y11080366D01*
X6049364Y11082199D01*
X6050069Y11083749D01*
X6050633Y11085018D01*
X6051056Y11085723D01*
X6051197Y11086005D01*
X6052607Y11088119D01*
X6054298Y11089952D01*
X6055990Y11091503D01*
X6057682Y11092912D01*
X6059091Y11093899D01*
X6060360Y11094745D01*
X6061206Y11095168D01*
X6061347Y11095309D01*
X6061488D01*
X6064025Y11096437D01*
X6066563Y11097282D01*
X6069100Y11097987D01*
X6071356Y11098410D01*
X6073188Y11098692D01*
X6074739Y11098833D01*
X6078263D01*
X6080237Y11098551D01*
D02*
G37*
G36*
X6200061Y11000859D02*
X6187092D01*
Y11044137D01*
X6170458D01*
X6168907Y11043996D01*
X6167779D01*
X6166792Y11043855D01*
X6166087Y11043714D01*
X6165524D01*
X6165242Y11043573D01*
X6165101D01*
X6162845Y11042868D01*
X6161858Y11042445D01*
X6161013Y11042022D01*
X6160167Y11041599D01*
X6159603Y11041317D01*
X6159321Y11041176D01*
X6159180Y11041035D01*
X6158052Y11040190D01*
X6156924Y11039203D01*
X6154810Y11037088D01*
X6153823Y11036101D01*
X6153118Y11035256D01*
X6152695Y11034692D01*
X6152554Y11034551D01*
X6151145Y11032577D01*
X6149594Y11030463D01*
X6148043Y11028207D01*
X6146493Y11026093D01*
X6145224Y11024119D01*
X6144237Y11022568D01*
X6143814Y11022004D01*
X6143532Y11021581D01*
X6143250Y11021300D01*
Y11021159D01*
X6130422Y11000859D01*
X6114352D01*
X6131127Y11027361D01*
X6133101Y11030181D01*
X6134933Y11032718D01*
X6136766Y11034833D01*
X6138316Y11036806D01*
X6139726Y11038216D01*
X6140854Y11039344D01*
X6141559Y11040049D01*
X6141841Y11040330D01*
X6142968Y11041176D01*
X6144237Y11042163D01*
X6146775Y11043714D01*
X6147902Y11044278D01*
X6148748Y11044842D01*
X6149312Y11045123D01*
X6149594Y11045264D01*
X6147057Y11045687D01*
X6144660Y11046110D01*
X6142545Y11046815D01*
X6140431Y11047379D01*
X6138598Y11048084D01*
X6136907Y11048930D01*
X6135356Y11049634D01*
X6133946Y11050339D01*
X6132819Y11051185D01*
X6131691Y11051890D01*
X6130845Y11052454D01*
X6130140Y11053018D01*
X6129576Y11053441D01*
X6129153Y11053864D01*
X6129012Y11054005D01*
X6128871Y11054146D01*
X6127744Y11055555D01*
X6126616Y11056965D01*
X6124924Y11059925D01*
X6123796Y11062886D01*
X6122951Y11065705D01*
X6122387Y11068102D01*
X6122246Y11069088D01*
Y11070075D01*
X6122105Y11070780D01*
Y11071344D01*
Y11071626D01*
Y11071767D01*
X6122246Y11074727D01*
X6122669Y11077406D01*
X6123374Y11079943D01*
X6124078Y11082058D01*
X6124924Y11083890D01*
X6125488Y11085300D01*
X6126052Y11086146D01*
X6126193Y11086287D01*
Y11086428D01*
X6127885Y11088683D01*
X6129576Y11090657D01*
X6131409Y11092348D01*
X6133101Y11093617D01*
X6134651Y11094604D01*
X6135920Y11095168D01*
X6136766Y11095591D01*
X6136907Y11095732D01*
X6137048D01*
X6138316Y11096155D01*
X6139867Y11096578D01*
X6142968Y11097282D01*
X6146352Y11097705D01*
X6149453Y11098128D01*
X6152413Y11098269D01*
X6153682D01*
X6154810Y11098410D01*
X6200061D01*
Y11000859D01*
D02*
G37*
G36*
X4663150Y10619224D02*
X4650180D01*
Y10662502D01*
X4633546D01*
X4631995Y10662361D01*
X4630868D01*
X4629881Y10662220D01*
X4629176Y10662079D01*
X4628612D01*
X4628330Y10661938D01*
X4628189D01*
X4625934Y10661233D01*
X4624947Y10660811D01*
X4624101Y10660388D01*
X4623255Y10659965D01*
X4622691Y10659683D01*
X4622409Y10659542D01*
X4622268Y10659401D01*
X4621141Y10658555D01*
X4620013Y10657568D01*
X4617898Y10655454D01*
X4616912Y10654467D01*
X4616207Y10653621D01*
X4615784Y10653057D01*
X4615643Y10652916D01*
X4614233Y10650943D01*
X4612682Y10648828D01*
X4611132Y10646573D01*
X4609581Y10644458D01*
X4608312Y10642484D01*
X4607326Y10640934D01*
X4606903Y10640370D01*
X4606621Y10639947D01*
X4606339Y10639665D01*
Y10639524D01*
X4593510Y10619224D01*
X4577440D01*
X4594215Y10645727D01*
X4596189Y10648546D01*
X4598022Y10651084D01*
X4599854Y10653198D01*
X4601405Y10655172D01*
X4602815Y10656581D01*
X4603942Y10657709D01*
X4604647Y10658414D01*
X4604929Y10658696D01*
X4606057Y10659542D01*
X4607326Y10660529D01*
X4609863Y10662079D01*
X4610991Y10662643D01*
X4611837Y10663207D01*
X4612400Y10663489D01*
X4612682Y10663630D01*
X4610145Y10664053D01*
X4607748Y10664476D01*
X4605634Y10665181D01*
X4603519Y10665744D01*
X4601687Y10666449D01*
X4599995Y10667295D01*
X4598444Y10668000D01*
X4597035Y10668705D01*
X4595907Y10669551D01*
X4594779Y10670256D01*
X4593933Y10670819D01*
X4593229Y10671383D01*
X4592665Y10671806D01*
X4592242Y10672229D01*
X4592101Y10672370D01*
X4591960Y10672511D01*
X4590832Y10673921D01*
X4589704Y10675330D01*
X4588013Y10678291D01*
X4586885Y10681251D01*
X4586039Y10684071D01*
X4585475Y10686467D01*
X4585334Y10687454D01*
Y10688441D01*
X4585193Y10689146D01*
Y10689709D01*
Y10689991D01*
Y10690132D01*
X4585334Y10693093D01*
X4585757Y10695771D01*
X4586462Y10698309D01*
X4587167Y10700423D01*
X4588013Y10702256D01*
X4588577Y10703665D01*
X4589140Y10704511D01*
X4589281Y10704652D01*
Y10704793D01*
X4590973Y10707049D01*
X4592665Y10709022D01*
X4594497Y10710714D01*
X4596189Y10711983D01*
X4597740Y10712969D01*
X4599008Y10713533D01*
X4599854Y10713956D01*
X4599995Y10714097D01*
X4600136D01*
X4601405Y10714520D01*
X4602955Y10714943D01*
X4606057Y10715648D01*
X4609440Y10716071D01*
X4612541Y10716494D01*
X4615502Y10716635D01*
X4616771D01*
X4617898Y10716776D01*
X4663150D01*
Y10619224D01*
D02*
G37*
G36*
X4573916Y10653621D02*
Y10642625D01*
X4531484D01*
Y10619224D01*
X4519501D01*
Y10642625D01*
X4506250D01*
Y10653621D01*
X4519501D01*
Y10716776D01*
X4529228D01*
X4573916Y10653621D01*
D02*
G37*
G36*
X6041477Y10539167D02*
X6030199Y10537617D01*
X6029212Y10539167D01*
X6027944Y10540436D01*
X6026816Y10541705D01*
X6025688Y10542692D01*
X6024560Y10543396D01*
X6023715Y10544101D01*
X6023151Y10544383D01*
X6023010Y10544524D01*
X6021177Y10545370D01*
X6019345Y10546075D01*
X6017653Y10546498D01*
X6015961Y10546921D01*
X6014552Y10547062D01*
X6013424Y10547203D01*
X6010745D01*
X6009054Y10546921D01*
X6006093Y10546216D01*
X6003556Y10545229D01*
X6001300Y10544242D01*
X5999609Y10543115D01*
X5998340Y10542128D01*
X5997635Y10541423D01*
X5997353Y10541282D01*
Y10541141D01*
X5995380Y10538744D01*
X5993970Y10536207D01*
X5992983Y10533529D01*
X5992278Y10530850D01*
X5991855Y10528595D01*
X5991714Y10527608D01*
Y10526762D01*
X5991573Y10526057D01*
Y10525493D01*
Y10525211D01*
Y10525070D01*
Y10523097D01*
X5991855Y10521264D01*
X5992560Y10517740D01*
X5993547Y10514780D01*
X5994534Y10512383D01*
X5995662Y10510410D01*
X5996648Y10508859D01*
X5997071Y10508436D01*
X5997353Y10508013D01*
X5997494Y10507872D01*
X5997635Y10507731D01*
X5998763Y10506603D01*
X5999891Y10505617D01*
X6002428Y10503925D01*
X6004825Y10502797D01*
X6007221Y10502092D01*
X6009195Y10501528D01*
X6010886Y10501387D01*
X6011450Y10501246D01*
X6012296D01*
X6014975Y10501387D01*
X6017371Y10501951D01*
X6019486Y10502656D01*
X6021177Y10503502D01*
X6022728Y10504348D01*
X6023856Y10505053D01*
X6024419Y10505617D01*
X6024701Y10505757D01*
X6026393Y10507731D01*
X6027803Y10509846D01*
X6028931Y10512242D01*
X6029776Y10514357D01*
X6030340Y10516471D01*
X6030763Y10518022D01*
X6030904Y10518727D01*
X6031045Y10519150D01*
Y10519432D01*
Y10519573D01*
X6043591Y10518586D01*
X6043309Y10516330D01*
X6042887Y10514216D01*
X6041618Y10510269D01*
X6040067Y10506885D01*
X6039221Y10505335D01*
X6038376Y10504066D01*
X6037671Y10502797D01*
X6036825Y10501669D01*
X6036120Y10500824D01*
X6035415Y10500119D01*
X6034851Y10499555D01*
X6034569Y10498991D01*
X6034287Y10498850D01*
X6034146Y10498709D01*
X6032455Y10497440D01*
X6030763Y10496313D01*
X6028931Y10495326D01*
X6027098Y10494480D01*
X6023574Y10493211D01*
X6020049Y10492365D01*
X6018499Y10491942D01*
X6016948Y10491801D01*
X6015679Y10491661D01*
X6014552Y10491520D01*
X6013565Y10491379D01*
X6012296D01*
X6009336Y10491520D01*
X6006516Y10491942D01*
X6003838Y10492506D01*
X6001441Y10493211D01*
X5999186Y10494198D01*
X5997071Y10495185D01*
X5995098Y10496172D01*
X5993406Y10497299D01*
X5991855Y10498427D01*
X5990446Y10499414D01*
X5989318Y10500542D01*
X5988331Y10501387D01*
X5987626Y10502092D01*
X5987062Y10502656D01*
X5986781Y10503079D01*
X5986640Y10503220D01*
X5985230Y10505053D01*
X5984102Y10507026D01*
X5982974Y10508859D01*
X5982128Y10510832D01*
X5980719Y10514639D01*
X5979873Y10518304D01*
X5979591Y10519854D01*
X5979309Y10521405D01*
X5979168Y10522674D01*
X5979027Y10523802D01*
X5978886Y10524788D01*
Y10525493D01*
Y10525916D01*
Y10526057D01*
X5979027Y10528595D01*
X5979309Y10530991D01*
X5979732Y10533388D01*
X5980296Y10535502D01*
X5981001Y10537476D01*
X5981706Y10539449D01*
X5982551Y10541141D01*
X5983256Y10542692D01*
X5984102Y10544101D01*
X5984948Y10545370D01*
X5985653Y10546357D01*
X5986358Y10547344D01*
X5986921Y10548048D01*
X5987344Y10548471D01*
X5987626Y10548753D01*
X5987767Y10548894D01*
X5989459Y10550445D01*
X5991151Y10551855D01*
X5992983Y10552982D01*
X5994816Y10553969D01*
X5996648Y10554956D01*
X5998481Y10555661D01*
X6001864Y10556648D01*
X6003415Y10557071D01*
X6004825Y10557353D01*
X6006093Y10557493D01*
X6007221Y10557634D01*
X6008067Y10557775D01*
X6011168D01*
X6012860Y10557493D01*
X6016243Y10556789D01*
X6019345Y10555802D01*
X6022164Y10554674D01*
X6024419Y10553546D01*
X6025406Y10552982D01*
X6026252Y10552560D01*
X6026957Y10552137D01*
X6027380Y10551855D01*
X6027662Y10551714D01*
X6027803Y10551573D01*
X6022587Y10577934D01*
X5983538D01*
Y10589353D01*
X6032032D01*
X6041477Y10539167D01*
D02*
G37*
G36*
X6136914Y10493070D02*
X6123944D01*
Y10536348D01*
X6107310D01*
X6105759Y10536207D01*
X6104631D01*
X6103645Y10536066D01*
X6102940Y10535925D01*
X6102376D01*
X6102094Y10535784D01*
X6101953D01*
X6099697Y10535079D01*
X6098711Y10534656D01*
X6097865Y10534233D01*
X6097019Y10533811D01*
X6096455Y10533529D01*
X6096173Y10533388D01*
X6096032Y10533247D01*
X6094904Y10532401D01*
X6093777Y10531414D01*
X6091662Y10529299D01*
X6090675Y10528313D01*
X6089971Y10527467D01*
X6089548Y10526903D01*
X6089407Y10526762D01*
X6087997Y10524788D01*
X6086446Y10522674D01*
X6084896Y10520418D01*
X6083345Y10518304D01*
X6082076Y10516330D01*
X6081089Y10514780D01*
X6080667Y10514216D01*
X6080385Y10513793D01*
X6080103Y10513511D01*
Y10513370D01*
X6067274Y10493070D01*
X6051204D01*
X6067979Y10519573D01*
X6069953Y10522392D01*
X6071785Y10524929D01*
X6073618Y10527044D01*
X6075169Y10529018D01*
X6076578Y10530427D01*
X6077706Y10531555D01*
X6078411Y10532260D01*
X6078693Y10532542D01*
X6079821Y10533388D01*
X6081089Y10534374D01*
X6083627Y10535925D01*
X6084755Y10536489D01*
X6085600Y10537053D01*
X6086164Y10537335D01*
X6086446Y10537476D01*
X6083909Y10537899D01*
X6081512Y10538322D01*
X6079398Y10539026D01*
X6077283Y10539590D01*
X6075451Y10540295D01*
X6073759Y10541141D01*
X6072208Y10541846D01*
X6070799Y10542551D01*
X6069671Y10543396D01*
X6068543Y10544101D01*
X6067697Y10544665D01*
X6066992Y10545229D01*
X6066429Y10545652D01*
X6066006Y10546075D01*
X6065865Y10546216D01*
X6065724Y10546357D01*
X6064596Y10547767D01*
X6063468Y10549176D01*
X6061777Y10552137D01*
X6060649Y10555097D01*
X6059803Y10557916D01*
X6059239Y10560313D01*
X6059098Y10561300D01*
Y10562286D01*
X6058957Y10562991D01*
Y10563555D01*
Y10563837D01*
Y10563978D01*
X6059098Y10566938D01*
X6059521Y10569617D01*
X6060226Y10572154D01*
X6060931Y10574269D01*
X6061777Y10576102D01*
X6062340Y10577511D01*
X6062904Y10578357D01*
X6063045Y10578498D01*
Y10578639D01*
X6064737Y10580895D01*
X6066429Y10582868D01*
X6068261Y10584560D01*
X6069953Y10585828D01*
X6071503Y10586815D01*
X6072772Y10587379D01*
X6073618Y10587802D01*
X6073759Y10587943D01*
X6073900D01*
X6075169Y10588366D01*
X6076719Y10588789D01*
X6079821Y10589494D01*
X6083204Y10589917D01*
X6086305Y10590339D01*
X6089266Y10590480D01*
X6090534D01*
X6091662Y10590621D01*
X6136914D01*
Y10493070D01*
D02*
G37*
G36*
X4829837Y11959191D02*
X4831388Y11956935D01*
X4833220Y11954680D01*
X4834912Y11952706D01*
X4836604Y11951014D01*
X4837872Y11949605D01*
X4838436Y11949182D01*
X4838859Y11948759D01*
X4839000Y11948618D01*
X4839141Y11948477D01*
X4842102Y11946081D01*
X4845062Y11943825D01*
X4847881Y11941851D01*
X4850701Y11940301D01*
X4853097Y11938891D01*
X4854084Y11938327D01*
X4854930Y11937904D01*
X4855635Y11937481D01*
X4856199Y11937340D01*
X4856481Y11937058D01*
X4856621D01*
Y11925499D01*
X4854507Y11926345D01*
X4852392Y11927331D01*
X4850278Y11928318D01*
X4848304Y11929305D01*
X4846613Y11930151D01*
X4845203Y11930856D01*
X4844357Y11931420D01*
X4844216Y11931561D01*
X4844075D01*
X4841538Y11933111D01*
X4839282Y11934662D01*
X4837309Y11936072D01*
X4835758Y11937340D01*
X4834348Y11938327D01*
X4833502Y11939173D01*
X4832798Y11939737D01*
X4832657Y11939878D01*
Y11863613D01*
X4820674D01*
Y11961587D01*
X4828427D01*
X4829837Y11959191D01*
D02*
G37*
G36*
X5034526Y11863613D02*
X5021556D01*
Y11907878D01*
X4975741D01*
Y11919437D01*
X5021556D01*
Y11949605D01*
X4968552D01*
Y11961164D01*
X5034526D01*
Y11863613D01*
D02*
G37*
G36*
X4952340D02*
X4915124D01*
X4911741Y11863754D01*
X4908780Y11863895D01*
X4906102Y11864177D01*
X4903846Y11864459D01*
X4902014Y11864741D01*
X4900604Y11864882D01*
X4899758Y11865164D01*
X4899476D01*
X4897080Y11865869D01*
X4895106Y11866573D01*
X4893274Y11867419D01*
X4891723Y11868265D01*
X4890454Y11868829D01*
X4889467Y11869393D01*
X4888904Y11869816D01*
X4888763Y11869957D01*
X4887212Y11871225D01*
X4885802Y11872776D01*
X4884675Y11874327D01*
X4883547Y11875736D01*
X4882701Y11877146D01*
X4882137Y11878133D01*
X4881714Y11878838D01*
X4881573Y11879120D01*
X4880586Y11881375D01*
X4879882Y11883631D01*
X4879318Y11885745D01*
X4879036Y11887719D01*
X4878754Y11889411D01*
X4878613Y11890820D01*
Y11891666D01*
Y11891807D01*
Y11891948D01*
X4878754Y11895049D01*
X4879318Y11897869D01*
X4880163Y11900265D01*
X4881009Y11902521D01*
X4881855Y11904212D01*
X4882701Y11905481D01*
X4883265Y11906327D01*
X4883406Y11906609D01*
X4885379Y11908864D01*
X4887494Y11910697D01*
X4889890Y11912248D01*
X4892005Y11913516D01*
X4893979Y11914503D01*
X4895670Y11915067D01*
X4896234Y11915349D01*
X4896657Y11915490D01*
X4896939Y11915631D01*
X4897080D01*
X4894683Y11917041D01*
X4892569Y11918450D01*
X4890877Y11920001D01*
X4889467Y11921411D01*
X4888340Y11922539D01*
X4887494Y11923666D01*
X4887071Y11924230D01*
X4886930Y11924512D01*
X4885802Y11926627D01*
X4884956Y11928600D01*
X4884252Y11930574D01*
X4883829Y11932406D01*
X4883547Y11933957D01*
X4883406Y11935226D01*
Y11935931D01*
Y11936213D01*
X4883547Y11938609D01*
X4883970Y11941006D01*
X4884675Y11943120D01*
X4885379Y11945094D01*
X4886084Y11946785D01*
X4886789Y11947913D01*
X4887212Y11948759D01*
X4887353Y11949041D01*
X4888904Y11951155D01*
X4890595Y11953129D01*
X4892428Y11954680D01*
X4894119Y11955948D01*
X4895529Y11956935D01*
X4896798Y11957640D01*
X4897644Y11958063D01*
X4897785Y11958204D01*
X4897926D01*
X4900604Y11959191D01*
X4903564Y11959896D01*
X4906525Y11960459D01*
X4909344Y11960741D01*
X4911882Y11961023D01*
X4913009D01*
X4913996Y11961164D01*
X4952340D01*
Y11863613D01*
D02*
G37*
G36*
X4642503Y11287622D02*
X4631226Y11286071D01*
X4630239Y11287622D01*
X4628970Y11288890D01*
X4627842Y11290159D01*
X4626715Y11291146D01*
X4625587Y11291851D01*
X4624741Y11292556D01*
X4624177Y11292837D01*
X4624036Y11292978D01*
X4622204Y11293824D01*
X4620371Y11294529D01*
X4618679Y11294952D01*
X4616988Y11295375D01*
X4615578Y11295516D01*
X4614450Y11295657D01*
X4611772D01*
X4610080Y11295375D01*
X4607120Y11294670D01*
X4604582Y11293683D01*
X4602327Y11292696D01*
X4600635Y11291569D01*
X4599366Y11290582D01*
X4598662Y11289877D01*
X4598380Y11289736D01*
Y11289595D01*
X4596406Y11287199D01*
X4594996Y11284661D01*
X4594010Y11281983D01*
X4593305Y11279304D01*
X4592882Y11277049D01*
X4592741Y11276062D01*
Y11275216D01*
X4592600Y11274511D01*
Y11273947D01*
Y11273666D01*
Y11273525D01*
Y11271551D01*
X4592882Y11269718D01*
X4593587Y11266194D01*
X4594573Y11263234D01*
X4595560Y11260837D01*
X4596688Y11258864D01*
X4597675Y11257313D01*
X4598098Y11256890D01*
X4598380Y11256467D01*
X4598521Y11256326D01*
X4598662Y11256185D01*
X4599789Y11255057D01*
X4600917Y11254071D01*
X4603455Y11252379D01*
X4605851Y11251251D01*
X4608248Y11250546D01*
X4610221Y11249983D01*
X4611913Y11249842D01*
X4612477Y11249701D01*
X4613322D01*
X4616001Y11249842D01*
X4618397Y11250405D01*
X4620512Y11251110D01*
X4622204Y11251956D01*
X4623754Y11252802D01*
X4624882Y11253507D01*
X4625446Y11254071D01*
X4625728Y11254212D01*
X4627419Y11256185D01*
X4628829Y11258300D01*
X4629957Y11260696D01*
X4630803Y11262811D01*
X4631367Y11264925D01*
X4631790Y11266476D01*
X4631931Y11267181D01*
X4632072Y11267604D01*
Y11267886D01*
Y11268027D01*
X4644618Y11267040D01*
X4644336Y11264784D01*
X4643913Y11262670D01*
X4642644Y11258723D01*
X4641094Y11255339D01*
X4640248Y11253789D01*
X4639402Y11252520D01*
X4638697Y11251251D01*
X4637851Y11250124D01*
X4637146Y11249278D01*
X4636442Y11248573D01*
X4635878Y11248009D01*
X4635596Y11247445D01*
X4635314Y11247304D01*
X4635173Y11247163D01*
X4633481Y11245894D01*
X4631790Y11244767D01*
X4629957Y11243780D01*
X4628124Y11242934D01*
X4624600Y11241665D01*
X4621076Y11240820D01*
X4619525Y11240397D01*
X4617975Y11240256D01*
X4616706Y11240115D01*
X4615578Y11239974D01*
X4614591Y11239833D01*
X4613322D01*
X4610362Y11239974D01*
X4607543Y11240397D01*
X4604864Y11240960D01*
X4602468Y11241665D01*
X4600212Y11242652D01*
X4598098Y11243639D01*
X4596124Y11244626D01*
X4594433Y11245753D01*
X4592882Y11246881D01*
X4591472Y11247868D01*
X4590344Y11248996D01*
X4589358Y11249842D01*
X4588653Y11250546D01*
X4588089Y11251110D01*
X4587807Y11251533D01*
X4587666Y11251674D01*
X4586256Y11253507D01*
X4585128Y11255480D01*
X4584001Y11257313D01*
X4583155Y11259287D01*
X4581745Y11263093D01*
X4580899Y11266758D01*
X4580617Y11268309D01*
X4580336Y11269859D01*
X4580195Y11271128D01*
X4580054Y11272256D01*
X4579913Y11273243D01*
Y11273947D01*
Y11274370D01*
Y11274511D01*
X4580054Y11277049D01*
X4580336Y11279445D01*
X4580758Y11281842D01*
X4581322Y11283956D01*
X4582027Y11285930D01*
X4582732Y11287904D01*
X4583578Y11289595D01*
X4584283Y11291146D01*
X4585128Y11292556D01*
X4585974Y11293824D01*
X4586679Y11294811D01*
X4587384Y11295798D01*
X4587948Y11296503D01*
X4588371Y11296926D01*
X4588653Y11297208D01*
X4588794Y11297348D01*
X4590485Y11298899D01*
X4592177Y11300309D01*
X4594010Y11301437D01*
X4595842Y11302423D01*
X4597675Y11303410D01*
X4599507Y11304115D01*
X4602891Y11305102D01*
X4604441Y11305525D01*
X4605851Y11305807D01*
X4607120Y11305948D01*
X4608248Y11306089D01*
X4609093Y11306230D01*
X4612195D01*
X4613886Y11305948D01*
X4617270Y11305243D01*
X4620371Y11304256D01*
X4623190Y11303128D01*
X4625446Y11302001D01*
X4626433Y11301437D01*
X4627279Y11301014D01*
X4627983Y11300591D01*
X4628406Y11300309D01*
X4628688Y11300168D01*
X4628829Y11300027D01*
X4623613Y11326388D01*
X4584565D01*
Y11337807D01*
X4633058D01*
X4642503Y11287622D01*
D02*
G37*
G36*
X4700583Y11340485D02*
X4705094Y11339780D01*
X4709041Y11338935D01*
X4710874Y11338371D01*
X4712565Y11337807D01*
X4714116Y11337243D01*
X4715526Y11336679D01*
X4716654Y11336256D01*
X4717781Y11335833D01*
X4718486Y11335410D01*
X4719050Y11335128D01*
X4719473Y11334987D01*
X4719614Y11334847D01*
X4723420Y11332450D01*
X4726662Y11329631D01*
X4729482Y11326811D01*
X4731878Y11323992D01*
X4733711Y11321454D01*
X4734416Y11320327D01*
X4734980Y11319340D01*
X4735543Y11318635D01*
X4735825Y11318071D01*
X4735966Y11317648D01*
X4736107Y11317507D01*
X4738081Y11313137D01*
X4739491Y11308626D01*
X4740477Y11304115D01*
X4741182Y11300027D01*
X4741464Y11298194D01*
X4741605Y11296362D01*
X4741746Y11294952D01*
Y11293542D01*
X4741887Y11292556D01*
Y11291710D01*
Y11291146D01*
Y11291005D01*
X4741605Y11285930D01*
X4741041Y11280996D01*
X4740336Y11276626D01*
X4739773Y11274511D01*
X4739350Y11272679D01*
X4738927Y11270987D01*
X4738363Y11269436D01*
X4737940Y11268027D01*
X4737658Y11266899D01*
X4737235Y11266053D01*
X4737094Y11265348D01*
X4736812Y11264925D01*
Y11264784D01*
X4734698Y11260555D01*
X4732301Y11256749D01*
X4729764Y11253507D01*
X4728495Y11252238D01*
X4727367Y11250969D01*
X4726239Y11249842D01*
X4725112Y11248855D01*
X4724125Y11248009D01*
X4723279Y11247445D01*
X4722715Y11246881D01*
X4722151Y11246458D01*
X4721869Y11246317D01*
X4721728Y11246176D01*
X4719755Y11245049D01*
X4717781Y11244062D01*
X4713552Y11242511D01*
X4709323Y11241383D01*
X4705235Y11240679D01*
X4703261Y11240397D01*
X4701570Y11240115D01*
X4700019Y11239974D01*
X4698750D01*
X4697623Y11239833D01*
X4696072D01*
X4693252Y11239974D01*
X4690574Y11240256D01*
X4688037Y11240538D01*
X4685640Y11241101D01*
X4683385Y11241806D01*
X4681270Y11242511D01*
X4679296Y11243216D01*
X4677464Y11244062D01*
X4675913Y11244767D01*
X4674363Y11245472D01*
X4673235Y11246176D01*
X4672107Y11246881D01*
X4671402Y11247445D01*
X4670697Y11247727D01*
X4670415Y11248009D01*
X4670274Y11248150D01*
X4668301Y11249842D01*
X4666609Y11251533D01*
X4665058Y11253507D01*
X4663508Y11255480D01*
X4660970Y11259428D01*
X4658997Y11263375D01*
X4658151Y11265207D01*
X4657446Y11266899D01*
X4656882Y11268450D01*
X4656459Y11269718D01*
X4656036Y11270846D01*
X4655754Y11271692D01*
X4655613Y11272256D01*
Y11272397D01*
X4668583Y11275639D01*
X4669147Y11273384D01*
X4669851Y11271269D01*
X4670556Y11269295D01*
X4671261Y11267463D01*
X4672107Y11265771D01*
X4672953Y11264362D01*
X4673940Y11262952D01*
X4674785Y11261683D01*
X4675490Y11260555D01*
X4676336Y11259710D01*
X4677041Y11258864D01*
X4677605Y11258159D01*
X4678169Y11257736D01*
X4678592Y11257313D01*
X4678733Y11257172D01*
X4678874Y11257031D01*
X4680283Y11255903D01*
X4681834Y11255057D01*
X4684935Y11253507D01*
X4687896Y11252379D01*
X4690856Y11251674D01*
X4693393Y11251110D01*
X4694380Y11250969D01*
X4695367D01*
X4696213Y11250828D01*
X4697200D01*
X4700442Y11250969D01*
X4703543Y11251533D01*
X4706363Y11252238D01*
X4708900Y11253084D01*
X4710874Y11253930D01*
X4711720Y11254353D01*
X4712424Y11254635D01*
X4712988Y11254917D01*
X4713411Y11255198D01*
X4713693Y11255339D01*
X4713834D01*
X4716513Y11257313D01*
X4718768Y11259428D01*
X4720742Y11261824D01*
X4722292Y11264080D01*
X4723561Y11266053D01*
X4724407Y11267745D01*
X4724689Y11268450D01*
X4724971Y11268873D01*
X4725112Y11269154D01*
Y11269295D01*
X4726239Y11272961D01*
X4727085Y11276626D01*
X4727790Y11280291D01*
X4728213Y11283674D01*
X4728354Y11285225D01*
X4728495Y11286635D01*
Y11287904D01*
X4728636Y11288890D01*
Y11289736D01*
Y11290441D01*
Y11290864D01*
Y11291005D01*
X4728495Y11294670D01*
X4728213Y11298053D01*
X4727649Y11301155D01*
X4727085Y11303974D01*
X4726662Y11306371D01*
X4726380Y11307357D01*
X4726098Y11308203D01*
X4725958Y11308908D01*
X4725817Y11309331D01*
X4725676Y11309613D01*
Y11309754D01*
X4724266Y11312996D01*
X4722715Y11315957D01*
X4721024Y11318353D01*
X4719191Y11320468D01*
X4717640Y11322159D01*
X4716372Y11323287D01*
X4715385Y11323992D01*
X4715244Y11324274D01*
X4715103D01*
X4712142Y11326106D01*
X4708900Y11327516D01*
X4705799Y11328503D01*
X4702838Y11329067D01*
X4700160Y11329490D01*
X4699032Y11329631D01*
X4698045D01*
X4697341Y11329772D01*
X4696213D01*
X4692689Y11329631D01*
X4689446Y11329067D01*
X4686768Y11328221D01*
X4684371Y11327375D01*
X4682539Y11326388D01*
X4681129Y11325683D01*
X4680283Y11325120D01*
X4680001Y11324838D01*
X4677746Y11322723D01*
X4675631Y11320327D01*
X4673940Y11317789D01*
X4672530Y11315252D01*
X4671402Y11312996D01*
X4670979Y11311868D01*
X4670697Y11311023D01*
X4670415Y11310318D01*
X4670133Y11309754D01*
X4669992Y11309472D01*
Y11309331D01*
X4657305Y11312291D01*
X4658151Y11314829D01*
X4658997Y11317084D01*
X4660125Y11319199D01*
X4661111Y11321313D01*
X4662239Y11323146D01*
X4663508Y11324838D01*
X4664636Y11326529D01*
X4665763Y11327939D01*
X4666891Y11329067D01*
X4667878Y11330195D01*
X4668865Y11331181D01*
X4669570Y11331886D01*
X4670274Y11332591D01*
X4670838Y11333014D01*
X4671120Y11333155D01*
X4671261Y11333296D01*
X4673235Y11334565D01*
X4675208Y11335833D01*
X4677182Y11336820D01*
X4679296Y11337666D01*
X4683526Y11338935D01*
X4687332Y11339780D01*
X4689164Y11340203D01*
X4690715Y11340344D01*
X4692266Y11340485D01*
X4693534Y11340626D01*
X4694521Y11340767D01*
X4695931D01*
X4700583Y11340485D01*
D02*
G37*
G36*
X4909863Y12329817D02*
X4913669Y12329112D01*
X4916912Y12327984D01*
X4919731Y12326856D01*
X4921000Y12326151D01*
X4921987Y12325587D01*
X4922973Y12325024D01*
X4923678Y12324460D01*
X4924242Y12324037D01*
X4924665Y12323755D01*
X4924947Y12323614D01*
X4925088Y12323473D01*
X4927766Y12320795D01*
X4929881Y12317834D01*
X4931573Y12314733D01*
X4932982Y12311631D01*
X4933828Y12308953D01*
X4934251Y12307825D01*
X4934533Y12306838D01*
X4934674Y12305993D01*
X4934815Y12305429D01*
X4934956Y12305006D01*
Y12304865D01*
X4922973Y12302750D01*
X4922410Y12305852D01*
X4921564Y12308530D01*
X4920577Y12310786D01*
X4919590Y12312618D01*
X4918603Y12314028D01*
X4917757Y12315015D01*
X4917194Y12315720D01*
X4917053Y12315861D01*
X4915220Y12317270D01*
X4913246Y12318398D01*
X4911414Y12319103D01*
X4909581Y12319667D01*
X4907890Y12319949D01*
X4906621Y12320231D01*
X4905493D01*
X4902956Y12320090D01*
X4900700Y12319526D01*
X4898727Y12318821D01*
X4897035Y12318116D01*
X4895766Y12317270D01*
X4894779Y12316565D01*
X4894075Y12316002D01*
X4893934Y12315861D01*
X4892383Y12314169D01*
X4891255Y12312336D01*
X4890550Y12310504D01*
X4889986Y12308812D01*
X4889704Y12307261D01*
X4889423Y12306134D01*
Y12305288D01*
Y12305147D01*
Y12305006D01*
Y12303455D01*
X4889704Y12302045D01*
X4890409Y12299649D01*
X4891396Y12297534D01*
X4892524Y12295702D01*
X4893652Y12294433D01*
X4894638Y12293446D01*
X4895343Y12292882D01*
X4895484Y12292741D01*
X4895625D01*
X4898022Y12291473D01*
X4900277Y12290486D01*
X4902674Y12289781D01*
X4904788Y12289358D01*
X4906621Y12289076D01*
X4908172Y12288794D01*
X4910004D01*
X4910568Y12288935D01*
X4911273D01*
X4912683Y12278363D01*
X4910850Y12278785D01*
X4909158Y12279067D01*
X4907749Y12279349D01*
X4906480Y12279490D01*
X4905493Y12279631D01*
X4904224D01*
X4901264Y12279349D01*
X4898586Y12278785D01*
X4896189Y12277940D01*
X4894216Y12276953D01*
X4892665Y12275966D01*
X4891537Y12275120D01*
X4890832Y12274556D01*
X4890550Y12274274D01*
X4888718Y12272160D01*
X4887308Y12269904D01*
X4886321Y12267649D01*
X4885757Y12265393D01*
X4885334Y12263561D01*
X4885193Y12262010D01*
X4885052Y12261446D01*
Y12261023D01*
Y12260741D01*
Y12260600D01*
X4885334Y12257499D01*
X4886039Y12254680D01*
X4886885Y12252283D01*
X4888013Y12250169D01*
X4889141Y12248477D01*
X4889986Y12247208D01*
X4890691Y12246362D01*
X4890973Y12246080D01*
X4893229Y12244107D01*
X4895625Y12242697D01*
X4898022Y12241710D01*
X4900277Y12241005D01*
X4902251Y12240583D01*
X4903801Y12240442D01*
X4904365Y12240301D01*
X4905211D01*
X4907749Y12240442D01*
X4910145Y12241005D01*
X4912260Y12241710D01*
X4913951Y12242556D01*
X4915361Y12243261D01*
X4916489Y12243966D01*
X4917053Y12244530D01*
X4917335Y12244671D01*
X4919026Y12246644D01*
X4920436Y12248900D01*
X4921705Y12251296D01*
X4922691Y12253834D01*
X4923396Y12255948D01*
X4923678Y12256935D01*
X4923819Y12257781D01*
X4923960Y12258486D01*
X4924101Y12259050D01*
X4924242Y12259332D01*
Y12259473D01*
X4936225Y12257922D01*
X4935943Y12255666D01*
X4935520Y12253552D01*
X4934251Y12249605D01*
X4932700Y12246221D01*
X4931854Y12244812D01*
X4931009Y12243402D01*
X4930163Y12242133D01*
X4929317Y12241146D01*
X4928612Y12240160D01*
X4927907Y12239455D01*
X4927484Y12238891D01*
X4927062Y12238468D01*
X4926780Y12238186D01*
X4926639Y12238045D01*
X4924947Y12236776D01*
X4923255Y12235508D01*
X4921564Y12234521D01*
X4919731Y12233675D01*
X4916207Y12232265D01*
X4912824Y12231420D01*
X4911273Y12231138D01*
X4909863Y12230856D01*
X4908594Y12230715D01*
X4907467Y12230574D01*
X4906621Y12230433D01*
X4905352D01*
X4902674Y12230574D01*
X4900277Y12230856D01*
X4897881Y12231279D01*
X4895625Y12231842D01*
X4893511Y12232547D01*
X4891678Y12233252D01*
X4889845Y12234098D01*
X4888295Y12234944D01*
X4886744Y12235649D01*
X4885475Y12236494D01*
X4884348Y12237199D01*
X4883502Y12237904D01*
X4882797Y12238468D01*
X4882233Y12238891D01*
X4881951Y12239173D01*
X4881810Y12239314D01*
X4880119Y12241005D01*
X4878709Y12242838D01*
X4877440Y12244671D01*
X4876312Y12246503D01*
X4875466Y12248195D01*
X4874621Y12250028D01*
X4873493Y12253411D01*
X4873211Y12254962D01*
X4872929Y12256371D01*
X4872647Y12257640D01*
X4872506Y12258768D01*
X4872365Y12259614D01*
Y12260318D01*
Y12260741D01*
Y12260882D01*
X4872506Y12264266D01*
X4873070Y12267367D01*
X4873916Y12270045D01*
X4874762Y12272301D01*
X4875607Y12274133D01*
X4876453Y12275543D01*
X4877017Y12276389D01*
X4877158Y12276671D01*
X4879132Y12278785D01*
X4881246Y12280618D01*
X4883502Y12282028D01*
X4885757Y12283156D01*
X4887731Y12284001D01*
X4889282Y12284565D01*
X4889845Y12284706D01*
X4890268Y12284847D01*
X4890550Y12284988D01*
X4890691D01*
X4888295Y12286257D01*
X4886321Y12287526D01*
X4884630Y12288935D01*
X4883220Y12290204D01*
X4882092Y12291332D01*
X4881246Y12292319D01*
X4880823Y12292882D01*
X4880682Y12293164D01*
X4879555Y12295138D01*
X4878709Y12297112D01*
X4878004Y12299085D01*
X4877581Y12300918D01*
X4877299Y12302468D01*
X4877158Y12303596D01*
Y12304442D01*
Y12304724D01*
X4877299Y12307120D01*
X4877722Y12309517D01*
X4878286Y12311631D01*
X4878991Y12313464D01*
X4879696Y12315015D01*
X4880259Y12316283D01*
X4880682Y12316988D01*
X4880823Y12317270D01*
X4882233Y12319385D01*
X4883925Y12321217D01*
X4885616Y12322768D01*
X4887308Y12324178D01*
X4888718Y12325165D01*
X4889986Y12326010D01*
X4890832Y12326433D01*
X4890973Y12326574D01*
X4891114D01*
X4893652Y12327702D01*
X4896189Y12328548D01*
X4898727Y12329253D01*
X4900982Y12329676D01*
X4902815Y12329958D01*
X4904365Y12330099D01*
X4907890D01*
X4909863Y12329817D01*
D02*
G37*
G36*
X4992331Y12331085D02*
X4996842Y12330380D01*
X5000789Y12329535D01*
X5002621Y12328971D01*
X5004313Y12328407D01*
X5005864Y12327843D01*
X5007273Y12327279D01*
X5008401Y12326856D01*
X5009529Y12326433D01*
X5010234Y12326010D01*
X5010798Y12325728D01*
X5011221Y12325587D01*
X5011362Y12325447D01*
X5015168Y12323050D01*
X5018410Y12320231D01*
X5021229Y12317411D01*
X5023626Y12314592D01*
X5025459Y12312054D01*
X5026163Y12310927D01*
X5026727Y12309940D01*
X5027291Y12309235D01*
X5027573Y12308671D01*
X5027714Y12308248D01*
X5027855Y12308107D01*
X5029829Y12303737D01*
X5031238Y12299226D01*
X5032225Y12294715D01*
X5032930Y12290627D01*
X5033212Y12288794D01*
X5033353Y12286962D01*
X5033494Y12285552D01*
Y12284142D01*
X5033635Y12283156D01*
Y12282310D01*
Y12281746D01*
Y12281605D01*
X5033353Y12276530D01*
X5032789Y12271596D01*
X5032084Y12267226D01*
X5031520Y12265111D01*
X5031097Y12263279D01*
X5030674Y12261587D01*
X5030111Y12260036D01*
X5029688Y12258627D01*
X5029406Y12257499D01*
X5028983Y12256653D01*
X5028842Y12255948D01*
X5028560Y12255525D01*
Y12255384D01*
X5026445Y12251155D01*
X5024049Y12247349D01*
X5021511Y12244107D01*
X5020243Y12242838D01*
X5019115Y12241569D01*
X5017987Y12240442D01*
X5016859Y12239455D01*
X5015873Y12238609D01*
X5015027Y12238045D01*
X5014463Y12237481D01*
X5013899Y12237058D01*
X5013617Y12236917D01*
X5013476Y12236776D01*
X5011503Y12235649D01*
X5009529Y12234662D01*
X5005300Y12233111D01*
X5001071Y12231983D01*
X4996983Y12231279D01*
X4995009Y12230997D01*
X4993317Y12230715D01*
X4991767Y12230574D01*
X4990498D01*
X4989370Y12230433D01*
X4987820D01*
X4985000Y12230574D01*
X4982322Y12230856D01*
X4979784Y12231138D01*
X4977388Y12231701D01*
X4975132Y12232406D01*
X4973018Y12233111D01*
X4971044Y12233816D01*
X4969212Y12234662D01*
X4967661Y12235367D01*
X4966110Y12236072D01*
X4964982Y12236776D01*
X4963855Y12237481D01*
X4963150Y12238045D01*
X4962445Y12238327D01*
X4962163Y12238609D01*
X4962022Y12238750D01*
X4960048Y12240442D01*
X4958357Y12242133D01*
X4956806Y12244107D01*
X4955256Y12246080D01*
X4952718Y12250028D01*
X4950744Y12253975D01*
X4949899Y12255807D01*
X4949194Y12257499D01*
X4948630Y12259050D01*
X4948207Y12260318D01*
X4947784Y12261446D01*
X4947502Y12262292D01*
X4947361Y12262856D01*
Y12262997D01*
X4960330Y12266239D01*
X4960894Y12263984D01*
X4961599Y12261869D01*
X4962304Y12259895D01*
X4963009Y12258063D01*
X4963855Y12256371D01*
X4964701Y12254962D01*
X4965687Y12253552D01*
X4966533Y12252283D01*
X4967238Y12251155D01*
X4968084Y12250310D01*
X4968789Y12249464D01*
X4969353Y12248759D01*
X4969916Y12248336D01*
X4970339Y12247913D01*
X4970480Y12247772D01*
X4970621Y12247631D01*
X4972031Y12246503D01*
X4973582Y12245658D01*
X4976683Y12244107D01*
X4979643Y12242979D01*
X4982604Y12242274D01*
X4985141Y12241710D01*
X4986128Y12241569D01*
X4987115D01*
X4987961Y12241428D01*
X4988947D01*
X4992190Y12241569D01*
X4995291Y12242133D01*
X4998110Y12242838D01*
X5000648Y12243684D01*
X5002621Y12244530D01*
X5003467Y12244953D01*
X5004172Y12245235D01*
X5004736Y12245517D01*
X5005159Y12245798D01*
X5005441Y12245939D01*
X5005582D01*
X5008260Y12247913D01*
X5010516Y12250028D01*
X5012489Y12252424D01*
X5014040Y12254680D01*
X5015309Y12256653D01*
X5016155Y12258345D01*
X5016436Y12259050D01*
X5016718Y12259473D01*
X5016859Y12259754D01*
Y12259895D01*
X5017987Y12263561D01*
X5018833Y12267226D01*
X5019538Y12270891D01*
X5019961Y12274274D01*
X5020102Y12275825D01*
X5020243Y12277235D01*
Y12278504D01*
X5020384Y12279490D01*
Y12280336D01*
Y12281041D01*
Y12281464D01*
Y12281605D01*
X5020243Y12285270D01*
X5019961Y12288653D01*
X5019397Y12291755D01*
X5018833Y12294574D01*
X5018410Y12296971D01*
X5018128Y12297957D01*
X5017846Y12298803D01*
X5017705Y12299508D01*
X5017564Y12299931D01*
X5017423Y12300213D01*
Y12300354D01*
X5016014Y12303596D01*
X5014463Y12306557D01*
X5012771Y12308953D01*
X5010939Y12311068D01*
X5009388Y12312759D01*
X5008119Y12313887D01*
X5007132Y12314592D01*
X5006992Y12314874D01*
X5006851D01*
X5003890Y12316706D01*
X5000648Y12318116D01*
X4997547Y12319103D01*
X4994586Y12319667D01*
X4991908Y12320090D01*
X4990780Y12320231D01*
X4989793D01*
X4989088Y12320372D01*
X4987961D01*
X4984436Y12320231D01*
X4981194Y12319667D01*
X4978516Y12318821D01*
X4976119Y12317975D01*
X4974286Y12316988D01*
X4972877Y12316283D01*
X4972031Y12315720D01*
X4971749Y12315438D01*
X4969493Y12313323D01*
X4967379Y12310927D01*
X4965687Y12308389D01*
X4964278Y12305852D01*
X4963150Y12303596D01*
X4962727Y12302468D01*
X4962445Y12301623D01*
X4962163Y12300918D01*
X4961881Y12300354D01*
X4961740Y12300072D01*
Y12299931D01*
X4949053Y12302891D01*
X4949899Y12305429D01*
X4950744Y12307684D01*
X4951872Y12309799D01*
X4952859Y12311913D01*
X4953987Y12313746D01*
X4955256Y12315438D01*
X4956383Y12317129D01*
X4957511Y12318539D01*
X4958639Y12319667D01*
X4959626Y12320795D01*
X4960612Y12321781D01*
X4961317Y12322486D01*
X4962022Y12323191D01*
X4962586Y12323614D01*
X4962868Y12323755D01*
X4963009Y12323896D01*
X4964982Y12325165D01*
X4966956Y12326433D01*
X4968930Y12327420D01*
X4971044Y12328266D01*
X4975273Y12329535D01*
X4979079Y12330380D01*
X4980912Y12330803D01*
X4982463Y12330944D01*
X4984013Y12331085D01*
X4985282Y12331226D01*
X4986269Y12331367D01*
X4987679D01*
X4992331Y12331085D01*
D02*
G37*
G36*
X5592421Y12355992D02*
X5595099Y12355710D01*
X5597637Y12355146D01*
X5600033Y12354441D01*
X5602148Y12353455D01*
X5604262Y12352609D01*
X5606095Y12351481D01*
X5607787Y12350494D01*
X5609196Y12349507D01*
X5610606Y12348380D01*
X5611734Y12347534D01*
X5612580Y12346688D01*
X5613284Y12345842D01*
X5613848Y12345278D01*
X5614130Y12344996D01*
X5614271Y12344855D01*
X5616104Y12342318D01*
X5617654Y12339358D01*
X5619064Y12336256D01*
X5620333Y12333014D01*
X5621320Y12329631D01*
X5622166Y12326247D01*
X5622870Y12322723D01*
X5623434Y12319481D01*
X5623857Y12316239D01*
X5624139Y12313278D01*
X5624421Y12310600D01*
X5624562Y12308344D01*
Y12306371D01*
X5624703Y12304961D01*
Y12304397D01*
Y12303974D01*
Y12303833D01*
Y12303692D01*
X5624562Y12299181D01*
X5624280Y12294952D01*
X5623857Y12291005D01*
X5623152Y12287340D01*
X5622447Y12284097D01*
X5621743Y12281137D01*
X5620897Y12278459D01*
X5619910Y12276062D01*
X5619064Y12274088D01*
X5618218Y12272256D01*
X5617514Y12270846D01*
X5616668Y12269577D01*
X5616104Y12268591D01*
X5615681Y12268027D01*
X5615399Y12267604D01*
X5615258Y12267463D01*
X5613425Y12265489D01*
X5611452Y12263798D01*
X5609478Y12262388D01*
X5607505Y12261119D01*
X5605390Y12259991D01*
X5603417Y12259146D01*
X5601443Y12258441D01*
X5599469Y12257877D01*
X5597778Y12257454D01*
X5596086Y12257031D01*
X5594676Y12256749D01*
X5593408Y12256608D01*
X5592280D01*
X5591575Y12256467D01*
X5590870D01*
X5587628Y12256608D01*
X5584668Y12257172D01*
X5581989Y12257736D01*
X5579593Y12258582D01*
X5577760Y12259287D01*
X5576350Y12259991D01*
X5575786Y12260132D01*
X5575363Y12260414D01*
X5575223Y12260555D01*
X5575082D01*
X5572685Y12262247D01*
X5570430Y12264221D01*
X5568597Y12266194D01*
X5567046Y12268168D01*
X5565778Y12270000D01*
X5564932Y12271410D01*
X5564650Y12271974D01*
X5564368Y12272397D01*
X5564227Y12272538D01*
Y12272679D01*
X5562817Y12275639D01*
X5561830Y12278740D01*
X5561126Y12281560D01*
X5560703Y12284238D01*
X5560280Y12286494D01*
Y12287340D01*
X5560139Y12288185D01*
Y12288890D01*
Y12289313D01*
Y12289595D01*
Y12289736D01*
X5560280Y12292274D01*
X5560562Y12294670D01*
X5560985Y12297067D01*
X5561407Y12299181D01*
X5562112Y12301155D01*
X5562817Y12303128D01*
X5563522Y12304820D01*
X5564368Y12306371D01*
X5565214Y12307780D01*
X5565919Y12309049D01*
X5566623Y12310036D01*
X5567328Y12311023D01*
X5567751Y12311727D01*
X5568174Y12312150D01*
X5568456Y12312432D01*
X5568597Y12312573D01*
X5570148Y12314124D01*
X5571839Y12315534D01*
X5573672Y12316661D01*
X5575363Y12317648D01*
X5577055Y12318635D01*
X5578747Y12319340D01*
X5581989Y12320327D01*
X5583399Y12320750D01*
X5584808Y12321031D01*
X5585936Y12321172D01*
X5587064Y12321313D01*
X5587910Y12321454D01*
X5589038D01*
X5591575Y12321313D01*
X5593972Y12320891D01*
X5596227Y12320468D01*
X5598201Y12319904D01*
X5599892Y12319199D01*
X5601161Y12318776D01*
X5602007Y12318353D01*
X5602148Y12318212D01*
X5602289D01*
X5604544Y12316802D01*
X5606518Y12315252D01*
X5608350Y12313701D01*
X5609760Y12312009D01*
X5611029Y12310600D01*
X5612016Y12309472D01*
X5612580Y12308626D01*
X5612721Y12308485D01*
Y12311023D01*
X5612580Y12313560D01*
X5612439Y12315816D01*
X5612157Y12318071D01*
X5612016Y12320045D01*
X5611734Y12321877D01*
X5611452Y12323569D01*
X5611029Y12325120D01*
X5610747Y12326529D01*
X5610465Y12327657D01*
X5610183Y12328644D01*
X5610042Y12329490D01*
X5609760Y12330054D01*
X5609619Y12330476D01*
X5609478Y12330758D01*
Y12330899D01*
X5608069Y12333719D01*
X5606659Y12336256D01*
X5605108Y12338230D01*
X5603698Y12339921D01*
X5602430Y12341331D01*
X5601443Y12342318D01*
X5600738Y12342882D01*
X5600456Y12343023D01*
X5598765Y12344151D01*
X5597073Y12344855D01*
X5595381Y12345419D01*
X5593690Y12345842D01*
X5592421Y12346124D01*
X5591293Y12346265D01*
X5590306D01*
X5587769Y12345983D01*
X5585372Y12345419D01*
X5583399Y12344573D01*
X5581566Y12343728D01*
X5580156Y12342741D01*
X5579170Y12341895D01*
X5578606Y12341331D01*
X5578324Y12341049D01*
X5577337Y12339781D01*
X5576350Y12338230D01*
X5575504Y12336538D01*
X5574941Y12334847D01*
X5574377Y12333296D01*
X5573954Y12332027D01*
X5573813Y12331181D01*
X5573672Y12331040D01*
Y12330899D01*
X5561689Y12331886D01*
X5562535Y12335833D01*
X5563804Y12339358D01*
X5565214Y12342459D01*
X5566764Y12344996D01*
X5568315Y12346970D01*
X5568879Y12347816D01*
X5569584Y12348521D01*
X5570007Y12348944D01*
X5570430Y12349366D01*
X5570571Y12349507D01*
X5570711Y12349648D01*
X5572121Y12350776D01*
X5573672Y12351763D01*
X5576773Y12353455D01*
X5579875Y12354582D01*
X5582835Y12355287D01*
X5585513Y12355851D01*
X5586641Y12355992D01*
X5587628D01*
X5588474Y12356133D01*
X5589601D01*
X5592421Y12355992D01*
D02*
G37*
G36*
X5717461Y12258159D02*
X5704492D01*
Y12301437D01*
X5687858D01*
X5686307Y12301296D01*
X5685179D01*
X5684192Y12301155D01*
X5683487Y12301014D01*
X5682924D01*
X5682642Y12300873D01*
X5682501D01*
X5680245Y12300168D01*
X5679258Y12299745D01*
X5678413Y12299322D01*
X5677567Y12298899D01*
X5677003Y12298617D01*
X5676721Y12298476D01*
X5676580Y12298335D01*
X5675452Y12297490D01*
X5674324Y12296503D01*
X5672210Y12294388D01*
X5671223Y12293401D01*
X5670518Y12292556D01*
X5670095Y12291992D01*
X5669954Y12291851D01*
X5668545Y12289877D01*
X5666994Y12287763D01*
X5665443Y12285507D01*
X5663893Y12283393D01*
X5662624Y12281419D01*
X5661637Y12279868D01*
X5661214Y12279304D01*
X5660932Y12278881D01*
X5660650Y12278600D01*
Y12278459D01*
X5647822Y12258159D01*
X5631752D01*
X5648527Y12284661D01*
X5650501Y12287481D01*
X5652333Y12290018D01*
X5654166Y12292133D01*
X5655716Y12294106D01*
X5657126Y12295516D01*
X5658254Y12296644D01*
X5658959Y12297349D01*
X5659241Y12297630D01*
X5660368Y12298476D01*
X5661637Y12299463D01*
X5664175Y12301014D01*
X5665302Y12301578D01*
X5666148Y12302142D01*
X5666712Y12302423D01*
X5666994Y12302564D01*
X5664457Y12302987D01*
X5662060Y12303410D01*
X5659945Y12304115D01*
X5657831Y12304679D01*
X5655998Y12305384D01*
X5654307Y12306230D01*
X5652756Y12306934D01*
X5651346Y12307639D01*
X5650219Y12308485D01*
X5649091Y12309190D01*
X5648245Y12309754D01*
X5647540Y12310318D01*
X5646976Y12310741D01*
X5646553Y12311164D01*
X5646412Y12311305D01*
X5646271Y12311446D01*
X5645144Y12312855D01*
X5644016Y12314265D01*
X5642324Y12317225D01*
X5641196Y12320186D01*
X5640351Y12323005D01*
X5639787Y12325402D01*
X5639646Y12326388D01*
Y12327375D01*
X5639505Y12328080D01*
Y12328644D01*
Y12328926D01*
Y12329067D01*
X5639646Y12332027D01*
X5640069Y12334706D01*
X5640774Y12337243D01*
X5641478Y12339358D01*
X5642324Y12341190D01*
X5642888Y12342600D01*
X5643452Y12343446D01*
X5643593Y12343587D01*
Y12343728D01*
X5645285Y12345983D01*
X5646976Y12347957D01*
X5648809Y12349648D01*
X5650501Y12350917D01*
X5652051Y12351904D01*
X5653320Y12352468D01*
X5654166Y12352891D01*
X5654307Y12353032D01*
X5654448D01*
X5655716Y12353455D01*
X5657267Y12353878D01*
X5660368Y12354582D01*
X5663752Y12355005D01*
X5666853Y12355428D01*
X5669813Y12355569D01*
X5671082D01*
X5672210Y12355710D01*
X5717461D01*
Y12258159D01*
D02*
G37*
G36*
X5856001Y11746885D02*
X5860512Y11746180D01*
X5864459Y11745335D01*
X5866292Y11744771D01*
X5867983Y11744207D01*
X5869534Y11743643D01*
X5870944Y11743079D01*
X5872072Y11742656D01*
X5873199Y11742233D01*
X5873904Y11741810D01*
X5874468Y11741528D01*
X5874891Y11741387D01*
X5875032Y11741247D01*
X5878838Y11738850D01*
X5882080Y11736031D01*
X5884900Y11733211D01*
X5887296Y11730392D01*
X5889129Y11727854D01*
X5889834Y11726727D01*
X5890398Y11725740D01*
X5890962Y11725035D01*
X5891243Y11724471D01*
X5891384Y11724048D01*
X5891525Y11723907D01*
X5893499Y11719537D01*
X5894909Y11715026D01*
X5895895Y11710515D01*
X5896600Y11706427D01*
X5896882Y11704594D01*
X5897023Y11702762D01*
X5897164Y11701352D01*
Y11699942D01*
X5897305Y11698956D01*
Y11698110D01*
Y11697546D01*
Y11697405D01*
X5897023Y11692330D01*
X5896459Y11687396D01*
X5895755Y11683026D01*
X5895191Y11680911D01*
X5894768Y11679079D01*
X5894345Y11677387D01*
X5893781Y11675836D01*
X5893358Y11674427D01*
X5893076Y11673299D01*
X5892653Y11672453D01*
X5892512Y11671748D01*
X5892230Y11671325D01*
Y11671184D01*
X5890116Y11666955D01*
X5887719Y11663149D01*
X5885182Y11659907D01*
X5883913Y11658638D01*
X5882785Y11657369D01*
X5881658Y11656242D01*
X5880530Y11655255D01*
X5879543Y11654409D01*
X5878697Y11653845D01*
X5878133Y11653281D01*
X5877569Y11652858D01*
X5877287Y11652717D01*
X5877146Y11652576D01*
X5875173Y11651449D01*
X5873199Y11650462D01*
X5868970Y11648911D01*
X5864741Y11647783D01*
X5860653Y11647079D01*
X5858679Y11646797D01*
X5856988Y11646515D01*
X5855437Y11646374D01*
X5854168D01*
X5853041Y11646233D01*
X5851490D01*
X5848671Y11646374D01*
X5845992Y11646656D01*
X5843455Y11646938D01*
X5841058Y11647501D01*
X5838803Y11648206D01*
X5836688Y11648911D01*
X5834715Y11649616D01*
X5832882Y11650462D01*
X5831331Y11651167D01*
X5829781Y11651872D01*
X5828653Y11652576D01*
X5827525Y11653281D01*
X5826820Y11653845D01*
X5826115Y11654127D01*
X5825833Y11654409D01*
X5825692Y11654550D01*
X5823719Y11656242D01*
X5822027Y11657933D01*
X5820477Y11659907D01*
X5818926Y11661880D01*
X5816388Y11665828D01*
X5814415Y11669775D01*
X5813569Y11671607D01*
X5812864Y11673299D01*
X5812300Y11674850D01*
X5811877Y11676118D01*
X5811454Y11677246D01*
X5811173Y11678092D01*
X5811032Y11678656D01*
Y11678797D01*
X5824001Y11682039D01*
X5824565Y11679784D01*
X5825270Y11677669D01*
X5825974Y11675695D01*
X5826679Y11673863D01*
X5827525Y11672171D01*
X5828371Y11670762D01*
X5829358Y11669352D01*
X5830203Y11668083D01*
X5830908Y11666955D01*
X5831754Y11666110D01*
X5832459Y11665264D01*
X5833023Y11664559D01*
X5833587Y11664136D01*
X5834010Y11663713D01*
X5834151Y11663572D01*
X5834292Y11663431D01*
X5835701Y11662303D01*
X5837252Y11661458D01*
X5840353Y11659907D01*
X5843314Y11658779D01*
X5846274Y11658074D01*
X5848812Y11657510D01*
X5849798Y11657369D01*
X5850785D01*
X5851631Y11657228D01*
X5852618D01*
X5855860Y11657369D01*
X5858961Y11657933D01*
X5861781Y11658638D01*
X5864318Y11659484D01*
X5866292Y11660330D01*
X5867138Y11660753D01*
X5867842Y11661035D01*
X5868406Y11661317D01*
X5868829Y11661598D01*
X5869111Y11661739D01*
X5869252D01*
X5871931Y11663713D01*
X5874186Y11665828D01*
X5876160Y11668224D01*
X5877710Y11670480D01*
X5878979Y11672453D01*
X5879825Y11674145D01*
X5880107Y11674850D01*
X5880389Y11675273D01*
X5880530Y11675554D01*
Y11675695D01*
X5881658Y11679361D01*
X5882503Y11683026D01*
X5883208Y11686691D01*
X5883631Y11690074D01*
X5883772Y11691625D01*
X5883913Y11693035D01*
Y11694304D01*
X5884054Y11695290D01*
Y11696136D01*
Y11696841D01*
Y11697264D01*
Y11697405D01*
X5883913Y11701070D01*
X5883631Y11704453D01*
X5883067Y11707555D01*
X5882503Y11710374D01*
X5882080Y11712771D01*
X5881798Y11713757D01*
X5881517Y11714603D01*
X5881376Y11715308D01*
X5881235Y11715731D01*
X5881094Y11716013D01*
Y11716154D01*
X5879684Y11719396D01*
X5878133Y11722357D01*
X5876442Y11724753D01*
X5874609Y11726868D01*
X5873058Y11728559D01*
X5871790Y11729687D01*
X5870803Y11730392D01*
X5870662Y11730674D01*
X5870521D01*
X5867561Y11732506D01*
X5864318Y11733916D01*
X5861217Y11734903D01*
X5858257Y11735467D01*
X5855578Y11735890D01*
X5854450Y11736031D01*
X5853464D01*
X5852759Y11736172D01*
X5851631D01*
X5848107Y11736031D01*
X5844864Y11735467D01*
X5842186Y11734621D01*
X5839789Y11733775D01*
X5837957Y11732788D01*
X5836547Y11732083D01*
X5835701Y11731520D01*
X5835419Y11731238D01*
X5833164Y11729123D01*
X5831049Y11726727D01*
X5829358Y11724189D01*
X5827948Y11721652D01*
X5826820Y11719396D01*
X5826397Y11718268D01*
X5826115Y11717423D01*
X5825833Y11716718D01*
X5825551Y11716154D01*
X5825410Y11715872D01*
Y11715731D01*
X5812723Y11718691D01*
X5813569Y11721229D01*
X5814415Y11723484D01*
X5815543Y11725599D01*
X5816529Y11727713D01*
X5817657Y11729546D01*
X5818926Y11731238D01*
X5820054Y11732929D01*
X5821181Y11734339D01*
X5822309Y11735467D01*
X5823296Y11736595D01*
X5824283Y11737581D01*
X5824988Y11738286D01*
X5825692Y11738991D01*
X5826256Y11739414D01*
X5826538Y11739555D01*
X5826679Y11739696D01*
X5828653Y11740965D01*
X5830626Y11742233D01*
X5832600Y11743220D01*
X5834715Y11744066D01*
X5838944Y11745335D01*
X5842750Y11746180D01*
X5844582Y11746603D01*
X5846133Y11746744D01*
X5847684Y11746885D01*
X5848952Y11747026D01*
X5849939Y11747167D01*
X5851349D01*
X5856001Y11746885D01*
D02*
G37*
G36*
X5770573Y11745758D02*
X5772829Y11745617D01*
X5776776Y11744771D01*
X5778608Y11744207D01*
X5780300Y11743643D01*
X5781851Y11742938D01*
X5783260Y11742233D01*
X5784388Y11741528D01*
X5785516Y11740824D01*
X5786503Y11740260D01*
X5787208Y11739696D01*
X5787772Y11739273D01*
X5788194Y11738850D01*
X5788476Y11738709D01*
X5788617Y11738568D01*
X5789886Y11737158D01*
X5791155Y11735749D01*
X5792142Y11734198D01*
X5792987Y11732647D01*
X5794397Y11729687D01*
X5795243Y11726868D01*
X5795807Y11724471D01*
X5795948Y11723343D01*
X5796089Y11722498D01*
X5796230Y11721652D01*
Y11721088D01*
Y11720806D01*
Y11720665D01*
X5796089Y11718127D01*
X5795666Y11715731D01*
X5795102Y11713616D01*
X5794397Y11711784D01*
X5793833Y11710374D01*
X5793269Y11709246D01*
X5792846Y11708682D01*
X5792705Y11708401D01*
X5791155Y11706709D01*
X5789463Y11705158D01*
X5787631Y11703748D01*
X5785798Y11702621D01*
X5784106Y11701775D01*
X5782838Y11701211D01*
X5782274Y11700929D01*
X5781851Y11700788D01*
X5781710Y11700647D01*
X5781569D01*
X5784811Y11699660D01*
X5787490Y11698392D01*
X5789886Y11696841D01*
X5791860Y11695431D01*
X5793410Y11694022D01*
X5794538Y11692894D01*
X5795102Y11692189D01*
X5795384Y11692048D01*
Y11691907D01*
X5796935Y11689370D01*
X5798203Y11686691D01*
X5799049Y11684154D01*
X5799613Y11681616D01*
X5799895Y11679361D01*
X5800036Y11678374D01*
Y11677528D01*
X5800177Y11676964D01*
Y11676400D01*
Y11676118D01*
Y11675977D01*
X5800036Y11673722D01*
X5799754Y11671466D01*
X5799331Y11669352D01*
X5798767Y11667237D01*
X5797357Y11663713D01*
X5796653Y11662021D01*
X5795807Y11660612D01*
X5794961Y11659202D01*
X5794256Y11658074D01*
X5793410Y11657087D01*
X5792846Y11656242D01*
X5792283Y11655537D01*
X5791860Y11655114D01*
X5791578Y11654832D01*
X5791437Y11654691D01*
X5789745Y11653140D01*
X5787912Y11651872D01*
X5785939Y11650744D01*
X5783965Y11649757D01*
X5782133Y11649052D01*
X5780159Y11648347D01*
X5776353Y11647361D01*
X5774661Y11646938D01*
X5773111Y11646656D01*
X5771701Y11646515D01*
X5770432Y11646374D01*
X5769445Y11646233D01*
X5768036D01*
X5765357Y11646374D01*
X5762961Y11646656D01*
X5760564Y11647079D01*
X5758309Y11647501D01*
X5756335Y11648206D01*
X5754362Y11648911D01*
X5752529Y11649616D01*
X5750978Y11650462D01*
X5749569Y11651308D01*
X5748300Y11652013D01*
X5747313Y11652717D01*
X5746326Y11653422D01*
X5745621Y11653845D01*
X5745199Y11654268D01*
X5744917Y11654550D01*
X5744776Y11654691D01*
X5743225Y11656383D01*
X5741815Y11658074D01*
X5740688Y11659766D01*
X5739701Y11661598D01*
X5738714Y11663290D01*
X5738009Y11665123D01*
X5737022Y11668365D01*
X5736599Y11669916D01*
X5736317Y11671325D01*
X5736176Y11672594D01*
X5736036Y11673581D01*
X5735895Y11674427D01*
Y11675132D01*
Y11675554D01*
Y11675695D01*
X5736036Y11678938D01*
X5736599Y11681898D01*
X5737445Y11684577D01*
X5738291Y11686832D01*
X5739137Y11688665D01*
X5739983Y11690074D01*
X5740547Y11690920D01*
X5740688Y11691061D01*
Y11691202D01*
X5742661Y11693458D01*
X5744776Y11695431D01*
X5747031Y11696982D01*
X5749146Y11698392D01*
X5751119Y11699378D01*
X5752811Y11700083D01*
X5753375Y11700365D01*
X5753798Y11700506D01*
X5754080Y11700647D01*
X5754221D01*
X5751683Y11701775D01*
X5749569Y11703044D01*
X5747736Y11704312D01*
X5746185Y11705581D01*
X5745058Y11706709D01*
X5744212Y11707555D01*
X5743648Y11708119D01*
X5743507Y11708401D01*
X5742238Y11710374D01*
X5741392Y11712348D01*
X5740688Y11714321D01*
X5740265Y11716295D01*
X5739983Y11717845D01*
X5739842Y11719114D01*
Y11719960D01*
Y11720101D01*
Y11720242D01*
X5739983Y11722216D01*
X5740124Y11724048D01*
X5741110Y11727572D01*
X5742379Y11730674D01*
X5743789Y11733352D01*
X5745199Y11735467D01*
X5745903Y11736313D01*
X5746467Y11737158D01*
X5747031Y11737722D01*
X5747454Y11738145D01*
X5747595Y11738286D01*
X5747736Y11738427D01*
X5749287Y11739696D01*
X5750837Y11740965D01*
X5752529Y11741951D01*
X5754221Y11742797D01*
X5757604Y11744066D01*
X5760987Y11744912D01*
X5762397Y11745335D01*
X5763807Y11745476D01*
X5765075Y11745617D01*
X5766203Y11745758D01*
X5767049Y11745899D01*
X5768318D01*
X5770573Y11745758D01*
D02*
G37*
G36*
X6013142D02*
X6015397Y11745476D01*
X6017653Y11745053D01*
X6019627Y11744489D01*
X6023433Y11742938D01*
X6025124Y11742233D01*
X6026534Y11741387D01*
X6027944Y11740401D01*
X6029072Y11739696D01*
X6030199Y11738850D01*
X6031045Y11738145D01*
X6031750Y11737581D01*
X6032173Y11737158D01*
X6032455Y11736876D01*
X6032596Y11736735D01*
X6034146Y11735044D01*
X6035415Y11733070D01*
X6036684Y11731238D01*
X6037671Y11729264D01*
X6038516Y11727150D01*
X6039221Y11725176D01*
X6040208Y11721511D01*
X6040631Y11719678D01*
X6040913Y11718127D01*
X6041054Y11716577D01*
X6041195Y11715308D01*
X6041336Y11714321D01*
Y11713616D01*
Y11713053D01*
Y11712912D01*
X6041195Y11710233D01*
X6040913Y11707837D01*
X6040631Y11705440D01*
X6040067Y11703185D01*
X6039362Y11701211D01*
X6038657Y11699237D01*
X6037953Y11697546D01*
X6037107Y11695995D01*
X6036402Y11694585D01*
X6035697Y11693317D01*
X6034992Y11692330D01*
X6034287Y11691343D01*
X6033724Y11690638D01*
X6033442Y11690215D01*
X6033160Y11689933D01*
X6033019Y11689792D01*
X6031468Y11688242D01*
X6029776Y11686973D01*
X6028085Y11685704D01*
X6026252Y11684718D01*
X6024560Y11683872D01*
X6022869Y11683167D01*
X6019627Y11682180D01*
X6018217Y11681757D01*
X6016807Y11681475D01*
X6015679Y11681334D01*
X6014552Y11681193D01*
X6013706Y11681052D01*
X6012578D01*
X6009900Y11681193D01*
X6007362Y11681616D01*
X6005107Y11682180D01*
X6002992Y11682885D01*
X6001441Y11683449D01*
X6000173Y11684013D01*
X5999327Y11684436D01*
X5999045Y11684577D01*
X5996789Y11685986D01*
X5994816Y11687537D01*
X5993124Y11689088D01*
X5991714Y11690497D01*
X5990728Y11691907D01*
X5989882Y11692894D01*
X5989318Y11693599D01*
X5989177Y11693881D01*
Y11692753D01*
Y11692048D01*
Y11691625D01*
Y11691484D01*
X5989318Y11688665D01*
X5989459Y11685986D01*
X5989741Y11683590D01*
X5990023Y11681334D01*
X5990446Y11679502D01*
X5990728Y11678092D01*
X5990869Y11677528D01*
Y11677105D01*
X5991010Y11676964D01*
Y11676823D01*
X5991714Y11674286D01*
X5992419Y11672030D01*
X5993124Y11670057D01*
X5993829Y11668365D01*
X5994393Y11667096D01*
X5994957Y11666110D01*
X5995239Y11665405D01*
X5995380Y11665264D01*
X5996507Y11663713D01*
X5997635Y11662444D01*
X5998763Y11661317D01*
X5999891Y11660330D01*
X6000737Y11659484D01*
X6001582Y11658920D01*
X6002146Y11658638D01*
X6002287Y11658497D01*
X6003838Y11657651D01*
X6005530Y11657087D01*
X6007080Y11656665D01*
X6008631Y11656383D01*
X6009900Y11656242D01*
X6010886Y11656101D01*
X6011873D01*
X6014129Y11656242D01*
X6016243Y11656665D01*
X6018076Y11657228D01*
X6019627Y11657933D01*
X6020754Y11658497D01*
X6021741Y11659061D01*
X6022305Y11659484D01*
X6022446Y11659625D01*
X6023856Y11661176D01*
X6024983Y11663008D01*
X6025970Y11664982D01*
X6026675Y11666955D01*
X6027239Y11668647D01*
X6027662Y11670198D01*
X6027803Y11670762D01*
Y11671043D01*
X6027944Y11671325D01*
Y11671466D01*
X6039503Y11670480D01*
X6038657Y11666391D01*
X6037530Y11662867D01*
X6036120Y11659766D01*
X6034710Y11657228D01*
X6033301Y11655255D01*
X6032596Y11654409D01*
X6032032Y11653704D01*
X6031609Y11653281D01*
X6031186Y11652858D01*
X6031045Y11652717D01*
X6030904Y11652576D01*
X6029494Y11651449D01*
X6027944Y11650462D01*
X6024842Y11648911D01*
X6021741Y11647783D01*
X6018781Y11647079D01*
X6016102Y11646515D01*
X6014975Y11646374D01*
X6013988D01*
X6013283Y11646233D01*
X6012155D01*
X6008208Y11646515D01*
X6004684Y11647079D01*
X6001441Y11648065D01*
X5998763Y11649193D01*
X5997635Y11649616D01*
X5996507Y11650180D01*
X5995662Y11650744D01*
X5994816Y11651167D01*
X5994252Y11651449D01*
X5993829Y11651731D01*
X5993547Y11652013D01*
X5993406D01*
X5990587Y11654409D01*
X5988049Y11657087D01*
X5986076Y11659907D01*
X5984384Y11662585D01*
X5982974Y11664982D01*
X5982410Y11666110D01*
X5981988Y11666955D01*
X5981706Y11667801D01*
X5981424Y11668365D01*
X5981283Y11668647D01*
Y11668788D01*
X5980578Y11670902D01*
X5979873Y11673299D01*
X5978886Y11678092D01*
X5978181Y11683167D01*
X5977758Y11687960D01*
X5977476Y11690074D01*
X5977336Y11692189D01*
Y11694022D01*
X5977195Y11695572D01*
Y11696841D01*
Y11697828D01*
Y11698533D01*
Y11698674D01*
Y11701916D01*
X5977336Y11705017D01*
X5977617Y11707837D01*
X5977899Y11710515D01*
X5978181Y11712912D01*
X5978463Y11715167D01*
X5978886Y11717282D01*
X5979309Y11719114D01*
X5979732Y11720665D01*
X5980014Y11722075D01*
X5980437Y11723343D01*
X5980719Y11724330D01*
X5981001Y11725035D01*
X5981283Y11725599D01*
X5981424Y11725881D01*
Y11726022D01*
X5983115Y11729405D01*
X5984948Y11732365D01*
X5987062Y11734903D01*
X5988895Y11737017D01*
X5990728Y11738568D01*
X5992137Y11739696D01*
X5992701Y11740119D01*
X5993124Y11740401D01*
X5993265Y11740683D01*
X5993406D01*
X5996366Y11742374D01*
X5999327Y11743643D01*
X6002287Y11744630D01*
X6004966Y11745194D01*
X6007362Y11745617D01*
X6008349Y11745758D01*
X6009054D01*
X6009759Y11745899D01*
X6010745D01*
X6013142Y11745758D01*
D02*
G37*
G36*
X6097301Y11746885D02*
X6101812Y11746180D01*
X6105759Y11745335D01*
X6107592Y11744771D01*
X6109283Y11744207D01*
X6110834Y11743643D01*
X6112244Y11743079D01*
X6113372Y11742656D01*
X6114499Y11742233D01*
X6115204Y11741810D01*
X6115768Y11741528D01*
X6116191Y11741387D01*
X6116332Y11741247D01*
X6120138Y11738850D01*
X6123380Y11736031D01*
X6126200Y11733211D01*
X6128596Y11730392D01*
X6130429Y11727854D01*
X6131134Y11726727D01*
X6131698Y11725740D01*
X6132262Y11725035D01*
X6132543Y11724471D01*
X6132684Y11724048D01*
X6132825Y11723907D01*
X6134799Y11719537D01*
X6136209Y11715026D01*
X6137195Y11710515D01*
X6137900Y11706427D01*
X6138182Y11704594D01*
X6138323Y11702762D01*
X6138464Y11701352D01*
Y11699942D01*
X6138605Y11698956D01*
Y11698110D01*
Y11697546D01*
Y11697405D01*
X6138323Y11692330D01*
X6137759Y11687396D01*
X6137055Y11683026D01*
X6136491Y11680911D01*
X6136068Y11679079D01*
X6135645Y11677387D01*
X6135081Y11675836D01*
X6134658Y11674427D01*
X6134376Y11673299D01*
X6133953Y11672453D01*
X6133812Y11671748D01*
X6133530Y11671325D01*
Y11671184D01*
X6131416Y11666955D01*
X6129019Y11663149D01*
X6126482Y11659907D01*
X6125213Y11658638D01*
X6124085Y11657369D01*
X6122958Y11656242D01*
X6121830Y11655255D01*
X6120843Y11654409D01*
X6119997Y11653845D01*
X6119433Y11653281D01*
X6118869Y11652858D01*
X6118587Y11652717D01*
X6118446Y11652576D01*
X6116473Y11651449D01*
X6114499Y11650462D01*
X6110270Y11648911D01*
X6106041Y11647783D01*
X6101953Y11647079D01*
X6099979Y11646797D01*
X6098288Y11646515D01*
X6096737Y11646374D01*
X6095468D01*
X6094341Y11646233D01*
X6092790D01*
X6089971Y11646374D01*
X6087292Y11646656D01*
X6084755Y11646938D01*
X6082358Y11647501D01*
X6080103Y11648206D01*
X6077988Y11648911D01*
X6076015Y11649616D01*
X6074182Y11650462D01*
X6072631Y11651167D01*
X6071081Y11651872D01*
X6069953Y11652576D01*
X6068825Y11653281D01*
X6068120Y11653845D01*
X6067415Y11654127D01*
X6067133Y11654409D01*
X6066992Y11654550D01*
X6065019Y11656242D01*
X6063327Y11657933D01*
X6061777Y11659907D01*
X6060226Y11661880D01*
X6057688Y11665828D01*
X6055715Y11669775D01*
X6054869Y11671607D01*
X6054164Y11673299D01*
X6053600Y11674850D01*
X6053177Y11676118D01*
X6052754Y11677246D01*
X6052473Y11678092D01*
X6052332Y11678656D01*
Y11678797D01*
X6065301Y11682039D01*
X6065865Y11679784D01*
X6066570Y11677669D01*
X6067274Y11675695D01*
X6067979Y11673863D01*
X6068825Y11672171D01*
X6069671Y11670762D01*
X6070658Y11669352D01*
X6071503Y11668083D01*
X6072208Y11666955D01*
X6073054Y11666110D01*
X6073759Y11665264D01*
X6074323Y11664559D01*
X6074887Y11664136D01*
X6075310Y11663713D01*
X6075451Y11663572D01*
X6075592Y11663431D01*
X6077001Y11662303D01*
X6078552Y11661458D01*
X6081653Y11659907D01*
X6084614Y11658779D01*
X6087574Y11658074D01*
X6090112Y11657510D01*
X6091098Y11657369D01*
X6092085D01*
X6092931Y11657228D01*
X6093918D01*
X6097160Y11657369D01*
X6100261Y11657933D01*
X6103081Y11658638D01*
X6105618Y11659484D01*
X6107592Y11660330D01*
X6108438Y11660753D01*
X6109142Y11661035D01*
X6109706Y11661317D01*
X6110129Y11661598D01*
X6110411Y11661739D01*
X6110552D01*
X6113231Y11663713D01*
X6115486Y11665828D01*
X6117460Y11668224D01*
X6119010Y11670480D01*
X6120279Y11672453D01*
X6121125Y11674145D01*
X6121407Y11674850D01*
X6121689Y11675273D01*
X6121830Y11675554D01*
Y11675695D01*
X6122958Y11679361D01*
X6123803Y11683026D01*
X6124508Y11686691D01*
X6124931Y11690074D01*
X6125072Y11691625D01*
X6125213Y11693035D01*
Y11694304D01*
X6125354Y11695290D01*
Y11696136D01*
Y11696841D01*
Y11697264D01*
Y11697405D01*
X6125213Y11701070D01*
X6124931Y11704453D01*
X6124367Y11707555D01*
X6123803Y11710374D01*
X6123380Y11712771D01*
X6123098Y11713757D01*
X6122817Y11714603D01*
X6122676Y11715308D01*
X6122535Y11715731D01*
X6122394Y11716013D01*
Y11716154D01*
X6120984Y11719396D01*
X6119433Y11722357D01*
X6117742Y11724753D01*
X6115909Y11726868D01*
X6114358Y11728559D01*
X6113090Y11729687D01*
X6112103Y11730392D01*
X6111962Y11730674D01*
X6111821D01*
X6108861Y11732506D01*
X6105618Y11733916D01*
X6102517Y11734903D01*
X6099557Y11735467D01*
X6096878Y11735890D01*
X6095750Y11736031D01*
X6094764D01*
X6094059Y11736172D01*
X6092931D01*
X6089407Y11736031D01*
X6086164Y11735467D01*
X6083486Y11734621D01*
X6081089Y11733775D01*
X6079257Y11732788D01*
X6077847Y11732083D01*
X6077001Y11731520D01*
X6076719Y11731238D01*
X6074464Y11729123D01*
X6072349Y11726727D01*
X6070658Y11724189D01*
X6069248Y11721652D01*
X6068120Y11719396D01*
X6067697Y11718268D01*
X6067415Y11717423D01*
X6067133Y11716718D01*
X6066851Y11716154D01*
X6066710Y11715872D01*
Y11715731D01*
X6054023Y11718691D01*
X6054869Y11721229D01*
X6055715Y11723484D01*
X6056843Y11725599D01*
X6057829Y11727713D01*
X6058957Y11729546D01*
X6060226Y11731238D01*
X6061354Y11732929D01*
X6062481Y11734339D01*
X6063609Y11735467D01*
X6064596Y11736595D01*
X6065583Y11737581D01*
X6066288Y11738286D01*
X6066992Y11738991D01*
X6067556Y11739414D01*
X6067838Y11739555D01*
X6067979Y11739696D01*
X6069953Y11740965D01*
X6071926Y11742233D01*
X6073900Y11743220D01*
X6076015Y11744066D01*
X6080244Y11745335D01*
X6084050Y11746180D01*
X6085882Y11746603D01*
X6087433Y11746744D01*
X6088984Y11746885D01*
X6090252Y11747026D01*
X6091239Y11747167D01*
X6092649D01*
X6097301Y11746885D01*
D02*
G37*
G36*
X4573473Y10918002D02*
X4575024Y10915747D01*
X4576856Y10913491D01*
X4578548Y10911517D01*
X4580240Y10909826D01*
X4581508Y10908416D01*
X4582072Y10907993D01*
X4582495Y10907570D01*
X4582636Y10907429D01*
X4582777Y10907288D01*
X4585738Y10904892D01*
X4588698Y10902636D01*
X4591517Y10900663D01*
X4594337Y10899112D01*
X4596733Y10897702D01*
X4597720Y10897138D01*
X4598566Y10896716D01*
X4599271Y10896293D01*
X4599835Y10896152D01*
X4600117Y10895870D01*
X4600258D01*
Y10884310D01*
X4598143Y10885156D01*
X4596028Y10886143D01*
X4593914Y10887130D01*
X4591940Y10888116D01*
X4590249Y10888962D01*
X4588839Y10889667D01*
X4587993Y10890231D01*
X4587852Y10890372D01*
X4587711D01*
X4585174Y10891923D01*
X4582918Y10893473D01*
X4580945Y10894883D01*
X4579394Y10896152D01*
X4577984Y10897138D01*
X4577138Y10897984D01*
X4576434Y10898548D01*
X4576293Y10898689D01*
Y10822424D01*
X4564310D01*
Y10920399D01*
X4572063D01*
X4573473Y10918002D01*
D02*
G37*
G36*
X4665386Y10921385D02*
X4669897Y10920680D01*
X4673844Y10919835D01*
X4675676Y10919271D01*
X4677368Y10918707D01*
X4678919Y10918143D01*
X4680328Y10917579D01*
X4681456Y10917156D01*
X4682584Y10916733D01*
X4683289Y10916310D01*
X4683853Y10916028D01*
X4684276Y10915887D01*
X4684417Y10915747D01*
X4688223Y10913350D01*
X4691465Y10910531D01*
X4694284Y10907711D01*
X4696681Y10904892D01*
X4698514Y10902354D01*
X4699218Y10901227D01*
X4699782Y10900240D01*
X4700346Y10899535D01*
X4700628Y10898971D01*
X4700769Y10898548D01*
X4700910Y10898407D01*
X4702884Y10894037D01*
X4704293Y10889526D01*
X4705280Y10885015D01*
X4705985Y10880927D01*
X4706267Y10879094D01*
X4706408Y10877262D01*
X4706549Y10875852D01*
Y10874442D01*
X4706690Y10873456D01*
Y10872610D01*
Y10872046D01*
Y10871905D01*
X4706408Y10866830D01*
X4705844Y10861896D01*
X4705139Y10857526D01*
X4704575Y10855411D01*
X4704152Y10853579D01*
X4703729Y10851887D01*
X4703166Y10850336D01*
X4702743Y10848927D01*
X4702461Y10847799D01*
X4702038Y10846953D01*
X4701897Y10846248D01*
X4701615Y10845825D01*
Y10845684D01*
X4699500Y10841455D01*
X4697104Y10837649D01*
X4694566Y10834407D01*
X4693298Y10833138D01*
X4692170Y10831869D01*
X4691042Y10830742D01*
X4689914Y10829755D01*
X4688928Y10828909D01*
X4688082Y10828345D01*
X4687518Y10827781D01*
X4686954Y10827358D01*
X4686672Y10827217D01*
X4686531Y10827076D01*
X4684558Y10825949D01*
X4682584Y10824962D01*
X4678355Y10823411D01*
X4674126Y10822283D01*
X4670038Y10821579D01*
X4668064Y10821297D01*
X4666372Y10821015D01*
X4664822Y10820874D01*
X4663553D01*
X4662425Y10820733D01*
X4660875D01*
X4658055Y10820874D01*
X4655377Y10821156D01*
X4652839Y10821438D01*
X4650443Y10822001D01*
X4648187Y10822706D01*
X4646073Y10823411D01*
X4644099Y10824116D01*
X4642267Y10824962D01*
X4640716Y10825667D01*
X4639165Y10826372D01*
X4638037Y10827076D01*
X4636910Y10827781D01*
X4636205Y10828345D01*
X4635500Y10828627D01*
X4635218Y10828909D01*
X4635077Y10829050D01*
X4633104Y10830742D01*
X4631412Y10832433D01*
X4629861Y10834407D01*
X4628311Y10836380D01*
X4625773Y10840328D01*
X4623799Y10844275D01*
X4622954Y10846107D01*
X4622249Y10847799D01*
X4621685Y10849350D01*
X4621262Y10850618D01*
X4620839Y10851746D01*
X4620557Y10852592D01*
X4620416Y10853156D01*
Y10853297D01*
X4633385Y10856539D01*
X4633949Y10854284D01*
X4634654Y10852169D01*
X4635359Y10850195D01*
X4636064Y10848363D01*
X4636910Y10846671D01*
X4637756Y10845262D01*
X4638742Y10843852D01*
X4639588Y10842583D01*
X4640293Y10841455D01*
X4641139Y10840610D01*
X4641844Y10839764D01*
X4642408Y10839059D01*
X4642971Y10838636D01*
X4643394Y10838213D01*
X4643535Y10838072D01*
X4643676Y10837931D01*
X4645086Y10836803D01*
X4646637Y10835958D01*
X4649738Y10834407D01*
X4652698Y10833279D01*
X4655659Y10832574D01*
X4658196Y10832010D01*
X4659183Y10831869D01*
X4660170D01*
X4661016Y10831728D01*
X4662002D01*
X4665245Y10831869D01*
X4668346Y10832433D01*
X4671165Y10833138D01*
X4673703Y10833984D01*
X4675676Y10834830D01*
X4676522Y10835253D01*
X4677227Y10835535D01*
X4677791Y10835817D01*
X4678214Y10836098D01*
X4678496Y10836239D01*
X4678637D01*
X4681315Y10838213D01*
X4683571Y10840328D01*
X4685544Y10842724D01*
X4687095Y10844980D01*
X4688364Y10846953D01*
X4689210Y10848645D01*
X4689492Y10849350D01*
X4689773Y10849773D01*
X4689914Y10850054D01*
Y10850195D01*
X4691042Y10853861D01*
X4691888Y10857526D01*
X4692593Y10861191D01*
X4693016Y10864574D01*
X4693157Y10866125D01*
X4693298Y10867535D01*
Y10868804D01*
X4693439Y10869790D01*
Y10870636D01*
Y10871341D01*
Y10871764D01*
Y10871905D01*
X4693298Y10875570D01*
X4693016Y10878953D01*
X4692452Y10882055D01*
X4691888Y10884874D01*
X4691465Y10887271D01*
X4691183Y10888257D01*
X4690901Y10889103D01*
X4690760Y10889808D01*
X4690619Y10890231D01*
X4690478Y10890513D01*
Y10890654D01*
X4689069Y10893896D01*
X4687518Y10896857D01*
X4685826Y10899253D01*
X4683994Y10901368D01*
X4682443Y10903059D01*
X4681174Y10904187D01*
X4680187Y10904892D01*
X4680047Y10905174D01*
X4679906D01*
X4676945Y10907006D01*
X4673703Y10908416D01*
X4670602Y10909403D01*
X4667641Y10909967D01*
X4664963Y10910390D01*
X4663835Y10910531D01*
X4662848D01*
X4662143Y10910672D01*
X4661016D01*
X4657491Y10910531D01*
X4654249Y10909967D01*
X4651571Y10909121D01*
X4649174Y10908275D01*
X4647341Y10907288D01*
X4645932Y10906583D01*
X4645086Y10906020D01*
X4644804Y10905738D01*
X4642548Y10903623D01*
X4640434Y10901227D01*
X4638742Y10898689D01*
X4637333Y10896152D01*
X4636205Y10893896D01*
X4635782Y10892768D01*
X4635500Y10891923D01*
X4635218Y10891218D01*
X4634936Y10890654D01*
X4634795Y10890372D01*
Y10890231D01*
X4622108Y10893191D01*
X4622954Y10895729D01*
X4623799Y10897984D01*
X4624927Y10900099D01*
X4625914Y10902213D01*
X4627042Y10904046D01*
X4628311Y10905738D01*
X4629438Y10907429D01*
X4630566Y10908839D01*
X4631694Y10909967D01*
X4632681Y10911095D01*
X4633667Y10912081D01*
X4634372Y10912786D01*
X4635077Y10913491D01*
X4635641Y10913914D01*
X4635923Y10914055D01*
X4636064Y10914196D01*
X4638037Y10915465D01*
X4640011Y10916733D01*
X4641985Y10917720D01*
X4644099Y10918566D01*
X4648328Y10919835D01*
X4652134Y10920680D01*
X4653967Y10921103D01*
X4655518Y10921244D01*
X4657068Y10921385D01*
X4658337Y10921526D01*
X4659324Y10921667D01*
X4660734D01*
X4665386Y10921385D01*
D02*
G37*
G36*
X5695501Y10361246D02*
X5697897Y10361105D01*
X5700153Y10360682D01*
X5702267Y10360259D01*
X5704241Y10359696D01*
X5706074Y10359132D01*
X5707765Y10358427D01*
X5709316Y10357722D01*
X5710726Y10357017D01*
X5711853Y10356312D01*
X5712840Y10355748D01*
X5713686Y10355185D01*
X5714391Y10354762D01*
X5714814Y10354339D01*
X5715096Y10354198D01*
X5715237Y10354057D01*
X5716646Y10352647D01*
X5717915Y10351096D01*
X5719184Y10349405D01*
X5720171Y10347713D01*
X5721862Y10344330D01*
X5722990Y10340947D01*
X5723413Y10339396D01*
X5723836Y10337845D01*
X5724118Y10336576D01*
X5724400Y10335449D01*
X5724541Y10334462D01*
Y10333757D01*
X5724682Y10333334D01*
Y10333193D01*
X5712417Y10331924D01*
X5712135Y10335167D01*
X5711572Y10337986D01*
X5710726Y10340524D01*
X5709739Y10342497D01*
X5708893Y10344189D01*
X5708047Y10345317D01*
X5707483Y10346021D01*
X5707201Y10346303D01*
X5705087Y10347995D01*
X5702831Y10349264D01*
X5700435Y10350251D01*
X5698320Y10350814D01*
X5696347Y10351237D01*
X5694655Y10351378D01*
X5694091Y10351519D01*
X5693245D01*
X5690285Y10351378D01*
X5687607Y10350814D01*
X5685351Y10349969D01*
X5683378Y10349123D01*
X5681827Y10348136D01*
X5680840Y10347431D01*
X5680135Y10346867D01*
X5679853Y10346585D01*
X5678162Y10344612D01*
X5676893Y10342638D01*
X5675906Y10340665D01*
X5675342Y10338691D01*
X5674919Y10337140D01*
X5674778Y10335731D01*
X5674637Y10334885D01*
Y10334744D01*
Y10334603D01*
X5674919Y10332065D01*
X5675483Y10329387D01*
X5676470Y10326991D01*
X5677457Y10324735D01*
X5678585Y10322902D01*
X5679571Y10321352D01*
X5679853Y10320788D01*
X5680135Y10320365D01*
X5680417Y10320224D01*
Y10320083D01*
X5681545Y10318532D01*
X5682955Y10316982D01*
X5684505Y10315290D01*
X5686197Y10313598D01*
X5689721Y10310215D01*
X5693245Y10306832D01*
X5695078Y10305281D01*
X5696629Y10303871D01*
X5698179Y10302603D01*
X5699448Y10301475D01*
X5700435Y10300629D01*
X5701281Y10299924D01*
X5701845Y10299501D01*
X5701986Y10299360D01*
X5705510Y10296400D01*
X5708752Y10293581D01*
X5711431Y10291043D01*
X5713545Y10288929D01*
X5715378Y10287096D01*
X5716646Y10285827D01*
X5717351Y10284981D01*
X5717633Y10284840D01*
Y10284700D01*
X5719607Y10282303D01*
X5721157Y10280048D01*
X5722567Y10277792D01*
X5723695Y10275818D01*
X5724541Y10274127D01*
X5725105Y10272858D01*
X5725387Y10272012D01*
X5725528Y10271871D01*
Y10271730D01*
X5726091Y10270180D01*
X5726373Y10268770D01*
X5726655Y10267360D01*
X5726796Y10266091D01*
X5726937Y10264964D01*
Y10264118D01*
Y10263554D01*
Y10263413D01*
X5662232D01*
Y10274973D01*
X5710303D01*
X5708611Y10277369D01*
X5707765Y10278356D01*
X5707060Y10279343D01*
X5706356Y10280188D01*
X5705792Y10280752D01*
X5705369Y10281175D01*
X5705228Y10281316D01*
X5704523Y10282021D01*
X5703677Y10282726D01*
X5701704Y10284559D01*
X5699448Y10286673D01*
X5697052Y10288788D01*
X5694796Y10290620D01*
X5693809Y10291466D01*
X5692963Y10292312D01*
X5692259Y10292876D01*
X5691695Y10293299D01*
X5691413Y10293581D01*
X5691272Y10293722D01*
X5689016Y10295695D01*
X5686761Y10297528D01*
X5684787Y10299360D01*
X5682955Y10300911D01*
X5681263Y10302462D01*
X5679853Y10303871D01*
X5678444Y10305140D01*
X5677316Y10306268D01*
X5676188Y10307396D01*
X5675342Y10308242D01*
X5674637Y10308946D01*
X5673933Y10309651D01*
X5673228Y10310497D01*
X5672946Y10310779D01*
X5670972Y10313175D01*
X5669281Y10315290D01*
X5667871Y10317405D01*
X5666743Y10319096D01*
X5665897Y10320647D01*
X5665333Y10321775D01*
X5665051Y10322479D01*
X5664910Y10322761D01*
X5664065Y10324876D01*
X5663501Y10326991D01*
X5662937Y10328964D01*
X5662655Y10330656D01*
X5662514Y10332206D01*
X5662373Y10333334D01*
Y10334039D01*
Y10334321D01*
X5662514Y10336436D01*
X5662796Y10338409D01*
X5663078Y10340383D01*
X5663642Y10342074D01*
X5665051Y10345458D01*
X5666461Y10348136D01*
X5667307Y10349405D01*
X5668012Y10350392D01*
X5668717Y10351378D01*
X5669421Y10352083D01*
X5669985Y10352647D01*
X5670267Y10353211D01*
X5670549Y10353352D01*
X5670690Y10353493D01*
X5672241Y10354903D01*
X5673933Y10356171D01*
X5675765Y10357158D01*
X5677598Y10358004D01*
X5681263Y10359414D01*
X5684928Y10360400D01*
X5686479Y10360682D01*
X5688030Y10360964D01*
X5689439Y10361105D01*
X5690567Y10361246D01*
X5691554Y10361387D01*
X5692963D01*
X5695501Y10361246D01*
D02*
G37*
G36*
X5818568Y10263413D02*
X5805598D01*
Y10306691D01*
X5788964D01*
X5787413Y10306550D01*
X5786286D01*
X5785299Y10306409D01*
X5784594Y10306268D01*
X5784030D01*
X5783748Y10306127D01*
X5783607D01*
X5781352Y10305422D01*
X5780365Y10304999D01*
X5779519Y10304576D01*
X5778673Y10304153D01*
X5778109Y10303871D01*
X5777827Y10303730D01*
X5777686Y10303590D01*
X5776559Y10302744D01*
X5775431Y10301757D01*
X5773316Y10299642D01*
X5772330Y10298656D01*
X5771625Y10297810D01*
X5771202Y10297246D01*
X5771061Y10297105D01*
X5769651Y10295131D01*
X5768100Y10293017D01*
X5766550Y10290761D01*
X5764999Y10288647D01*
X5763730Y10286673D01*
X5762744Y10285122D01*
X5762321Y10284559D01*
X5762039Y10284136D01*
X5761757Y10283854D01*
Y10283713D01*
X5748929Y10263413D01*
X5732858D01*
X5749633Y10289915D01*
X5751607Y10292735D01*
X5753440Y10295272D01*
X5755272Y10297387D01*
X5756823Y10299360D01*
X5758233Y10300770D01*
X5759360Y10301898D01*
X5760065Y10302603D01*
X5760347Y10302885D01*
X5761475Y10303730D01*
X5762744Y10304717D01*
X5765281Y10306268D01*
X5766409Y10306832D01*
X5767255Y10307396D01*
X5767819Y10307678D01*
X5768100Y10307819D01*
X5765563Y10308242D01*
X5763167Y10308664D01*
X5761052Y10309369D01*
X5758937Y10309933D01*
X5757105Y10310638D01*
X5755413Y10311484D01*
X5753863Y10312189D01*
X5752453Y10312894D01*
X5751325Y10313739D01*
X5750197Y10314444D01*
X5749351Y10315008D01*
X5748647Y10315572D01*
X5748083Y10315995D01*
X5747660Y10316418D01*
X5747519Y10316559D01*
X5747378Y10316700D01*
X5746250Y10318109D01*
X5745122Y10319519D01*
X5743431Y10322479D01*
X5742303Y10325440D01*
X5741457Y10328259D01*
X5740893Y10330656D01*
X5740752Y10331643D01*
Y10332629D01*
X5740611Y10333334D01*
Y10333898D01*
Y10334180D01*
Y10334321D01*
X5740752Y10337281D01*
X5741175Y10339960D01*
X5741880Y10342497D01*
X5742585Y10344612D01*
X5743431Y10346444D01*
X5743995Y10347854D01*
X5744558Y10348700D01*
X5744699Y10348841D01*
Y10348982D01*
X5746391Y10351237D01*
X5748083Y10353211D01*
X5749915Y10354903D01*
X5751607Y10356171D01*
X5753158Y10357158D01*
X5754426Y10357722D01*
X5755272Y10358145D01*
X5755413Y10358286D01*
X5755554D01*
X5756823Y10358709D01*
X5758374Y10359132D01*
X5761475Y10359837D01*
X5764858Y10360259D01*
X5767960Y10360682D01*
X5770920Y10360823D01*
X5772189D01*
X5773316Y10360964D01*
X5818568D01*
Y10263413D01*
D02*
G37*
G36*
X4943747Y10358991D02*
X4945297Y10356735D01*
X4947130Y10354480D01*
X4948822Y10352506D01*
X4950513Y10350814D01*
X4951782Y10349405D01*
X4952346Y10348982D01*
X4952769Y10348559D01*
X4952910Y10348418D01*
X4953051Y10348277D01*
X4956011Y10345881D01*
X4958972Y10343625D01*
X4961791Y10341651D01*
X4964610Y10340101D01*
X4967007Y10338691D01*
X4967994Y10338127D01*
X4968839Y10337704D01*
X4969544Y10337281D01*
X4970108Y10337140D01*
X4970390Y10336858D01*
X4970531D01*
Y10325299D01*
X4968417Y10326145D01*
X4966302Y10327131D01*
X4964187Y10328118D01*
X4962214Y10329105D01*
X4960522Y10329951D01*
X4959113Y10330656D01*
X4958267Y10331220D01*
X4958126Y10331361D01*
X4957985D01*
X4955447Y10332911D01*
X4953192Y10334462D01*
X4951218Y10335872D01*
X4949668Y10337140D01*
X4948258Y10338127D01*
X4947412Y10338973D01*
X4946707Y10339537D01*
X4946566Y10339678D01*
Y10263413D01*
X4934584D01*
Y10361387D01*
X4942337D01*
X4943747Y10358991D01*
D02*
G37*
G36*
X5073016Y10263413D02*
X5060047D01*
Y10306691D01*
X5043413D01*
X5041862Y10306550D01*
X5040734D01*
X5039747Y10306409D01*
X5039043Y10306268D01*
X5038479D01*
X5038197Y10306127D01*
X5038056D01*
X5035800Y10305422D01*
X5034813Y10304999D01*
X5033968Y10304576D01*
X5033122Y10304153D01*
X5032558Y10303871D01*
X5032276Y10303730D01*
X5032135Y10303590D01*
X5031007Y10302744D01*
X5029879Y10301757D01*
X5027765Y10299642D01*
X5026778Y10298656D01*
X5026073Y10297810D01*
X5025650Y10297246D01*
X5025509Y10297105D01*
X5024100Y10295131D01*
X5022549Y10293017D01*
X5020998Y10290761D01*
X5019448Y10288647D01*
X5018179Y10286673D01*
X5017192Y10285122D01*
X5016769Y10284559D01*
X5016487Y10284136D01*
X5016205Y10283854D01*
Y10283713D01*
X5003377Y10263413D01*
X4987307D01*
X5004082Y10289915D01*
X5006056Y10292735D01*
X5007888Y10295272D01*
X5009721Y10297387D01*
X5011271Y10299360D01*
X5012681Y10300770D01*
X5013809Y10301898D01*
X5014514Y10302603D01*
X5014796Y10302885D01*
X5015923Y10303730D01*
X5017192Y10304717D01*
X5019730Y10306268D01*
X5020857Y10306832D01*
X5021703Y10307396D01*
X5022267Y10307678D01*
X5022549Y10307819D01*
X5020012Y10308242D01*
X5017615Y10308664D01*
X5015501Y10309369D01*
X5013386Y10309933D01*
X5011553Y10310638D01*
X5009862Y10311484D01*
X5008311Y10312189D01*
X5006901Y10312894D01*
X5005774Y10313739D01*
X5004646Y10314444D01*
X5003800Y10315008D01*
X5003095Y10315572D01*
X5002531Y10315995D01*
X5002108Y10316418D01*
X5001967Y10316559D01*
X5001826Y10316700D01*
X5000699Y10318109D01*
X4999571Y10319519D01*
X4997879Y10322479D01*
X4996751Y10325440D01*
X4995906Y10328259D01*
X4995342Y10330656D01*
X4995201Y10331643D01*
Y10332629D01*
X4995060Y10333334D01*
Y10333898D01*
Y10334180D01*
Y10334321D01*
X4995201Y10337281D01*
X4995624Y10339960D01*
X4996329Y10342497D01*
X4997033Y10344612D01*
X4997879Y10346444D01*
X4998443Y10347854D01*
X4999007Y10348700D01*
X4999148Y10348841D01*
Y10348982D01*
X5000840Y10351237D01*
X5002531Y10353211D01*
X5004364Y10354903D01*
X5006056Y10356171D01*
X5007606Y10357158D01*
X5008875Y10357722D01*
X5009721Y10358145D01*
X5009862Y10358286D01*
X5010003D01*
X5011271Y10358709D01*
X5012822Y10359132D01*
X5015923Y10359837D01*
X5019307Y10360259D01*
X5022408Y10360682D01*
X5025368Y10360823D01*
X5026637D01*
X5027765Y10360964D01*
X5073016D01*
Y10263413D01*
D02*
G37*
G36*
X5220994Y13191302D02*
X5222545Y13189047D01*
X5224377Y13186790D01*
X5226069Y13184818D01*
X5227761Y13183125D01*
X5229029Y13181715D01*
X5229593Y13181293D01*
X5230016Y13180870D01*
X5230157Y13180730D01*
X5230298Y13180588D01*
X5233259Y13178192D01*
X5236219Y13175935D01*
X5239038Y13173962D01*
X5241858Y13172412D01*
X5244254Y13171002D01*
X5245241Y13170438D01*
X5246087Y13170016D01*
X5246792Y13169592D01*
X5247356Y13169452D01*
X5247637Y13169170D01*
X5247778D01*
Y13157610D01*
X5245664Y13158456D01*
X5243549Y13159444D01*
X5241435Y13160429D01*
X5239461Y13161417D01*
X5237770Y13162262D01*
X5236360Y13162967D01*
X5235514Y13163531D01*
X5235373Y13163672D01*
X5235232D01*
X5232695Y13165224D01*
X5230439Y13166772D01*
X5228466Y13168182D01*
X5226915Y13169452D01*
X5225505Y13170438D01*
X5224659Y13171284D01*
X5223954Y13171848D01*
X5223814Y13171989D01*
Y13095724D01*
X5211831D01*
Y13193700D01*
X5219584D01*
X5220994Y13191302D01*
D02*
G37*
G36*
X5145152D02*
X5146703Y13189047D01*
X5148536Y13186790D01*
X5150227Y13184818D01*
X5151919Y13183125D01*
X5153188Y13181715D01*
X5153751Y13181293D01*
X5154174Y13180870D01*
X5154315Y13180730D01*
X5154456Y13180588D01*
X5157417Y13178192D01*
X5160377Y13175935D01*
X5163196Y13173962D01*
X5166016Y13172412D01*
X5168412Y13171002D01*
X5169399Y13170438D01*
X5170245Y13170016D01*
X5170950Y13169592D01*
X5171514Y13169452D01*
X5171796Y13169170D01*
X5171937D01*
Y13157610D01*
X5169822Y13158456D01*
X5167707Y13159444D01*
X5165593Y13160429D01*
X5163619Y13161417D01*
X5161928Y13162262D01*
X5160518Y13162967D01*
X5159672Y13163531D01*
X5159531Y13163672D01*
X5159390D01*
X5156853Y13165224D01*
X5154597Y13166772D01*
X5152624Y13168182D01*
X5151073Y13169452D01*
X5149663Y13170438D01*
X5148817Y13171284D01*
X5148113Y13171848D01*
X5147972Y13171989D01*
Y13095724D01*
X5135989D01*
Y13193700D01*
X5143743D01*
X5145152Y13191302D01*
D02*
G37*
G36*
X5312907Y13194685D02*
X5317418Y13193980D01*
X5321365Y13193135D01*
X5323197Y13192570D01*
X5324889Y13192007D01*
X5326440Y13191443D01*
X5327849Y13190878D01*
X5328977Y13190456D01*
X5330105Y13190033D01*
X5330810Y13189610D01*
X5331374Y13189328D01*
X5331797Y13189188D01*
X5331938Y13189047D01*
X5335744Y13186650D01*
X5338986Y13183830D01*
X5341805Y13181010D01*
X5344202Y13178192D01*
X5346035Y13175655D01*
X5346739Y13174527D01*
X5347303Y13173540D01*
X5347867Y13172835D01*
X5348149Y13172272D01*
X5348290Y13171848D01*
X5348431Y13171707D01*
X5350405Y13167337D01*
X5351814Y13162827D01*
X5352801Y13158315D01*
X5353506Y13154227D01*
X5353788Y13152394D01*
X5353929Y13150562D01*
X5354070Y13149152D01*
Y13147742D01*
X5354211Y13146756D01*
Y13145911D01*
Y13145346D01*
Y13145206D01*
X5353929Y13140131D01*
X5353365Y13135196D01*
X5352660Y13130826D01*
X5352096Y13128711D01*
X5351673Y13126878D01*
X5351250Y13125188D01*
X5350687Y13123636D01*
X5350264Y13122227D01*
X5349982Y13121098D01*
X5349559Y13120253D01*
X5349418Y13119548D01*
X5349136Y13119125D01*
Y13118983D01*
X5347021Y13114755D01*
X5344625Y13110950D01*
X5342087Y13107707D01*
X5340819Y13106438D01*
X5339691Y13105170D01*
X5338563Y13104042D01*
X5337435Y13103055D01*
X5336449Y13102209D01*
X5335603Y13101645D01*
X5335039Y13101080D01*
X5334475Y13100658D01*
X5334193Y13100517D01*
X5334052Y13100375D01*
X5332078Y13099249D01*
X5330105Y13098262D01*
X5325876Y13096712D01*
X5321647Y13095583D01*
X5317559Y13094879D01*
X5315585Y13094597D01*
X5313893Y13094315D01*
X5312343Y13094174D01*
X5311074D01*
X5309946Y13094032D01*
X5308396D01*
X5305576Y13094174D01*
X5302898Y13094456D01*
X5300360Y13094737D01*
X5297964Y13095300D01*
X5295708Y13096005D01*
X5293594Y13096712D01*
X5291620Y13097417D01*
X5289787Y13098262D01*
X5288237Y13098967D01*
X5286686Y13099672D01*
X5285558Y13100375D01*
X5284431Y13101080D01*
X5283726Y13101645D01*
X5283021Y13101927D01*
X5282739Y13102209D01*
X5282598Y13102350D01*
X5280624Y13104042D01*
X5278933Y13105733D01*
X5277382Y13107707D01*
X5275831Y13109680D01*
X5273294Y13113628D01*
X5271320Y13117575D01*
X5270475Y13119408D01*
X5269770Y13121098D01*
X5269206Y13122650D01*
X5268783Y13123918D01*
X5268360Y13125046D01*
X5268078Y13125893D01*
X5267937Y13126456D01*
Y13126598D01*
X5280906Y13129839D01*
X5281470Y13127583D01*
X5282175Y13125468D01*
X5282880Y13123495D01*
X5283585Y13121663D01*
X5284431Y13119971D01*
X5285276Y13118562D01*
X5286263Y13117152D01*
X5287109Y13115883D01*
X5287814Y13114755D01*
X5288660Y13113910D01*
X5289365Y13113065D01*
X5289928Y13112360D01*
X5290492Y13111935D01*
X5290915Y13111513D01*
X5291056Y13111372D01*
X5291197Y13111230D01*
X5292607Y13110103D01*
X5294158Y13109258D01*
X5297259Y13107707D01*
X5300219Y13106580D01*
X5303180Y13105875D01*
X5305717Y13105310D01*
X5306704Y13105170D01*
X5307691D01*
X5308537Y13105028D01*
X5309523D01*
X5312766Y13105170D01*
X5315867Y13105733D01*
X5318686Y13106438D01*
X5321224Y13107285D01*
X5323197Y13108130D01*
X5324043Y13108553D01*
X5324748Y13108835D01*
X5325312Y13109117D01*
X5325735Y13109398D01*
X5326017Y13109538D01*
X5326158D01*
X5328836Y13111513D01*
X5331092Y13113628D01*
X5333065Y13116023D01*
X5334616Y13118280D01*
X5335885Y13120253D01*
X5336730Y13121945D01*
X5337012Y13122650D01*
X5337294Y13123073D01*
X5337435Y13123354D01*
Y13123495D01*
X5338563Y13127161D01*
X5339409Y13130826D01*
X5340114Y13134491D01*
X5340537Y13137874D01*
X5340678Y13139426D01*
X5340819Y13140836D01*
Y13142104D01*
X5340960Y13143089D01*
Y13143936D01*
Y13144641D01*
Y13145064D01*
Y13145206D01*
X5340819Y13148869D01*
X5340537Y13152254D01*
X5339973Y13155354D01*
X5339409Y13158174D01*
X5338986Y13160571D01*
X5338704Y13161557D01*
X5338422Y13162402D01*
X5338281Y13163107D01*
X5338140Y13163531D01*
X5337999Y13163812D01*
Y13163954D01*
X5336590Y13167197D01*
X5335039Y13170157D01*
X5333347Y13172552D01*
X5331515Y13174667D01*
X5329964Y13176360D01*
X5328695Y13177487D01*
X5327708Y13178192D01*
X5327567Y13178474D01*
X5327426D01*
X5324466Y13180305D01*
X5321224Y13181715D01*
X5318122Y13182703D01*
X5315162Y13183267D01*
X5312484Y13183690D01*
X5311356Y13183830D01*
X5310369D01*
X5309664Y13183972D01*
X5308537D01*
X5305012Y13183830D01*
X5301770Y13183267D01*
X5299092Y13182420D01*
X5296695Y13181575D01*
X5294862Y13180588D01*
X5293453Y13179883D01*
X5292607Y13179320D01*
X5292325Y13179037D01*
X5290069Y13176923D01*
X5287955Y13174527D01*
X5286263Y13171989D01*
X5284854Y13169452D01*
X5283726Y13167197D01*
X5283303Y13166068D01*
X5283021Y13165224D01*
X5282739Y13164519D01*
X5282457Y13163954D01*
X5282316Y13163672D01*
Y13163531D01*
X5269629Y13166492D01*
X5270475Y13169029D01*
X5271320Y13171284D01*
X5272448Y13173399D01*
X5273435Y13175513D01*
X5274563Y13177345D01*
X5275831Y13179037D01*
X5276959Y13180730D01*
X5278087Y13182140D01*
X5279215Y13183267D01*
X5280202Y13184395D01*
X5281188Y13185381D01*
X5281893Y13186086D01*
X5282598Y13186790D01*
X5283162Y13187215D01*
X5283444Y13187355D01*
X5283585Y13187495D01*
X5285558Y13188765D01*
X5287532Y13190033D01*
X5289506Y13191020D01*
X5291620Y13191866D01*
X5295849Y13193135D01*
X5299655Y13193980D01*
X5301488Y13194403D01*
X5303039Y13194543D01*
X5304589Y13194685D01*
X5305858Y13194826D01*
X5306845Y13194968D01*
X5308255D01*
X5312907Y13194685D01*
D02*
G37*
G36*
X5743847Y11375837D02*
X5745397Y11373581D01*
X5747230Y11371325D01*
X5748922Y11369352D01*
X5750613Y11367660D01*
X5751882Y11366251D01*
X5752446Y11365828D01*
X5752869Y11365405D01*
X5753010Y11365264D01*
X5753151Y11365123D01*
X5756111Y11362726D01*
X5759072Y11360471D01*
X5761891Y11358497D01*
X5764710Y11356947D01*
X5767107Y11355537D01*
X5768094Y11354973D01*
X5768939Y11354550D01*
X5769644Y11354127D01*
X5770208Y11353986D01*
X5770490Y11353704D01*
X5770631D01*
Y11342145D01*
X5768517Y11342991D01*
X5766402Y11343977D01*
X5764287Y11344964D01*
X5762314Y11345951D01*
X5760622Y11346797D01*
X5759213Y11347502D01*
X5758367Y11348065D01*
X5758226Y11348206D01*
X5758085D01*
X5755547Y11349757D01*
X5753292Y11351308D01*
X5751318Y11352717D01*
X5749768Y11353986D01*
X5748358Y11354973D01*
X5747512Y11355819D01*
X5746807Y11356383D01*
X5746666Y11356524D01*
Y11280259D01*
X5734684D01*
Y11378233D01*
X5742437D01*
X5743847Y11375837D01*
D02*
G37*
G36*
X5873116Y11321422D02*
Y11318603D01*
X5872975Y11315924D01*
X5872834Y11313387D01*
X5872552Y11310990D01*
X5872270Y11308876D01*
X5871989Y11306902D01*
X5871566Y11305070D01*
X5871284Y11303378D01*
X5871002Y11301827D01*
X5870579Y11300559D01*
X5870297Y11299431D01*
X5870015Y11298585D01*
X5869733Y11297880D01*
X5869592Y11297316D01*
X5869451Y11297034D01*
Y11296893D01*
X5867900Y11293792D01*
X5865927Y11290973D01*
X5863953Y11288717D01*
X5861839Y11286743D01*
X5860006Y11285193D01*
X5858455Y11284065D01*
X5857892Y11283783D01*
X5857469Y11283501D01*
X5857187Y11283219D01*
X5857046D01*
X5853521Y11281669D01*
X5849856Y11280541D01*
X5846050Y11279695D01*
X5842526Y11279131D01*
X5840975Y11278990D01*
X5839424Y11278849D01*
X5838015Y11278708D01*
X5836887D01*
X5835900Y11278567D01*
X5834631D01*
X5829557Y11278849D01*
X5827301Y11279131D01*
X5825186Y11279413D01*
X5823072Y11279836D01*
X5821239Y11280259D01*
X5819548Y11280682D01*
X5817997Y11281246D01*
X5816587Y11281810D01*
X5815460Y11282232D01*
X5814332Y11282655D01*
X5813486Y11283078D01*
X5812781Y11283501D01*
X5812358Y11283642D01*
X5812076Y11283924D01*
X5811935D01*
X5808834Y11286039D01*
X5806296Y11288435D01*
X5804323Y11290691D01*
X5802631Y11292946D01*
X5801363Y11294920D01*
X5800517Y11296470D01*
X5800235Y11297034D01*
X5799953Y11297457D01*
X5799812Y11297739D01*
Y11297880D01*
X5799248Y11299572D01*
X5798684Y11301404D01*
X5797838Y11305211D01*
X5797274Y11309158D01*
X5796852Y11312964D01*
X5796711Y11314656D01*
X5796570Y11316347D01*
Y11317757D01*
X5796429Y11319026D01*
Y11320012D01*
Y11320717D01*
Y11321281D01*
Y11321422D01*
Y11377810D01*
X5809398D01*
Y11321422D01*
Y11318180D01*
X5809680Y11315078D01*
X5809962Y11312400D01*
X5810385Y11309863D01*
X5810808Y11307607D01*
X5811371Y11305493D01*
X5811794Y11303660D01*
X5812358Y11302109D01*
X5812922Y11300840D01*
X5813486Y11299572D01*
X5814050Y11298726D01*
X5814473Y11297880D01*
X5814896Y11297316D01*
X5815178Y11296893D01*
X5815319Y11296752D01*
X5815460Y11296611D01*
X5816728Y11295484D01*
X5818138Y11294497D01*
X5821239Y11292946D01*
X5824482Y11291818D01*
X5827865Y11291114D01*
X5830966Y11290550D01*
X5832235Y11290409D01*
X5833504D01*
X5834350Y11290268D01*
X5835759D01*
X5838720Y11290409D01*
X5841398Y11290832D01*
X5843935Y11291255D01*
X5845909Y11291959D01*
X5847601Y11292523D01*
X5848869Y11292946D01*
X5849574Y11293369D01*
X5849856Y11293510D01*
X5851830Y11294779D01*
X5853521Y11296329D01*
X5854931Y11297880D01*
X5855918Y11299290D01*
X5856764Y11300700D01*
X5857469Y11301686D01*
X5857751Y11302391D01*
X5857892Y11302673D01*
X5858314Y11303942D01*
X5858596Y11305211D01*
X5859160Y11308171D01*
X5859583Y11311272D01*
X5859865Y11314374D01*
X5860006Y11317052D01*
Y11318321D01*
X5860147Y11319308D01*
Y11320153D01*
Y11320858D01*
Y11321281D01*
Y11321422D01*
Y11377810D01*
X5873116D01*
Y11321422D01*
D02*
G37*
%LPC*%
G36*
X5111449Y11589244D02*
X5110756D01*
X5109484Y11589128D01*
X5108213Y11589013D01*
X5107057Y11588666D01*
X5106017Y11588204D01*
X5104053Y11587164D01*
X5102319Y11586008D01*
X5101048Y11584737D01*
X5100008Y11583697D01*
X5099661Y11583234D01*
X5099430Y11582888D01*
X5099199Y11582772D01*
Y11582657D01*
X5098390Y11581270D01*
X5097696Y11579652D01*
X5097003Y11577803D01*
X5096540Y11575838D01*
X5096078Y11573758D01*
X5095731Y11571562D01*
X5095154Y11567170D01*
X5094922Y11564974D01*
X5094807Y11563010D01*
X5094691Y11561161D01*
Y11559658D01*
X5094576Y11558271D01*
Y11557231D01*
Y11556653D01*
Y11556538D01*
Y11556422D01*
Y11552839D01*
X5094807Y11549604D01*
X5095038Y11546714D01*
X5095269Y11543941D01*
X5095616Y11541629D01*
X5096078Y11539433D01*
X5096540Y11537584D01*
X5096887Y11535851D01*
X5097349Y11534464D01*
X5097812Y11533308D01*
X5098158Y11532268D01*
X5098621Y11531459D01*
X5098852Y11530881D01*
X5099083Y11530534D01*
X5099314Y11530303D01*
Y11530188D01*
X5100239Y11529032D01*
X5101163Y11528108D01*
X5102088Y11527183D01*
X5103012Y11526490D01*
X5104977Y11525334D01*
X5106711Y11524525D01*
X5108329Y11524063D01*
X5109484Y11523831D01*
X5109947Y11523716D01*
X5110640D01*
X5111911Y11523831D01*
X5113067Y11523947D01*
X5115263Y11524756D01*
X5117228Y11525796D01*
X5118961Y11526952D01*
X5120232Y11528108D01*
X5121272Y11529148D01*
X5121850Y11529957D01*
X5122081Y11530072D01*
Y11530188D01*
X5122890Y11531575D01*
X5123584Y11533193D01*
X5124277Y11535042D01*
X5124740Y11537006D01*
X5125202Y11539087D01*
X5125549Y11541282D01*
X5126126Y11545790D01*
X5126358Y11547870D01*
X5126473Y11549835D01*
X5126589Y11551684D01*
Y11553186D01*
X5126704Y11554573D01*
Y11555613D01*
Y11556191D01*
Y11556422D01*
X5126589Y11560005D01*
X5126473Y11563241D01*
X5126242Y11566246D01*
X5125895Y11569019D01*
X5125549Y11571446D01*
X5125086Y11573642D01*
X5124624Y11575607D01*
X5124162Y11577340D01*
X5123699Y11578843D01*
X5123353Y11580114D01*
X5122890Y11581154D01*
X5122544Y11582079D01*
X5122197Y11582657D01*
X5121966Y11583119D01*
X5121735Y11583350D01*
Y11583466D01*
X5120926Y11584506D01*
X5120117Y11585430D01*
X5119192Y11586124D01*
X5118268Y11586817D01*
X5116419Y11587857D01*
X5114685Y11588551D01*
X5113183Y11588897D01*
X5111911Y11589128D01*
X5111449Y11589244D01*
D02*
G37*
G36*
X6187092Y11087555D02*
X6156361D01*
X6152554Y11087414D01*
X6149312Y11086851D01*
X6146493Y11086146D01*
X6144378Y11085300D01*
X6142545Y11084454D01*
X6141418Y11083749D01*
X6140713Y11083185D01*
X6140431Y11083044D01*
X6138739Y11081212D01*
X6137471Y11079379D01*
X6136625Y11077406D01*
X6135920Y11075714D01*
X6135638Y11074022D01*
X6135497Y11072754D01*
X6135356Y11071908D01*
Y11071767D01*
Y11071626D01*
X6135497Y11069934D01*
X6135779Y11068243D01*
X6136202Y11066833D01*
X6136625Y11065564D01*
X6137189Y11064436D01*
X6137612Y11063591D01*
X6137893Y11063027D01*
X6138034Y11062886D01*
X6139021Y11061476D01*
X6140290Y11060207D01*
X6141559Y11059220D01*
X6142827Y11058375D01*
X6143955Y11057811D01*
X6144801Y11057388D01*
X6145365Y11057106D01*
X6145647Y11056965D01*
X6147620Y11056401D01*
X6149876Y11055978D01*
X6152131Y11055696D01*
X6154387Y11055555D01*
X6156361Y11055414D01*
X6158052Y11055273D01*
X6187092D01*
Y11087555D01*
D02*
G37*
G36*
X4650180Y10705921D02*
X4619449D01*
X4615643Y10705780D01*
X4612400Y10705216D01*
X4609581Y10704511D01*
X4607467Y10703665D01*
X4605634Y10702820D01*
X4604506Y10702115D01*
X4603801Y10701551D01*
X4603519Y10701410D01*
X4601828Y10699577D01*
X4600559Y10697745D01*
X4599713Y10695771D01*
X4599008Y10694079D01*
X4598726Y10692388D01*
X4598585Y10691119D01*
X4598444Y10690273D01*
Y10690132D01*
Y10689991D01*
X4598585Y10688300D01*
X4598867Y10686608D01*
X4599290Y10685198D01*
X4599713Y10683930D01*
X4600277Y10682802D01*
X4600700Y10681956D01*
X4600982Y10681392D01*
X4601123Y10681251D01*
X4602110Y10679841D01*
X4603378Y10678573D01*
X4604647Y10677586D01*
X4605916Y10676740D01*
X4607044Y10676176D01*
X4607889Y10675753D01*
X4608453Y10675471D01*
X4608735Y10675330D01*
X4610709Y10674767D01*
X4612964Y10674344D01*
X4615220Y10674062D01*
X4617475Y10673921D01*
X4619449Y10673780D01*
X4621141Y10673639D01*
X4650180D01*
Y10705921D01*
D02*
G37*
G36*
X4531484Y10697322D02*
Y10653621D01*
X4562215D01*
X4531484Y10697322D01*
D02*
G37*
G36*
X6123944Y10579767D02*
X6093213D01*
X6089407Y10579626D01*
X6086164Y10579062D01*
X6083345Y10578357D01*
X6081230Y10577511D01*
X6079398Y10576665D01*
X6078270Y10575961D01*
X6077565Y10575397D01*
X6077283Y10575256D01*
X6075592Y10573423D01*
X6074323Y10571590D01*
X6073477Y10569617D01*
X6072772Y10567925D01*
X6072490Y10566234D01*
X6072349Y10564965D01*
X6072208Y10564119D01*
Y10563978D01*
Y10563837D01*
X6072349Y10562146D01*
X6072631Y10560454D01*
X6073054Y10559044D01*
X6073477Y10557775D01*
X6074041Y10556648D01*
X6074464Y10555802D01*
X6074746Y10555238D01*
X6074887Y10555097D01*
X6075874Y10553687D01*
X6077142Y10552419D01*
X6078411Y10551432D01*
X6079680Y10550586D01*
X6080807Y10550022D01*
X6081653Y10549599D01*
X6082217Y10549317D01*
X6082499Y10549176D01*
X6084473Y10548612D01*
X6086728Y10548189D01*
X6088984Y10547908D01*
X6091239Y10547767D01*
X6093213Y10547626D01*
X6094904Y10547485D01*
X6123944D01*
Y10579767D01*
D02*
G37*
G36*
X4939371Y11949605D02*
X4916252D01*
X4913150Y11949323D01*
X4910754Y11949182D01*
X4908639Y11948900D01*
X4907089Y11948618D01*
X4906102Y11948477D01*
X4905397Y11948195D01*
X4905256D01*
X4903705Y11947631D01*
X4902296Y11946785D01*
X4901168Y11945940D01*
X4900181Y11945094D01*
X4899476Y11944389D01*
X4898912Y11943684D01*
X4898631Y11943261D01*
X4898490Y11943120D01*
X4897644Y11941710D01*
X4897080Y11940301D01*
X4896657Y11938891D01*
X4896375Y11937481D01*
X4896234Y11936354D01*
X4896093Y11935508D01*
Y11934944D01*
Y11934662D01*
X4896234Y11932829D01*
X4896516Y11931138D01*
X4896939Y11929728D01*
X4897362Y11928600D01*
X4897785Y11927613D01*
X4898208Y11926768D01*
X4898490Y11926345D01*
X4898631Y11926204D01*
X4899617Y11925076D01*
X4900886Y11923948D01*
X4902155Y11923102D01*
X4903283Y11922539D01*
X4904410Y11921975D01*
X4905256Y11921552D01*
X4905820Y11921411D01*
X4906102Y11921270D01*
X4907653Y11920988D01*
X4909626Y11920706D01*
X4911600Y11920565D01*
X4913573Y11920424D01*
X4915406Y11920283D01*
X4939371D01*
Y11949605D01*
D02*
G37*
G36*
Y11908723D02*
X4913714D01*
X4910754Y11908442D01*
X4908357Y11908160D01*
X4906384Y11907878D01*
X4904833Y11907596D01*
X4903564Y11907314D01*
X4903001Y11907173D01*
X4902719Y11907032D01*
X4900886Y11906327D01*
X4899335Y11905481D01*
X4897926Y11904494D01*
X4896798Y11903508D01*
X4895952Y11902662D01*
X4895388Y11901957D01*
X4894965Y11901393D01*
X4894824Y11901252D01*
X4893838Y11899701D01*
X4893133Y11898151D01*
X4892569Y11896600D01*
X4892287Y11895190D01*
X4892005Y11893922D01*
X4891864Y11892794D01*
Y11892230D01*
Y11891948D01*
X4892005Y11890256D01*
X4892146Y11888565D01*
X4892428Y11887155D01*
X4892851Y11886027D01*
X4893274Y11885040D01*
X4893556Y11884195D01*
X4893697Y11883772D01*
X4893838Y11883631D01*
X4894683Y11882362D01*
X4895388Y11881234D01*
X4896375Y11880388D01*
X4897080Y11879543D01*
X4897785Y11878979D01*
X4898349Y11878556D01*
X4898772Y11878274D01*
X4898912Y11878133D01*
X4901309Y11877005D01*
X4903705Y11876159D01*
X4904692Y11875877D01*
X4905538Y11875736D01*
X4906102Y11875596D01*
X4906243D01*
X4907371Y11875455D01*
X4908639Y11875314D01*
X4911600Y11875173D01*
X4939371D01*
Y11908723D01*
D02*
G37*
G36*
X5592280Y12310882D02*
X5591434D01*
X5588474Y12310600D01*
X5585795Y12309895D01*
X5583540Y12309049D01*
X5581566Y12307921D01*
X5580016Y12306794D01*
X5578888Y12305948D01*
X5578183Y12305243D01*
X5577901Y12304961D01*
X5576068Y12302564D01*
X5574659Y12300027D01*
X5573672Y12297349D01*
X5573108Y12294811D01*
X5572685Y12292556D01*
X5572544Y12291569D01*
Y12290723D01*
X5572403Y12290018D01*
Y12289454D01*
Y12289172D01*
Y12289031D01*
X5572685Y12285225D01*
X5573249Y12281983D01*
X5574095Y12279163D01*
X5575082Y12276767D01*
X5576209Y12274934D01*
X5577055Y12273525D01*
X5577619Y12272679D01*
X5577901Y12272538D01*
Y12272397D01*
X5578888Y12271269D01*
X5580016Y12270423D01*
X5582271Y12268873D01*
X5584527Y12267886D01*
X5586500Y12267040D01*
X5588333Y12266617D01*
X5589742Y12266476D01*
X5590306Y12266335D01*
X5591011D01*
X5592985Y12266476D01*
X5594817Y12266758D01*
X5596509Y12267322D01*
X5597919Y12267886D01*
X5599187Y12268309D01*
X5600174Y12268873D01*
X5600738Y12269155D01*
X5601020Y12269296D01*
X5602712Y12270564D01*
X5604121Y12271833D01*
X5605390Y12273384D01*
X5606377Y12274652D01*
X5607223Y12275921D01*
X5607787Y12276908D01*
X5608210Y12277613D01*
X5608350Y12277895D01*
X5609196Y12280009D01*
X5609760Y12282124D01*
X5610324Y12284097D01*
X5610606Y12285930D01*
X5610747Y12287481D01*
X5610888Y12288749D01*
Y12289454D01*
Y12289736D01*
X5610606Y12293119D01*
X5610042Y12296080D01*
X5609055Y12298758D01*
X5608069Y12300873D01*
X5607082Y12302705D01*
X5606095Y12303974D01*
X5605531Y12304679D01*
X5605249Y12304961D01*
X5602994Y12306934D01*
X5600738Y12308344D01*
X5598342Y12309472D01*
X5596227Y12310177D01*
X5594253Y12310600D01*
X5592844Y12310741D01*
X5592280Y12310882D01*
D02*
G37*
G36*
X5704492Y12344855D02*
X5673761D01*
X5669954Y12344714D01*
X5666712Y12344151D01*
X5663893Y12343446D01*
X5661778Y12342600D01*
X5659945Y12341754D01*
X5658818Y12341049D01*
X5658113Y12340485D01*
X5657831Y12340344D01*
X5656139Y12338512D01*
X5654871Y12336679D01*
X5654025Y12334706D01*
X5653320Y12333014D01*
X5653038Y12331322D01*
X5652897Y12330054D01*
X5652756Y12329208D01*
Y12329067D01*
Y12328926D01*
X5652897Y12327234D01*
X5653179Y12325543D01*
X5653602Y12324133D01*
X5654025Y12322864D01*
X5654589Y12321736D01*
X5655012Y12320891D01*
X5655293Y12320327D01*
X5655434Y12320186D01*
X5656421Y12318776D01*
X5657690Y12317507D01*
X5658959Y12316520D01*
X5660227Y12315675D01*
X5661355Y12315111D01*
X5662201Y12314688D01*
X5662765Y12314406D01*
X5663047Y12314265D01*
X5665020Y12313701D01*
X5667276Y12313278D01*
X5669531Y12312996D01*
X5671787Y12312855D01*
X5673761Y12312714D01*
X5675452Y12312573D01*
X5704492D01*
Y12344855D01*
D02*
G37*
G36*
X5769163Y11736031D02*
X5768036D01*
X5765639Y11735890D01*
X5763384Y11735326D01*
X5761551Y11734621D01*
X5759859Y11733775D01*
X5758591Y11732929D01*
X5757604Y11732224D01*
X5756899Y11731661D01*
X5756758Y11731520D01*
X5755207Y11729687D01*
X5754080Y11727854D01*
X5753234Y11726022D01*
X5752670Y11724330D01*
X5752388Y11722779D01*
X5752106Y11721511D01*
Y11720665D01*
Y11720524D01*
Y11720383D01*
X5752247Y11718127D01*
X5752811Y11716013D01*
X5753516Y11714180D01*
X5754362Y11712630D01*
X5755207Y11711361D01*
X5755912Y11710515D01*
X5756476Y11709810D01*
X5756617Y11709669D01*
X5758309Y11708260D01*
X5760282Y11707132D01*
X5762115Y11706427D01*
X5763948Y11705863D01*
X5765639Y11705581D01*
X5766908Y11705440D01*
X5767754Y11705299D01*
X5768036D01*
X5770573Y11705440D01*
X5772829Y11706004D01*
X5774802Y11706709D01*
X5776494Y11707555D01*
X5777763Y11708260D01*
X5778749Y11708964D01*
X5779454Y11709528D01*
X5779595Y11709669D01*
X5781005Y11711361D01*
X5782133Y11713334D01*
X5782838Y11715167D01*
X5783401Y11717000D01*
X5783683Y11718550D01*
X5783824Y11719819D01*
X5783965Y11720665D01*
Y11720806D01*
Y11720947D01*
X5783824Y11723202D01*
X5783260Y11725176D01*
X5782556Y11727009D01*
X5781710Y11728559D01*
X5781005Y11729828D01*
X5780300Y11730815D01*
X5779736Y11731379D01*
X5779595Y11731520D01*
X5777763Y11733070D01*
X5775930Y11734198D01*
X5773956Y11734903D01*
X5772124Y11735467D01*
X5770432Y11735749D01*
X5769163Y11736031D01*
D02*
G37*
G36*
X5769304Y11695572D02*
X5768459D01*
X5765357Y11695290D01*
X5762538Y11694726D01*
X5760000Y11693740D01*
X5757886Y11692753D01*
X5756194Y11691625D01*
X5754925Y11690638D01*
X5754221Y11690074D01*
X5753939Y11689792D01*
X5751965Y11687537D01*
X5750555Y11685140D01*
X5749569Y11682744D01*
X5748864Y11680629D01*
X5748441Y11678515D01*
X5748300Y11676964D01*
X5748159Y11676400D01*
Y11675977D01*
Y11675695D01*
Y11675554D01*
X5748441Y11672594D01*
X5749005Y11669775D01*
X5749992Y11667378D01*
X5750978Y11665405D01*
X5751965Y11663854D01*
X5752952Y11662585D01*
X5753516Y11661880D01*
X5753798Y11661598D01*
X5756053Y11659766D01*
X5758309Y11658356D01*
X5760705Y11657510D01*
X5762961Y11656805D01*
X5764934Y11656383D01*
X5766626Y11656242D01*
X5767190Y11656101D01*
X5768036D01*
X5770009Y11656242D01*
X5771983Y11656524D01*
X5773815Y11656946D01*
X5775366Y11657369D01*
X5776635Y11657792D01*
X5777622Y11658215D01*
X5778186Y11658497D01*
X5778467Y11658638D01*
X5780159Y11659766D01*
X5781569Y11660894D01*
X5782838Y11662162D01*
X5783824Y11663431D01*
X5784670Y11664418D01*
X5785234Y11665264D01*
X5785516Y11665969D01*
X5785657Y11666110D01*
X5786362Y11667942D01*
X5786926Y11669634D01*
X5787349Y11671325D01*
X5787631Y11672876D01*
X5787772Y11674145D01*
X5787912Y11675132D01*
Y11675695D01*
Y11675977D01*
X5787631Y11678938D01*
X5787067Y11681616D01*
X5786221Y11684013D01*
X5785093Y11686127D01*
X5784106Y11687678D01*
X5783260Y11688947D01*
X5782697Y11689651D01*
X5782415Y11689933D01*
X5780300Y11691766D01*
X5777904Y11693176D01*
X5775648Y11694163D01*
X5773393Y11694867D01*
X5771419Y11695290D01*
X5769868Y11695431D01*
X5769304Y11695572D01*
D02*
G37*
G36*
X6010041Y11736031D02*
X6007785D01*
X6006375Y11735749D01*
X6003838Y11735044D01*
X6001582Y11734057D01*
X5999609Y11733070D01*
X5998058Y11731942D01*
X5996930Y11730956D01*
X5996225Y11730251D01*
X5995944Y11730110D01*
Y11729969D01*
X5994111Y11727572D01*
X5992701Y11724894D01*
X5991714Y11722075D01*
X5991151Y11719396D01*
X5990728Y11717141D01*
X5990587Y11716154D01*
Y11715167D01*
X5990446Y11714462D01*
Y11713898D01*
Y11713616D01*
Y11713475D01*
X5990728Y11709810D01*
X5991292Y11706568D01*
X5992137Y11703889D01*
X5993124Y11701634D01*
X5994252Y11699801D01*
X5995098Y11698533D01*
X5995662Y11697687D01*
X5995944Y11697405D01*
X5998058Y11695431D01*
X6000314Y11694022D01*
X6002569Y11693035D01*
X6004825Y11692330D01*
X6006657Y11691907D01*
X6008208Y11691766D01*
X6008772Y11691625D01*
X6009618D01*
X6012578Y11691907D01*
X6015256Y11692471D01*
X6017653Y11693458D01*
X6019767Y11694585D01*
X6021318Y11695572D01*
X6022587Y11696559D01*
X6023292Y11697123D01*
X6023574Y11697405D01*
X6025406Y11699660D01*
X6026816Y11702198D01*
X6027662Y11704735D01*
X6028367Y11707132D01*
X6028790Y11709246D01*
X6028931Y11710092D01*
Y11710938D01*
X6029072Y11711643D01*
Y11712066D01*
Y11712348D01*
Y11712489D01*
X6028790Y11716154D01*
X6028226Y11719537D01*
X6027239Y11722498D01*
X6026111Y11724894D01*
X6025124Y11726868D01*
X6024138Y11728277D01*
X6023856Y11728700D01*
X6023574Y11729123D01*
X6023292Y11729264D01*
Y11729405D01*
X6022164Y11730533D01*
X6021036Y11731661D01*
X6018640Y11733211D01*
X6016243Y11734480D01*
X6013988Y11735185D01*
X6012155Y11735749D01*
X6010604Y11735890D01*
X6010041Y11736031D01*
D02*
G37*
G36*
X5805598Y10350110D02*
X5774867D01*
X5771061Y10349969D01*
X5767819Y10349405D01*
X5764999Y10348700D01*
X5762885Y10347854D01*
X5761052Y10347008D01*
X5759924Y10346303D01*
X5759219Y10345740D01*
X5758937Y10345599D01*
X5757246Y10343766D01*
X5755977Y10341933D01*
X5755131Y10339960D01*
X5754426Y10338268D01*
X5754144Y10336576D01*
X5754003Y10335308D01*
X5753863Y10334462D01*
Y10334321D01*
Y10334180D01*
X5754003Y10332488D01*
X5754285Y10330797D01*
X5754708Y10329387D01*
X5755131Y10328118D01*
X5755695Y10326991D01*
X5756118Y10326145D01*
X5756400Y10325581D01*
X5756541Y10325440D01*
X5757528Y10324030D01*
X5758796Y10322761D01*
X5760065Y10321775D01*
X5761334Y10320929D01*
X5762462Y10320365D01*
X5763307Y10319942D01*
X5763871Y10319660D01*
X5764153Y10319519D01*
X5766127Y10318955D01*
X5768382Y10318532D01*
X5770638Y10318250D01*
X5772893Y10318109D01*
X5774867Y10317968D01*
X5776559Y10317827D01*
X5805598D01*
Y10350110D01*
D02*
G37*
G36*
X5060047D02*
X5029316D01*
X5025509Y10349969D01*
X5022267Y10349405D01*
X5019448Y10348700D01*
X5017333Y10347854D01*
X5015501Y10347008D01*
X5014373Y10346303D01*
X5013668Y10345740D01*
X5013386Y10345599D01*
X5011694Y10343766D01*
X5010426Y10341933D01*
X5009580Y10339960D01*
X5008875Y10338268D01*
X5008593Y10336576D01*
X5008452Y10335308D01*
X5008311Y10334462D01*
Y10334321D01*
Y10334180D01*
X5008452Y10332488D01*
X5008734Y10330797D01*
X5009157Y10329387D01*
X5009580Y10328118D01*
X5010144Y10326991D01*
X5010567Y10326145D01*
X5010848Y10325581D01*
X5010989Y10325440D01*
X5011976Y10324030D01*
X5013245Y10322761D01*
X5014514Y10321775D01*
X5015782Y10320929D01*
X5016910Y10320365D01*
X5017756Y10319942D01*
X5018320Y10319660D01*
X5018602Y10319519D01*
X5020575Y10318955D01*
X5022831Y10318532D01*
X5025086Y10318250D01*
X5027342Y10318109D01*
X5029316Y10317968D01*
X5031007Y10317827D01*
X5060047D01*
Y10350110D01*
D02*
G37*
%LPD*%
D52*
X5576500Y10501900D02*
G03*
X5576500Y10501900I-12500J0D01*
G01*
D53*
X4927600Y11682300D02*
Y11787300D01*
X5649490Y10899400D02*
X5659000D01*
X5419490D02*
X5478509D01*
X5189490D02*
X5248510D01*
X5009000D02*
X5018510D01*
X5009000D02*
Y11249400D01*
X5534490D02*
X5659000D01*
X5009000D02*
X5133510D01*
X5659000Y10899400D02*
Y11249400D01*
%TF.MD5,69f81e29c4a56cb632ee632eefe178d8*%
M02*
