%TF.GenerationSoftware,Altium Limited,Altium Designer,26.5.1 (12)*%
G04 Layer_Color=16711935*
G04 Board_Origin=0|0*
%FSLAX45Y45*%
%MOMM*%
%TF.SameCoordinates,62A7B766-ACB9-45BE-ACEC-DECC99EEDB6B*%
%TF.FilePolarity,Negative*%
%TF.FileFunction,Soldermask,Bot*%
%TF.Part,Single*%
G01*
G75*
%TA.AperFunction,ComponentPad*%
%ADD30C,0.65000*%
%TA.AperFunction,SMDPad,CuDef*%
G04:AMPARAMS|DCode=46|XSize=2.20415mm|YSize=3.25981mm|CornerRadius=0.48491mm|HoleSize=0mm|Usage=FLASHONLY|Rotation=90.000|XOffset=0mm|YOffset=0mm|HoleType=Round|Shape=RoundedRectangle|*
%AMROUNDEDRECTD46*
21,1,2.20415,2.28998,0,0,90.0*
21,1,1.23432,3.25981,0,0,90.0*
1,1,0.96983,1.14499,0.61716*
1,1,0.96983,1.14499,-0.61716*
1,1,0.96983,-1.14499,-0.61716*
1,1,0.96983,-1.14499,0.61716*
%
%ADD46ROUNDEDRECTD46*%
G04:AMPARAMS|DCode=47|XSize=2.20415mm|YSize=0.95981mm|CornerRadius=0.4799mm|HoleSize=0mm|Usage=FLASHONLY|Rotation=90.000|XOffset=0mm|YOffset=0mm|HoleType=Round|Shape=RoundedRectangle|*
%AMROUNDEDRECTD47*
21,1,2.20415,0.00000,0,0,90.0*
21,1,1.24435,0.95981,0,0,90.0*
1,1,0.95981,0.00000,0.62217*
1,1,0.95981,0.00000,-0.62217*
1,1,0.95981,0.00000,-0.62217*
1,1,0.95981,0.00000,0.62217*
%
%ADD47ROUNDEDRECTD47*%
%ADD48R,0.95981X2.20415*%
G04:AMPARAMS|DCode=60|XSize=1.6032mm|YSize=1.9032mm|CornerRadius=0.2766mm|HoleSize=0mm|Usage=FLASHONLY|Rotation=180.000|XOffset=0mm|YOffset=0mm|HoleType=Round|Shape=RoundedRectangle|*
%AMROUNDEDRECTD60*
21,1,1.60320,1.35000,0,0,180.0*
21,1,1.05000,1.90320,0,0,180.0*
1,1,0.55320,-0.52500,0.67500*
1,1,0.55320,0.52500,0.67500*
1,1,0.55320,0.52500,-0.67500*
1,1,0.55320,-0.52500,-0.67500*
%
%ADD60ROUNDEDRECTD60*%
G04:AMPARAMS|DCode=64|XSize=1.2032mm|YSize=1.9032mm|CornerRadius=0.2266mm|HoleSize=0mm|Usage=FLASHONLY|Rotation=270.000|XOffset=0mm|YOffset=0mm|HoleType=Round|Shape=RoundedRectangle|*
%AMROUNDEDRECTD64*
21,1,1.20320,1.45000,0,0,270.0*
21,1,0.75000,1.90320,0,0,270.0*
1,1,0.45320,-0.72500,-0.37500*
1,1,0.45320,-0.72500,0.37500*
1,1,0.45320,0.72500,0.37500*
1,1,0.45320,0.72500,-0.37500*
%
%ADD64ROUNDEDRECTD64*%
G04:AMPARAMS|DCode=65|XSize=1.6032mm|YSize=1.9032mm|CornerRadius=0.2766mm|HoleSize=0mm|Usage=FLASHONLY|Rotation=90.000|XOffset=0mm|YOffset=0mm|HoleType=Round|Shape=RoundedRectangle|*
%AMROUNDEDRECTD65*
21,1,1.60320,1.35000,0,0,90.0*
21,1,1.05000,1.90320,0,0,90.0*
1,1,0.55320,0.67500,0.52500*
1,1,0.55320,0.67500,-0.52500*
1,1,0.55320,-0.67500,-0.52500*
1,1,0.55320,-0.67500,0.52500*
%
%ADD65ROUNDEDRECTD65*%
%TA.AperFunction,ComponentPad*%
%ADD67C,2.00320*%
%ADD68O,1.20400X2.30400*%
%ADD69O,1.20400X2.00400*%
%ADD70R,2.00320X2.00320*%
%TA.AperFunction,ViaPad*%
%ADD71C,0.80320*%
%ADD72C,0.90320*%
%TA.AperFunction,SMDPad,CuDef*%
%ADD73R,1.40320X1.65320*%
D30*
X5623000Y10481250D02*
D03*
X5045000D02*
D03*
D46*
X5334000Y11384400D02*
D03*
D47*
X5104000Y10764400D02*
D03*
X5334000D02*
D03*
D48*
X5564000D02*
D03*
D60*
X5219700Y11709400D02*
D03*
X5448300D02*
D03*
X5270500Y12953999D02*
D03*
X4714115Y11480800D02*
D03*
X4942715D02*
D03*
X5499100Y12953999D02*
D03*
D64*
X5435600Y12097000D02*
D03*
X5511800Y10141200D02*
D03*
X5207000D02*
D03*
X5892800Y10818835D02*
D03*
Y11008835D02*
D03*
X4641625Y10192000D02*
D03*
Y10382000D02*
D03*
X6045200Y10192000D02*
D03*
Y10382000D02*
D03*
X5435600Y12287000D02*
D03*
X5511800Y10331200D02*
D03*
X5207000D02*
D03*
D65*
X6045200Y11849100D02*
D03*
X5715000D02*
D03*
X5181600Y12052300D02*
D03*
X4826000Y11010900D02*
D03*
X5181600Y12280900D02*
D03*
X5715000Y12077700D02*
D03*
X6045200D02*
D03*
X4826000Y10782300D02*
D03*
D67*
X6350000Y10160000D02*
D03*
X4318000Y13716000D02*
D03*
Y10160000D02*
D03*
Y10414000D02*
D03*
Y10668000D02*
D03*
Y10922000D02*
D03*
Y11176000D02*
D03*
Y11430000D02*
D03*
Y11684000D02*
D03*
Y11938000D02*
D03*
Y12192000D02*
D03*
Y12446000D02*
D03*
Y12700000D02*
D03*
Y12953999D02*
D03*
Y13208000D02*
D03*
Y13462000D02*
D03*
X6350000Y10414000D02*
D03*
Y10668000D02*
D03*
Y10922000D02*
D03*
Y11176000D02*
D03*
Y11430000D02*
D03*
Y11684000D02*
D03*
Y11938000D02*
D03*
Y12192000D02*
D03*
Y12446000D02*
D03*
Y12700000D02*
D03*
Y12953999D02*
D03*
Y13208000D02*
D03*
Y13462000D02*
D03*
Y13716000D02*
D03*
D68*
X5766000Y10531250D02*
D03*
X4902000D02*
D03*
D69*
X5766000Y10113250D02*
D03*
X4902000D02*
D03*
D70*
X4318000Y13970000D02*
D03*
X6350000D02*
D03*
D71*
X5943600Y10668000D02*
D03*
X5854700Y12953999D02*
D03*
X5880100Y12065000D02*
D03*
X5892800Y11849100D02*
D03*
X5435600Y11125200D02*
D03*
X5727700Y10909300D02*
D03*
X5778500Y12484100D02*
D03*
X5842000Y12623800D02*
D03*
X5829300Y12738100D02*
D03*
X5943600Y12471400D02*
D03*
X6096000Y10731500D02*
D03*
X4889500Y12776200D02*
D03*
X5842000Y13284200D02*
D03*
X5575300Y14097000D02*
D03*
X5503944Y12732695D02*
D03*
X5461000Y13131799D02*
D03*
X5385242Y13884470D02*
D03*
X5080000Y14097000D02*
D03*
X5334000Y11988800D02*
D03*
X5321300Y11849100D02*
D03*
X4535536Y13709901D02*
D03*
X4810033Y11160799D02*
D03*
X5511800Y10464800D02*
D03*
X5092700Y12712700D02*
D03*
X5192923Y12765884D02*
D03*
X5054600Y12611100D02*
D03*
X4759951Y12028556D02*
D03*
X4711700Y11887200D02*
D03*
X4533900Y13970000D02*
D03*
X4622800Y10541000D02*
D03*
X6083300Y10883900D02*
D03*
X5562600Y11163300D02*
D03*
X5651500Y11252200D02*
D03*
Y11391900D02*
D03*
Y11506200D02*
D03*
X5676900Y11633200D02*
D03*
X5448300Y11874500D02*
D03*
X5545397Y11942644D02*
D03*
X5626100Y12623800D02*
D03*
X5588000Y12204700D02*
D03*
X5575300Y13881100D02*
D03*
X5041900Y12166600D02*
D03*
X4699000Y11671300D02*
D03*
X5334000Y11557000D02*
D03*
X5397500Y12382500D02*
D03*
X5181600Y13868401D02*
D03*
X5359400Y12700000D02*
D03*
X5207000Y10464800D02*
D03*
X6046104Y10038836D02*
D03*
X4631699Y10041409D02*
D03*
D72*
X4991100Y10782300D02*
D03*
X5999998Y13799995D02*
D03*
X6149998Y13499995D02*
D03*
Y12299996D02*
D03*
X5549998Y13499995D02*
D03*
X4799999Y13799995D02*
D03*
X4649999Y13499995D02*
D03*
X4499999Y13199995D02*
D03*
Y12599996D02*
D03*
X5538800Y10999800D02*
D03*
X5112900Y11384400D02*
D03*
X5687687Y10742287D02*
D03*
D73*
X4837600Y11734800D02*
D03*
X5017600D02*
D03*
%TF.MD5,e547c8ec3560256bebc41fd71f4f614b*%
M02*
