%TF.GenerationSoftware,Altium Limited,Altium Designer,26.5.1 (12)*%
G04 Layer_Color=8388736*
G04 Board_Origin=0|0*
%FSLAX45Y45*%
%MOMM*%
%TF.SameCoordinates,62A7B766-ACB9-45BE-ACEC-DECC99EEDB6B*%
%TF.FilePolarity,Negative*%
%TF.FileFunction,Soldermask,Top*%
%TF.Part,Single*%
G01*
G75*
%TA.AperFunction,ComponentPad*%
%ADD30C,0.65000*%
%TA.AperFunction,SMDPad,CuDef*%
%ADD57R,1.10320X1.45321*%
%ADD58R,1.60320X1.40320*%
%ADD59R,1.40320X2.00320*%
G04:AMPARAMS|DCode=60|XSize=1.6032mm|YSize=1.9032mm|CornerRadius=0.2766mm|HoleSize=0mm|Usage=FLASHONLY|Rotation=180.000|XOffset=0mm|YOffset=0mm|HoleType=Round|Shape=RoundedRectangle|*
%AMROUNDEDRECTD60*
21,1,1.60320,1.35000,0,0,180.0*
21,1,1.05000,1.90320,0,0,180.0*
1,1,0.55320,-0.52500,0.67500*
1,1,0.55320,0.52500,0.67500*
1,1,0.55320,0.52500,-0.67500*
1,1,0.55320,-0.52500,-0.67500*
%
%ADD60ROUNDEDRECTD60*%
G04:AMPARAMS|DCode=61|XSize=1.6782mm|YSize=0.5032mm|CornerRadius=0mm|HoleSize=0mm|Usage=FLASHONLY|Rotation=45.000|XOffset=0mm|YOffset=0mm|HoleType=Round|Shape=Rectangle|*
%AMROTATEDRECTD61*
4,1,4,-0.41543,-0.77124,-0.77124,-0.41543,0.41543,0.77124,0.77124,0.41543,-0.41543,-0.77124,0.0*
%
%ADD61ROTATEDRECTD61*%

%ADD62R,0.80320X1.75320*%
G04:AMPARAMS|DCode=63|XSize=1.6782mm|YSize=0.5032mm|CornerRadius=0mm|HoleSize=0mm|Usage=FLASHONLY|Rotation=315.000|XOffset=0mm|YOffset=0mm|HoleType=Round|Shape=Rectangle|*
%AMROTATEDRECTD63*
4,1,4,-0.77124,0.41543,-0.41543,0.77124,0.77124,-0.41543,0.41543,-0.77124,-0.77124,0.41543,0.0*
%
%ADD63ROTATEDRECTD63*%

G04:AMPARAMS|DCode=64|XSize=1.2032mm|YSize=1.9032mm|CornerRadius=0.2266mm|HoleSize=0mm|Usage=FLASHONLY|Rotation=270.000|XOffset=0mm|YOffset=0mm|HoleType=Round|Shape=RoundedRectangle|*
%AMROUNDEDRECTD64*
21,1,1.20320,1.45000,0,0,270.0*
21,1,0.75000,1.90320,0,0,270.0*
1,1,0.45320,-0.72500,-0.37500*
1,1,0.45320,-0.72500,0.37500*
1,1,0.45320,0.72500,0.37500*
1,1,0.45320,0.72500,-0.37500*
%
%ADD64ROUNDEDRECTD64*%
G04:AMPARAMS|DCode=65|XSize=1.6032mm|YSize=1.9032mm|CornerRadius=0.2766mm|HoleSize=0mm|Usage=FLASHONLY|Rotation=90.000|XOffset=0mm|YOffset=0mm|HoleType=Round|Shape=RoundedRectangle|*
%AMROUNDEDRECTD65*
21,1,1.60320,1.35000,0,0,90.0*
21,1,1.05000,1.90320,0,0,90.0*
1,1,0.55320,0.67500,0.52500*
1,1,0.55320,0.67500,-0.52500*
1,1,0.55320,-0.67500,-0.52500*
1,1,0.55320,-0.67500,0.52500*
%
%ADD65ROUNDEDRECTD65*%
%ADD66R,0.90320X1.45321*%
%TA.AperFunction,ComponentPad*%
%ADD67C,2.00320*%
%ADD68O,1.20400X2.30400*%
%ADD69O,1.20400X2.00400*%
%ADD70R,2.00320X2.00320*%
%TA.AperFunction,ViaPad*%
%ADD71C,0.80320*%
%ADD72C,0.90320*%
G36*
X5049000Y10526250D02*
X4979000D01*
Y10650250D01*
X5049000D01*
Y10526250D01*
D02*
G37*
G36*
X5129000D02*
X5059000D01*
Y10650250D01*
X5129000D01*
Y10526250D01*
D02*
G37*
G36*
X5179000D02*
X5139000D01*
Y10650250D01*
X5179000D01*
Y10526250D01*
D02*
G37*
G36*
X5229000D02*
X5189000D01*
Y10650250D01*
X5229000D01*
Y10526250D01*
D02*
G37*
G36*
X5279000D02*
X5239000D01*
Y10650250D01*
X5279000D01*
Y10526250D01*
D02*
G37*
G36*
X5329000D02*
X5289000D01*
Y10650250D01*
X5329000D01*
Y10526250D01*
D02*
G37*
G36*
X5379000D02*
X5339000D01*
Y10650250D01*
X5379000D01*
Y10526250D01*
D02*
G37*
G36*
X5429000D02*
X5389000D01*
Y10650250D01*
X5429000D01*
Y10526250D01*
D02*
G37*
G36*
X5479000D02*
X5439000D01*
Y10650250D01*
X5479000D01*
Y10526250D01*
D02*
G37*
G36*
X5529000D02*
X5489000D01*
Y10650250D01*
X5529000D01*
Y10526250D01*
D02*
G37*
G36*
X5609000D02*
X5539000D01*
Y10650250D01*
X5609000D01*
Y10526250D01*
D02*
G37*
G36*
X5689000D02*
X5619000D01*
Y10650250D01*
X5689000D01*
Y10526250D01*
D02*
G37*
D30*
X5623000Y10481250D02*
D03*
X5045000D02*
D03*
D57*
X5922010Y13084401D02*
D03*
Y13469414D02*
D03*
X5761990D02*
D03*
Y13084401D02*
D03*
D58*
X5012200Y13387308D02*
D03*
X4792200D02*
D03*
Y13217307D02*
D03*
X5012200D02*
D03*
D59*
X5714000Y14112500D02*
D03*
X4954000D02*
D03*
D60*
X5499100Y12946707D02*
D03*
X5016500D02*
D03*
X4737100Y11506200D02*
D03*
X4787900Y12946707D02*
D03*
X5270500D02*
D03*
X4965700Y11506200D02*
D03*
D61*
X5474573Y12549171D02*
D03*
X5193427Y11631629D02*
D03*
X5052006Y11773051D02*
D03*
X5651349Y12372394D02*
D03*
X5686705Y12337039D02*
D03*
X5615994Y12407749D02*
D03*
X5757415Y12266328D02*
D03*
X5580639Y12443105D02*
D03*
X5509928Y12513815D02*
D03*
X4839874Y11985183D02*
D03*
X4875229Y11949827D02*
D03*
X4910585Y11914472D02*
D03*
X4945940Y11879116D02*
D03*
X4981295Y11843761D02*
D03*
X5016651Y11808406D02*
D03*
X5087361Y11737695D02*
D03*
X5122716Y11702340D02*
D03*
X5158072Y11666985D02*
D03*
X5228783Y11596274D02*
D03*
X5828126Y12195617D02*
D03*
X5792771Y12230973D02*
D03*
X5722060Y12301684D02*
D03*
X5545284Y12478460D02*
D03*
X5439217Y12584526D02*
D03*
D62*
X5384000Y13725000D02*
D03*
X5584000D02*
D03*
X5484000D02*
D03*
X5284000D02*
D03*
X5184000D02*
D03*
X5084000D02*
D03*
D63*
X5792771Y11949827D02*
D03*
X4875229Y12230973D02*
D03*
X5509928Y11666985D02*
D03*
X5580639Y11737695D02*
D03*
X5439217Y11596274D02*
D03*
X5615994Y11773051D02*
D03*
X5474573Y11631629D02*
D03*
X5651349Y11808406D02*
D03*
X5545284Y11702340D02*
D03*
X5757415Y11914472D02*
D03*
X5228783Y12584526D02*
D03*
X5193427Y12549171D02*
D03*
X5158072Y12513815D02*
D03*
X5122716Y12478460D02*
D03*
X5087361Y12443105D02*
D03*
X5052006Y12407749D02*
D03*
X5016651Y12372394D02*
D03*
X4981295Y12337039D02*
D03*
X4945940Y12301684D02*
D03*
X4910585Y12266328D02*
D03*
X4839874Y12195617D02*
D03*
X5686705Y11843761D02*
D03*
X5722060Y11879116D02*
D03*
X5828126Y11985183D02*
D03*
D64*
X6045200Y10382000D02*
D03*
X4641625D02*
D03*
X5892800Y11008835D02*
D03*
Y10818835D02*
D03*
X4641625Y10192000D02*
D03*
X6045200D02*
D03*
D65*
X5283200Y13162607D02*
D03*
X5003800Y11010900D02*
D03*
Y11239500D02*
D03*
X5283200Y13391206D02*
D03*
D66*
X5239004Y10999800D02*
D03*
X5334000Y11199800D02*
D03*
X5428996Y10999800D02*
D03*
D67*
X6350000Y10160000D02*
D03*
X4318000Y13716000D02*
D03*
Y10160000D02*
D03*
Y10414000D02*
D03*
Y10668000D02*
D03*
Y10922000D02*
D03*
Y11176000D02*
D03*
Y11430000D02*
D03*
Y11684000D02*
D03*
Y11938000D02*
D03*
Y12192000D02*
D03*
Y12446000D02*
D03*
Y12700000D02*
D03*
Y12953999D02*
D03*
Y13208000D02*
D03*
Y13462000D02*
D03*
X6350000Y10414000D02*
D03*
Y10668000D02*
D03*
Y10922000D02*
D03*
Y11176000D02*
D03*
Y11430000D02*
D03*
Y11684000D02*
D03*
Y11938000D02*
D03*
Y12192000D02*
D03*
Y12446000D02*
D03*
Y12700000D02*
D03*
Y12953999D02*
D03*
Y13208000D02*
D03*
Y13462000D02*
D03*
Y13716000D02*
D03*
D68*
X5766000Y10531250D02*
D03*
X4902000D02*
D03*
D69*
X5766000Y10113250D02*
D03*
X4902000D02*
D03*
D70*
X4318000Y13970000D02*
D03*
X6350000D02*
D03*
D71*
X5943600Y10668000D02*
D03*
X5854700Y12953999D02*
D03*
X5880100Y12065000D02*
D03*
X5892800Y11849100D02*
D03*
X5435600Y11125200D02*
D03*
X5727700Y10909300D02*
D03*
X5778500Y12484100D02*
D03*
X5842000Y12623800D02*
D03*
X5829300Y12738100D02*
D03*
X5943600Y12471400D02*
D03*
X6096000Y10731500D02*
D03*
X4889500Y12776200D02*
D03*
X5842000Y13284200D02*
D03*
X5575300Y14097000D02*
D03*
X5503944Y12732695D02*
D03*
X5461000Y13131799D02*
D03*
X5385242Y13884470D02*
D03*
X5080000Y14097000D02*
D03*
X5334000Y11988800D02*
D03*
X5321300Y11849100D02*
D03*
X4535536Y13709901D02*
D03*
X4810033Y11160799D02*
D03*
X5511800Y10464800D02*
D03*
X5092700Y12712700D02*
D03*
X5192923Y12765884D02*
D03*
X5054600Y12611100D02*
D03*
X4759951Y12028556D02*
D03*
X4711700Y11887200D02*
D03*
X4533900Y13970000D02*
D03*
X4622800Y10541000D02*
D03*
X6083300Y10883900D02*
D03*
X5562600Y11163300D02*
D03*
X5651500Y11252200D02*
D03*
Y11391900D02*
D03*
Y11506200D02*
D03*
X5676900Y11633200D02*
D03*
X5448300Y11874500D02*
D03*
X5545397Y11942644D02*
D03*
X5626100Y12623800D02*
D03*
X5588000Y12204700D02*
D03*
X5575300Y13881100D02*
D03*
X5041900Y12166600D02*
D03*
X4699000Y11671300D02*
D03*
X5334000Y11557000D02*
D03*
X5397500Y12382500D02*
D03*
X5181600Y13868401D02*
D03*
X5359400Y12700000D02*
D03*
X5207000Y10464800D02*
D03*
X6046104Y10038836D02*
D03*
X4631699Y10041409D02*
D03*
D72*
X4991100Y10782300D02*
D03*
X5999998Y13799995D02*
D03*
X6149998Y13499995D02*
D03*
Y12299996D02*
D03*
X5549998Y13499995D02*
D03*
X4799999Y13799995D02*
D03*
X4649999Y13499995D02*
D03*
X4499999Y13199995D02*
D03*
Y12599996D02*
D03*
X5538800Y10999800D02*
D03*
X5112900Y11384400D02*
D03*
X5687687Y10742287D02*
D03*
%TF.MD5,cfff1541b525033159aba99adb669ed9*%
M02*
